<?xml version="1.0" encoding="utf-8"?>
<!-- Generator: Adobe Illustrator 18.0.0, SVG Export Plug-In . SVG Version: 6.00 Build 0)  -->
<!DOCTYPE svg PUBLIC "-//W3C//DTD SVG 1.1//EN" "http://www.w3.org/Graphics/SVG/1.1/DTD/svg11.dtd">
<svg version="1.1" id="Calque_1" xmlns="http://www.w3.org/2000/svg" xmlns:xlink="http://www.w3.org/1999/xlink" x="0px" y="0px"
	 viewBox="0 0 844 1104" enable-background="new 0 0 844 1104" xml:space="preserve">
<g>
	<path fill="#FFB32D" d="M689.9,348c-1.5-3.1-2.6-6.1-4.1-9.7c-4.1,3.1-8.7,5.6-13.8,7.7c-68.9,34.7-152.5,6.6-187.2-62.2
		c-21.9-43.9-18.4-93.9,4.6-133.2c-18.9-6.6-35.2-19.9-44.9-39.3c-14.3-28.6-9.7-61.7,9.2-85.2c-57.1-5.1-116.3,2.6-173.5,25
		C83.3,128.1-13.6,350.5,63.4,547.9c77,196.9,299.5,293.8,496.9,216.8C721,702,814.9,542.3,802.6,379.1c-2,1.5-4.6,2.6-7.1,4.1
		C757.2,402.5,709.8,386.7,689.9,348"/>
	<path fill="#231E1C" d="M421,806.6c-165.3,0-310.7-99.5-370.9-253C-29.9,349,71.1,117.4,275.6,37.3C322.1,18.9,371,9.7,421,9.7
		c11.7,0,23.5,0.5,35.2,1.5c5.6,0.5,10.7,4.1,12.8,9.2s1.5,11.2-2,15.8c-15.8,19.4-18.9,46.4-7.7,68.9c7.7,14.8,20.4,26,36.2,31.6
		c4.6,1.5,7.7,5.1,9.2,9.2c1.5,4.1,1,9.2-1,13.3c-21.4,36.2-23,80.6-4.1,118.4c20.9,42.3,63.8,68.4,111.2,68.4
		c19.4,0,37.8-4.6,55.6-13.3c4.1-2,8.2-4.6,12.2-7.1s8.7-3.1,13.3-1.5s8.2,5.1,9.7,9.7c1,3.1,2,5.6,3.1,7.7
		c10.7,21.9,32.6,35.2,57.1,35.2c9.7,0,19.4-2,28.6-6.6c2-1,3.6-2,5.6-3.1c4.6-3.1,10.2-3.1,14.8-0.5s8.2,7.1,8.2,12.8
		c6.1,83.2-14.3,168.4-58.7,239.8c-45.4,74-112.2,129.6-193.3,161.2C519.5,797.4,470.5,806.6,421,806.6z M420.5,40.3
		c-45.9,0-90.8,8.7-134.2,25.5c-188.8,74-282.1,287.7-208.1,477C133.8,684.7,268.5,776.5,421,776.5c45.9,0,91.3-8.7,134.2-25.5
		c144.4-56.6,236.2-194.9,233.7-347.9c-9.2,3.1-18.4,4.1-28.1,4.1c-34.2,0-64.8-17.9-81.6-46.9c-21.4,10.7-44.9,16.3-68.9,16.3
		c-59.2,0-112.2-32.6-138.3-85.7c-20.9-41.8-21.9-90.3-2.6-132.6c-16.3-9.2-29.1-23-37.8-39.8c-12.2-24.5-12.8-53.1-2.6-78.1
		C426.1,40.3,423.1,40.3,420.5,40.3z"/>
</g>
<path fill="#89634A" d="M317.5,537.2c0,35.2-28.6,64.3-64.3,64.3c-35.2,0-64.3-28.6-64.3-64.3c0-35.2,28.6-64.3,64.3-64.3
	C288.9,473.5,317.5,502,317.5,537.2"/>
<path fill="#89634A" d="M399.1,303.1c0,29.6-24,54.1-54.1,54.1c-30.1,0-54.1-24-54.1-54.1s24-54.1,54.1-54.1
	C375.1,249,399.1,273,399.1,303.1"/>
<path fill="none" d="M197.6,213.8c0,49.5-40.3,89.8-89.8,89.8c-13.3,0-25.5-3.1-37.2-8.2c-25.5,78.1-25,165.3,7.7,247.4
	c52,132.6,172.9,221.4,313.2,232.6c-2-6.6-3.1-13.3-3.1-20.4c0-38.3,31.1-69.4,69.4-69.4s69.4,31.1,69.4,69.4c0,2,0,4.1-0.5,6.1
	c9.7-3.1,19.4-6.1,29.1-9.7c144.4-56.6,236.2-194.9,233.7-347.9c-9.2,3.1-18.4,4.1-28.1,4.1c-34.2,0-64.8-17.9-81.6-46.9
	c-21.4,10.7-44.9,16.3-68.9,16.3c-59.2,0-112.2-32.6-138.3-85.7c-20.9-41.8-21.9-90.3-2.6-132.6c-16.3-9.2-29.1-23-37.8-39.8
	c-12.2-24.5-12.8-53.1-2.6-78.1c-2.6,0-5.6,0-8.2,0c-45.9,0-90.8,8.7-134.2,25.5c-46.9,18.4-87.7,45.4-121.9,78.6
	C184.8,160.7,197.6,185.7,197.6,213.8z"/>
<path fill="#89634A" d="M107.8,272.5c32.6,0,59.2-26.5,59.2-59.2c0-19.4-9.2-36.2-23.5-46.9c-26,30.1-46.9,63.8-61.7,100
	C89.4,270.4,98.6,272.5,107.8,272.5z"/>
<path fill="#89634A" d="M682.2,506.1c0,43.9-35.7,79.6-79.6,79.6c-43.9,0-79.6-35.7-79.6-79.6s35.7-79.6,79.6-79.6
	C646.5,426.5,682.2,462.2,682.2,506.1"/>
<path fill="#89634A" d="M496,754c0-21.4-17.3-38.8-38.8-38.8s-38.8,17.3-38.8,38.8c0,8.2,2.6,15.3,6.6,21.4
	c23-0.5,45.4-2.6,67.9-7.1C495,764.2,496,759.1,496,754z"/>
<path fill="none" d="M602.7,441.8c-31.1,0-57.1,21.9-62.7,51.5c8.2,20.4,36.7,73,116.8,47.4c6.6-10.2,10.2-21.9,10.2-34.7
	C666.9,470.4,638.4,441.8,602.7,441.8z"/>
<path fill="#664533" d="M539.9,493.4c-1,4.1-1,8.2-1,12.8c0,35.2,28.6,64.3,64.3,64.3c22.4,0,42.3-11.7,53.6-29.1
	C576.6,566.3,548.1,513.8,539.9,493.4z"/>
<path fill="#443F3D" d="M602.7,411.2c-52,0-94.9,42.3-94.9,94.9c0,52,42.3,94.9,94.9,94.9s94.9-42.3,94.9-94.9
	S655.2,411.2,602.7,411.2z M656.7,540.8c-11.2,17.9-31.1,29.1-53.6,29.1c-35.2,0-64.3-28.6-64.3-64.3c0-4.6,0.5-8.7,1-12.8
	c6.1-29.1,31.6-51.5,62.7-51.5c35.2,0,64.3,28.6,64.3,64.3C666.9,518.9,663.4,530.6,656.7,540.8z"/>
<path fill="none" d="M253.2,488.8c-22.4,0-41.3,15.3-46.9,35.7c5.6,15.8,25.5,55.1,86.2,41.8c6.1-8.2,9.7-18.4,9.7-29.1
	C302.2,510.7,280.2,488.8,253.2,488.8z"/>
<path fill="#664533" d="M206.3,524.5c-1,4.1-2,8.7-2,13.3c0,27,21.9,49,49,49c15.8,0,30.1-7.7,39.3-19.9
	C231.8,579.6,211.9,540.3,206.3,524.5z"/>
<path fill="#443F3D" d="M253.2,458.1c-43.9,0-79.6,35.7-79.6,79.6c0,43.9,35.7,79.6,79.6,79.6s79.6-35.7,79.6-79.6
	C332.8,493.9,297.1,458.1,253.2,458.1z M292.5,566.3c-8.7,11.7-23,19.9-39.3,19.9c-27,0-49-21.9-49-49c0-4.6,0.5-8.7,2-13.3
	c5.6-20.4,24.5-35.7,46.9-35.7c27,0,49,21.9,49,49C302.2,548.4,298.6,558.1,292.5,566.3z"/>
<g>
	<path fill="none" d="M377.2,324.5c4.1-6.1,6.6-13.8,6.6-21.9c0-21.4-17.3-38.8-38.8-38.8c-19.9,0-36.2,14.8-38.3,34.2
		C314.4,311.2,334.3,336.7,377.2,324.5z"/>
	<path fill="#664533" d="M345,341.3c13.3,0,25-6.6,31.6-16.8c-42.9,11.7-62.7-13.3-69.9-26.5c0,1.5-0.5,3.1-0.5,4.6
		C306.8,324,324.1,341.3,345,341.3z"/>
	<path fill="#443F3D" d="M345,233.7c-38.3,0-69.4,31.1-69.4,69.4s31.1,69.4,69.4,69.4s69.4-31.1,69.4-69.4S383.3,233.7,345,233.7z
		 M345,264.3c21.4,0,38.8,17.3,38.8,38.8c0,8.2-2.6,15.8-6.6,21.9c-7.1,10.2-18.9,16.8-31.6,16.8c-21.4,0-38.8-17.3-38.8-38.8
		c0-1.5,0-3.1,0.5-4.6C309.3,279.1,325.6,264.3,345,264.3z"/>
</g>
<g>
	<path fill="none" d="M679.2,360.2c-21.4,10.7-44.9,16.3-68.9,16.3c-59.2,0-112.2-32.6-138.3-85.7c-20.9-41.8-21.9-90.3-2.6-132.6
		c-16.3-9.2-29.1-23-37.8-39.8c-12.2-24.5-12.8-53.1-2.6-78.1c-2.6,0-5.6,0-8.2,0c-45.9,0-90.8,8.7-134.2,25.5
		c-46.9,18.4-87.7,45.4-121.9,78.6c19.9,16.3,33.2,41.3,33.2,69.4c0,49.5-40.3,89.8-89.8,89.8c-10.7,0-20.9-2-30.6-5.6l0,0
		c0,0-71.4,378,313.7,436.2c8.7-28.1,35.2-48.5,66.3-48.5c28.1,0,52,16.8,62.7,40.8c74.5-14.8,143.4-43.9,173.5-70.4
		c61.7-67.9,96.4-157.1,94.9-252.5c-9.2,3.1-18.4,4.1-28.1,4.1C726.6,406.6,696,388.8,679.2,360.2z"/>
	<path fill="none" d="M457.3,715.8c-14.3,0-27,8.2-33.7,19.9c20.9,0,42.9-1.5,64.8-4.6C481.2,721.9,470,715.8,457.3,715.8z"/>
	<path fill="none" d="M167,213.8c0-19.4-9.2-36.2-23.5-46.9c-26,30.1-46.9,63.8-61.7,100c8.2,4.1,16.8,6.1,26.5,6.1
		C140.5,272.5,167,245.9,167,213.8z"/>
	<path fill="#D88E19" d="M78.2,542.3C130.3,675,251.2,763.7,391.5,775c-2-6.6-3.1-13.3-3.1-20.4s1-14.3,3.1-20.4
		C6.3,676,77.7,298,77.7,298l0,0c-2-1-4.6-1.5-6.6-2.6C45.6,373,46.1,460.2,78.2,542.3z"/>
	<path fill="#664533" d="M419,754c0,8.2,2.6,15.3,6.6,21.4c23-0.5,45.4-2.6,67.9-7.1c2-4.6,3.1-9.2,3.1-14.3c0-8.7-3.1-16.8-7.7-23
		c-21.9,3.1-43.4,4.6-64.8,4.6C420.5,741.3,419,747.4,419,754z"/>
	<path fill="#D88E19" d="M526.6,754c0,2,0,4.1-0.5,6.1c9.7-3.1,19.4-6.1,29.1-9.7c54.6-21.4,101.5-54.1,138.8-95.4
		c-29.6,26.5-99,55.6-173.5,70.4C524.6,734.7,526.6,744.3,526.6,754z"/>
</g>
<text transform="matrix(1 0 0 1 53.0196 1089.3386)" fill="#443F3D" font-family="'Gotham-Bold'" font-size="263.9419">cooki</text>
<g>
	<path fill="none" d="M457.3,715.8c-14.3,0-27,8.2-33.7,19.9c-3.1,5.6-5.1,11.7-5.1,18.9c0,8.2,2.6,15.3,6.6,21.4
		c23-0.5,45.4-2.6,67.9-7.1c2-4.6,3.1-9.2,3.1-14.3c0-8.7-3.1-16.8-7.7-23C481.2,721.9,470,715.8,457.3,715.8z"/>
	<path fill="none" d="M679.2,360.2c-21.4,10.7-44.9,16.3-68.9,16.3c-59.2,0-112.2-32.6-138.3-85.7c-20.9-41.8-21.9-90.3-2.6-132.6
		c-16.3-9.2-29.1-23-37.8-39.8c-12.2-24.5-12.8-53.1-2.6-78.1c-2.6,0-5.6,0-8.2,0c-45.9,0-90.8,8.7-134.2,25.5
		c-46.9,18.4-87.7,45.4-121.9,78.6c19.9,16.3,33.2,41.3,33.2,69.4c0,49.5-40.3,89.8-89.8,89.8c-10.7,0-20.9-2-30.6-5.6
		c-2-1-4.6-1.5-6.6-2.6c-25.5,78.1-25,165.3,7.7,247.4c52,132.6,172.9,221.4,313.2,232.6c-2-6.6-3.1-13.3-3.1-20.4s1-14.3,3.1-20.4
		c8.7-28.1,35.2-48.5,66.3-48.5c28.1,0,52,16.8,62.7,40.8c4.1,8.7,6.1,18.4,6.1,28.6c0,2,0,4.1-0.5,6.1c9.7-3.1,19.4-6.1,29.1-9.7
		c54.6-21.4,101.5-54.1,138.8-95.4c61.7-67.9,96.4-157.1,94.9-252.5c-9.2,3.1-18.4,4.1-28.1,4.1C726.6,406.6,696,388.8,679.2,360.2z
		"/>
	<path fill="none" d="M147.6,257.7c12.2-10.7,19.9-26.5,19.9-43.9c0-19.4-9.2-36.2-23.5-46.9c-21.4,24.5-38.8,51.5-53.1,80.6
		C100.7,256.1,117.5,262.8,147.6,257.7z"/>
	<path fill="#664533" d="M107.8,272.5c15.3,0,29.1-5.6,39.3-15.3c-29.6,5.6-46.9-1-56.6-10.2c-3.1,6.1-6.1,12.8-8.7,19.4
		C89.4,270.4,98.6,272.5,107.8,272.5z"/>
	<path fill="#443F3D" d="M818.5,378.1c-0.5-5.1-3.6-10.2-8.2-12.8c-4.6-2.6-10.7-2-14.8,0.5c-2,1-3.6,2-5.6,3.1
		c-9.2,4.6-18.4,6.6-28.6,6.6c-24.5,0-46.4-13.3-57.1-35.2c-1-2-2-4.6-3.1-7.7c-1.5-4.6-5.1-8.2-9.7-9.7c-4.6-1.5-9.2-1-13.3,1.5
		c-4.1,2.6-8.2,5.1-12.2,7.1c-17.3,8.7-36.2,13.3-55.6,13.3c-47.4,0-89.8-26.5-111.2-68.4c-18.9-37.8-17.3-82.1,4.1-118.4
		c2.6-4.1,2.6-8.7,1-13.3c-1.5-4.1-5.1-7.7-9.2-9.2c-15.8-5.6-28.6-16.8-36.2-31.6c-11.2-22.4-8.2-49.5,7.7-68.9
		c3.6-4.6,4.6-10.2,2-15.8s-7.1-8.7-12.8-9.2c-11.7-1-23.5-1.5-35.2-1.5c-50,0-98.5,9.2-145.4,27.5
		c-54.1,20.9-100.5,53.1-138.8,91.8c-4.1,4.1-8.2,8.2-11.7,12.8c-4.1,4.6-7.7,9.2-11.7,13.8c-22.4,27.5-41.3,57.6-55.6,89.8
		c-2.6,5.6-4.6,11.2-7.1,16.3c-2,5.1-4.1,10.7-6.1,15.8C13.9,363.3,12.9,460.7,49.1,553c59.2,151,201,249.5,362.2,253
		c3.1,0,6.1,0,8.7,0c7.1,0,14.3,0,21.4-0.5c13.8-0.5,27.5-2,41.3-4.6c9.7-1.5,19.4-3.6,29.1-5.6c18.4-4.1,36.2-9.7,53.6-16.8
		c81.1-31.6,147.9-87.7,193.3-161.2C803.7,546.4,824.6,461.2,818.5,378.1z M90.5,246.9c14.3-29.1,31.6-56.1,53.1-80.6
		c14.3,10.7,23.5,28.1,23.5,46.9c0,17.3-7.7,33.2-19.9,43.9c-10.2,9.2-24,15.3-39.3,15.3c-9.7,0-18.4-2-26.5-6.1
		C84.3,259.7,87.4,253.6,90.5,246.9z M493.5,768.8c-22.4,4.6-44.9,7.1-67.9,7.1c-4.1-6.1-6.6-13.8-6.6-21.4c0-6.6,1.5-13.3,5.1-18.9
		c6.6-11.7,19.4-19.9,33.7-19.9c12.8,0,24,6.1,30.6,15.3c4.6,6.6,7.7,14.3,7.7,23C496,759.1,495,764.2,493.5,768.8z M694,655.1
		c-37.2,40.8-84.2,74-138.8,95.4c-9.7,3.6-19.4,7.1-29.1,9.7c0-2,0.5-4.1,0.5-6.1c0-10.2-2-19.9-6.1-28.6
		c-10.7-24-35.2-40.8-62.7-40.8c-31.1,0-57.1,20.4-66.3,48.5c-2,6.6-3.1,13.3-3.1,20.4s1,14.3,3.1,20.4
		c-140.3-11.2-260.7-100-313.2-232.6c-32.1-82.1-32.6-169.4-7.7-247.4c2,1,4.1,1.5,6.6,2.6c9.7,3.6,19.9,5.6,30.6,5.6
		c49.5,0,89.8-40.3,89.8-89.8c0-28.1-12.8-53.1-33.2-69.4c34.2-33.2,75-60.2,121.9-78.6c42.9-16.8,88.3-25.5,134.2-25.5
		c2.6,0,5.6,0,8.2,0c-10.2,25-9.7,53.6,2.6,78.1c8.7,16.8,21.4,30.6,37.8,39.8c-18.9,42.3-18.4,90.8,2.6,132.6
		c26.5,52.5,79.6,85.7,138.3,85.7c24,0,47.4-5.6,68.9-16.3c16.8,29.1,47.4,46.9,81.6,46.9c9.7,0,18.9-1.5,28.1-4.1
		C790.4,497.9,755.7,587.7,694,655.1z"/>
</g>
</svg>
