<?xml version="1.0" encoding="utf-8"?>
<!-- Generator: Adobe Illustrator 18.0.0, SVG Export Plug-In . SVG Version: 6.00 Build 0)  -->
<!DOCTYPE svg PUBLIC "-//W3C//DTD SVG 1.1//EN" "http://www.w3.org/Graphics/SVG/1.1/DTD/svg11.dtd">
<svg version="1.1" id="Calque_1" xmlns="http://www.w3.org/2000/svg" xmlns:xlink="http://www.w3.org/1999/xlink" x="0px" y="0px"
	 viewBox="298.4 32.6 793 642" enable-background="new 298.4 32.6 793 642" xml:space="preserve">
<g id="Calque_2">
	<polygon fill="#07B69D" points="298.4,32.6 298.4,126.6 1091.5,674.6 1091.5,32.6 	"/>
</g>
<g id="Calque_3">
	<g>
		<path fill="#FFFFFF" d="M861.9,209.8c-3.4,1.5-5,5.6-3.4,9c1.5,3.4,5.6,5,9,3.5c3.4-1.5,5-5.6,3.4-9
			C869.4,209.8,865.4,208.2,861.9,209.8z M862.8,211.8c2.3-1,5.1,0,6.1,2.3c1,2.3,0,5.1-2.3,6.1c-2.3,1-5.1,0-6.1-2.3
			C859.5,215.6,860.5,212.8,862.8,211.8z"/>
		<path fill="#FFFFFF" d="M858.9,197.3c2.9-1.3,4.2-4.7,2.9-7.5c-1.3-2.9-4.7-4.2-7.5-2.9c-2.9,1.3-4.2,4.7-2.9,7.5
			C852.6,197.3,856,198.6,858.9,197.3z M858,195.3c-1.8,0.8-3.8,0-4.6-1.8c-0.8-1.8,0-3.8,1.8-4.6c1.8-0.8,3.8,0,4.6,1.8
			C860.5,192.5,859.7,194.5,858,195.3z"/>
		<path fill="#FFFFFF" d="M841.8,200.5c-2.5,1.1-3.6,4.1-2.5,6.6s4.1,3.6,6.6,2.5c2.5-1.1,3.6-4.1,2.5-6.6S844.3,199.4,841.8,200.5z
			 M842.7,202.5c1.4-0.6,3,0,3.7,1.4c0.6,1.4,0,3-1.4,3.7s-3,0-3.7-1.4C840.6,204.8,841.3,203.1,842.7,202.5z"/>
		<path fill="#FFFFFF" d="M881.1,201.7c0,0,0-0.1,0-0.1l0,0c-0.1-0.4-0.1-0.7-0.2-1.1c-0.1-0.3-0.2-0.7-0.3-1c0,0,0,0,0,0l0,0
			c-0.1-0.5-0.3-0.9-0.4-1.4c0,0,0,0,0,0c-0.2-0.6-0.4-1.2-0.7-1.8c-0.1-0.3-0.3-0.6-0.4-1c-1.1-2.5-2.6-4.8-4.3-6.9c0,0,0,0,0,0
			c-0.2-0.3-0.5-0.5-0.7-0.8c0,0,0,0,0,0c-0.2-0.3-0.5-0.5-0.7-0.7c0,0,0,0,0,0c-0.2-0.2-0.5-0.5-0.7-0.7c0,0,0,0,0,0
			c-0.2-0.2-0.5-0.4-0.7-0.7c0,0,0,0-0.1,0c-0.2-0.2-0.5-0.4-0.7-0.6c0,0-0.1,0-0.1-0.1c-0.2-0.2-0.5-0.4-0.7-0.6c0,0-0.1,0-0.1-0.1
			c-0.2-0.2-0.5-0.4-0.7-0.5c0,0-0.1-0.1-0.1-0.1c-0.2-0.2-0.5-0.3-0.7-0.5c0,0-0.1-0.1-0.1-0.1c-0.2-0.2-0.5-0.3-0.7-0.5
			c-0.1,0-0.1-0.1-0.2-0.1c-0.2-0.1-0.5-0.3-0.7-0.4c-0.1,0-0.1-0.1-0.2-0.1c-0.2-0.1-0.5-0.3-0.7-0.4c-0.1,0-0.2-0.1-0.2-0.1
			c-0.2-0.1-0.5-0.2-0.7-0.3c-0.1,0-0.2-0.1-0.3-0.1c-0.2-0.1-0.5-0.2-0.7-0.3c-0.1,0-0.2-0.1-0.3-0.1c-0.2-0.1-0.4-0.2-0.7-0.3
			c-0.1,0-0.2-0.1-0.3-0.1c-0.2-0.1-0.4-0.2-0.6-0.2c-0.1,0-0.2-0.1-0.4-0.1c-0.2-0.1-0.4-0.1-0.6-0.2c-0.1,0-0.3-0.1-0.4-0.1
			c-0.2-0.1-0.4-0.1-0.6-0.2c-0.1,0-0.3-0.1-0.4-0.1c-0.2,0-0.4-0.1-0.6-0.1c-0.2,0-0.3-0.1-0.5-0.1c-0.2,0-0.4-0.1-0.6-0.1
			c-0.2,0-0.3-0.1-0.5-0.1c-0.2,0-0.4-0.1-0.5-0.1c-0.2,0-0.4,0-0.6-0.1c-0.2,0-0.3,0-0.5-0.1c-0.2,0-0.4,0-0.6-0.1
			c-0.2,0-0.3,0-0.5,0c-0.2,0-0.4,0-0.6,0c-0.1,0-0.3,0-0.4,0c-0.2,0-0.5,0-0.7,0c-0.1,0-0.2,0-0.4,0c-0.4,0-0.7,0-1.1,0
			c-0.5,0-0.9,0.1-1.4,0.1c-0.2,0-0.3,0-0.5,0.1c-0.3,0-0.6,0.1-0.9,0.1c-0.2,0-0.4,0.1-0.6,0.1c-0.3,0-0.5,0.1-0.8,0.1
			c-0.2,0-0.4,0.1-0.6,0.1c-0.2,0.1-0.5,0.1-0.7,0.2c-0.2,0.1-0.4,0.1-0.6,0.2c-0.2,0.1-0.4,0.1-0.6,0.2c-0.2,0.1-0.5,0.1-0.7,0.2
			c-0.2,0.1-0.4,0.1-0.6,0.2c-0.2,0.1-0.5,0.2-0.7,0.3c-0.2,0.1-0.3,0.1-0.5,0.2c-0.3,0.1-0.5,0.2-0.8,0.3c-0.1,0-0.2,0.1-0.3,0.1
			c-2.2,1-4.3,2.2-6.2,3.7c0,0,0,0,0,0c-0.3,0.3-0.6,0.5-0.9,0.8c0,0,0,0,0,0c-1.4,1.2-2.7,2.5-3.8,4c0,0.1-0.1,0.1-0.1,0.2
			c-0.2,0.2-0.3,0.4-0.5,0.7c0,0-0.1,0.1-0.1,0.1c-0.3,0.4-0.6,0.9-0.9,1.3c0,0.1-0.1,0.1-0.1,0.1c-0.1,0.2-0.3,0.5-0.4,0.7
			c0,0.1-0.1,0.1-0.1,0.2c-0.5,0.9-1,1.7-1.4,2.7c0,0,0,0,0,0c0,0,0,0,0,0c-0.2,0.4-0.3,0.7-0.5,1.1l0,0c0,0,0,0,0,0
			c-0.2,0.4-0.3,0.9-0.5,1.4c0,0,0,0,0,0c-0.2,0.4-0.3,0.9-0.4,1.4c0,0,0,0,0,0.1c-0.1,0.4-0.2,0.9-0.3,1.3c0,0,0,0.1,0,0.1
			c-0.1,0.4-0.2,0.8-0.2,1.3c0,0.1,0,0.1,0,0.2c-0.1,0.4-0.1,0.8-0.2,1.2c0,0.1,0,0.2,0,0.3c0,0.4-0.1,0.8-0.1,1.1
			c0,0.1,0,0.2,0,0.4c0,0.4,0,0.8,0,1.1c0,0.1,0,0.3,0,0.4c0,0.5,0,1,0,1.5c0.2,3.6,1,7.1,2.4,10.3c0.3,0.8,0.7,1.5,1.1,2.3
			c0.2,0.4,0.6,0.6,1,0.6c0.4,0,0.8-0.2,1-0.6c0.8-1.6,2.5-2.6,4.3-2.5c1.2,0.1,2.3,0.6,3.1,1.5c0.2,0.2,0.5,0.4,0.9,0.3
			c0.3,0,0.6-0.2,0.8-0.5c1.8-2.5,4.6-3.9,7.7-3.7c3.4,0.2,6.4,2.2,7.8,5.3c0.6,1.3,0.8,2.6,0.8,4c0,0.3-0.1,0.7-0.1,1
			c-0.1,0.3,0.1,0.7,0.3,0.9c0.2,0.3,0.6,0.4,0.9,0.4c0.2,0,0.4,0,0.6,0c1.7,0.1,3.3,1.1,4,2.7c0.3,0.7,0.4,1.4,0.4,2.1
			c0,0.2,0,0.3,0,0.5c-0.1,0.4,0.1,0.8,0.4,1c0.3,0.2,0.7,0.3,1.1,0.2c5.7-2,10.6-5.9,14-10.9c3.5-5.2,5.2-11.2,4.9-17.4
			c0-0.4,0-0.8-0.1-1.2c0-0.1,0-0.2,0-0.4c0-0.3-0.1-0.6-0.1-0.9c0-0.1,0-0.3-0.1-0.4C881.2,202.4,881.2,202.1,881.1,201.7z
			 M878.5,199.9c0.1,0.4,0.2,0.8,0.3,1.2c-0.2,0.2-0.5,0.5-0.9,0.6c-1.4,0.6-3,0-3.7-1.4c-0.6-1.4,0-3,1.4-3.7
			c0.5-0.2,1.1-0.3,1.6-0.2C877.7,197.6,878.1,198.7,878.5,199.9C878.5,199.9,878.5,199.9,878.5,199.9z M826.5,208.1
			c0-0.5,0-0.9,0-1.4c0-0.3,0-0.5,0-0.8c0-0.2,0-0.4,0-0.6c0-0.4,0.1-0.7,0.1-1.1c0-0.1,0-0.2,0-0.3c0-0.4,0.1-0.8,0.2-1.2
			c0,0,0,0,0-0.1c0.3-1.7,0.7-3.4,1.3-5c1.7,0.8,3.7,1,5.5,0.1c3.2-1.4,4.7-5.3,3.3-8.5c-0.4-0.9-0.9-1.6-1.6-2.2
			c0.4-0.4,0.9-0.8,1.3-1.1c0.1-0.1,0.3-0.2,0.4-0.3c0.2-0.1,0.3-0.2,0.5-0.4c0.2-0.1,0.3-0.2,0.5-0.3c0.2-0.1,0.3-0.2,0.5-0.3
			c0.2-0.1,0.3-0.2,0.5-0.3c0.2-0.1,0.3-0.2,0.5-0.3c0.2-0.1,0.4-0.2,0.5-0.3c0.2-0.1,0.3-0.2,0.5-0.3c0.2-0.1,0.4-0.2,0.6-0.3
			c0.2-0.1,0.3-0.2,0.5-0.2c0.3-0.1,0.5-0.2,0.8-0.4c0.1,0,0.2-0.1,0.3-0.1c0.4-0.2,0.7-0.3,1.1-0.4c0.1,0,0.2-0.1,0.4-0.1
			c0.3-0.1,0.5-0.2,0.8-0.3c0.1,0,0.3-0.1,0.4-0.1c0.2-0.1,0.5-0.1,0.7-0.2c0.2,0,0.3-0.1,0.5-0.1c0.3-0.1,0.5-0.1,0.8-0.2
			c0.2,0,0.3-0.1,0.5-0.1c0.3-0.1,0.5-0.1,0.8-0.1c0.2,0,0.3-0.1,0.5-0.1c0.3,0,0.6-0.1,0.9-0.1c0.1,0,0.3,0,0.4,0
			c0.4,0,0.9-0.1,1.3-0.1c0.3,0,0.7,0,1,0c0.1,0,0.2,0,0.3,0c0.2,0,0.4,0,0.6,0c0.1,0,0.3,0,0.4,0c0.2,0,0.4,0,0.6,0
			c0.1,0,0.3,0,0.4,0c0.2,0,0.4,0,0.5,0c0.2,0,0.3,0,0.4,0.1c0.2,0,0.3,0,0.5,0.1c0.2,0,0.3,0,0.5,0.1c0.2,0,0.3,0.1,0.5,0.1
			c0.2,0,0.3,0.1,0.5,0.1c0.2,0,0.3,0.1,0.5,0.1c0.2,0,0.3,0.1,0.5,0.1c0.2,0,0.3,0.1,0.5,0.1c0.2,0,0.3,0.1,0.5,0.1
			c0.2,0,0.3,0.1,0.5,0.1c0.2,0,0.3,0.1,0.5,0.1c0.1,0,0.3,0.1,0.4,0.1c0.2,0.1,0.3,0.1,0.5,0.2c0.1,0.1,0.3,0.1,0.4,0.2
			c0.2,0.1,0.3,0.1,0.5,0.2c0.1,0.1,0.3,0.1,0.4,0.2c0.2,0.1,0.3,0.1,0.5,0.2c0.1,0.1,0.2,0.1,0.4,0.2c0.2,0.1,0.3,0.1,0.5,0.2
			c0.1,0,0.2,0.1,0.3,0.1c0.7,0.3,1.3,0.7,1.9,1c0.1,0.1,0.2,0.1,0.3,0.1c0.2,0.1,0.3,0.2,0.5,0.3c0.1,0.1,0.2,0.1,0.3,0.2
			c0.2,0.1,0.3,0.2,0.5,0.3c0.1,0.1,0.2,0.1,0.3,0.2c0.2,0.1,0.3,0.2,0.5,0.3c0.1,0.1,0.2,0.1,0.3,0.2c0.2,0.1,0.3,0.2,0.4,0.4
			c0.1,0.1,0.2,0.2,0.3,0.2c0.1,0.1,0.3,0.2,0.4,0.4c0.1,0.1,0.2,0.2,0.3,0.2c0.1,0.1,0.3,0.3,0.4,0.4c0.1,0.1,0.2,0.2,0.3,0.2
			c0.1,0.1,0.3,0.3,0.4,0.4c0.1,0.1,0.2,0.2,0.2,0.3c0.1,0.1,0.3,0.3,0.4,0.4c0.1,0.1,0.2,0.2,0.2,0.3c0.1,0.2,0.3,0.3,0.4,0.5
			c0.1,0.1,0.1,0.2,0.2,0.2c0.1,0.2,0.3,0.3,0.4,0.5c0.1,0.1,0.1,0.2,0.2,0.2c0.1,0.2,0.3,0.4,0.4,0.5c0,0.1,0.1,0.1,0.1,0.2
			c0.1,0.2,0.3,0.4,0.4,0.6c0,0,0,0,0,0c0.5,0.8,1,1.5,1.5,2.4c-0.5,0.1-1,0.2-1.4,0.4c-2.5,1.1-3.6,4.1-2.5,6.6
			c1.1,2.5,4.1,3.6,6.6,2.5c0.1-0.1,0.3-0.1,0.4-0.2c0,0,0,0,0,0c0,0.4,0.1,0.7,0.1,1.1c0,0.4,0.1,0.7,0.1,1.1
			c0.5,11.2-5.9,21.2-16,25.5c-0.1-0.7-0.3-1.3-0.5-2c-1-2.2-3.1-3.7-5.5-4c0.1-1.7-0.2-3.4-0.9-5c-1.7-3.9-5.4-6.4-9.7-6.6
			c-3.4-0.1-6.6,1.2-8.8,3.7c-1.1-0.8-2.4-1.3-3.7-1.3c-2-0.1-3.9,0.7-5.2,2.1c-0.1-0.2-0.2-0.4-0.2-0.5
			C827.4,214.6,826.6,211.4,826.5,208.1z M833.7,188.8c0.5,0.4,0.9,0.9,1.2,1.5c1,2.1,0,4.7-2.1,5.6c-1.3,0.6-2.7,0.5-3.8-0.2
			c0.1-0.3,0.3-0.6,0.5-0.9c0,0,0-0.1,0-0.1c0.2-0.3,0.3-0.6,0.5-0.9c0,0,0,0,0,0c0.7-1.2,1.5-2.4,2.3-3.5c0,0,0,0,0-0.1
			c0.2-0.3,0.4-0.5,0.6-0.7c0,0,0.1-0.1,0.1-0.1C833.2,189.3,833.5,189,833.7,188.8C833.7,188.8,833.7,188.8,833.7,188.8z"/>
		<path fill="#FFFFFF" d="M906.1,149.4c14.7-0.1,26.5-12.1,26.4-26.8c-0.1-14.7-12.1-26.5-26.8-26.4c-5.3,0-10.2,1.6-14.3,4.3
			c-0.1,0.1-0.2,0.1-0.3,0.2c-5.4,3.6-9.4,9.2-11,15.6c-0.2,0.9-0.4,1.9-0.5,2.8c-1.5,0-4.5,0.3-7.1,1.7c-0.5,0.3-0.8,0.9-0.6,1.4
			l1.1,5.4c0.1,0.5,0.4,0.8,0.9,1c0.4,0.2,0.9,0.1,1.3-0.2c1.1-0.9,3.1-2.1,4.4-2.6c0.2,1.4,0.4,2.7,0.8,4
			c1.8,6.3,5.8,11.7,11.2,15.2c0.1,0.1,0.2,0.2,0.3,0.2C895.9,148,900.8,149.5,906.1,149.4z M929.8,122.6
			c0.1,13.2-10.6,24-23.8,24.1c-4.6,0-9-1.3-12.7-3.5l-4.2-10.1l6.3,0.6c0.6,0.1,1.1-0.2,1.3-0.7c0.1-0.2,0.1-0.4,0.1-0.6
			c0-0.3-0.1-0.6-0.3-0.9l-7.5-8.4l7.5-9.2c0.4-0.4,0.4-1.1,0.1-1.6c-0.3-0.5-0.9-0.7-1.4-0.6l-5.6,1.3l3.5-10.4
			c3.7-2.3,8-3.7,12.7-3.8C918.9,98.8,929.7,109.4,929.8,122.6z M889.2,105.7l-2.9,8.8c-0.2,0.5,0,1,0.3,1.3
			c0.3,0.4,0.8,0.5,1.3,0.4l4.2-1l-5.7,7.1c-0.4,0.5-0.4,1.2,0,1.7l6,6.7l-5.1-0.5c-0.5,0-0.9,0.2-1.2,0.5c-0.3,0.4-0.3,0.9-0.2,1.3
			l3.2,7.8c-4-3.9-6.6-9.3-7.1-15.2c0-0.4-0.1-0.8-0.1-1.2c-0.4-0.1-1.7,0-2.7,0.2c-1.4,0.3-3,0.7-4.2,1.5l-0.5-2.4
			c1.7-0.7,3.5-1,4.6-1c0,0,1.7-0.1,2.7,0C882.2,115.4,884.9,109.8,889.2,105.7z"/>
		<path fill="#FFFFFF" d="M791.7,148.3c0-0.1,2.4-3.8,5.1-7.9c1.1-1.4,28.4-36.2,36.7-44.9c4.2-4.5,4.1-7.6,3.3-9.4
			c-0.5-1.2-1.4-1.9-1.8-2.1c-1.6-1.6-5.5-5-7.2-5.3c-1.9-0.3-4.4-0.1-7.9,4.1c-1.7,2-33.2,38.3-34.1,39.4l-5,5.2
			c-34.6,34.2-53.6,37.6-53.8,37.6c-0.3,0.1-0.6,0.3-0.8,0.6c-0.2,0.3-0.2,0.7-0.1,1l1.5,3.8l0.5,1.3l0.5,1.2c0.4,0,0.7-0.1,1.1-0.2
			c0.4-0.1,0.7-0.1,1.1-0.2c1.3-0.2,2.7-0.6,4.3-1.1c-1.1,0.8-2.3,1.6-3.8,2.4c-0.3,0.2-0.6,0.4-1,0.6c-0.3,0.2-0.6,0.4-1,0.6
			l0.5,1.2l0.5,1.2l2,4.9c-6.4,5.7-11.3,9.7-11.4,9.8c-0.3,0.2-0.4,0.6-0.4,0.9c0,0.3,0.2,0.7,0.5,0.9l7.7,5.6l1,0.7l1,0.7
			c0.3-0.2,0.7-0.4,1.1-0.6c0.4-0.2,0.7-0.4,1.1-0.6c1.6-0.9,3.5-1.9,5.2-3.1c-1.1,1.5-2.4,3.1-3.5,4.3c-0.3,0.3-0.5,0.6-0.8,0.8
			c-0.3,0.3-0.6,0.6-0.8,0.8l0.9,0.7l0.9,0.7l1.2,0.9c0.3,0.2,0.8,0.3,1.1,0.1c2-0.9,5.8-4.3,11.4-10.2c-0.5,2.4-0.8,4.8-1,7
			c0,0.6,0.3,1.1,0.9,1.2l17.5,3.5c0.3,0.1,0.7,0,1-0.3c0.3-0.2,0.4-0.6,0.4-0.9C767.6,205.2,766.9,186.7,791.7,148.3z M834.7,87
			c0.7,1.7-0.3,4.1-2.9,6.9c-4,4.3-12.5,14.6-20.3,24.3c-0.2,0.3-0.5,0.6-0.7,0.9c-3.3,4.1-6.5,8.1-9.1,11.4
			c-0.1,0.1-0.2,0.3-0.3,0.4c-0.4,0.5-0.8,1-1.2,1.5c-1.4,1.8-2.6,3.2-3.5,4.4c0-0.1,0-0.2,0-0.3c0-0.1,0-0.2,0-0.2
			c-0.1-0.5-0.2-0.9-0.3-1.4c-0.3-1.4-0.8-2.8-1.3-4.1c0,0,0,0,0,0c-1.7-3.8-4.2-6.2-5.9-7.5c-0.3-0.2-0.5-0.4-0.8-0.5
			c0,0,0,0-0.1,0c0.8-1,2.2-2.6,4-4.6c0.2-0.3,0.5-0.6,0.7-0.9c1.7-2,3.8-4.4,5.9-6.9c0.2-0.3,0.5-0.6,0.7-0.8
			c9.4-10.8,20.8-24.1,21.8-25.2c3.2-3.8,4.9-3.5,5.9-3.4c0.8,0.2,3.8,2.6,6.1,4.8l0.1,0.1l0.1,0.1l0,0
			C833.8,85.8,834.4,86.2,834.7,87z M781.5,129.8c-3.3,4.6-7.1,10.2-10.9,16.3c-4.3,6.9-8,13.5-11.1,19.7c-0.2,0.4-0.3,0.7-0.5,1
			c-0.2,0.4-0.3,0.7-0.5,1c-0.3,0.7-0.6,1.4-1,2c-6.8,4.8-13.7,8.7-20.5,11.2c-0.7,0.3-1.5,0.5-2.2,0.8l-0.1-0.2l-0.5-1.1l-1.8-4.4
			c7.3-4.3,10.3-7.8,10.5-8c0.3-0.4,0.4-0.9,0.2-1.4c0-0.1-0.1-0.2-0.2-0.3c-0.4-0.5-1-0.6-1.6-0.4c-4.8,2.2-8.7,3.3-11.5,3.7
			l-1.2-3.1C733.7,165.6,751.7,159.1,781.5,129.8z M723.7,192.9c1.8-1.5,5.4-4.6,9.9-8.6c0.3,0.2,0.6,0.2,0.9,0.1
			c6.5-2,13.6-5.5,21.2-10.5c-2.5,5.8-4.5,11.3-5.8,16.4c-5.2,5.7-10.2,10.7-12.8,12.3l-0.4-0.3c1.5-1.6,3-3.5,3.9-4.8
			c4.3-5.8,4.1-6.4,3.9-6.9c0,0,0,0,0,0c-0.2-0.4-0.5-0.6-0.9-0.7c-0.7-0.1-1.2,0.4-1.7,1.1c-2,2.4-7.2,5.3-10.7,7.2L723.7,192.9z
			 M789.8,147.1c-21.6,33.6-24.1,51.9-24.3,57l-15.2-3.1c0.3-3,0.9-6.1,1.7-9.5c0.2-0.8,0.4-1.6,0.6-2.4c0.2-0.8,0.5-1.7,0.8-2.5
			c1.5-4.7,3.5-9.7,5.9-15c0.3-0.7,0.6-1.3,0.9-2c0,0,0-0.1,0.1-0.1c0.1-0.3,0.3-0.6,0.4-0.9c0.2-0.3,0.3-0.7,0.5-1
			c0-0.1,0.1-0.2,0.1-0.2c3.1-6.3,6.8-12.9,11.1-19.9c5.7-9.2,11.4-17.1,15.3-22.3c1.5,1.1,3.7,3.3,5.2,6.6c0,0,0,0,0,0
			c0.7,1.6,1.2,3.3,1.5,5.2c0.1,0.5,0.1,1,0.2,1.5c0,0.3,0,0.6,0.1,1c-0.5,0.7-0.9,1.4-1.3,2C791.4,144.4,789.9,146.9,789.8,147.1z"
			/>
		<path fill="#FFFFFF" d="M975,247.4c10.2-11.2,17.5-21.5,21.6-30.5c0.2-0.3,3.8-8.3,1.1-14c-0.4-0.8-0.8-1.5-1.4-2.1
			c-1.1-1.2-2.6-2.2-4.5-2.7c-0.3-2.6-1.5-5.8-4.5-9.4c-0.1-0.2-0.3-0.3-0.4-0.5c-3.3-3.7-6.6-5.2-9.4-5.8c0,0,0,0,0-0.1
			c-0.4-1.8-1.2-3.2-2.1-4.3c-2.9-3.2-7.3-3.4-9.8-3.4c-4.5-0.6-16.1,3.7-27.2,9.9c-18.7,10.5-23.9,19.3-25.4,23.6
			c-2.8,8.2,0,13.6,2.9,16.6c2.5,2.6,5.4,4,6.5,4.4c0.3,2.9,1.4,5.8,3,8.5l-0.7-0.9c-0.6,0.5-1.2,0.9-1.8,1.5
			c-0.9,0.8-1.8,1.7-2.6,2.7c-1.8,2.1-3,4.2-3.6,6.5c-0.4,1.7-0.5,3.3-0.2,4.9c0.3,1.4,1.2,2.2,2.7,2.2l0.1,0
			c1.8,0.1,3.6,0.1,5.4,0.1c1.2,0,1.9-0.5,2.2-0.9c0.3-0.4,0.7-1.2,0.5-2.4c-0.1-0.8,0.1-1.6,0.4-2.6c0.4-1.2,0.9-2.4,1.4-3.6
			c0.4-0.8,0.7-1.5,1.1-2.2c2.1,1.5,4.4,2.4,6.6,2.8c0.5,2.2,2.3,7.7,9.4,12.2C956.9,264.5,968.8,254.2,975,247.4z M926.2,238.6
			C926.2,238.6,926.2,238.6,926.2,238.6c0.8,1.1,1.6,2,2.4,2.8c-0.3,0.6-0.7,1.2-1,1.9c-0.7,1.5-1.4,3.1-2,4.7
			c-0.3,1-0.7,2.3-0.5,3.7c0.1,0.3,0,0.4,0,0.5c-0.1,0-0.2,0-0.4,0c-1.8,0-3.6-0.1-5.4-0.1l-0.1,0c-0.4,0-0.4-0.1-0.5-0.4
			c-0.3-1.3-0.2-2.5,0.2-3.9c0.5-1.9,1.5-3.7,3.1-5.6c0.8-0.9,1.6-1.7,2.4-2.5C925.1,239.4,925.7,239,926.2,238.6z M973.3,245.8
			c-5.7,6.2-16.6,15.9-25.6,10.2c-5.6-3.6-7.5-7.8-8.1-9.9c4.6,0.3,8.2-0.9,8.3-1c0.6-0.2,1-0.9,0.7-1.5c-0.2-0.6-0.9-0.9-1.5-0.7
			c-0.5,0.2-12.1,4.1-18.8-5.6c-1.1-1.6-2-3.3-2.5-5c-0.9-2.6-1.1-5.3-0.6-8c1.2-6.5,6.2-12.8,14.8-18.8c3.2-2,7.3-4,9.8-5.1
			c0.7-0.3,1.3-0.6,1.7-0.7c0.6-0.3,0.9-1,0.6-1.6c-0.1-0.1-0.1-0.2-0.2-0.3c-0.3-0.4-0.9-0.5-1.4-0.3c-0.1,0-6.8,2.9-11.9,6.1l0,0
			c-9.2,6.4-14.6,13.2-15.8,20.4c-0.2,0.9-0.3,1.8-0.3,2.7c-3.2-1.6-10.9-6.6-7.1-17.7c1-3.1,3.4-6.4,6.9-9.8
			c4.3-4.2,10.2-8.5,17.5-12.6c8.3-4.7,16.1-7.8,21.1-9c2.1-0.5,3.7-0.7,4.7-0.6l0.2,0l0.2,0c0,0,0.4,0,1,0c2.1,0,6.9,0.7,8.3,5.3
			c-1.6,0-2.8,0.3-3.5,0.5c-0.5,0.2-0.7,0.3-0.8,0.3c-0.6,0.3-0.8,1-0.6,1.6c0.3,0.6,1,0.8,1.5,0.6c0.1,0,0.7-0.3,1.8-0.5
			c2.5-0.4,7.2-0.2,12.1,5.5c5.1,5.9,4.2,10.5,3.5,12.5c-0.3,0.7-0.5,1-0.5,1c-0.4,0.5-0.2,1.3,0.3,1.6c0.5,0.4,1.3,0.2,1.6-0.3
			c0-0.1,0.3-0.4,0.5-1c0.4-0.8,0.8-2,0.9-3.5c1.8,0.7,3,1.8,3.7,3.3c1.4,3,0.6,7.1-0.2,9.6c-0.5,1.4-0.9,2.4-0.9,2.4
			C990.5,224.7,983.4,234.8,973.3,245.8z"/>
		<path fill="#FFFFFF" d="M1052.2,282.3c-3.3,0.1-6,2.9-5.9,6.3c0.1,3.3,2.9,6,6.3,5.9c3.3-0.1,6-2.9,5.9-6.3
			C1058.3,284.8,1055.5,282.2,1052.2,282.3z M1048.5,288.5c-0.1-2.1,1.6-3.9,3.7-3.9c2.1-0.1,3.9,1.6,3.9,3.7
			c0.1,2.1-1.6,3.9-3.7,3.9C1050.4,292.3,1048.6,290.6,1048.5,288.5z"/>
		<path fill="#FFFFFF" d="M1028.2,302.4c-4,0.1-7.1,3.4-7,7.4c0.1,4,3.4,7.1,7.4,7c4-0.1,7.1-3.4,7-7.4
			C1035.5,305.5,1032.2,302.3,1028.2,302.4z M1028.3,304.7c2.7-0.1,5,2.1,5.1,4.8c0.1,1.8-0.8,3.3-2.2,4.3c0,0,0,0,0,0
			c-0.7,0.5-1.6,0.8-2.6,0.8c-2.7,0.1-5-2.1-5.1-4.8C1023.4,307.1,1025.6,304.8,1028.3,304.7z"/>
		<path fill="#FFFFFF" d="M1047.6,240.1c-5,0.2-8.9,4.3-8.8,9.3s4.3,8.9,9.3,8.8c5-0.2,8.9-4.3,8.8-9.3
			C1056.8,243.9,1052.6,240,1047.6,240.1z M1047.7,242.4c3.8-0.1,6.9,2.8,7,6.6c0.1,3.8-2.8,6.9-6.6,7c-3.8,0.1-6.9-2.8-7-6.6
			C1041,245.6,1043.9,242.5,1047.7,242.4z"/>
		<path fill="#FFFFFF" d="M1072.6,327.2l1.3-19.7l0.1-1.6l0.3-4.1l0.1-1.6l2-29.1l0.1-1.2l0.1-1.3l0.7-10.6l0.1-1.3l0.1-1.2l2-29.6
			c0,0,0-0.1,0-0.1c0-0.3-0.1-0.5-0.3-0.7c-0.2-0.2-0.5-0.4-0.8-0.3l-44.1,1.4l-5.3,0.2l-7.1,0.2c0,0,0,0-0.1,0c0,0-0.1,0-0.1,0
			c0,0-0.1,0-0.1,0c0,0-0.1,0-0.1,0c0,0-0.1,0-0.1,0c0,0-0.1,0-0.1,0c0,0-0.1,0-0.1,0.1c0,0-0.1,0-0.1,0.1c0,0,0,0-0.1,0.1
			c0,0,0,0-0.1,0.1c0,0,0,0.1-0.1,0.1c0,0,0,0.1-0.1,0.1c0,0,0,0.1,0,0.1c0,0,0,0.1,0,0.1c0,0,0,0.1,0,0.1c0,0,0,0,0,0.1
			c-0.2,1.5-9,43.5-13.6,65.5c0,0.1,0,0.3,0,0.4l6.7,35.7c0,0,0,0.1,0,0.1c0,0,0,0,0,0.1c0,0.1,0.1,0.1,0.1,0.2c0,0,0,0,0,0
			c0,0.1,0.1,0.1,0.1,0.2c0,0,0,0,0,0c0,0,0,0,0,0c0,0,0.1,0.1,0.1,0.1c0,0,0,0,0.1,0c0,0,0.1,0,0.1,0.1c0,0,0.1,0,0.1,0
			c0,0,0.1,0,0.1,0c0,0,0.1,0,0.1,0c0,0,0.1,0,0.2,0c0,0,0,0,0.1,0l23.4-0.7l1.1,0l1.1,0l19.6-0.6l1.1,0l1.1,0l9-0.3
			C1072,328.3,1072.5,327.8,1072.6,327.2z M1040.3,327c0-5.4,4.3-9.9,9.7-10c0.5,0,1,0,1.5,0.1l0,0h0c4.8,0.6,8.6,4.5,8.8,9.4
			l-2.5,0.1l-0.3,0L1040.3,327z M1014.4,320l-5-26.8c2.5-12.1,7-33.8,10.2-48.9l-1.7,24.9l-0.1,1.6l-0.1,1.9l-0.5,7.3l-0.1,1.9
			l-0.1,1.6l-1,14.1L1014.4,320z M1028.2,282.2c-1.2,1-2.7,1.6-4.4,1.7c-1.7,0.1-3.3-0.5-4.6-1.5l0.8-12c1-0.6,2.1-0.9,3.3-0.9
			c0.2,0,0.4,0,0.6,0l0,0c0,0,0,0,0,0c3.7,0.2,6.7,3.2,6.8,7C1030.8,278.8,1029.8,280.8,1028.2,282.2
			C1028.2,282.2,1028.2,282.2,1028.2,282.2L1028.2,282.2z M1033.7,228.3c1.1,0.7,1.8,1.8,1.8,3.1c0,1.1-0.4,2.1-1.2,2.9c0,0,0,0,0,0
			l0,0c-0.7,0.6-1.5,1-2.5,1.1c-2.1,0.1-3.9-1.6-3.9-3.7c0-1.3,0.6-2.5,1.6-3.3l2.7-0.1L1033.7,228.3z M1075.5,227l1.6,0l-1.9,27.8
			c-0.6-0.1-1.1-0.1-1.7-0.1c-0.1,0-0.1,0-0.2,0c-4.5,0.2-8.1,4.1-8,8.7c0.1,3.9,3,7.2,6.7,8c0.6,0.1,1.3,0.2,2,0.2c0,0,0,0,0.1,0
			l-1.9,27.6c-0.4-0.1-0.7-0.1-1.1-0.1c-0.5,0-0.9,0.1-1.3,0.2c-1.9,0.6-3.3,2.5-3.2,4.6c0.1,1.8,1.1,3.3,2.5,4
			c0.7,0.4,1.5,0.5,2.3,0.5c0.1,0,0.1,0,0.2,0l-1.2,17.8l-2.7,0.1l-5.2,0.2c-0.4-6.6-6-11.8-12.6-11.6c-6.7,0.2-11.9,5.7-11.9,12.4
			l-22,0.7l2.9-42.7c1.4,0.8,3.1,1.2,4.8,1.2c5.2-0.2,9.3-4.5,9.2-9.7c-0.2-5.2-4.5-9.3-9.7-9.2c-1.1,0-2.1,0.3-3.1,0.6l2.7-39.2
			l3.6-0.1c-0.6,0.9-0.9,2.1-0.8,3.2c0.1,3.3,2.9,6,6.3,5.9c3.3-0.1,6-2.9,5.9-6.3c0-1.2-0.4-2.3-1-3.2L1075.5,227z M1073.1,256.9
			c0.1,0,0.3,0,0.4,0c0.5,0,1,0,1.5,0.1l-0.8,12.2c-0.1,0-0.2,0-0.3,0c-0.6,0-1.2-0.1-1.8-0.2c-2.6-0.7-4.5-3-4.6-5.8
			C1067.5,260,1070,257.3,1073.1,256.9z M1071.2,301.2c0.3,0,0.6,0,0.9,0.1l-0.3,4.7c-0.1,0-0.3,0-0.4,0c-0.8,0-1.5-0.3-2-0.9
			c-0.3-0.4-0.5-0.9-0.5-1.4c0-0.7,0.3-1.4,0.8-1.8C1070,301.5,1070.6,301.2,1071.2,301.2z"/>
		<path fill="#FFFFFF" d="M877.7,300.9c0,0.1,0,0.8,0,1.9c0,1.5-0.2,3.7-0.7,6.4c-0.4,2.4-1.2,5.3-2.3,8.3c-0.2,0.6-0.9,0.9-1.5,0.6
			c-0.6-0.2-0.9-0.9-0.6-1.5c2.5-6.4,2.8-12,2.8-14.4c0-0.8,0-1.2,0-1.2c0-0.6,0.4-1.2,1-1.2C877.1,299.8,877.6,300.3,877.7,300.9z"
			/>
		<path fill="#FFFFFF" d="M847.5,300.2c-2.5-0.5-10.1-1.6-15.4,1.1c-0.5,0.2-0.7,0.8-0.6,1.3l1.4,5.9c0.1,0.3,0.3,0.6,0.6,0.7
			c0.3,0.2,0.6,0.2,0.9,0.1c3.1-1.2,6.1-2.2,11.7-1.8c0,1.6,0.2,3.5,1.2,5.4c1.8,3.7,5.6,6.1,11.3,7.1c14.5,2.6,84.7,8.4,106.3,9.9
			c3.2,0.1,8.5,0,9.1-2.6c0,0,0-0.1,0-0.1c0,0,0,0,0,0c0,0,0-0.1,0-0.1c0,0,0-0.1,0-0.1c0.5-2.7-4.5-4.7-7.5-5.7
			c-20.9-6.2-88.6-25.3-103.1-27.9c-6.7-1.2-10.8,0.5-13.2,2.8C848.9,297.4,848.1,298.9,847.5,300.2z M946.7,326.2
			c0.4-1.3,0.7-2.5,0.9-3.6c0.2-0.9,0.3-1.7,0.3-2.4c0.1-0.9,0.1-1.6,0.1-2.1c3,0.9,5.8,1.7,8.4,2.4c0.1,0.4,0.1,1.1,0,2
			c-0.1,0.5-0.2,0.9-0.4,1.5c-0.2,0.6,0,1.2,0.6,1.5c0.6,0.2,1.2,0,1.5-0.6c0.2-0.6,0.4-1.2,0.5-1.7c0,0,0,0,0,0
			c0.1-0.7,0.2-1.3,0.1-1.9c2.7,0.8,5.1,1.5,7.1,2.1c2.9,0.9,5.8,2.5,6,3.2l0,0.1l0,0.1c-0.5,0.6-3.7,1-6.8,0.9
			C960.6,327.3,954.2,326.9,946.7,326.2z M910.2,323.2c1-2.7,1.6-5.3,2-7.6c0.3-1.7,0.5-3.2,0.6-4.5c0.1-1.1,0.1-2.1,0.1-2.7
			c4.8,1.3,9.5,2.6,14.2,3.9c0,0.2,0.1,1.2,0,2.5c-0.1,1.3-0.4,3.1-1.1,5c-0.2,0.6,0.1,1.2,0.7,1.4c0.6,0.2,1.2-0.1,1.4-0.7
			c0.5-1.2,0.8-2.4,1-3.5c0.1-0.6,0.2-1.2,0.2-1.7c0.1-1,0.1-1.8,0.1-2.4c5.7,1.6,11.2,3.2,16.3,4.6c0,0.2,0.1,1,0,2.2
			c-0.1,1.6-0.4,3.9-1.3,6.4c-2.7-0.2-5.4-0.4-8.3-0.7c0.6-1.5,0.9-3,1.1-4.2c0.3-1.6,0.4-2.9,0.4-3.7c0-0.4,0-0.7,0-0.7
			c0-0.6-0.6-1.1-1.2-1c-0.6,0-1.1,0.6-1.1,1.2c0,0,0,0,0,0c0,0.2,0.2,3.8-1.6,8.3c-4.5-0.4-9.2-0.8-14-1.2c0.8-1.9,1.3-3.7,1.5-5.2
			c0.5-2.8,0.4-4.8,0.3-5.4c0-0.1,0-0.2,0-0.2c-0.1-0.6-0.6-1.1-1.2-1c-0.4,0-0.7,0.3-0.9,0.6c-0.1,0.2-0.1,0.4-0.1,0.6
			c0,0,0.5,4.8-2,10.4C915,323.6,912.6,323.4,910.2,323.2z M848.8,304.3c0,0,0-0.3,0.1-0.9c0.4-2.4,1.3-4.1,2.5-5.3
			c2.5-2.6,6.2-3,9.1-2.9c0,0.8,0,2.2-0.1,4.1c-0.2,3.5-1,8.7-3.1,14.4c-0.2,0.6,0.1,1.2,0.7,1.4c0.6,0.2,1.2-0.1,1.4-0.7
			c1.3-3.4,2.1-6.5,2.6-9.3c0.4-2,0.6-3.9,0.7-5.4c0.1-1.8,0.1-3.3,0.1-4.2c0.1,0,0.2,0,0.3,0c3.9,0.7,11.9,2.7,21.8,5.3
			c0,1.2-0.1,2.4-0.1,3.5c-0.6,8.3-3,14-3,14c-0.2,0.6,0,1.2,0.6,1.5c0.6,0.2,1.2,0,1.5-0.6c0.1-0.2,1.5-3.5,2.4-8.8
			c0.3-1.7,0.6-3.6,0.7-5.7c0.1-1.1,0.1-2.3,0.2-3.4c4.4,1.1,9.1,2.4,13.9,3.7c0,1.1,0,2.1-0.1,3.1c-0.4,7.1-2.5,12-2.5,12.1
			c-0.2,0.6,0,1.2,0.6,1.5c0.6,0.2,1.2,0,1.5-0.6c0.1-0.2,1.3-2.9,2.1-7.4c0.3-1.5,0.5-3.2,0.6-5.1c0.1-1,0.1-2,0.1-3
			c2.5,0.7,5,1.4,7.5,2c0,0.6,0,1.5-0.1,2.8c-0.2,2.9-0.9,7.4-2.7,12.4c-5.4-0.5-10.8-1-15.9-1.5c0.9-2.9,1.5-5.5,1.9-7.8
			c0.7-3.7,0.8-6.3,0.8-7.1c0-0.1,0-0.2,0-0.2c0-0.6-0.5-1.1-1.1-1.1c-0.5,0-0.9,0.3-1.1,0.8c0,0.1-0.1,0.2-0.1,0.3
			c0,0.1-0.1,6.7-2.8,14.9c-9.3-0.9-17.5-1.8-23.5-2.5c1.7-4.1,2.7-7.9,3.2-11c0.5-3,0.7-5.4,0.7-6.6c0-0.6,0-0.9,0-1
			c0-0.6-0.5-1.1-1.2-1.1c-0.6,0-1.1,0.5-1.1,1.2c0,0,0,0.2,0,0.5c0,1.9-0.4,9.3-4,17.8c-2-0.3-3.7-0.5-4.9-0.7
			c-3.7-0.7-12.1-3.2-10.5-12.3c0.1-0.6,0.2-0.9,0.2-0.9l0-0.1L848.8,304.3z M846.8,302.3l-0.1,0.6l-0.4,2.1l0,0.1
			c-5.3-0.4-8.6,0.4-11.5,1.5l-0.9-3.8C838.4,301.1,844.4,301.9,846.8,302.3z"/>
	</g>
	<path fill="#FFFFFF" d="M505.4,171.3c3.7-0.9,5.9-4.6,5.1-8.2c-0.9-3.7-4.6-5.9-8.2-5.1c-3.7,0.9-5.9,4.6-5.1,8.2
		C498,169.9,501.7,172.1,505.4,171.3z M502.7,160.1c2.5-0.6,5,0.9,5.6,3.4c0.6,2.5-0.9,5-3.4,5.6c-2.5,0.6-5-0.9-5.6-3.4
		C498.7,163.2,500.2,160.7,502.7,160.1z"/>
	<path fill="#FFFFFF" d="M478.5,167.1c-3.1,0.7-5,3.8-4.2,6.9c0.7,3.1,3.8,5,6.9,4.2c3.1-0.7,5-3.8,4.2-6.9
		C484.7,168.3,481.6,166.4,478.5,167.1z M480.7,176.1c-1.9,0.4-3.8-0.7-4.2-2.6c-0.4-1.9,0.7-3.8,2.6-4.2c1.9-0.4,3.8,0.7,4.2,2.6
		C483.7,173.7,482.6,175.6,480.7,176.1z"/>
	<path fill="#FFFFFF" d="M483.5,159.5c2.7-0.6,4.3-3.3,3.7-6c-0.6-2.7-3.3-4.3-6-3.7c-2.7,0.6-4.3,3.3-3.7,6
		C478.2,158.5,480.9,160.2,483.5,159.5z M481.7,152c1.5-0.4,3,0.6,3.3,2.1s-0.6,3-2.1,3.3c-1.5,0.4-3-0.6-3.3-2.1
		C479.3,153.9,480.2,152.4,481.7,152z"/>
	<path fill="#FFFFFF" d="M503.4,185.8c0.1-0.1,0.2-0.1,0.3-0.2c0.3-0.1,0.5-0.3,0.7-0.4c0.1-0.1,0.2-0.1,0.3-0.2
		c0.3-0.2,0.7-0.4,1-0.7c5.1-3.6,8.9-8.6,10.8-14.5c1.9-5.7,1.9-12,0.1-17.7c-0.1-0.4-0.4-0.6-0.8-0.7c-0.4-0.1-0.8,0-1,0.3
		c-0.1,0.1-0.2,0.2-0.3,0.3c-0.6,0.5-1.2,0.8-1.9,0.9c-1.7,0.4-3.5-0.2-4.6-1.5c-0.1-0.1-0.2-0.3-0.3-0.5c-0.2-0.3-0.5-0.5-0.8-0.5
		c-0.3,0-0.7,0.1-0.9,0.3c-0.2,0.2-0.5,0.5-0.7,0.7c-1.1,0.9-2.3,1.5-3.7,1.8c-3.3,0.8-6.7-0.3-8.9-3c-2-2.3-2.6-5.5-1.7-8.4
		c0.1-0.3,0-0.7-0.1-0.9c-0.2-0.3-0.5-0.5-0.8-0.5c-1.2-0.1-2.3-0.7-3.1-1.6c-1.2-1.4-1.4-3.3-0.6-4.9c0.2-0.4,0.1-0.8-0.1-1.1
		c-0.2-0.3-0.6-0.5-1-0.4c-0.8,0.1-1.7,0.3-2.5,0.5c-3.5,0.8-6.7,2.3-9.7,4.3c-0.4,0.3-0.8,0.6-1.2,0.9c-0.1,0.1-0.2,0.2-0.3,0.2
		c-0.3,0.2-0.6,0.5-0.9,0.7c-0.1,0.1-0.2,0.2-0.3,0.2c-0.3,0.3-0.6,0.5-0.8,0.8c-0.1,0.1-0.1,0.1-0.2,0.2c-0.3,0.3-0.6,0.6-0.8,0.9
		c0,0.1-0.1,0.1-0.1,0.2c-0.3,0.3-0.6,0.6-0.9,1c0,0-0.1,0.1-0.1,0.1c-0.3,0.4-0.6,0.7-0.8,1.1c0,0,0,0,0,0.1
		c-0.3,0.4-0.6,0.8-0.8,1.2c0,0,0,0,0,0c-0.3,0.4-0.5,0.8-0.8,1.2c0,0,0,0,0,0s0,0,0,0c-0.2,0.3-0.4,0.7-0.6,1.1c0,0,0,0,0,0
		c0,0,0,0,0,0c-0.5,0.9-0.9,1.8-1.3,2.7c0,0.1-0.1,0.1-0.1,0.2c-0.1,0.3-0.2,0.5-0.3,0.8c0,0.1,0,0.1-0.1,0.2
		c-0.2,0.5-0.4,1-0.5,1.5c0,0.1,0,0.1-0.1,0.2c-0.1,0.3-0.2,0.5-0.2,0.8c0,0.1,0,0.1-0.1,0.2c-0.5,1.8-0.7,3.6-0.8,5.4c0,0,0,0,0,0
		c0,0.4,0,0.8,0,1.2c0,0,0,0,0,0c0,2.4,0.2,4.8,0.8,7.2c0,0.1,0,0.2,0.1,0.3c0.1,0.3,0.1,0.6,0.2,0.8c0,0.2,0.1,0.3,0.1,0.5
		c0.1,0.2,0.2,0.5,0.2,0.7c0.1,0.2,0.1,0.4,0.2,0.6c0.1,0.2,0.2,0.4,0.3,0.7c0.1,0.2,0.2,0.4,0.2,0.6c0.1,0.2,0.2,0.4,0.3,0.6
		c0.1,0.2,0.2,0.4,0.3,0.7c0.1,0.2,0.2,0.4,0.3,0.6c0.1,0.2,0.2,0.5,0.4,0.7c0.1,0.2,0.2,0.3,0.3,0.5c0.1,0.3,0.3,0.5,0.5,0.8
		c0.1,0.1,0.2,0.3,0.2,0.4c0.2,0.4,0.5,0.8,0.8,1.2c0.2,0.3,0.4,0.6,0.6,0.9c0.1,0.1,0.1,0.2,0.2,0.3c0.1,0.2,0.3,0.4,0.5,0.6
		c0.1,0.1,0.2,0.2,0.3,0.3c0.1,0.2,0.3,0.3,0.4,0.5c0.1,0.1,0.2,0.2,0.3,0.4c0.1,0.1,0.3,0.3,0.4,0.4c0.1,0.1,0.2,0.2,0.4,0.4
		c0.1,0.1,0.3,0.3,0.4,0.4c0.1,0.1,0.3,0.3,0.4,0.4c0.1,0.1,0.3,0.2,0.4,0.4c0.1,0.1,0.3,0.3,0.4,0.4c0.1,0.1,0.2,0.2,0.4,0.3
		c0.2,0.1,0.3,0.3,0.5,0.4c0.1,0.1,0.2,0.2,0.4,0.3c0.2,0.1,0.3,0.3,0.5,0.4c0.1,0.1,0.2,0.2,0.3,0.2c0.2,0.1,0.4,0.3,0.5,0.4
		c0.1,0.1,0.2,0.1,0.3,0.2c0.2,0.1,0.4,0.3,0.6,0.4c0.1,0.1,0.2,0.1,0.3,0.2c0.2,0.1,0.4,0.2,0.6,0.4c0.1,0.1,0.2,0.1,0.3,0.2
		c0.2,0.1,0.4,0.2,0.7,0.4c0.1,0,0.2,0.1,0.3,0.1c0.2,0.1,0.5,0.2,0.7,0.3c0.1,0,0.2,0.1,0.2,0.1c0.2,0.1,0.5,0.2,0.7,0.3
		c0.1,0,0.1,0.1,0.2,0.1c0.3,0.1,0.5,0.2,0.8,0.3c0.1,0,0.1,0.1,0.2,0.1c0.3,0.1,0.5,0.2,0.8,0.3c0.1,0,0.1,0,0.2,0.1
		c0.3,0.1,0.6,0.2,0.8,0.3c0,0,0.1,0,0.1,0c0.3,0.1,0.6,0.2,0.9,0.3c0,0,0.1,0,0.1,0c0.3,0.1,0.6,0.2,0.9,0.2c0,0,0.1,0,0.1,0
		c0.3,0.1,0.6,0.1,0.9,0.2c0,0,0,0,0.1,0c0.3,0.1,0.6,0.1,1,0.2c0,0,0,0,0.1,0c0.3,0.1,0.7,0.1,1,0.1c0,0,0,0,0,0
		c0.3,0,0.7,0.1,1,0.1c0,0,0,0,0,0c0.3,0,0.7,0.1,1,0.1c0,0,0,0,0,0c2.7,0.1,5.4-0.1,8-0.8c0.3-0.1,0.7-0.2,1-0.3
		c0.6-0.2,1.3-0.4,1.9-0.6c0,0,0,0,0,0c0.5-0.2,0.9-0.3,1.4-0.5l0,0c0,0,0,0,0,0c0.3-0.1,0.6-0.3,1-0.4c0.3-0.1,0.7-0.3,1-0.5h0
		c0,0,0.1,0,0.1-0.1C502.7,186.2,503,186,503.4,185.8z M499.4,185.3c-1.1,0.5-2.3,0.8-3.5,1.1c-0.4-0.4-0.7-0.8-0.8-1.4
		c-0.4-1.5,0.6-3,2.1-3.3c1.5-0.4,3,0.6,3.3,2.1c0.1,0.4,0.1,0.7,0,1.1C500.1,185,499.7,185.2,499.4,185.3
		C499.4,185.3,499.4,185.3,499.4,185.3z M483.3,135.1c0.2,0,0.4-0.1,0.6-0.1c-0.3,1.9,0.2,3.9,1.5,5.4c0.9,1,2,1.8,3.3,2.2
		c-0.6,3.3,0.2,6.6,2.4,9.2c2.7,3.3,7,4.7,11.1,3.7c1.7-0.4,3.2-1.2,4.5-2.3c1.7,1.8,4.1,2.5,6.5,1.9c0.7-0.2,1.3-0.4,1.9-0.8
		c2.7,10.7-1.4,21.9-10.6,28.2c-0.3,0.2-0.6,0.4-0.9,0.6c-0.3,0.2-0.6,0.4-0.9,0.6c0,0,0,0,0,0c0-0.1,0-0.3-0.1-0.4
		c-0.6-2.7-3.3-4.3-6-3.7c-2.7,0.6-4.3,3.3-3.7,6c0.1,0.5,0.3,1,0.6,1.4c-0.9,0.1-1.8,0.2-2.8,0.3c0,0,0,0,0,0c-0.2,0-0.5,0-0.7,0
		c-0.1,0-0.2,0-0.2,0c-0.2,0-0.4,0-0.7,0c-0.1,0-0.2,0-0.3,0c-0.2,0-0.4,0-0.6,0c-0.1,0-0.2,0-0.3,0c-0.2,0-0.4,0-0.6,0
		c-0.1,0-0.2,0-0.3,0c-0.2,0-0.4,0-0.6-0.1c-0.1,0-0.2,0-0.3,0c-0.2,0-0.4-0.1-0.6-0.1c-0.1,0-0.2,0-0.4-0.1c-0.2,0-0.4-0.1-0.6-0.1
		c-0.1,0-0.2,0-0.4-0.1c-0.2,0-0.4-0.1-0.6-0.1c-0.1,0-0.2-0.1-0.4-0.1c-0.2,0-0.4-0.1-0.6-0.1c-0.1,0-0.2-0.1-0.4-0.1
		c-0.2-0.1-0.4-0.1-0.6-0.2c-0.1,0-0.2-0.1-0.3-0.1c-0.2-0.1-0.4-0.1-0.6-0.2c-0.1,0-0.2-0.1-0.3-0.1c-0.2-0.1-0.4-0.1-0.6-0.2
		c-0.1,0-0.2-0.1-0.3-0.1c-0.7-0.3-1.3-0.6-2-0.9c-0.1,0-0.2-0.1-0.3-0.1c-0.2-0.1-0.3-0.2-0.5-0.3c-0.1-0.1-0.2-0.1-0.4-0.2
		c-0.1-0.1-0.3-0.2-0.4-0.3c-0.1-0.1-0.3-0.1-0.4-0.2c-0.1-0.1-0.3-0.2-0.4-0.3c-0.1-0.1-0.3-0.2-0.4-0.2c-0.1-0.1-0.3-0.2-0.4-0.3
		c-0.1-0.1-0.3-0.2-0.4-0.3c-0.1-0.1-0.3-0.2-0.4-0.3c-0.1-0.1-0.3-0.2-0.4-0.3c-0.1-0.1-0.3-0.2-0.4-0.3c-0.1-0.1-0.3-0.2-0.4-0.3
		c-0.1-0.1-0.2-0.2-0.4-0.3c-0.1-0.1-0.2-0.2-0.4-0.3c-0.1-0.1-0.2-0.2-0.3-0.3c-0.1-0.1-0.2-0.2-0.4-0.3c-0.1-0.1-0.2-0.2-0.3-0.3
		c-0.1-0.1-0.2-0.2-0.4-0.4c-0.1-0.1-0.2-0.2-0.3-0.3c-0.1-0.1-0.2-0.3-0.4-0.4c-0.1-0.1-0.2-0.2-0.3-0.3c-0.1-0.1-0.2-0.3-0.4-0.4
		c-0.1-0.1-0.2-0.2-0.3-0.3c-0.1-0.2-0.3-0.3-0.4-0.5c-0.1-0.1-0.1-0.2-0.2-0.3c-0.2-0.3-0.4-0.5-0.6-0.8c-0.2-0.4-0.5-0.7-0.7-1.1
		c-0.1-0.1-0.1-0.2-0.2-0.3c-0.1-0.3-0.3-0.5-0.4-0.8c-0.1-0.1-0.1-0.3-0.2-0.4c-0.1-0.2-0.3-0.5-0.4-0.7c-0.1-0.1-0.1-0.3-0.2-0.4
		c-0.1-0.2-0.2-0.5-0.3-0.7c-0.1-0.1-0.1-0.3-0.2-0.4c-0.1-0.2-0.2-0.5-0.3-0.7c-0.1-0.1-0.1-0.3-0.2-0.4c-0.1-0.3-0.2-0.5-0.3-0.8
		c0-0.1-0.1-0.2-0.1-0.4c-0.1-0.4-0.2-0.8-0.3-1.2c0-0.1-0.1-0.2-0.1-0.3c-0.1-0.3-0.1-0.6-0.2-0.8c0-0.2-0.1-0.3-0.1-0.5
		c0-0.2-0.1-0.4-0.1-0.7c0-0.2-0.1-0.4-0.1-0.6c0-0.2-0.1-0.4-0.1-0.6c0-0.2,0-0.4-0.1-0.6c0-0.2,0-0.4,0-0.6c0-0.2,0-0.4,0-0.6
		c0-0.2,0-0.4,0-0.6c0-0.2,0-0.4,0-0.6c0-0.2,0-0.4,0-0.6c0-0.6,0-1.2,0.1-1.7c0.9,0.2,1.8,0.2,2.7,0c3.5-0.8,5.6-4.3,4.8-7.8
		c-0.5-2-1.8-3.5-3.5-4.3c0.9-1.4,2-2.8,3.2-4.1c0,0,0,0,0.1-0.1c0.3-0.3,0.6-0.6,0.9-0.9c0.1-0.1,0.1-0.1,0.2-0.2
		c0.3-0.2,0.5-0.5,0.8-0.7c0.1-0.1,0.3-0.2,0.4-0.4c0.2-0.2,0.4-0.3,0.6-0.5c0.4-0.3,0.7-0.5,1.1-0.8
		C477,137.2,480.1,135.8,483.3,135.1z M463.3,156.5c0.1-0.3,0.1-0.6,0.2-1c0,0,0-0.1,0-0.1c0.1-0.3,0.1-0.6,0.2-0.9c0,0,0,0,0-0.1
		c0.3-1.4,0.8-2.7,1.3-4c0,0,0,0,0,0c0.1-0.3,0.3-0.6,0.4-0.9c0,0,0-0.1,0-0.1c0.1-0.3,0.3-0.6,0.5-0.9c1.2,0.5,2.1,1.6,2.4,2.9
		c0.5,2.3-0.9,4.6-3.1,5.1C464.6,156.7,463.9,156.7,463.3,156.5C463.3,156.5,463.3,156.5,463.3,156.5z"/>
	<path fill="#FFFFFF" d="M468.1,220.1c-0.1-0.1-0.2-0.1-0.4-0.1c-6-2.2-12.8-2.1-18.9,0.3c-1.3,0.5-2.5,1.1-3.7,1.8
		c-0.5-1.3-0.7-3.6-0.6-5.1c0-0.5-0.2-0.9-0.6-1.2c-0.4-0.3-0.9-0.3-1.3-0.1l-5,2.4c-0.5,0.3-0.8,0.8-0.7,1.4
		c0.4,2.9,2.1,5.5,2.9,6.7c-0.7,0.7-1.3,1.4-1.9,2.1c-4.2,5.2-6.1,11.7-5.8,18.2c0,0.1,0,0.2,0,0.4c0.4,4.9,2.1,9.8,5.3,14
		c8.8,11.7,25.6,14.1,37.3,5.2c11.7-8.8,14.1-25.6,5.2-37.3C476.9,224.7,472.7,221.8,468.1,220.1z M439.6,259.4
		c-2.8-3.7-4.4-8-4.7-12.4l6.1-9.1l2.4,5.3c0.2,0.5,0.8,0.8,1.3,0.8c0.6-0.1,1-0.5,1.2-1l2.8-11.5l11.3,0.9c0.3,0,0.7-0.1,0.9-0.3
		c0.2-0.1,0.3-0.3,0.4-0.5c0.2-0.5,0.1-1.1-0.2-1.5l-4.3-4.6l10.6-2.8c4,1.6,7.7,4.2,10.5,7.9c7.9,10.5,5.8,25.6-4.7,33.5
		C462.6,272,447.6,269.9,439.6,259.4z M443.4,226.6c-0.7-0.8-1.6-2.2-1.6-2.2c-0.6-0.9-1.5-2.5-2-4.3l2.2-1c0.1,1.4,0.7,2.9,1.3,4.3
		c0.5,0.8,1.2,2,1.5,2.2c0.3-0.2,0.7-0.5,1-0.7c5-3.2,10.8-4.4,16.4-3.6l-8.2,2.2c-0.5,0.1-0.8,0.5-0.9,0.9c-0.1,0.4,0,0.9,0.3,1.3
		l3.5,3.7l-9-0.7c-0.7-0.1-1.2,0.4-1.4,1l-2.2,8.8l-1.7-3.9c-0.2-0.4-0.6-0.7-1.1-0.8c-0.5,0-1,0.2-1.2,0.6l-5.2,7.7
		C435.7,236.2,438.5,230.6,443.4,226.6z"/>
	<path fill="#FFFFFF" d="M436.4,94c0.3-0.2,0.5-0.5,0.5-0.9c0-0.3-0.1-0.7-0.4-0.9l-13.4-11.7c-0.4-0.4-1.1-0.4-1.5,0
		c-1.7,1.5-3.3,3.2-5,5c1.3-8,1.7-13.1,1.2-15.3c-0.1-0.4-0.4-0.7-0.8-0.8l-1.5-0.4l-1.1-0.3l-1.1-0.3c0,0.4-0.1,0.7-0.1,1.1
		c0,0.4-0.1,0.7-0.2,1.1c-0.3,1.7-0.8,3.6-1.3,5.4c-0.2-2.1-0.5-4.2-0.8-6c-0.1-0.4-0.1-0.8-0.2-1.2c-0.1-0.4-0.2-0.9-0.2-1.2
		l-1.2-0.4l-1.2-0.4l-9.2-2.7c-0.3-0.1-0.7,0-1,0.2c-0.3,0.2-0.5,0.5-0.5,0.9c0,0.1-0.2,6.4-0.9,15l-5.1,1.4l-1.3,0.3l-1.3,0.3
		c0.1,0.4,0.1,0.8,0.2,1.1c0,0.4,0.1,0.8,0.1,1.1c0.2,1.7,0.3,3.2,0.4,4.5c-0.6-1.6-1.2-2.9-1.8-4.1c-0.2-0.4-0.4-0.7-0.5-1
		c-0.2-0.4-0.4-0.7-0.6-1l-1.3,0.4l-1.3,0.4l-3.9,1.1c-0.3,0.1-0.6,0.3-0.7,0.6c-0.1,0.3-0.1,0.7,0,1c0.1,0.2,8.9,17.4,2.8,65.6
		l-1.1,7.1c-0.3,1.4-10,48.4-10.6,51c-1.2,5.4,0.1,7.5,1.6,8.8c1.3,1.2,6.3,2.1,8.6,2.5c0.4,0.1,1.5,0.4,2.7,0.1
		c1.9-0.5,4.4-2.3,5.4-8.3c1.9-11.8,12.9-54.6,13.4-56.4c1.6-4.7,3.1-8.8,3.2-8.9C421.2,104.7,436.3,94.1,436.4,94z M381.6,219.1
		L381.6,219.1l-0.1-0.1l-0.1,0c-3.1-0.5-6.9-1.4-7.5-1.9c-0.7-0.6-2-1.8-0.9-6.7c0.3-1.5,3.9-18.7,6.8-32.7c0.1-0.4,0.2-0.7,0.2-1.1
		c0.7-3.2,1.3-6.3,1.8-8.9c0.1-0.4,0.2-0.8,0.2-1.1c0.5-2.6,1-4.7,1.2-5.9c0,0,0,0,0.1,0c0.3,0.1,0.6,0.2,0.9,0.3
		c2.1,0.6,5.5,1.1,9.6,0.1c0,0,0,0,0,0c1.4-0.3,2.7-0.8,4-1.4c0.4-0.2,0.9-0.4,1.3-0.6c0.1,0,0.1-0.1,0.2-0.1c0.1,0,0.2-0.1,0.2-0.1
		c-0.4,1.4-0.8,3.2-1.4,5.4c-0.1,0.6-0.3,1.2-0.5,1.8c0,0.2-0.1,0.3-0.1,0.5c-1,4.1-2.3,9-3.5,14.1c-0.1,0.4-0.2,0.7-0.3,1.1
		c-3,12.1-6,25.1-7,30.9c-0.6,3.8-1.9,6.1-3.7,6.5C382.3,219.4,381.6,219.1,381.6,219.1z M382.2,86.5l3.2-0.9
		c1.3,2.5,2.9,6.3,4,11.4c0.1,0.6,0.7,1,1.3,1c0.1,0,0.2,0,0.3,0c0.5-0.1,0.9-0.5,1-1c0.1-0.2,1-4.7,0-13.2l4.6-1.3l1.2-0.3l0.2-0.1
		c0.3,0.7,0.5,1.5,0.7,2.2c2.1,6.9,3.1,14.8,3.5,23.1c-0.3,0.7-0.7,1.3-1,2c-0.2,0.3-0.3,0.7-0.5,1c-0.2,0.3-0.3,0.7-0.5,1
		c-3.1,6.2-6,13.2-8.9,20.8c-2.6,6.8-4.7,13.2-6.3,18.6C390,109.4,384.2,91.2,382.2,86.5z M408.7,69.3c0.7,3.9,1.5,9.8,0.8,12.9
		c-0.2,0.9-0.4,1.6,0.2,2.1c0.3,0.3,0.7,0.4,1.1,0.3c0,0,0,0,0,0c0.5-0.1,1.1-0.4,3.1-7.3c0.4-1.6,1.1-3.9,1.5-6l0.5,0.1
		c0.3,3-0.6,10-2,17.6c-3.3,4.2-6.4,9-9.5,14.6c-0.6-9.1-2.2-16.8-4.5-23.2c-0.1-0.3-0.4-0.5-0.7-0.7c0.5-6,0.7-10.8,0.8-13.1
		L408.7,69.3z M401.2,153.3c-0.3,0.7-0.5,1.5-0.8,2.3c-0.3,0.2-0.5,0.4-0.8,0.6c-0.4,0.3-0.9,0.5-1.3,0.8c-1.6,0.9-3.3,1.6-5,2
		c0,0,0,0,0,0c-3.6,0.9-6.6,0.4-8.5-0.1c1.8-6.3,4.6-15.6,8.4-25.7c2.9-7.6,5.9-14.6,9-20.9c0-0.1,0.1-0.2,0.1-0.2
		c0.2-0.3,0.3-0.7,0.5-1c0.2-0.3,0.3-0.6,0.5-0.9c0,0,0-0.1,0.1-0.1c0.3-0.7,0.7-1.3,1-2c2.7-5.2,5.5-9.8,8.3-13.8
		c0.5-0.7,1-1.5,1.6-2.2c0.5-0.7,1-1.3,1.5-2c2.2-2.7,4.3-5.1,6.5-7.2L434,93c-3.9,3.3-17,16.4-30.5,54
		C403.4,147.2,402.4,149.9,401.2,153.3z"/>
	<path fill="#FFFFFF" d="M586.8,204.1c-7.9-2.9-13.4-1-15.4,0c-1.7-1.5-3.7-2.8-6.2-3.6c0.3-0.7,0.7-1.5,1.1-2.2
		c0.6-1.1,1.2-2.2,2-3.3c0.6-0.9,1.1-1.5,1.8-1.9c1.1-0.6,1.5-1.3,1.6-1.8c0.1-0.5,0.1-1.3-0.7-2.3c-1.1-1.4-2.3-2.8-3.4-4.2
		l-0.1-0.1c-0.9-1.1-2.1-1.4-3.4-0.8c-1.5,0.7-2.7,1.8-3.8,3.1c-1.4,1.8-2.4,4.1-2.9,6.8c-0.3,1.3-0.4,2.5-0.5,3.7
		c-0.1,0.8-0.1,1.6,0,2.4l1.2,0c-3.2,0.3-6.1,1.2-8.6,2.7c-1-0.6-3.9-2.1-7.5-2.5c-4.2-0.4-10.1,0.5-15,7.8
		c-2.5,3.8-6.3,13.3-3.3,34.5c1.8,12.6,5.5,24.4,8.6,27.6c1.5,2,4.4,5.4,8.7,5.7c1.5,0.1,3.1-0.1,4.7-0.9c0,0,0,0,0,0
		c2.1,1.9,5.3,3.6,10.3,4c0.2,0,0.4,0,0.6,0c4.7,0.3,8-0.7,10.2-2.1c1.6,1.1,3.2,1.8,4.9,1.9c0.8,0.1,1.7,0,2.5-0.2
		c6.2-1.4,10.3-9.1,10.4-9.4c4.7-8.8,8.4-20.8,11.1-35.7C597.3,224.2,598.3,208.4,586.8,204.1z M559.1,197.7
		c0.1-1.1,0.2-2.2,0.5-3.4c0.5-2.4,1.3-4.3,2.5-5.9c0.8-1.1,1.8-1.9,3-2.5c0.3-0.1,0.3-0.2,0.6,0.1l0.1,0.1c1.1,1.4,2.3,2.8,3.4,4.2
		c0.1,0.2,0.2,0.3,0.2,0.3c0,0-0.1,0.1-0.4,0.3c-1.3,0.7-2.1,1.8-2.7,2.6c-1,1.4-1.8,2.9-2.6,4.4c-0.3,0.6-0.6,1.3-0.9,1.9
		c-1.1-0.2-2.4-0.3-3.7-0.2c0,0,0,0,0,0C559.1,199.1,559.1,198.4,559.1,197.7z M582.6,267.8c0,0-0.5,1-1.4,2.2
		c-1.5,2.2-4.2,5.3-7.5,6.1c-1.7,0.4-3.3,0.1-4.9-0.9c1.2-1.1,1.9-2.1,2.3-2.9c0.3-0.6,0.4-0.9,0.4-1c0.2-0.6-0.1-1.3-0.8-1.5
		c-0.6-0.2-1.3,0.1-1.5,0.8c0,0-0.2,0.4-0.5,1c-1.1,1.8-4.3,5.3-12,4.8c-7.5-0.4-10.5-4-11.7-6.3c-0.5-0.9-0.7-1.6-0.7-1.7
		c-0.1-0.6-0.7-1-1.4-0.9c-0.6,0.1-1,0.8-0.9,1.4c0,0.1,0.1,0.4,0.2,0.8c0.3,0.7,0.8,1.9,1.7,3.1c-4.5,1.7-7.9-1.7-9.2-3.4
		c-0.4-0.5-0.6-0.8-0.6-0.8l-0.1-0.1l-0.1-0.1c-0.7-0.7-1.5-2.1-2.4-4.1c-2.1-4.8-4.3-12.9-5.7-22.3c-1.2-8.2-1.4-15.6-0.6-21.5
		c0.6-4.8,1.8-8.7,3.6-11.4c6.5-9.7,15.1-6.7,18.4-5.1c-0.7,0.6-1.4,1.2-2,1.9c-4.9,5.4-7.1,13.8-6.6,25l0,0.1
		c0.6,6,2.4,13,2.4,13.1c0.1,0.5,0.6,0.9,1.1,0.9c0.1,0,0.3,0,0.4,0c0.6-0.2,1-0.8,0.9-1.5c-0.1-0.4-0.3-1-0.4-1.8
		c-0.6-2.7-1.5-7.2-1.9-10.9c-0.5-10.5,1.5-18.3,6-23.2c1.8-2,4.1-3.5,6.7-4.4c1.7-0.6,3.6-0.9,5.5-1c11.8-0.5,15.7,11.1,15.9,11.6
		c0.2,0.6,0.9,1,1.5,0.8c0.6-0.2,1-0.9,0.8-1.5c0-0.1-1.2-3.7-4.3-7.1c2.1-0.8,6.6-1.9,12.8,0.4c10,3.7,9,18.2,7.5,26.5
		C590.8,247.5,587.1,259.3,582.6,267.8z"/>
	<path fill="#FFFFFF" d="M678.8,274.7c2.7-2,3.3-5.8,1.4-8.5c-2-2.7-5.8-3.4-8.5-1.4c-2.7,2-3.3,5.8-1.4,8.5
		C672.3,276,676.1,276.6,678.8,274.7z M678.4,267.5c1.2,1.7,0.8,4.1-0.9,5.3c-1.7,1.2-4.1,0.8-5.3-0.9c-1.2-1.7-0.8-4.1,0.9-5.3
		C674.8,265.4,677.2,265.8,678.4,267.5z"/>
	<path fill="#FFFFFF" d="M681.8,243.7c3.2-2.3,4-6.8,1.7-10c-2.3-3.2-6.8-4-10-1.7c-3.2,2.3-4,6.8-1.7,10
		C674.1,245.3,678.6,246,681.8,243.7z M674.8,233.8c2.2-1.6,5.3-1.1,6.9,1.1c0.6,0.8,0.9,1.7,0.9,2.6c0,0,0,0,0,0
		c0.1,1.6-0.6,3.3-2,4.3c-2.2,1.6-5.3,1.1-6.9-1.1C672,238.5,672.5,235.4,674.8,233.8z"/>
	<path fill="#FFFFFF" d="M646.7,297.4c4.1-2.9,5-8.6,2.1-12.6c-2.9-4.1-8.6-5-12.7-2.1c-4.1,2.9-5,8.6-2.1,12.7
		C637,299.4,642.6,300.3,646.7,297.4z M637.5,284.5c3.1-2.2,7.3-1.5,9.5,1.6c2.2,3.1,1.5,7.3-1.6,9.5c-3.1,2.2-7.3,1.5-9.5-1.6
		C633.7,290.9,634.4,286.7,637.5,284.5z"/>
	<path fill="#FFFFFF" d="M718.6,260.7l-5.3-7.3l-0.7-0.9l-0.7-0.9l-11.4-16l-0.7-0.9l-0.7-0.9l-13.6-19c0,0,0,0,0,0
		c0,0-0.1-0.1-0.1-0.1c0,0,0,0-0.1-0.1c0,0-0.1-0.1-0.1-0.1c0,0,0,0-0.1,0c0,0-0.1,0-0.1-0.1c0,0-0.1,0-0.1,0c0,0-0.1,0-0.1,0
		c0,0,0,0-0.1,0c0,0,0,0,0,0c-0.1,0-0.1,0-0.2,0c0,0,0,0,0,0c-0.1,0-0.1,0-0.2,0c0,0,0,0-0.1,0c0,0-0.1,0-0.1,0l-32.4,16.4
		c-0.1,0.1-0.2,0.2-0.3,0.3c-14.7,17-42.8,49.5-43.8,50.6c0,0,0,0,0,0.1c0,0-0.1,0.1-0.1,0.1c0,0,0,0.1-0.1,0.1c0,0,0,0.1-0.1,0.1
		c0,0,0,0.1,0,0.1c0,0,0,0.1,0,0.1c0,0,0,0.1,0,0.1c0,0,0,0.1,0,0.1c0,0,0,0.1,0,0.1c0,0,0,0.1,0,0.1c0,0,0,0.1,0,0.1
		c0,0,0,0.1,0,0.1s0,0.1,0,0.1c0,0,0,0.1,0,0.1c0,0,0,0.1,0.1,0.1c0,0,0,0,0,0l4.1,5.8l3.1,4.3l25.7,35.9c0.2,0.3,0.5,0.4,0.8,0.5
		c0.3,0,0.6,0,0.8-0.2c0,0,0.1,0,0.1-0.1l22.3-19.6l0.9-0.8l1-0.8l8-7l1-0.8l0.9-0.8l21.9-19.2l1.2-1.1l3.1-2.7l1.2-1.1l14.9-13.1
		C718.8,261.8,718.9,261.1,718.6,260.7z M708.6,250.7l0.2,0.2l1.5,2c-4.1,2.7-9.5,2.1-12.8-1.3l0,0l0,0c-0.3-0.3-0.6-0.7-0.9-1.1
		c-3.2-4.4-2.2-10.5,2.1-13.8L708.6,250.7z M660.3,235.3l-10.6,9.3l-1.2,1l-1.4,1.3l-5.5,4.8l-1.4,1.3l-1.2,1l-18.8,16.5
		c10.1-11.7,24.6-28.5,32.7-37.8l24.3-12.3L660.3,235.3z M655.7,254.3C655.7,254.3,655.7,254.3,655.7,254.3c-0.1,2.1-1.1,4.2-3,5.5
		c-3.1,2.2-7.3,1.6-9.7-1.2c0,0,0,0,0,0l0,0c-0.1-0.2-0.3-0.3-0.4-0.5c-0.7-1-1.1-2.1-1.3-3.2l9-7.9c1.5,0.4,3,1.4,4,2.7
		C655.3,251.1,655.8,252.7,655.7,254.3L655.7,254.3z M615.3,290.1l-1.6-2.2c-0.1-1.2,0.5-2.5,1.6-3.3c1.7-1.2,4.1-0.8,5.3,0.9
		c0.6,0.8,0.8,1.8,0.7,2.7l0,0c0,0,0,0,0,0c-0.1,1-0.7,2-1.6,2.7c-1.1,0.8-2.4,0.9-3.6,0.5L615.3,290.1z M618,293.8
		c1.1-0.1,2.2-0.4,3.1-1.1c2.7-2,3.3-5.8,1.4-8.5c-2-2.7-5.8-3.4-8.5-1.4c-1,0.7-1.6,1.6-2.1,2.6l-2.1-2.9l29.5-26
		c0.3,1,0.7,1.9,1.4,2.8c3,4.2,9,5.2,13.2,2.2c4.2-3,5.2-9,2.2-13.2c-1-1.4-2.4-2.5-3.9-3.1l32.2-28.3l12.8,17.9
		c-5.3,4-6.5,11.5-2.6,16.9c3.9,5.4,11.4,6.7,16.9,3l3,4.2l1.6,2.2l-13.4,11.8c0,0-0.1-0.1-0.1-0.1c-0.5-0.7-1.1-1.2-1.8-1.5
		c-1.5-0.7-3.3-0.6-4.7,0.4c-1.7,1.2-2.3,3.4-1.7,5.3c0.1,0.4,0.3,0.8,0.6,1.2c0.2,0.3,0.5,0.6,0.7,0.8L675,297.3c0,0,0,0,0,0
		c-0.4-0.6-0.9-1.1-1.4-1.5c-2.9-2.5-7.2-2.7-10.4-0.4c-3.7,2.7-4.6,7.8-2,11.6c0,0.1,0.1,0.1,0.1,0.2c0.3,0.5,0.7,0.9,1.1,1.3
		l-20.9,18.4l-0.9-1.3L618,293.8z M664.6,297.1c2.3-1.6,5.3-1.5,7.4,0.1c0.5,0.4,0.9,0.8,1.2,1.3c0.1,0.1,0.1,0.2,0.2,0.2l-9.2,8
		c-0.4-0.3-0.7-0.7-1-1.1c-0.1-0.1-0.2-0.2-0.2-0.4C661.2,302.6,661.9,299,664.6,297.1z M696.5,275.3c0.1-0.7,0.4-1.3,1-1.7
		c0.4-0.3,0.9-0.5,1.4-0.5c0.8,0,1.5,0.4,2,1c0.1,0.1,0.1,0.2,0.2,0.3l-3.5,3.1c-0.2-0.2-0.4-0.4-0.6-0.6
		C696.5,276.4,696.4,275.8,696.5,275.3z"/>
	<path fill="#FFFFFF" d="M579.1,123.4c0.1,0,0.6-0.4,1.5-1.1c1.1-0.9,2.8-2.4,4.7-4.4c1.7-1.8,3.5-4.1,5.2-6.9
		c0.3-0.5,0.2-1.2-0.4-1.5c-0.5-0.3-1.2-0.2-1.5,0.4c-3.6,5.8-7.8,9.5-9.7,11c-0.6,0.5-1,0.7-1,0.7c-0.5,0.3-0.7,1-0.3,1.6
		C577.9,123.6,578.6,123.7,579.1,123.4z"/>
	<path fill="#FFFFFF" d="M558.6,104.4c-0.4,3.4,0.7,7.6,5.8,12.2c10.9,9.9,67.2,52.1,84.8,65c2.6,1.8,7.3,4.5,9.1,2.5
		c0,0,0.1-0.1,0.1-0.1c0,0,0.1-0.1,0.1-0.1c0,0,0,0,0,0c0,0,0,0,0.1-0.1c1.7-2.1-1.4-6.4-3.4-8.8c-14.4-16.3-61.6-68.5-72.5-78.4
		c-4.2-3.9-8.5-5.4-12.5-4.6c-2.1,0.4-3.8,1.4-5,2.3c-3.7-4.2-4.8-7.2-5.7-10.4c-0.1-0.3-0.3-0.6-0.6-0.7c-0.3-0.1-0.6-0.1-0.9,0
		l-5.5,2.5c-0.5,0.2-0.7,0.7-0.6,1.2c1.1,5.9,6.6,11.2,8.5,12.9C559.5,101.1,558.9,102.6,558.6,104.4z M653.4,176.5
		c2,2.3,3.6,5.2,3.4,5.9l-0.1,0l-0.1,0.1c-0.7,0.3-3.7-1.1-6.2-2.8c-1.7-1.2-3.7-2.7-6-4.4c0.4-0.3,0.9-0.7,1.4-1.2c0,0,0,0,0,0
		c0.4-0.4,0.7-0.9,1.1-1.4c0.3-0.5,0.1-1.2-0.4-1.5c-0.5-0.3-1.2-0.1-1.5,0.4c-0.3,0.5-0.6,0.9-0.9,1.2c-0.6,0.6-1.2,1-1.6,1.2
		c-2.2-1.6-4.5-3.3-7-5.2c0.4-0.3,1-0.8,1.6-1.3c0.5-0.5,1.1-1,1.7-1.7c0.7-0.8,1.5-1.8,2.3-2.9
		C646.2,168.4,650.5,173.2,653.4,176.5z M621.4,141c-2.9,5.4-7,7.8-7,7.9c-0.2,0.1-0.3,0.3-0.4,0.5c-0.2,0.3-0.2,0.7,0,1.1
		c0.3,0.5,1,0.7,1.5,0.4c0,0,0.1,0,0.1-0.1c0.5-0.3,2.2-1.5,4.1-3.6c1.1-1.2,2.2-2.6,3.2-4.4c3.2,3.5,6.4,7,9.4,10.4
		c-2.5,4.1-5.5,6.2-5.6,6.3c0,0,0,0,0,0c-0.5,0.3-0.6,1-0.3,1.6c0.3,0.5,1,0.7,1.6,0.3c0,0,0.3-0.2,0.6-0.4c0.6-0.5,1.6-1.3,2.7-2.5
		c0.8-0.9,1.8-2.1,2.6-3.5c1.9,2.1,3.8,4.2,5.6,6.2c-1.4,2.3-3.1,3.9-4.3,4.9c-0.9,0.8-1.5,1.2-1.7,1.3c-4.2-3.1-8.8-6.6-13.5-10.1
		c0.5-0.3,1.1-0.9,1.9-1.5c0.4-0.4,0.8-0.8,1.2-1.2c0.7-0.8,1.5-1.8,2.2-2.9c0.3-0.5,0.2-1.2-0.3-1.6c-0.5-0.3-1.2-0.2-1.5,0.3
		c-1.1,1.7-2.3,3-3.3,3.9c-1,0.9-1.8,1.4-2,1.5c-3.9-2.9-7.8-5.9-11.8-8.9c0.5-0.4,1.3-1,2.1-1.8c0.9-0.9,2-1.9,3.2-3.2
		c1.5-1.7,3.2-3.8,4.8-6.2C618.2,137.5,619.8,139.2,621.4,141z M564.4,98.3l0.1-0.1c0,0,0.2-0.3,0.6-0.7c6.2-6.8,13.3-1.7,16.1,0.8
		c0.9,0.9,2.1,2,3.6,3.5c-4.5,8-10.2,12.8-11.7,14c-0.2,0.2-0.4,0.3-0.4,0.3c-0.5,0.4-0.6,1.1-0.3,1.6c0.4,0.5,1.1,0.6,1.6,0.3
		c0.1,0,0.3-0.3,0.8-0.6c1-0.8,2.7-2.3,4.8-4.6c2.1-2.3,4.5-5.4,6.8-9.3c4.2,4.3,9.9,10.3,16.2,17.1c-4.8,7.1-10,11.2-10.1,11.2
		c-0.1,0.1-0.2,0.1-0.2,0.2c-0.3,0.4-0.3,0.9,0,1.4c0.4,0.5,1.1,0.6,1.6,0.2c0,0,0.1-0.1,0.2-0.1c0.6-0.5,2.6-2.1,5.1-4.9
		c1.5-1.7,3.3-3.8,5-6.3c3.5,3.8,7.1,7.7,10.8,11.7c-2.9,4.5-6.1,7.7-8.2,9.7c-1,0.8-1.7,1.4-2.2,1.8c-2.1-1.6-4.1-3.1-6.2-4.7
		c0.8-0.6,1.6-1.3,2.3-1.9c1.4-1.2,2.6-2.4,3.6-3.6c3-3.3,4.5-5.9,4.6-6.1c0.3-0.5,0.1-1.2-0.4-1.5c-0.5-0.3-1.2-0.1-1.5,0.4
		c0,0.1-2.6,4.6-8,9.3c-0.7,0.6-1.5,1.3-2.4,1.9c-4-3.1-7.9-6-11.4-8.8c0.9-0.7,1.8-1.5,2.6-2.2c1.5-1.4,2.9-2.7,4.1-4
		c3.6-4,5.4-7,5.5-7.2c0.3-0.5,0.1-1.2-0.4-1.5c-0.5-0.3-1.2-0.1-1.5,0.4c0,0.1-3.1,5.4-9.3,10.9c-0.8,0.8-1.8,1.5-2.7,2.3
		c-8.1-6.3-14.5-11.4-17.4-14.1c-0.1-0.1-0.1-0.1-0.2-0.2c0.8-0.6,1.9-1.4,3.3-2.7c1.2-1,2.5-2.3,3.9-3.9c1.9-2.1,3.9-4.7,5.9-7.7
		c0.3-0.5,0.2-1.2-0.4-1.5c-0.5-0.3-1.2-0.2-1.5,0.4c-3.2,5.1-6.9,8.9-9.5,11.2c-1.4,1.2-2.5,2.1-3.2,2.6c-1.9-2.2-3.8-5.4-3.2-9
		c0.3-1.7,1.1-3.4,2.7-5.2c0.4-0.4,0.6-0.6,0.6-0.6L564.4,98.3z M554.1,87.4l3.5-1.6c0.9,2.9,2.3,6,5.8,10l-0.1,0.1l-1.4,1.6
		l-0.4,0.5C559.7,96.3,555.4,92,554.1,87.4z"/>
	<path fill="#FFFFFF" d="M1031.3,519.2c3.3,1.8,7.5,0.5,9.2-2.8c1.8-3.3,0.5-7.5-2.8-9.2c-3.3-1.8-7.5-0.5-9.2,2.8
		C1026.8,513.3,1028,517.4,1031.3,519.2z M1036.7,509.1c2.2,1.2,3.1,4,1.9,6.2c-1.2,2.2-4,3.1-6.2,1.9c-2.2-1.2-3.1-4-1.9-6.2
		C1031.7,508.8,1034.5,507.9,1036.7,509.1z"/>
	<path fill="#FFFFFF" d="M1014,498.3c-2.8-1.5-6.2-0.4-7.7,2.4c-1.5,2.8-0.4,6.2,2.4,7.7c2.8,1.5,6.2,0.4,7.7-2.4
		C1017.8,503.3,1016.7,499.8,1014,498.3z M1009.6,506.5c-1.7-0.9-2.4-3-1.4-4.8c0.9-1.7,3-2.4,4.7-1.4c1.7,0.9,2.4,3,1.4,4.7
		C1013.5,506.7,1011.3,507.4,1009.6,506.5z"/>
	<path fill="#FFFFFF" d="M1022.7,496c2.4,1.3,5.4,0.4,6.7-2.1c1.3-2.4,0.4-5.4-2.1-6.7c-2.4-1.3-5.4-0.4-6.7,2.1
		S1020.3,494.7,1022.7,496z M1026.3,489.1c1.3,0.7,1.9,2.4,1.1,3.8c-0.7,1.4-2.4,1.9-3.8,1.1c-1.3-0.7-1.9-2.4-1.1-3.8
		C1023.3,488.9,1025,488.4,1026.3,489.1z"/>
	<path fill="#FFFFFF" d="M1020.2,528.8c0.1,0,0.3,0.1,0.4,0.1c0.3,0.1,0.6,0.1,0.9,0.2c0.1,0,0.2,0,0.4,0.1c0.4,0.1,0.8,0.1,1.2,0.2
		c6.2,0.7,12.3-0.6,17.7-3.7c5.2-3,9.4-7.7,11.8-13.2c0.2-0.4,0.1-0.8-0.1-1.1c-0.2-0.3-0.6-0.5-1-0.5c-0.2,0-0.3,0-0.5,0
		c-0.7,0-1.4-0.2-2-0.5c-1.5-0.8-2.5-2.4-2.4-4.2c0-0.2,0-0.4,0.1-0.6c0.1-0.3-0.1-0.7-0.3-0.9c-0.2-0.2-0.6-0.4-0.9-0.3
		c-0.3,0-0.7,0-1,0c-1.4,0-2.7-0.4-4-1c-3-1.6-4.8-4.7-4.7-8.1c0.1-3,1.7-5.8,4.3-7.4c0.3-0.2,0.5-0.5,0.5-0.8
		c0-0.3-0.1-0.7-0.3-0.9c-0.8-0.9-1.3-2-1.2-3.2c0-1.8,1.1-3.4,2.8-4.1c0.4-0.2,0.6-0.5,0.7-0.9c0-0.4-0.2-0.8-0.5-1
		c-0.7-0.5-1.4-0.9-2.2-1.3c-3.2-1.7-6.6-2.7-10.1-3.2c-0.5-0.1-1-0.1-1.5-0.1c-0.1,0-0.3,0-0.4,0c-0.4,0-0.8,0-1.1,0
		c-0.1,0-0.2,0-0.4,0c-0.4,0-0.8,0-1.1,0c-0.1,0-0.2,0-0.3,0c-0.4,0-0.8,0-1.2,0.1c-0.1,0-0.1,0-0.2,0c-0.4,0-0.9,0.1-1.3,0.2
		c0,0-0.1,0-0.1,0c-0.5,0.1-0.9,0.1-1.3,0.2c0,0,0,0-0.1,0c-0.5,0.1-0.9,0.2-1.4,0.3c0,0,0,0,0,0c-0.5,0.1-0.9,0.3-1.4,0.4
		c0,0,0,0,0,0s0,0,0,0c-0.4,0.1-0.8,0.3-1.2,0.4c0,0,0,0,0,0c0,0,0,0,0,0c-0.9,0.3-1.9,0.7-2.7,1.2c-0.1,0-0.1,0.1-0.2,0.1
		c-0.3,0.1-0.5,0.3-0.7,0.4c-0.1,0-0.1,0.1-0.2,0.1c-0.5,0.3-0.9,0.5-1.4,0.8c-0.1,0-0.1,0.1-0.1,0.1c-0.2,0.1-0.5,0.3-0.7,0.5
		c-0.1,0-0.1,0.1-0.2,0.1c-1.5,1-2.9,2.2-4.2,3.5c0,0,0,0,0,0c-0.3,0.3-0.6,0.6-0.8,0.9c0,0,0,0,0,0c-1.6,1.8-3,3.8-4.2,5.9
		c0,0.1-0.1,0.2-0.1,0.3c-0.1,0.3-0.3,0.5-0.4,0.8c-0.1,0.1-0.1,0.3-0.2,0.4c-0.1,0.2-0.2,0.5-0.3,0.7c-0.1,0.2-0.2,0.4-0.2,0.5
		c-0.1,0.2-0.2,0.4-0.3,0.7c-0.1,0.2-0.2,0.4-0.2,0.6c-0.1,0.2-0.1,0.4-0.2,0.6c-0.1,0.2-0.1,0.5-0.2,0.7c-0.1,0.2-0.1,0.4-0.2,0.6
		c-0.1,0.3-0.1,0.5-0.2,0.8c0,0.2-0.1,0.4-0.1,0.5c-0.1,0.3-0.1,0.6-0.2,0.9c0,0.1-0.1,0.3-0.1,0.5c-0.1,0.5-0.1,0.9-0.2,1.4
		c0,0.4-0.1,0.7-0.1,1.1c0,0.1,0,0.2,0,0.4c0,0.2,0,0.5,0,0.7c0,0.1,0,0.3,0,0.4c0,0.2,0,0.4,0,0.6c0,0.2,0,0.3,0,0.5
		c0,0.2,0,0.4,0,0.6c0,0.2,0,0.3,0,0.5c0,0.2,0,0.4,0,0.6c0,0.2,0,0.4,0,0.5c0,0.2,0,0.3,0,0.5c0,0.2,0,0.4,0.1,0.6
		c0,0.2,0,0.3,0.1,0.5c0,0.2,0.1,0.4,0.1,0.6c0,0.1,0.1,0.3,0.1,0.4c0,0.2,0.1,0.4,0.1,0.6c0,0.1,0.1,0.3,0.1,0.4
		c0,0.2,0.1,0.4,0.2,0.6c0,0.1,0.1,0.3,0.1,0.4c0.1,0.2,0.1,0.4,0.2,0.7c0,0.1,0.1,0.2,0.1,0.3c0.1,0.2,0.1,0.5,0.2,0.7
		c0,0.1,0.1,0.2,0.1,0.3c0.1,0.2,0.2,0.5,0.3,0.7c0,0.1,0.1,0.2,0.1,0.3c0.1,0.2,0.2,0.5,0.3,0.7c0,0.1,0.1,0.2,0.1,0.2
		c0.1,0.2,0.2,0.5,0.3,0.7c0,0.1,0.1,0.1,0.1,0.2c0.1,0.3,0.2,0.5,0.4,0.7c0,0.1,0.1,0.1,0.1,0.2c0.1,0.3,0.3,0.5,0.4,0.8
		c0,0.1,0.1,0.1,0.1,0.2c0.1,0.3,0.3,0.5,0.4,0.8c0,0,0.1,0.1,0.1,0.1c0.2,0.3,0.3,0.5,0.5,0.8c0,0,0,0.1,0.1,0.1
		c0.2,0.3,0.3,0.5,0.5,0.8c0,0,0,0.1,0.1,0.1c0.2,0.3,0.4,0.5,0.6,0.8c0,0,0,0,0,0.1c0.2,0.3,0.4,0.5,0.6,0.8c0,0,0,0,0,0
		c0.2,0.3,0.4,0.5,0.7,0.8c0,0,0,0,0,0c0.2,0.3,0.5,0.5,0.7,0.7c0,0,0,0,0,0c0.2,0.2,0.5,0.5,0.7,0.7c0,0,0,0,0,0
		c1.9,1.8,4.1,3.5,6.5,4.8c0.3,0.2,0.6,0.3,0.9,0.5c0.6,0.3,1.2,0.6,1.8,0.8c0,0,0,0,0,0c0.5,0.2,0.9,0.4,1.4,0.5l0,0c0,0,0,0,0,0
		c0.3,0.1,0.7,0.2,1,0.3c0.3,0.1,0.7,0.2,1,0.3l0,0c0,0,0.1,0,0.1,0C1019.5,528.7,1019.8,528.7,1020.2,528.8z M1017.5,525.8
		c-1.2-0.4-2.3-0.9-3.4-1.5c-0.1-0.5,0-1.1,0.3-1.6c0.7-1.4,2.4-1.9,3.8-1.1c1.4,0.7,1.9,2.4,1.1,3.8c-0.2,0.3-0.4,0.6-0.7,0.8
		C1018.3,526,1017.9,525.9,1017.5,525.8C1017.5,525.8,1017.5,525.8,1017.5,525.8z M1038.7,477.4c0.2,0.1,0.3,0.2,0.5,0.3
		c-1.5,1.2-2.4,3.1-2.5,5.1c0,1.4,0.3,2.7,1.1,3.8c-2.6,2-4.2,5.1-4.3,8.5c-0.1,4.2,2.2,8.1,5.9,10.1c1.5,0.8,3.2,1.2,4.9,1.3
		c0.1,2.4,1.4,4.6,3.6,5.7c0.6,0.3,1.3,0.5,1.9,0.7c-5,9.8-15.5,15.5-26.6,14.2c-0.4,0-0.7-0.1-1.1-0.2c-0.4-0.1-0.7-0.1-1.1-0.2
		c0,0,0,0,0,0c0.1-0.1,0.2-0.2,0.2-0.4c1.3-2.4,0.4-5.4-2.1-6.7c-2.4-1.3-5.4-0.4-6.7,2.1c-0.2,0.5-0.4,0.9-0.5,1.4
		c-0.8-0.5-1.5-1-2.3-1.6c0,0,0,0,0,0c-0.2-0.2-0.4-0.3-0.6-0.5c-0.1-0.1-0.1-0.1-0.2-0.2c-0.2-0.1-0.3-0.3-0.5-0.4
		c-0.1-0.1-0.1-0.1-0.2-0.2c-0.2-0.1-0.3-0.3-0.5-0.4c-0.1-0.1-0.2-0.1-0.2-0.2c-0.1-0.1-0.3-0.3-0.4-0.4c-0.1-0.1-0.2-0.2-0.2-0.2
		c-0.1-0.1-0.3-0.3-0.4-0.4c-0.1-0.1-0.2-0.2-0.2-0.3c-0.1-0.1-0.3-0.3-0.4-0.4c-0.1-0.1-0.2-0.2-0.2-0.3c-0.1-0.2-0.2-0.3-0.4-0.5
		c-0.1-0.1-0.1-0.2-0.2-0.3c-0.1-0.2-0.2-0.3-0.3-0.5c-0.1-0.1-0.1-0.2-0.2-0.3c-0.1-0.2-0.2-0.3-0.3-0.5c-0.1-0.1-0.1-0.2-0.2-0.3
		c-0.1-0.2-0.2-0.3-0.3-0.5c-0.1-0.1-0.1-0.2-0.2-0.3c-0.1-0.2-0.2-0.3-0.3-0.5c-0.1-0.1-0.1-0.2-0.2-0.3c-0.1-0.2-0.2-0.3-0.3-0.5
		c0-0.1-0.1-0.2-0.1-0.3c-0.3-0.6-0.6-1.3-0.9-2c0-0.1-0.1-0.2-0.1-0.3c-0.1-0.2-0.1-0.3-0.2-0.5c0-0.1-0.1-0.3-0.1-0.4
		c-0.1-0.2-0.1-0.3-0.2-0.5c0-0.1-0.1-0.3-0.1-0.4c0-0.2-0.1-0.3-0.1-0.5c0-0.1-0.1-0.3-0.1-0.4c0-0.2-0.1-0.3-0.1-0.5
		c0-0.2-0.1-0.3-0.1-0.5c0-0.2-0.1-0.3-0.1-0.5c0-0.2-0.1-0.3-0.1-0.5c0-0.2-0.1-0.3-0.1-0.5c0-0.2-0.1-0.3-0.1-0.5
		c0-0.2,0-0.3-0.1-0.5c0-0.2,0-0.3-0.1-0.5c0-0.2,0-0.3-0.1-0.5c0-0.2,0-0.3,0-0.5c0-0.2,0-0.3,0-0.5c0-0.2,0-0.3,0-0.5
		c0-0.1,0-0.3,0-0.4c0-0.2,0-0.4,0-0.5c0-0.1,0-0.3,0-0.4c0-0.2,0-0.4,0-0.6c0-0.1,0-0.3,0-0.4c0-0.2,0-0.4,0-0.6c0-0.1,0-0.2,0-0.3
		c0-0.3,0.1-0.7,0.1-1c0-0.4,0.1-0.9,0.2-1.3c0-0.1,0.1-0.3,0.1-0.4c0.1-0.3,0.1-0.6,0.2-0.9c0-0.2,0.1-0.3,0.1-0.5
		c0.1-0.3,0.1-0.5,0.2-0.8c0-0.2,0.1-0.3,0.1-0.5c0.1-0.2,0.1-0.5,0.2-0.7c0.1-0.2,0.1-0.3,0.2-0.5c0.1-0.2,0.2-0.5,0.3-0.7
		c0.1-0.1,0.1-0.3,0.2-0.4c0.1-0.3,0.2-0.5,0.3-0.8c0.1-0.1,0.1-0.2,0.2-0.4c0.2-0.4,0.3-0.7,0.5-1.1c0.1-0.1,0.1-0.2,0.2-0.3
		c0.1-0.3,0.3-0.5,0.4-0.8c0.1-0.2,0.2-0.3,0.3-0.4c0.1-0.2,0.2-0.4,0.3-0.6c0.1-0.2,0.2-0.3,0.3-0.5c0.1-0.2,0.2-0.4,0.4-0.5
		c0.1-0.2,0.2-0.3,0.3-0.5c0.1-0.2,0.2-0.3,0.4-0.5c0.1-0.2,0.2-0.3,0.4-0.5c0.1-0.2,0.2-0.3,0.4-0.5c0.1-0.2,0.3-0.3,0.4-0.5
		c0.1-0.1,0.3-0.3,0.4-0.4c0.4-0.4,0.8-0.8,1.2-1.2c0.5,0.7,1.2,1.3,2.1,1.8c3.1,1.7,7,0.5,8.7-2.7c0.9-1.8,1-3.8,0.3-5.5
		c1.6-0.5,3.3-0.8,5.1-0.9c0,0,0.1,0,0.1,0c0.4,0,0.8-0.1,1.2-0.1c0.1,0,0.2,0,0.3,0c0.4,0,0.7,0,1.1,0c0.2,0,0.4,0,0.6,0
		c0.3,0,0.5,0,0.8,0c0.4,0,0.9,0.1,1.3,0.1C1032.6,474.9,1035.8,475.9,1038.7,477.4z M1009.6,480.3c0.2-0.2,0.5-0.4,0.8-0.6
		c0,0,0.1-0.1,0.1-0.1c0.3-0.2,0.5-0.4,0.8-0.6c0,0,0,0,0.1,0c1.1-0.8,2.4-1.5,3.6-2.1c0,0,0,0,0,0c0.3-0.1,0.6-0.3,0.9-0.4
		c0,0,0.1,0,0.1,0c0.3-0.1,0.6-0.3,0.9-0.4c0.5,1.2,0.6,2.6-0.1,3.8c-1.1,2.1-3.7,2.9-5.7,1.8
		C1010.4,481.3,1009.9,480.9,1009.6,480.3C1009.5,480.3,1009.6,480.3,1009.6,480.3z"/>
	<path fill="#FFFFFF" d="M962.2,535.3c0-0.1-0.1-0.2-0.2-0.3c-3.1-5.6-8.2-10.1-14.4-12.3c-1.3-0.5-2.6-0.8-4-1.1
		c0.5-1.3,1.9-3.1,2.9-4.2c0.3-0.3,0.4-0.8,0.3-1.3c-0.1-0.4-0.5-0.8-0.9-0.9l-5.3-1.5c-0.6-0.2-1.2,0.1-1.5,0.5
		c-1.6,2.4-2.1,5.5-2.2,6.9c-1,0.1-1.9,0.2-2.8,0.3c-6.6,1.2-12.4,4.7-16.4,9.9c-0.1,0.1-0.2,0.2-0.2,0.3c-3,3.9-4.9,8.7-5.3,14
		c-1.1,14.6,9.9,27.5,24.5,28.6c14.6,1.1,27.5-9.9,28.6-24.5C965.6,544.6,964.5,539.6,962.2,535.3z M914.8,545.9
		c0.4-4.7,2-8.9,4.6-12.4l10.6-2.8l-1.7,5.5c-0.2,0.5,0,1.1,0.5,1.5c0.5,0.3,1.1,0.3,1.6,0l9.7-6.8l7.9,8.1c0.2,0.2,0.5,0.4,0.9,0.4
		c0.2,0,0.4,0,0.6-0.1c0.5-0.2,0.8-0.7,0.8-1.3l-0.2-6.3l9.8,4.9c2,3.8,3,8.2,2.6,12.9c-1,13.2-12.6,23-25.7,22
		C923.7,570.6,913.8,559.1,914.8,545.9z M939.3,523.8c0-1,0.2-2.7,0.2-2.7c0.1-1.1,0.5-2.9,1.3-4.5l2.3,0.7
		c-0.9,1.1-1.4,2.7-1.8,4.1c-0.2,0.9-0.4,2.3-0.4,2.6c0.4,0,0.8,0.1,1.2,0.1c5.9,0.9,11,3.9,14.7,8.1l-7.6-3.8
		c-0.4-0.2-0.9-0.2-1.3,0.1c-0.4,0.3-0.6,0.7-0.6,1.2l0.1,5.1l-6.3-6.5c-0.5-0.5-1.2-0.5-1.7-0.2l-7.5,5.2l1.3-4.1
		c0.1-0.5,0-1-0.3-1.3c-0.3-0.4-0.8-0.5-1.3-0.4l-9,2.3C927.2,525.9,933,523.6,939.3,523.8z"/>
	<path fill="#FFFFFF" d="M1030.7,415.6c0.3,0,0.7-0.1,0.9-0.3c0.2-0.2,0.4-0.6,0.3-0.9l-2.3-17.7c-0.1-0.6-0.6-1-1.1-1
		c-2.2,0-4.6,0.2-7.1,0.5c6.3-5.1,10-8.7,11-10.7c0.2-0.4,0.2-0.8,0-1.1l-0.8-1.3l-0.6-1l-0.6-1c-0.2,0.2-0.5,0.5-0.8,0.8
		c-0.3,0.2-0.6,0.5-0.9,0.7c-1.3,1.1-3,2.2-4.5,3.2c1.2-1.7,2.4-3.4,3.4-5c0.2-0.4,0.4-0.7,0.7-1.1c0.2-0.4,0.5-0.7,0.6-1.1
		l-0.7-1.1l-0.7-1.1l-5.1-8.1c-0.2-0.3-0.5-0.5-0.8-0.5c-0.3,0-0.7,0.1-0.9,0.4c-0.1,0.1-4.4,4.7-10.6,10.7l-4.7-2.3l-1.2-0.6
		l-1.2-0.6c-0.2,0.3-0.4,0.6-0.6,0.9c-0.2,0.3-0.4,0.6-0.6,0.9c-1,1.4-1.9,2.6-2.7,3.6c0.6-1.6,1-3,1.4-4.2c0.1-0.4,0.2-0.8,0.3-1.1
		c0.1-0.4,0.2-0.8,0.2-1.1l-1.2-0.6l-1.2-0.6l-3.6-1.8c-0.3-0.1-0.7-0.1-1,0c-0.3,0.1-0.5,0.4-0.6,0.8c0,0.2-4.8,18.9-41.3,51
		l-5.5,4.6c-1.1,0.8-39.6,29.7-41.7,31.2c-4.4,3.3-4.8,5.7-4.7,7.6c0.2,1.8,3.3,5.8,4.8,7.6c0.2,0.4,0.8,1.3,2,1.9
		c1.8,0.9,4.8,1.2,9.6-2.7c9.3-7.6,45.8-32.4,47.3-33.4c4.2-2.5,8.2-4.5,8.2-4.6C1012.2,413.6,1030.6,415.6,1030.7,415.6z
		 M906.9,473.2L906.9,473.2l-0.1-0.1l-0.1-0.1c-2-2.5-4.3-5.6-4.4-6.4c-0.1-0.9-0.3-2.7,3.8-5.6c1.3-0.9,15.3-11.4,26.7-20
		c0.3-0.2,0.6-0.5,0.9-0.7c2.7-2,5.1-3.9,7.3-5.4c0.3-0.2,0.6-0.5,0.9-0.7c2.1-1.6,3.8-2.9,4.9-3.6c0,0,0,0,0,0.1
		c0.1,0.2,0.3,0.5,0.5,0.8c1.2,1.8,3.4,4.5,7.1,6.5c0,0,0,0,0,0c1.2,0.7,2.6,1.2,4,1.6c0.5,0.1,0.9,0.3,1.4,0.4c0.1,0,0.2,0,0.2,0.1
		c0.1,0,0.2,0,0.3,0.1c-1.2,0.8-2.8,1.9-4.6,3.1c-0.5,0.3-1,0.7-1.5,1.1c-0.1,0.1-0.3,0.2-0.4,0.3c-3.5,2.4-7.6,5.3-12,8.3
		c-0.3,0.2-0.6,0.4-0.9,0.6c-10.2,7.1-21.2,14.9-25.7,18.6c-3,2.4-5.5,3.3-7.1,2.4C907.2,473.9,906.9,473.2,906.9,473.2z
		 M995.1,374.2l3,1.5c-0.7,2.7-2,6.6-4.5,11.2c-0.3,0.5-0.2,1.2,0.3,1.6c0.1,0.1,0.2,0.1,0.2,0.2c0.4,0.2,1,0.2,1.4-0.1
		c0.2-0.1,3.9-2.9,8.7-9.9l4.3,2.1l1.1,0.5l0.2,0.1c-0.3,0.7-0.6,1.4-0.9,2.1c-3,6.5-7.4,13.2-12.6,19.6c-0.7,0.3-1.4,0.5-2.1,0.8
		c-0.4,0.1-0.7,0.3-1.1,0.4c-0.4,0.1-0.7,0.3-1.1,0.4c-6.4,2.7-13.3,5.9-20.5,9.7c-6.4,3.4-12.2,6.8-17,9.7
		C985.7,396.5,993.4,379,995.1,374.2z M1026.3,378.8c-2.1,3.4-5.4,8.4-7.9,10.2c-0.8,0.5-1.3,0.9-1.3,1.7c0,0.4,0.3,0.7,0.6,0.9
		c0,0,0,0,0,0c0.5,0.3,1.1,0.5,7.1-3.4c1.4-0.9,3.4-2.2,5.1-3.6l0.3,0.4c-1.7,2.5-7.1,7.1-13.1,11.9c-5.2,1-10.8,2.5-16.8,4.6
		c5.5-7.2,9.5-14,11.9-20.4c0.1-0.3,0.1-0.7-0.1-0.9c4.3-4.2,7.6-7.6,9.2-9.3L1026.3,378.8z M965.1,436.8c-0.7,0.4-1.4,0.8-2.1,1.2
		c-0.3,0-0.6-0.1-1-0.1c-0.5-0.1-1-0.2-1.5-0.3c-1.8-0.4-3.5-1-5.1-1.8c0,0,0,0,0,0c-3.3-1.7-5.2-4.1-6.3-5.7
		c5.5-3.5,13.8-8.6,23.3-13.7c7.2-3.8,14.1-7.1,20.6-9.7c0.1,0,0.2-0.1,0.2-0.1c0.4-0.1,0.7-0.3,1.1-0.4c0.3-0.1,0.6-0.3,1-0.4
		c0,0,0.1,0,0.1,0c0.7-0.3,1.4-0.5,2.1-0.8c5.5-2.1,10.6-3.7,15.4-4.8c0.9-0.2,1.7-0.4,2.6-0.6c0.8-0.2,1.6-0.3,2.4-0.5
		c3.4-0.6,6.6-1,9.6-1.1l2,15.4c-5.1-0.1-23.6,1.1-58.6,20.3C970.8,433.7,968.3,435.1,965.1,436.8z"/>
	<path fill="#FFFFFF" d="M1070.6,597.7c-4-7.4-9.4-9.6-11.5-10.2c-0.3-2.2-1-4.6-2.3-6.8c0.7-0.3,1.5-0.7,2.3-1
		c1.2-0.5,2.4-0.9,3.7-1.2c1-0.2,1.8-0.4,2.6-0.2c1.2,0.3,2,0,2.4-0.3c0.4-0.3,1-0.9,1-2.1c0.1-1.8,0.2-3.6,0.2-5.4l0-0.1
		c0.1-1.4-0.7-2.5-2-2.8c-1.6-0.4-3.2-0.5-4.9-0.2c-2.3,0.4-4.5,1.5-6.7,3.1c-1,0.8-2,1.6-2.8,2.4c-0.6,0.6-1.1,1.1-1.6,1.7l0.9,0.7
		c-2.6-1.9-5.3-3.1-8.2-3.6c-0.4-1.1-1.5-4.1-4-6.8c-2.8-3.1-8-6.3-16.4-4.1c-4.4,1.2-13.6,5.8-25.3,23.7c-7,10.6-12,21.9-11.8,26.4
		c-0.2,2.5-0.3,6.9,2.7,10c1,1.1,2.4,1.9,4.2,2.4c0,0,0,0,0.1,0c0.3,2.8,1.6,6.2,5.1,9.8c0.1,0.1,0.3,0.3,0.4,0.4
		c3.3,3.3,6.5,4.7,9,5.2c0.4,1.9,1.3,3.5,2.4,4.7c0.6,0.6,1.3,1.1,2,1.5c5.5,3.1,13.7,0,14.1-0.2c9.3-3.5,20-10,31.9-19.5
		C1065.3,619.7,1076.5,608.5,1070.6,597.7z M1054.1,574.6c0.8-0.8,1.7-1.5,2.6-2.2c2-1.5,3.8-2.4,5.8-2.7c1.3-0.3,2.6-0.2,3.9,0.1
		c0.3,0.1,0.3,0.1,0.3,0.5l0,0.1c-0.1,1.8-0.1,3.6-0.2,5.4c0,0.2,0,0.3-0.1,0.4c-0.1,0-0.2,0-0.5-0.1c-1.4-0.4-2.8,0-3.8,0.2
		c-1.7,0.4-3.3,1-4.9,1.6c-0.7,0.3-1.3,0.6-1.9,0.8c-0.7-0.9-1.6-1.8-2.6-2.6c0,0,0,0,0,0C1053.2,575.6,1053.7,575.1,1054.1,574.6z
		 M1025.3,642.7c0,0-1,0.4-2.5,0.7c-2.6,0.6-6.7,1.2-9.6-0.4c-1.5-0.8-2.5-2.1-3.1-3.9c1.6,0,2.8-0.4,3.6-0.7c0.6-0.2,0.9-0.4,1-0.5
		c0.6-0.3,0.7-1,0.4-1.6c-0.3-0.6-1-0.7-1.6-0.4c0,0-0.4,0.2-1.1,0.4c-2,0.6-6.7,1.1-12.2-4.3c-5.3-5.2-5.2-10-4.6-12.4
		c0.2-1,0.6-1.6,0.6-1.7c0.3-0.6,0.1-1.3-0.4-1.6c-0.6-0.3-1.3-0.1-1.6,0.4c0,0.1-0.2,0.3-0.4,0.8c-0.3,0.7-0.7,1.9-0.8,3.5
		c-4.5-1.7-4.8-6.5-4.7-8.7c0-0.6,0.1-1,0.1-1l0-0.2l0-0.2c-0.1-1,0.2-2.6,0.9-4.6c1.6-4.9,5.3-12.5,10.5-20.4
		c4.6-7,9.3-12.6,13.8-16.6c3.6-3.2,7.1-5.4,10.2-6.2c11.3-3,15.8,5,17.1,8.3c-0.9,0-1.8,0-2.8,0.1c-7.2,0.8-14.5,5.6-21.5,14.4l0,0
		c-3.6,4.9-6.8,11.3-6.9,11.4c-0.2,0.5-0.1,1,0.2,1.4c0.1,0.1,0.2,0.2,0.3,0.2c0.6,0.3,1.3,0.1,1.6-0.5c0.2-0.4,0.5-0.9,0.9-1.6
		c1.3-2.4,3.6-6.4,5.8-9.4c6.6-8.2,13.3-12.8,19.8-13.5c2.7-0.3,5.4,0.1,7.9,1.1c1.7,0.7,3.3,1.6,4.8,2.9c9.2,7.5,4.5,18.7,4.3,19.2
		c-0.3,0.6,0,1.3,0.6,1.6c0.6,0.3,1.3,0,1.6-0.6c0-0.1,1.5-3.6,1.5-8.2c2.1,0.8,6.2,3,9.3,8.8c5.1,9.4-5.3,19.6-11.9,24.8
		C1044.9,632.9,1034.4,639.3,1025.3,642.7z"/>
	<path fill="#FFFFFF" d="M1066.1,131.4c-0.1,0.1-0.6,0.5-1.4,1.3c-1,1-2.6,2.7-4.2,4.9c-1.5,2-3.1,4.4-4.5,7.3
		c-0.3,0.6,0,1.2,0.5,1.5c0.6,0.3,1.2,0,1.5-0.5c3-6.1,6.8-10.2,8.6-11.9c0.6-0.5,0.9-0.8,0.9-0.8c0.5-0.4,0.6-1.1,0.2-1.6
		C1067.3,131.1,1066.5,131,1066.1,131.4z"/>
	<path fill="#FFFFFF" d="M1088.3,148.3c0.1-3.4-1.4-7.5-6.9-11.6c-11.8-8.8-72-45.4-90.7-56.4c-2.8-1.5-7.7-3.8-9.3-1.6
		c0,0,0,0.1-0.1,0.1c0,0-0.1,0.1-0.1,0.1c0,0,0,0,0,0c0,0,0,0,0,0.1c-1.5,2.2,2,6.2,4.3,8.5c15.9,14.8,68,62.2,79.7,71
		c4.6,3.4,8.9,4.6,12.9,3.4c2-0.6,3.6-1.7,4.8-2.8c4.1,3.8,5.4,6.7,6.6,9.8c0.1,0.3,0.4,0.5,0.7,0.6c0.3,0.1,0.6,0.1,0.9-0.1l5.3-3
		c0.5-0.3,0.7-0.8,0.5-1.3c-1.7-5.8-7.6-10.5-9.7-12C1087.7,151.7,1088.2,150.1,1088.3,148.3z M986.9,85.7c-2.2-2.1-4.1-4.8-3.9-5.6
		l0.1-0.1l0.1-0.1c0.7-0.3,3.8,0.7,6.4,2.2c1.8,1.1,3.9,2.3,6.4,3.8c-0.4,0.3-0.8,0.8-1.3,1.4c0,0,0,0,0,0c-0.3,0.4-0.6,1-0.9,1.5
		c-0.3,0.6,0,1.2,0.5,1.5c0.6,0.3,1.2,0,1.5-0.5c0.2-0.5,0.5-0.9,0.8-1.3c0.5-0.7,1.1-1.1,1.4-1.3c2.3,1.4,4.8,2.9,7.5,4.5
		c-0.4,0.3-0.9,0.8-1.5,1.5c-0.5,0.5-1,1.1-1.5,1.9c-0.7,0.9-1.3,1.9-2,3.1C994.9,93.1,990.2,88.7,986.9,85.7z M1022.2,117.9
		c2.4-5.6,6.2-8.5,6.2-8.5c0.2-0.1,0.3-0.3,0.4-0.5c0.1-0.3,0.1-0.7-0.1-1c-0.4-0.5-1.1-0.6-1.6-0.2c0,0-0.1,0-0.1,0.1
		c-0.5,0.4-2,1.7-3.7,3.9c-0.9,1.3-1.9,2.8-2.8,4.7c-3.5-3.2-7-6.4-10.4-9.4c2.1-4.3,4.9-6.7,5-6.8c0,0,0,0,0,0
		c0.5-0.4,0.5-1.1,0.2-1.6c-0.4-0.5-1.1-0.5-1.6-0.2c0,0-0.2,0.2-0.6,0.5c-0.5,0.5-1.4,1.5-2.4,2.8c-0.8,1-1.6,2.2-2.3,3.7
		c-2.1-1.9-4.2-3.8-6.2-5.6c1.2-2.4,2.7-4.2,3.8-5.3c0.8-0.8,1.4-1.3,1.6-1.5c4.5,2.7,9.4,5.7,14.4,8.8c-0.4,0.4-1,1-1.7,1.7
		c-0.3,0.4-0.7,0.8-1.1,1.3c-0.7,0.9-1.3,1.9-1.9,3.1c-0.3,0.6-0.1,1.2,0.5,1.5c0.6,0.3,1.2,0.1,1.5-0.5c0.9-1.8,2-3.2,2.9-4.2
		c0.9-1,1.6-1.5,1.8-1.7c4.1,2.5,8.4,5.1,12.6,7.7c-0.5,0.5-1.2,1.1-1.9,2c-0.9,0.9-1.8,2.1-2.9,3.5c-1.4,1.8-2.8,4-4.2,6.6
		C1025.8,121.2,1024,119.6,1022.2,117.9z M1083.2,155l-0.1,0.1c0,0-0.2,0.3-0.5,0.8c-5.5,7.4-13.1,3-16.1,0.7
		c-1-0.8-2.3-1.8-3.9-3.1c3.7-8.4,8.9-13.7,10.3-15.1c0.2-0.2,0.4-0.3,0.4-0.3c0.5-0.4,0.5-1.1,0.1-1.6c-0.4-0.5-1.1-0.5-1.6-0.1
		c-0.1,0-0.3,0.3-0.7,0.7c-0.9,0.9-2.5,2.6-4.3,5c-1.9,2.5-4,5.8-5.8,9.9c-4.6-3.9-10.9-9.3-17.8-15.5c4.1-7.6,8.9-12.1,9-12.2
		c0.1-0.1,0.1-0.2,0.2-0.2c0.2-0.4,0.2-1-0.1-1.3c-0.4-0.4-1.1-0.5-1.6,0c0,0-0.1,0.1-0.1,0.1c-0.5,0.5-2.4,2.4-4.6,5.4
		c-1.4,1.8-2.9,4.1-4.4,6.7c-3.8-3.4-7.9-7-11.9-10.6c2.4-4.8,5.3-8.3,7.3-10.4c0.9-0.9,1.6-1.6,2-2c2.2,1.4,4.4,2.7,6.6,4.1
		c-0.8,0.7-1.5,1.4-2.1,2.1c-1.3,1.4-2.4,2.7-3.3,3.9c-2.7,3.6-3.9,6.3-4,6.5c-0.2,0.6,0,1.2,0.6,1.5c0.6,0.2,1.2,0,1.5-0.6
		c0-0.1,2.2-4.9,7.1-10.1c0.7-0.7,1.4-1.4,2.2-2.1c4.3,2.7,8.4,5.2,12.2,7.7c-0.9,0.8-1.7,1.7-2.4,2.5c-1.4,1.5-2.6,3-3.6,4.4
		c-3.2,4.3-4.7,7.5-4.8,7.7c-0.2,0.6,0,1.2,0.6,1.5c0.6,0.3,1.2,0,1.5-0.6c0-0.1,2.6-5.7,8.2-11.8c0.8-0.8,1.6-1.7,2.5-2.5
		c8.6,5.5,15.5,10,18.7,12.4c0.1,0.1,0.1,0.1,0.2,0.2c-0.7,0.6-1.8,1.6-3,3c-1.1,1.1-2.3,2.6-3.5,4.2c-1.7,2.3-3.5,5-5.1,8.2
		c-0.3,0.6,0,1.2,0.5,1.5c0.6,0.3,1.2,0.1,1.5-0.5c2.7-5.4,6-9.5,8.4-12.1c1.3-1.4,2.3-2.3,2.9-2.9c2.1,2,4.3,5,4.1,8.6
		c-0.1,1.7-0.7,3.5-2.2,5.4c-0.3,0.5-0.6,0.7-0.6,0.7L1083.2,155z M1094.4,164.8l-3.4,1.9c-1.2-2.8-2.8-5.8-6.7-9.4l0.1-0.1l1.3-1.7
		l0.4-0.5C1088,156.4,1092.7,160.3,1094.4,164.8z"/>
	<g>
		<path fill="#FFFFFF" d="M773,335.4c3.5-1.4,5.2-5.4,3.8-8.9c-1.4-3.5-5.4-5.2-8.9-3.8c-3.5,1.4-5.2,5.4-3.8,8.9
			C765.5,335.1,769.5,336.8,773,335.4z M768.7,324.8c2.4-0.9,5.1,0.2,6,2.6c0.9,2.4-0.2,5.1-2.6,6c-2.4,0.9-5-0.2-6-2.6
			C765.2,328.4,766.4,325.7,768.7,324.8z"/>
		<path fill="#FFFFFF" d="M745.8,335.2c-2.9,1.2-4.3,4.5-3.2,7.4c1.2,2.9,4.5,4.4,7.4,3.2c2.9-1.2,4.3-4.5,3.2-7.4
			C752.1,335.5,748.7,334.1,745.8,335.2z M749.2,343.8c-1.8,0.7-3.8-0.2-4.6-2c-0.7-1.8,0.2-3.8,2-4.6c1.8-0.7,3.8,0.2,4.6,2
			C751.9,341,751,343.1,749.2,343.8z"/>
		<path fill="#FFFFFF" d="M749.6,327c2.5-1,3.8-3.9,2.8-6.5s-3.9-3.8-6.5-2.8c-2.5,1-3.8,3.9-2.8,6.5
			C744.2,326.8,747.1,328.1,749.6,327z M746.8,319.8c1.4-0.6,3,0.1,3.6,1.5c0.6,1.4-0.1,3-1.5,3.6c-1.4,0.6-3-0.1-3.6-1.5
			C744.6,322,745.3,320.4,746.8,319.8z"/>
		<path fill="#FFFFFF" d="M773.1,350.1c0.1-0.1,0.2-0.2,0.3-0.2c0.2-0.2,0.5-0.4,0.7-0.5c0.1-0.1,0.2-0.2,0.3-0.2
			c0.3-0.3,0.6-0.5,0.9-0.8c4.6-4.3,7.5-9.8,8.6-15.9c1-5.9,0.1-12.2-2.5-17.6c-0.2-0.3-0.5-0.6-0.9-0.6c-0.4,0-0.8,0.1-1,0.5
			c-0.1,0.1-0.2,0.3-0.3,0.4c-0.5,0.5-1.1,0.9-1.7,1.2c-1.6,0.6-3.4,0.3-4.8-0.8c-0.1-0.1-0.3-0.3-0.4-0.4c-0.2-0.3-0.6-0.4-0.9-0.4
			c-0.3,0-0.6,0.2-0.8,0.5c-0.2,0.3-0.4,0.5-0.6,0.8c-0.9,1-2.1,1.8-3.4,2.4c-3.2,1.3-6.7,0.7-9.3-1.6c-2.3-2-3.4-5-2.9-8
			c0-0.3-0.1-0.7-0.3-0.9c-0.2-0.2-0.5-0.4-0.9-0.4c-1.2,0.1-2.4-0.3-3.3-1.1c-1.3-1.2-1.9-3.1-1.3-4.8c0.1-0.4,0-0.8-0.3-1.1
			c-0.3-0.3-0.7-0.4-1.1-0.3c-0.8,0.2-1.6,0.5-2.4,0.8c-3.3,1.3-6.3,3.3-9,5.7c-0.4,0.3-0.7,0.7-1.1,1.1c-0.1,0.1-0.2,0.2-0.3,0.3
			c-0.3,0.3-0.5,0.6-0.8,0.8c-0.1,0.1-0.2,0.2-0.2,0.3c-0.2,0.3-0.5,0.6-0.7,0.9c-0.1,0.1-0.1,0.2-0.2,0.2c-0.2,0.3-0.5,0.6-0.7,1
			c0,0.1-0.1,0.1-0.1,0.2c-0.2,0.4-0.5,0.7-0.7,1.1c0,0,0,0.1-0.1,0.1c-0.2,0.4-0.5,0.8-0.7,1.2c0,0,0,0,0,0.1
			c-0.2,0.4-0.4,0.8-0.6,1.3c0,0,0,0,0,0c-0.2,0.4-0.4,0.9-0.6,1.3c0,0,0,0,0,0s0,0,0,0c-0.2,0.4-0.3,0.8-0.4,1.1c0,0,0,0,0,0
			c0,0,0,0,0,0c-0.3,0.9-0.6,1.9-0.9,2.9c0,0.1,0,0.2-0.1,0.2c-0.1,0.3-0.1,0.5-0.2,0.8c0,0.1,0,0.1,0,0.2c-0.1,0.5-0.2,1.1-0.3,1.6
			c0,0.1,0,0.1,0,0.2c0,0.3-0.1,0.6-0.1,0.8c0,0.1,0,0.2,0,0.2c-0.2,1.8-0.2,3.7,0,5.5c0,0,0,0,0,0c0,0.4,0.1,0.8,0.1,1.2
			c0,0,0,0,0,0c0.3,2.4,0.9,4.7,1.8,7c0,0.1,0.1,0.2,0.1,0.3c0.1,0.3,0.2,0.5,0.3,0.8c0.1,0.1,0.1,0.3,0.2,0.4
			c0.1,0.2,0.2,0.5,0.3,0.7c0.1,0.2,0.2,0.4,0.3,0.5c0.1,0.2,0.2,0.4,0.3,0.6c0.1,0.2,0.2,0.4,0.3,0.6c0.1,0.2,0.2,0.4,0.3,0.6
			c0.1,0.2,0.3,0.4,0.4,0.6c0.1,0.2,0.2,0.3,0.3,0.5c0.2,0.2,0.3,0.4,0.5,0.6c0.1,0.2,0.2,0.3,0.3,0.5c0.2,0.2,0.4,0.5,0.6,0.7
			c0.1,0.1,0.2,0.2,0.3,0.4c0.3,0.4,0.6,0.7,0.9,1c0.3,0.3,0.5,0.5,0.8,0.8c0.1,0.1,0.2,0.2,0.3,0.2c0.2,0.2,0.4,0.3,0.5,0.5
			c0.1,0.1,0.2,0.2,0.3,0.3c0.2,0.1,0.3,0.3,0.5,0.4c0.1,0.1,0.2,0.2,0.4,0.3c0.2,0.1,0.3,0.3,0.5,0.4c0.1,0.1,0.3,0.2,0.4,0.3
			c0.1,0.1,0.3,0.2,0.4,0.3c0.1,0.1,0.3,0.2,0.4,0.3c0.1,0.1,0.3,0.2,0.4,0.3c0.2,0.1,0.3,0.2,0.5,0.3c0.1,0.1,0.3,0.2,0.4,0.3
			c0.2,0.1,0.3,0.2,0.5,0.3c0.1,0.1,0.3,0.2,0.4,0.2c0.2,0.1,0.4,0.2,0.6,0.3c0.1,0.1,0.2,0.1,0.4,0.2c0.2,0.1,0.4,0.2,0.6,0.3
			c0.1,0.1,0.2,0.1,0.3,0.2c0.2,0.1,0.4,0.2,0.6,0.3c0.1,0,0.2,0.1,0.3,0.1c0.2,0.1,0.4,0.2,0.7,0.3c0.1,0,0.2,0.1,0.3,0.1
			c0.2,0.1,0.5,0.2,0.7,0.3c0.1,0,0.2,0.1,0.3,0.1c0.2,0.1,0.5,0.2,0.7,0.2c0.1,0,0.2,0.1,0.3,0.1c0.3,0.1,0.5,0.2,0.8,0.2
			c0.1,0,0.1,0,0.2,0.1c0.3,0.1,0.5,0.1,0.8,0.2c0.1,0,0.1,0,0.2,0c0.3,0.1,0.6,0.1,0.8,0.2c0.1,0,0.1,0,0.2,0
			c0.3,0.1,0.6,0.1,0.9,0.1c0,0,0.1,0,0.1,0c0.3,0,0.6,0.1,0.9,0.1c0,0,0.1,0,0.1,0c0.3,0,0.6,0.1,0.9,0.1c0,0,0.1,0,0.1,0
			c0.3,0,0.6,0,1,0.1c0,0,0,0,0.1,0c0.3,0,0.7,0,1,0c0,0,0,0,0.1,0c0.3,0,0.7,0,1,0c0,0,0,0,0,0c0.3,0,0.7,0,1-0.1c0,0,0,0,0,0
			c0.3,0,0.7,0,1-0.1c0,0,0,0,0,0c2.6-0.3,5.3-0.9,7.9-1.9c0.3-0.1,0.6-0.3,1-0.4c0.6-0.3,1.2-0.6,1.8-0.9c0,0,0,0,0,0
			c0.4-0.2,0.9-0.5,1.3-0.7l0,0c0,0,0,0,0,0c0.3-0.2,0.6-0.4,0.9-0.6c0.3-0.2,0.6-0.4,0.9-0.6h0c0,0,0.1-0.1,0.1-0.1
			C772.6,350.6,772.9,350.3,773.1,350.1z M769.1,350.2c-1.1,0.6-2.2,1.2-3.3,1.6c-0.4-0.3-0.8-0.7-1-1.3c-0.6-1.4,0.1-3,1.5-3.6
			c1.4-0.6,3,0.1,3.6,1.5c0.1,0.3,0.2,0.7,0.2,1C769.8,349.8,769.5,350,769.1,350.2C769.1,350.2,769.1,350.2,769.1,350.2z
			 M745.8,302.9c0.2-0.1,0.4-0.1,0.5-0.2c0,1.9,0.8,3.8,2.3,5.1c1,0.9,2.3,1.5,3.6,1.6c-0.1,3.3,1.2,6.5,3.7,8.8
			c3.2,2.8,7.6,3.6,11.5,2c1.6-0.6,3-1.6,4.2-2.9c1.9,1.5,4.4,1.9,6.7,0.9c0.6-0.3,1.2-0.6,1.8-1c4.3,10.2,1.8,21.8-6.3,29.5
			c-0.3,0.3-0.5,0.5-0.8,0.7c-0.3,0.2-0.5,0.5-0.8,0.7c0,0,0,0,0,0c0-0.1-0.1-0.3-0.1-0.4c-1-2.5-3.9-3.8-6.5-2.8
			c-2.5,1-3.8,3.9-2.8,6.5c0.2,0.5,0.4,0.9,0.8,1.3c-0.9,0.3-1.8,0.5-2.7,0.7c0,0,0,0,0,0c-0.2,0-0.5,0.1-0.7,0.1
			c-0.1,0-0.2,0-0.2,0c-0.2,0-0.4,0.1-0.7,0.1c-0.1,0-0.2,0-0.3,0c-0.2,0-0.4,0-0.6,0.1c-0.1,0-0.2,0-0.3,0c-0.2,0-0.4,0-0.6,0
			c-0.1,0-0.2,0-0.3,0c-0.2,0-0.4,0-0.6,0c-0.1,0-0.2,0-0.4,0c-0.2,0-0.4,0-0.6,0c-0.1,0-0.2,0-0.4,0c-0.2,0-0.4,0-0.6,0
			c-0.1,0-0.2,0-0.4,0c-0.2,0-0.4,0-0.6,0c-0.1,0-0.2,0-0.4,0c-0.2,0-0.4,0-0.6-0.1c-0.1,0-0.2,0-0.4,0c-0.2,0-0.4,0-0.6-0.1
			c-0.1,0-0.2,0-0.4-0.1c-0.2,0-0.4-0.1-0.6-0.1c-0.1,0-0.2,0-0.3-0.1c-0.2,0-0.4-0.1-0.6-0.1c-0.1,0-0.2,0-0.3-0.1
			c-0.7-0.2-1.4-0.4-2.1-0.6c-0.1,0-0.2-0.1-0.3-0.1c-0.2-0.1-0.3-0.1-0.5-0.2c-0.1,0-0.3-0.1-0.4-0.1c-0.2-0.1-0.3-0.1-0.5-0.2
			c-0.1-0.1-0.3-0.1-0.4-0.2c-0.1-0.1-0.3-0.1-0.5-0.2c-0.1-0.1-0.3-0.1-0.4-0.2c-0.1-0.1-0.3-0.1-0.4-0.2c-0.1-0.1-0.3-0.1-0.4-0.2
			c-0.1-0.1-0.3-0.1-0.4-0.2c-0.1-0.1-0.3-0.2-0.4-0.2c-0.1-0.1-0.3-0.2-0.4-0.2c-0.1-0.1-0.3-0.2-0.4-0.2c-0.1-0.1-0.3-0.2-0.4-0.2
			c-0.1-0.1-0.3-0.2-0.4-0.3c-0.1-0.1-0.3-0.2-0.4-0.3c-0.1-0.1-0.3-0.2-0.4-0.3c-0.1-0.1-0.2-0.2-0.4-0.3c-0.1-0.1-0.3-0.2-0.4-0.3
			c-0.1-0.1-0.2-0.2-0.4-0.3c-0.1-0.1-0.3-0.2-0.4-0.3c-0.1-0.1-0.2-0.2-0.3-0.3c-0.1-0.1-0.3-0.3-0.4-0.4c-0.1-0.1-0.2-0.2-0.3-0.3
			c-0.2-0.1-0.3-0.3-0.5-0.4c-0.1-0.1-0.2-0.2-0.2-0.2c-0.2-0.2-0.5-0.5-0.7-0.7c-0.3-0.3-0.6-0.6-0.9-1c-0.1-0.1-0.2-0.2-0.3-0.3
			c-0.2-0.2-0.4-0.5-0.6-0.7c-0.1-0.1-0.2-0.2-0.3-0.4c-0.2-0.2-0.3-0.4-0.5-0.6c-0.1-0.1-0.2-0.3-0.3-0.4c-0.1-0.2-0.3-0.4-0.4-0.6
			c-0.1-0.1-0.2-0.3-0.3-0.4c-0.1-0.2-0.3-0.4-0.4-0.7c-0.1-0.1-0.2-0.3-0.2-0.4c-0.1-0.2-0.3-0.5-0.4-0.7c-0.1-0.1-0.1-0.2-0.2-0.3
			c-0.2-0.4-0.3-0.7-0.5-1.1c0-0.1-0.1-0.2-0.1-0.3c-0.1-0.3-0.2-0.5-0.3-0.8c-0.1-0.2-0.1-0.3-0.2-0.5c-0.1-0.2-0.2-0.4-0.2-0.6
			c-0.1-0.2-0.1-0.4-0.2-0.5c-0.1-0.2-0.1-0.4-0.2-0.6c-0.1-0.2-0.1-0.4-0.2-0.6c0-0.2-0.1-0.4-0.1-0.6c0-0.2-0.1-0.4-0.1-0.6
			c0-0.2-0.1-0.4-0.1-0.6c0-0.2-0.1-0.4-0.1-0.6c0-0.2-0.1-0.4-0.1-0.6c-0.1-0.6-0.1-1.2-0.2-1.7c0.9,0,1.8-0.1,2.7-0.4
			c3.3-1.3,4.9-5.1,3.6-8.4c-0.7-1.9-2.3-3.2-4.1-3.8c0.7-1.6,1.5-3.1,2.6-4.5c0,0,0,0,0-0.1c0.2-0.3,0.5-0.7,0.7-1
			c0.1-0.1,0.1-0.1,0.2-0.2c0.2-0.3,0.4-0.6,0.7-0.8c0.1-0.1,0.3-0.3,0.4-0.4c0.2-0.2,0.3-0.4,0.5-0.6c0.3-0.3,0.6-0.6,1-1
			C739.9,305.9,742.7,304.1,745.8,302.9z M729.2,327c0-0.3,0-0.6,0-1c0,0,0-0.1,0-0.1c0-0.3,0-0.6,0.1-1c0,0,0,0,0-0.1
			c0.1-1.4,0.4-2.8,0.7-4.1c0,0,0,0,0,0c0.1-0.3,0.2-0.7,0.3-1c0,0,0-0.1,0-0.1c0.1-0.3,0.2-0.7,0.3-1c1.2,0.3,2.3,1.2,2.8,2.5
			c0.9,2.2-0.2,4.6-2.4,5.5C730.5,327,729.8,327.1,729.2,327C729.2,327,729.2,327,729.2,327z"/>
	</g>
	<path fill="#FFFFFF" d="M756.8,404.4c-0.1-0.1-0.2-0.2-0.3-0.2c-5-4-11.4-6.2-18-5.9c-1.4,0.1-2.7,0.2-4.1,0.5c0-1.4,0.6-3.6,1.1-5
		c0.2-0.4,0.1-0.9-0.2-1.3c-0.3-0.4-0.7-0.6-1.2-0.5l-5.5,0.6c-0.6,0.1-1,0.5-1.2,1.1c-0.6,2.9,0.1,5.9,0.6,7.3
		c-0.9,0.4-1.7,0.9-2.5,1.4c-5.6,3.5-9.7,9.1-11.4,15.3c0,0.1-0.1,0.2-0.1,0.4c-1.3,4.8-1.3,9.9,0.3,15c4.5,14,19.5,21.7,33.5,17.2
		c14-4.5,21.7-19.5,17.2-33.5C763.5,411.7,760.6,407.5,756.8,404.4z M717,432.1c-1.4-4.4-1.5-9-0.4-13.2l8.8-6.6l0.5,5.8
		c0,0.6,0.5,1,1,1.2c0.6,0.1,1.1-0.1,1.4-0.6l6.5-10l10.4,4.5c0.3,0.1,0.6,0.1,0.9,0c0.2-0.1,0.4-0.2,0.5-0.3c0.4-0.4,0.5-1,0.3-1.5
		l-2.5-5.8l10.9,0.8c3.3,2.8,5.9,6.5,7.3,10.9c4,12.6-2.9,26.1-15.5,30.1C734.5,451.6,721,444.7,717,432.1z M731.3,402.4
		c-0.4-1-0.8-2.6-0.8-2.6c-0.3-1-0.6-2.9-0.5-4.7l2.4-0.3c-0.4,1.3-0.3,3-0.1,4.5c0.2,0.9,0.5,2.3,0.6,2.6c0.4-0.1,0.8-0.2,1.2-0.3
		c5.8-1.4,11.7-0.6,16.7,2l-8.4-0.6c-0.5,0-0.9,0.2-1.2,0.6c-0.3,0.4-0.3,0.9-0.1,1.3l2,4.6l-8.2-3.6c-0.6-0.3-1.3-0.1-1.7,0.5
		l-4.9,7.6l-0.4-4.3c0-0.5-0.3-0.9-0.8-1.1c-0.4-0.2-1-0.1-1.3,0.1l-7.4,5.5C720.9,409,725.4,404.6,731.3,402.4z"/>
	<path fill="#FFFFFF" d="M864.3,372.9c-8.2-1.7-13.4,1-15.2,2.2c-1.9-1.2-4.1-2.2-6.7-2.6c0.2-0.8,0.5-1.6,0.7-2.4
		c0.4-1.2,0.9-2.4,1.5-3.6c0.5-0.9,0.9-1.7,1.5-2.1c1-0.7,1.3-1.5,1.3-2.1c0-0.5-0.1-1.3-1-2.2c-1.3-1.2-2.7-2.5-4-3.7l-0.1-0.1
		c-1.1-1-2.3-1.1-3.5-0.3c-1.3,0.9-2.5,2.2-3.3,3.7c-1.1,2-1.7,4.4-1.9,7.2c-0.1,1.3-0.1,2.5,0,3.8c0.1,0.8,0.2,1.6,0.3,2.3l1.1-0.2
		c-3.1,0.7-5.8,2.1-8.1,3.9c-1.1-0.4-4.1-1.5-7.7-1.4c-4.2,0.2-10,2-13.7,9.9c-1.9,4.1-4.3,14.1,1.8,34.7c3.6,12.2,9,23.3,12.6,26
		c1.8,1.7,5.1,4.7,9.4,4.4c1.5-0.1,3-0.6,4.5-1.6c0,0,0,0,0,0c2.3,1.5,5.8,2.8,10.7,2.4c0.2,0,0.4,0,0.6,0c4.7-0.4,7.8-1.9,9.8-3.6
		c1.7,0.9,3.5,1.3,5.1,1.2c0.8-0.1,1.7-0.2,2.5-0.5c5.9-2.3,8.8-10.5,8.9-10.9c3.3-9.3,5.2-21.8,5.7-37
		C877.7,391.2,876.4,375.4,864.3,372.9z M836,370.7c-0.1-1.1-0.1-2.2,0-3.5c0.1-2.4,0.7-4.5,1.6-6.2c0.7-1.2,1.5-2.1,2.6-2.9
		c0.3-0.2,0.3-0.2,0.6,0.1l0.1,0.1c1.3,1.2,2.6,2.4,3.9,3.6c0.2,0.1,0.2,0.2,0.2,0.3c0,0-0.1,0.2-0.3,0.3c-1.2,0.8-1.8,2.1-2.3,3
		c-0.8,1.6-1.4,3.2-1.9,4.8c-0.2,0.7-0.4,1.4-0.6,2c-1.2,0-2.4,0.1-3.7,0.3c0,0,0,0,0,0C836.2,372,836.1,371.4,836,370.7z
		 M869.5,436.6c0,0-0.4,1-1,2.4c-1.2,2.4-3.4,5.9-6.5,7.1c-1.6,0.6-3.2,0.5-5-0.2c1-1.2,1.5-2.4,1.8-3.2c0.2-0.6,0.3-1,0.3-1.1
		c0.1-0.6-0.3-1.2-1-1.3c-0.6-0.1-1.2,0.3-1.3,1c0,0-0.1,0.5-0.4,1.1c-0.8,1.9-3.5,5.8-11.2,6.5c-7.4,0.7-11-2.5-12.5-4.5
		c-0.6-0.8-0.9-1.5-0.9-1.6c-0.2-0.6-0.9-0.9-1.5-0.7c-0.6,0.2-0.9,0.9-0.7,1.5c0,0.1,0.1,0.3,0.4,0.8c0.4,0.7,1.1,1.8,2.2,2.9
		c-4.2,2.3-8.1-0.6-9.6-2c-0.5-0.4-0.7-0.7-0.7-0.7l-0.1-0.1l-0.1-0.1c-0.8-0.6-1.8-1.8-3-3.7c-2.7-4.4-6.2-12.1-8.9-21.2
		c-2.4-8-3.6-15.2-3.8-21.2c-0.1-4.9,0.5-8.9,1.9-11.8c5-10.6,14-8.9,17.4-7.7c-0.6,0.7-1.2,1.4-1.7,2.2c-4.1,6-5,14.7-2.8,25.7
		l0,0.1c1.4,5.9,4.3,12.5,4.3,12.6c0.2,0.5,0.7,0.8,1.2,0.7c0.1,0,0.3,0,0.4-0.1c0.6-0.3,0.9-1,0.6-1.6c-0.2-0.4-0.4-1-0.7-1.7
		c-1-2.6-2.6-6.9-3.5-10.5c-2-10.3-1.2-18.4,2.5-23.8c1.5-2.3,3.5-4,6-5.3c1.6-0.8,3.4-1.5,5.3-1.8c11.6-2.2,17.2,8.6,17.4,9.1
		c0.3,0.6,1,0.8,1.6,0.5c0.6-0.3,0.8-1,0.5-1.6c0-0.1-1.8-3.5-5.3-6.4c2-1.1,6.3-2.8,12.8-1.5c10.4,2.2,11.5,16.7,11.3,25.1
		C874.7,415.3,872.8,427.4,869.5,436.6z"/>
</g>
</svg>
