<?xml version="1.0" encoding="utf-8"?>
<!-- Generator: Adobe Illustrator 18.0.0, SVG Export Plug-In . SVG Version: 6.00 Build 0)  -->
<!DOCTYPE svg PUBLIC "-//W3C//DTD SVG 1.1//EN" "http://www.w3.org/Graphics/SVG/1.1/DTD/svg11.dtd">
<svg version="1.1" id="Calque_1" xmlns="http://www.w3.org/2000/svg" xmlns:xlink="http://www.w3.org/1999/xlink" x="0px" y="0px"
	 viewBox="335 186.3 165 211.7" enable-background="new 335 186.3 165 211.7" xml:space="preserve">
<g>
	<path fill="#FFB32D" d="M470.6,252.6c-0.3-0.6-0.5-1.2-0.8-1.9c-0.8,0.6-1.7,1.1-2.7,1.5c-13.5,6.8-29.9,1.3-36.7-12.2
		c-4.3-8.6-3.6-18.4,0.9-26.1c-3.7-1.3-6.9-3.9-8.8-7.7c-2.8-5.6-1.9-12.1,1.8-16.7c-11.2-1-22.8,0.5-34,4.9
		c-38.6,15.1-57.6,58.7-42.5,97.4c15.1,38.6,58.7,57.6,97.4,42.5c31.5-12.3,49.9-43.6,47.5-75.6c-0.4,0.3-0.9,0.5-1.4,0.8
		C483.8,263.3,474.5,260.2,470.6,252.6"/>
	<path fill="#231E1C" d="M417.9,342.5c-32.4,0-60.9-19.5-72.7-49.6c-15.7-40.1,4.1-85.5,44.2-101.2c9.1-3.6,18.7-5.4,28.5-5.4
		c2.3,0,4.6,0.1,6.9,0.3c1.1,0.1,2.1,0.8,2.5,1.8s0.3,2.2-0.4,3.1c-3.1,3.8-3.7,9.1-1.5,13.5c1.5,2.9,4,5.1,7.1,6.2
		c0.9,0.3,1.5,1,1.8,1.8c0.3,0.8,0.2,1.8-0.2,2.6c-4.2,7.1-4.5,15.8-0.8,23.2c4.1,8.3,12.5,13.4,21.8,13.4c3.8,0,7.4-0.9,10.9-2.6
		c0.8-0.4,1.6-0.9,2.4-1.4c0.8-0.5,1.7-0.6,2.6-0.3c0.9,0.3,1.6,1,1.9,1.9c0.2,0.6,0.4,1.1,0.6,1.5c2.1,4.3,6.4,6.9,11.2,6.9
		c1.9,0,3.8-0.4,5.6-1.3c0.4-0.2,0.7-0.4,1.1-0.6c0.9-0.6,2-0.6,2.9-0.1c0.9,0.5,1.6,1.4,1.6,2.5c1.2,16.3-2.8,33-11.5,47
		c-8.9,14.5-22,25.4-37.9,31.6C437.2,340.7,427.6,342.5,417.9,342.5z M417.8,192.3c-9,0-17.8,1.7-26.3,5
		c-37,14.5-55.3,56.4-40.8,93.5c10.9,27.8,37.3,45.8,67.2,45.8c9,0,17.9-1.7,26.3-5c28.3-11.1,46.3-38.2,45.8-68.2
		c-1.8,0.6-3.6,0.8-5.5,0.8c-6.7,0-12.7-3.5-16-9.2c-4.2,2.1-8.8,3.2-13.5,3.2c-11.6,0-22-6.4-27.1-16.8c-4.1-8.2-4.3-17.7-0.5-26
		c-3.2-1.8-5.7-4.5-7.4-7.8c-2.4-4.8-2.5-10.4-0.5-15.3C418.9,192.3,418.3,192.3,417.8,192.3z"/>
</g>
<path fill="#89634A" d="M397.6,289.7c0,6.9-5.6,12.6-12.6,12.6c-6.9,0-12.6-5.6-12.6-12.6c0-6.9,5.6-12.6,12.6-12.6
	C392,277.2,397.6,282.8,397.6,289.7"/>
<path fill="#89634A" d="M413.6,243.8c0,5.8-4.7,10.6-10.6,10.6s-10.6-4.7-10.6-10.6s4.7-10.6,10.6-10.6S413.6,237.9,413.6,243.8"/>
<path fill="none" d="M374.1,226.3c0,9.7-7.9,17.6-17.6,17.6c-2.6,0-5-0.6-7.3-1.6c-5,15.3-4.9,32.4,1.5,48.5
	c10.2,26,33.9,43.4,61.4,45.6c-0.4-1.3-0.6-2.6-0.6-4c0-7.5,6.1-13.6,13.6-13.6c7.5,0,13.6,6.1,13.6,13.6c0,0.4,0,0.8-0.1,1.2
	c1.9-0.6,3.8-1.2,5.7-1.9c28.3-11.1,46.3-38.2,45.8-68.2c-1.8,0.6-3.6,0.8-5.5,0.8c-6.7,0-12.7-3.5-16-9.2
	c-4.2,2.1-8.8,3.2-13.5,3.2c-11.6,0-22-6.4-27.1-16.8c-4.1-8.2-4.3-17.7-0.5-26c-3.2-1.8-5.7-4.5-7.4-7.8
	c-2.4-4.8-2.5-10.4-0.5-15.3c-0.5,0-1.1,0-1.6,0c-9,0-17.8,1.7-26.3,5c-9.2,3.6-17.2,8.9-23.9,15.4
	C371.6,215.9,374.1,220.8,374.1,226.3z"/>
<path fill="#89634A" d="M356.5,237.8c6.4,0,11.6-5.2,11.6-11.6c0-3.8-1.8-7.1-4.6-9.2c-5.1,5.9-9.2,12.5-12.1,19.6
	C352.9,237.4,354.7,237.8,356.5,237.8z"/>
<path fill="#89634A" d="M469.1,283.6c0,8.6-7,15.6-15.6,15.6s-15.6-7-15.6-15.6c0-8.6,7-15.6,15.6-15.6S469.1,275,469.1,283.6"/>
<path fill="#89634A" d="M432.6,332.2c0-4.2-3.4-7.6-7.6-7.6c-4.2,0-7.6,3.4-7.6,7.6c0,1.6,0.5,3,1.3,4.2c4.5-0.1,8.9-0.5,13.3-1.4
	C432.4,334.2,432.6,333.2,432.6,332.2z"/>
<path fill="none" d="M453.5,271c-6.1,0-11.2,4.3-12.3,10.1c1.6,4,7.2,14.3,22.9,9.3c1.3-2,2-4.3,2-6.8
	C466.1,276.6,460.5,271,453.5,271z"/>
<path fill="#664533" d="M441.2,281.1c-0.2,0.8-0.2,1.6-0.2,2.5c0,6.9,5.6,12.6,12.6,12.6c4.4,0,8.3-2.3,10.5-5.7
	C448.4,295.4,442.8,285.1,441.2,281.1z"/>
<path fill="#443F3D" d="M453.5,265c-10.2,0-18.6,8.3-18.6,18.6c0,10.2,8.3,18.6,18.6,18.6s18.6-8.3,18.6-18.6
	C472.1,273.3,463.8,265,453.5,265z M464.1,290.4c-2.2,3.5-6.1,5.7-10.5,5.7c-6.9,0-12.6-5.6-12.6-12.6c0-0.9,0.1-1.7,0.2-2.5
	c1.2-5.7,6.2-10.1,12.3-10.1c6.9,0,12.6,5.6,12.6,12.6C466.1,286.1,465.4,288.4,464.1,290.4z"/>
<path fill="none" d="M385,280.2c-4.4,0-8.1,3-9.2,7c1.1,3.1,5,10.8,16.9,8.2c1.2-1.6,1.9-3.6,1.9-5.7
	C394.6,284.5,390.3,280.2,385,280.2z"/>
<path fill="#664533" d="M375.8,287.2c-0.2,0.8-0.4,1.7-0.4,2.6c0,5.3,4.3,9.6,9.6,9.6c3.1,0,5.9-1.5,7.7-3.9
	C380.8,298,376.9,290.3,375.8,287.2z"/>
<path fill="#443F3D" d="M385,274.2c-8.6,0-15.6,7-15.6,15.6c0,8.6,7,15.6,15.6,15.6c8.6,0,15.6-7,15.6-15.6
	C400.6,281.2,393.6,274.2,385,274.2z M392.7,295.4c-1.7,2.3-4.5,3.9-7.7,3.9c-5.3,0-9.6-4.3-9.6-9.6c0-0.9,0.1-1.7,0.4-2.6
	c1.1-4,4.8-7,9.2-7c5.3,0,9.6,4.3,9.6,9.6C394.6,291.9,393.9,293.8,392.7,295.4z"/>
<g>
	<path fill="none" d="M409.3,248c0.8-1.2,1.3-2.7,1.3-4.3c0-4.2-3.4-7.6-7.6-7.6c-3.9,0-7.1,2.9-7.5,6.7
		C397,245.4,400.9,250.4,409.3,248z"/>
	<path fill="#664533" d="M403,251.3c2.6,0,4.9-1.3,6.2-3.3c-8.4,2.3-12.3-2.6-13.7-5.2c0,0.3-0.1,0.6-0.1,0.9
		C395.5,247.9,398.9,251.3,403,251.3z"/>
	<path fill="#443F3D" d="M403,230.2c-7.5,0-13.6,6.1-13.6,13.6s6.1,13.6,13.6,13.6c7.5,0,13.6-6.1,13.6-13.6S410.5,230.2,403,230.2z
		 M403,236.2c4.2,0,7.6,3.4,7.6,7.6c0,1.6-0.5,3.1-1.3,4.3c-1.4,2-3.7,3.3-6.2,3.3c-4.2,0-7.6-3.4-7.6-7.6c0-0.3,0-0.6,0.1-0.9
		C396,239.1,399.2,236.2,403,236.2z"/>
</g>
<g>
	<path fill="none" d="M468.5,255c-4.2,2.1-8.8,3.2-13.5,3.2c-11.6,0-22-6.4-27.1-16.8c-4.1-8.2-4.3-17.7-0.5-26
		c-3.2-1.8-5.7-4.5-7.4-7.8c-2.4-4.8-2.5-10.4-0.5-15.3c-0.5,0-1.1,0-1.6,0c-9,0-17.8,1.7-26.3,5c-9.2,3.6-17.2,8.9-23.9,15.4
		c3.9,3.2,6.5,8.1,6.5,13.6c0,9.7-7.9,17.6-17.6,17.6c-2.1,0-4.1-0.4-6-1.1l0,0c0,0-14,74.1,61.5,85.5c1.7-5.5,6.9-9.5,13-9.5
		c5.5,0,10.2,3.3,12.3,8c14.6-2.9,28.1-8.6,34-13.8c12.1-13.3,18.9-30.8,18.6-49.5c-1.8,0.6-3.6,0.8-5.5,0.8
		C477.8,264.1,471.8,260.6,468.5,255z"/>
	<path fill="none" d="M425,324.7c-2.8,0-5.3,1.6-6.6,3.9c4.1,0,8.4-0.3,12.7-0.9C429.7,325.9,427.5,324.7,425,324.7z"/>
	<path fill="none" d="M368.1,226.3c0-3.8-1.8-7.1-4.6-9.2c-5.1,5.9-9.2,12.5-12.1,19.6c1.6,0.8,3.3,1.2,5.2,1.2
		C362.9,237.8,368.1,232.6,368.1,226.3z"/>
	<path fill="#D88E19" d="M350.7,290.7c10.2,26,33.9,43.4,61.4,45.6c-0.4-1.3-0.6-2.6-0.6-4c0-1.4,0.2-2.8,0.6-4
		c-75.5-11.4-61.5-85.5-61.5-85.5l0,0c-0.4-0.2-0.9-0.3-1.3-0.5C344.3,257.5,344.4,274.6,350.7,290.7z"/>
	<path fill="#664533" d="M417.5,332.2c0,1.6,0.5,3,1.3,4.2c4.5-0.1,8.9-0.5,13.3-1.4c0.4-0.9,0.6-1.8,0.6-2.8c0-1.7-0.6-3.3-1.5-4.5
		c-4.3,0.6-8.5,0.9-12.7,0.9C417.8,329.7,417.5,330.9,417.5,332.2z"/>
	<path fill="#D88E19" d="M438.6,332.2c0,0.4,0,0.8-0.1,1.2c1.9-0.6,3.8-1.2,5.7-1.9c10.7-4.2,19.9-10.6,27.2-18.7
		c-5.8,5.2-19.4,10.9-34,13.8C438.2,328.4,438.6,330.3,438.6,332.2z"/>
</g>
<text transform="matrix(1 0 0 1 345.7612 397.9248)" fill="#443F3D" font-family="'Gotham-Bold'" font-size="51.7375">cooki</text>
<g>
	<path fill="none" d="M425,324.7c-2.8,0-5.3,1.6-6.6,3.9c-0.6,1.1-1,2.3-1,3.7c0,1.6,0.5,3,1.3,4.2c4.5-0.1,8.9-0.5,13.3-1.4
		c0.4-0.9,0.6-1.8,0.6-2.8c0-1.7-0.6-3.3-1.5-4.5C429.7,325.9,427.5,324.7,425,324.7z"/>
	<path fill="none" d="M468.5,255c-4.2,2.1-8.8,3.2-13.5,3.2c-11.6,0-22-6.4-27.1-16.8c-4.1-8.2-4.3-17.7-0.5-26
		c-3.2-1.8-5.7-4.5-7.4-7.8c-2.4-4.8-2.5-10.4-0.5-15.3c-0.5,0-1.1,0-1.6,0c-9,0-17.8,1.7-26.3,5c-9.2,3.6-17.2,8.9-23.9,15.4
		c3.9,3.2,6.5,8.1,6.5,13.6c0,9.7-7.9,17.6-17.6,17.6c-2.1,0-4.1-0.4-6-1.1c-0.4-0.2-0.9-0.3-1.3-0.5c-5,15.3-4.9,32.4,1.5,48.5
		c10.2,26,33.9,43.4,61.4,45.6c-0.4-1.3-0.6-2.6-0.6-4c0-1.4,0.2-2.8,0.6-4c1.7-5.5,6.9-9.5,13-9.5c5.5,0,10.2,3.3,12.3,8
		c0.8,1.7,1.2,3.6,1.2,5.6c0,0.4,0,0.8-0.1,1.2c1.9-0.6,3.8-1.2,5.7-1.9c10.7-4.2,19.9-10.6,27.2-18.7
		c12.1-13.3,18.9-30.8,18.6-49.5c-1.8,0.6-3.6,0.8-5.5,0.8C477.8,264.1,471.8,260.6,468.5,255z"/>
	<path fill="none" d="M364.3,234.9c2.4-2.1,3.9-5.2,3.9-8.6c0-3.8-1.8-7.1-4.6-9.2c-4.2,4.8-7.6,10.1-10.4,15.8
		C355.1,234.6,358.4,235.9,364.3,234.9z"/>
	<path fill="#664533" d="M356.5,237.8c3,0,5.7-1.1,7.7-3c-5.8,1.1-9.2-0.2-11.1-2c-0.6,1.2-1.2,2.5-1.7,3.8
		C352.9,237.4,354.7,237.8,356.5,237.8z"/>
	<path fill="#443F3D" d="M495.8,258.5c-0.1-1-0.7-2-1.6-2.5s-2.1-0.4-2.9,0.1c-0.4,0.2-0.7,0.4-1.1,0.6c-1.8,0.9-3.6,1.3-5.6,1.3
		c-4.8,0-9.1-2.6-11.2-6.9c-0.2-0.4-0.4-0.9-0.6-1.5c-0.3-0.9-1-1.6-1.9-1.9c-0.9-0.3-1.8-0.2-2.6,0.3c-0.8,0.5-1.6,1-2.4,1.4
		c-3.4,1.7-7.1,2.6-10.9,2.6c-9.3,0-17.6-5.2-21.8-13.4c-3.7-7.4-3.4-16.1,0.8-23.2c0.5-0.8,0.5-1.7,0.2-2.6c-0.3-0.8-1-1.5-1.8-1.8
		c-3.1-1.1-5.6-3.3-7.1-6.2c-2.2-4.4-1.6-9.7,1.5-13.5c0.7-0.9,0.9-2,0.4-3.1s-1.4-1.7-2.5-1.8c-2.3-0.2-4.6-0.3-6.9-0.3
		c-9.8,0-19.3,1.8-28.5,5.4c-10.6,4.1-19.7,10.4-27.2,18c-0.8,0.8-1.6,1.6-2.3,2.5c-0.8,0.9-1.5,1.8-2.3,2.7
		c-4.4,5.4-8.1,11.3-10.9,17.6c-0.5,1.1-0.9,2.2-1.4,3.2c-0.4,1-0.8,2.1-1.2,3.1c-5.9,17-6.1,36.1,1,54.2
		c11.6,29.6,39.4,48.9,71,49.6c0.6,0,1.2,0,1.7,0c1.4,0,2.8,0,4.2-0.1c2.7-0.1,5.4-0.4,8.1-0.9c1.9-0.3,3.8-0.7,5.7-1.1
		c3.6-0.8,7.1-1.9,10.5-3.3c15.9-6.2,29-17.2,37.9-31.6C492.9,291.5,497,274.8,495.8,258.5z M353.1,232.8c2.8-5.7,6.2-11,10.4-15.8
		c2.8,2.1,4.6,5.5,4.6,9.2c0,3.4-1.5,6.5-3.9,8.6c-2,1.8-4.7,3-7.7,3c-1.9,0-3.6-0.4-5.2-1.2C351.9,235.3,352.5,234.1,353.1,232.8z
		 M432.1,335.1c-4.4,0.9-8.8,1.4-13.3,1.4c-0.8-1.2-1.3-2.7-1.3-4.2c0-1.3,0.3-2.6,1-3.7c1.3-2.3,3.8-3.9,6.6-3.9c2.5,0,4.7,1.2,6,3
		c0.9,1.3,1.5,2.8,1.5,4.5C432.6,333.2,432.4,334.2,432.1,335.1z M471.4,312.8c-7.3,8-16.5,14.5-27.2,18.7c-1.9,0.7-3.8,1.4-5.7,1.9
		c0-0.4,0.1-0.8,0.1-1.2c0-2-0.4-3.9-1.2-5.6c-2.1-4.7-6.9-8-12.3-8c-6.1,0-11.2,4-13,9.5c-0.4,1.3-0.6,2.6-0.6,4
		c0,1.4,0.2,2.8,0.6,4c-27.5-2.2-51.1-19.6-61.4-45.6c-6.3-16.1-6.4-33.2-1.5-48.5c0.4,0.2,0.8,0.3,1.3,0.5c1.9,0.7,3.9,1.1,6,1.1
		c9.7,0,17.6-7.9,17.6-17.6c0-5.5-2.5-10.4-6.5-13.6c6.7-6.5,14.7-11.8,23.9-15.4c8.4-3.3,17.3-5,26.3-5c0.5,0,1.1,0,1.6,0
		c-2,4.9-1.9,10.5,0.5,15.3c1.7,3.3,4.2,6,7.4,7.8c-3.7,8.3-3.6,17.8,0.5,26c5.2,10.3,15.6,16.8,27.1,16.8c4.7,0,9.3-1.1,13.5-3.2
		c3.3,5.7,9.3,9.2,16,9.2c1.9,0,3.7-0.3,5.5-0.8C490.3,282,483.5,299.6,471.4,312.8z"/>
</g>
</svg>
