<?xml version="1.0" encoding="utf-8"?>
<!-- Generator: Adobe Illustrator 18.0.0, SVG Export Plug-In . SVG Version: 6.00 Build 0)  -->
<!DOCTYPE svg PUBLIC "-//W3C//DTD SVG 1.1//EN" "http://www.w3.org/Graphics/SVG/1.1/DTD/svg11.dtd">
<svg version="1.1" id="Calque_1" xmlns="http://www.w3.org/2000/svg" xmlns:xlink="http://www.w3.org/1999/xlink" x="0px" y="0px"
	 viewBox="0 0 1920 1080" enable-background="new 0 0 1920 1080" xml:space="preserve">
<g>
	<path fill="#FFB32D" d="M1222.1,340.4c-1.5-3-2.5-6-4-9.5c-4,3-8.5,5.5-13.5,7.5c-67.4,33.9-149.2,6.5-183.1-60.8
		c-21.4-42.9-18-91.9,4.5-130.3c-18.5-6.5-34.4-19.5-43.9-38.4c-14-28-9.5-60.4,9-83.3c-55.9-5-113.8,2.5-169.7,24.5
		c-192.6,75.3-287.4,292.9-212.1,486c75.3,192.6,293,287.4,486.1,212.1c157.2-61.3,249.1-217.6,237-377.2c-2,1.5-4.5,2.5-6.9,4
		C1287.9,393.8,1241.5,378.3,1222.1,340.4"/>
	<path fill="#231E1C" d="M959,789.1c-161.7,0-303.9-97.3-362.8-247.5c-78.3-200.2,20.5-426.7,220.6-505.1c45.5-18,93.3-27,142.2-27
		c11.4,0,23,0.5,34.4,1.5c5.5,0.5,10.5,4,12.5,9c2.1,5,1.5,11-2,15.5c-15.5,19-18.5,45.4-7.5,67.4c7.5,14.5,20,25.4,35.4,30.9
		c4.5,1.5,7.5,5,9,9c1.5,4,1,9-1,13c-20.9,35.4-22.5,78.8-4,115.8c20.4,41.4,62.4,66.9,108.8,66.9c19,0,37-4.5,54.4-13
		c4-2,8-4.5,11.9-6.9c3.9-2.4,8.5-3,13-1.5s8,5,9.5,9.5c1,3,2,5.5,3,7.5c10.5,21.4,31.9,34.4,55.9,34.4c9.5,0,19-2,28-6.5
		c2-1,3.5-2,5.5-3c4.5-3,10-3,14.5-0.5c4.5,2.5,8,6.9,8,12.5c6,81.4-14,164.7-57.4,234.6c-44.4,72.4-109.8,126.8-189.1,157.7
		C1055.4,780.1,1007.4,789.1,959,789.1z M958.5,39.4c-44.9,0-88.8,8.5-131.3,24.9c-184.7,72.4-276,281.4-203.6,466.6
		C678.1,669.8,809.8,759.6,959,759.6c44.9,0,89.3-8.5,131.3-24.9c141.3-55.4,231.1-190.7,228.6-340.3c-9,3-18,4-27.5,4
		c-33.5,0-63.4-17.5-79.8-45.9c-20.9,10.5-43.9,15.9-67.4,15.9c-57.9,0-109.8-31.9-135.3-83.8c-20.4-40.9-21.4-88.3-2.5-129.7
		c-15.9-9-28.5-22.5-37-38.9c-11.9-24-12.5-51.9-2.5-76.4C964,39.4,961.1,39.4,958.5,39.4z"/>
</g>
<path fill="#89634A" d="M857.8,525.5c0,34.4-28,62.9-62.9,62.9c-34.4,0-62.9-28-62.9-62.9c0-34.4,28-62.9,62.9-62.9
	C829.8,463.2,857.8,491.1,857.8,525.5"/>
<path fill="#89634A" d="M937.6,296.5c0,29-23.5,52.9-52.9,52.9s-52.9-23.5-52.9-52.9c0-29.4,23.5-52.9,52.9-52.9
	S937.6,267.1,937.6,296.5"/>
<path fill="none" d="M740.5,209.2c0,48.4-39.4,87.8-87.8,87.8c-13,0-24.9-3-36.4-8c-24.9,76.4-24.5,161.7,7.5,242
	c50.9,129.7,169.1,216.6,306.4,227.5c-2-6.5-3-13-3-20c0-37.5,30.4-67.9,67.9-67.9c37.5,0,67.9,30.4,67.9,67.9c0,2,0,4-0.5,6
	c9.5-3,19-6,28.5-9.5c141.3-55.4,231.1-190.7,228.6-340.3c-9,3-18,4-27.5,4c-33.5,0-63.4-17.5-79.8-45.9
	c-20.9,10.5-43.9,15.9-67.4,15.9c-57.9,0-109.8-31.9-135.3-83.8c-20.4-40.9-21.4-88.3-2.5-129.7c-15.9-9-28.5-22.5-37-38.9
	c-11.9-24-12.5-51.9-2.5-76.4c-2.5,0-5.5,0-8,0c-44.9,0-88.8,8.5-131.3,24.9c-45.9,18-85.8,44.4-119.3,76.9
	C728,157.2,740.5,181.7,740.5,209.2z"/>
<path fill="#89634A" d="M652.6,266.6c31.9,0,57.9-25.9,57.9-57.9c0-19-9-35.4-23-45.9c-25.4,29.4-45.9,62.4-60.4,97.8
	C634.6,264.5,643.6,266.6,652.6,266.6z"/>
<path fill="#89634A" d="M1214.5,495.1c0,42.9-34.9,77.9-77.9,77.9s-77.9-34.9-77.9-77.9s34.9-77.9,77.9-77.9
	C1179.6,417.2,1214.5,452.2,1214.5,495.1"/>
<path fill="#89634A" d="M1032.4,737.6c0-20.9-16.9-38-38-38c-21,0-38,16.9-38,38c0,8,2.5,15,6.5,20.9c22.5-0.5,44.4-2.5,66.4-6.9
	C1031.4,747.6,1032.4,742.6,1032.4,737.6z"/>
<path fill="none" d="M1136.8,432.2c-30.4,0-55.9,21.4-61.3,50.4c8,20,35.9,71.4,114.3,46.4c6.5-10,10-21.4,10-33.9
	C1199.6,460.2,1171.7,432.2,1136.8,432.2z"/>
<path fill="#664533" d="M1075.3,482.7c-1,4-1,8-1,12.5c0,34.4,28,62.9,62.9,62.9c21.9,0,41.4-11.4,52.4-28.5
	C1111.2,554,1083.4,502.6,1075.3,482.7z"/>
<path fill="#443F3D" d="M1136.8,402.3c-50.9,0-92.8,41.4-92.8,92.8c0,50.9,41.4,92.8,92.8,92.8c51.5,0,92.8-41.4,92.8-92.8
	S1188.1,402.3,1136.8,402.3z M1189.6,529c-11,17.5-30.4,28.5-52.4,28.5c-34.4,0-62.9-28-62.9-62.9c0-4.5,0.5-8.5,1-12.5
	c6-28.5,30.9-50.4,61.3-50.4c34.4,0,62.9,28,62.9,62.9C1199.6,507.6,1196.2,519.1,1189.6,529z"/>
<path fill="none" d="M794.9,478.2c-21.9,0-40.4,15-45.9,34.9c5.5,15.5,24.9,53.9,84.3,40.9c6-8,9.5-18,9.5-28.5
	C842.8,499.6,821.3,478.2,794.9,478.2z"/>
<path fill="#664533" d="M749,513.1c-1,4-2,8.5-2,13c0,26.4,21.4,47.9,47.9,47.9c15.5,0,29.4-7.5,38.4-19.5
	C773.9,567,754.5,528.6,749,513.1z"/>
<path fill="#443F3D" d="M794.9,448.1c-42.9,0-77.9,34.9-77.9,77.9c0,42.9,34.9,77.9,77.9,77.9s77.9-34.9,77.9-77.9
	C872.7,483.2,837.8,448.1,794.9,448.1z M833.3,554c-8.5,11.4-22.5,19.5-38.4,19.5c-26.4,0-47.9-21.4-47.9-47.9c0-4.5,0.5-8.5,2-13
	c5.5-20,24-34.9,45.9-34.9c26.4,0,47.9,21.4,47.9,47.9C842.8,536.5,839.3,546,833.3,554z"/>
<g>
	<path fill="none" d="M916.2,317.4c4-6,6.5-13.5,6.5-21.4c0-20.9-16.9-38-38-38c-19.5,0-35.4,14.5-37.5,33.5
		C854.7,304.4,874.2,329.4,916.2,317.4z"/>
	<path fill="#664533" d="M884.7,333.9c13,0,24.5-6.5,30.9-16.4c-42,11.4-61.3-13-68.4-25.9c0,1.5-0.5,3-0.5,4.5
		C847.3,317,864.2,333.9,884.7,333.9z"/>
	<path fill="#443F3D" d="M884.7,228.6c-37.5,0-67.9,30.4-67.9,67.9s30.4,67.9,67.9,67.9s67.9-30.4,67.9-67.9
		S922.1,228.6,884.7,228.6z M884.7,258.6c20.9,0,38,16.9,38,38c0,8-2.5,15.5-6.5,21.4c-6.9,10-18.5,16.4-30.9,16.4
		c-20.9,0-38-16.9-38-38c0-1.5,0-3,0.5-4.5C849.8,273,865.7,258.6,884.7,258.6z"/>
</g>
<g>
	<path fill="none" d="M1211.6,352.4c-20.9,10.5-43.9,15.9-67.4,15.9c-57.9,0-109.8-31.9-135.3-83.8c-20.4-40.9-21.4-88.3-2.5-129.7
		c-15.9-9-28.5-22.5-37-38.9c-11.9-24-12.5-51.9-2.5-76.4c-2.5,0-5.5,0-8,0c-44.9,0-88.8,8.5-131.3,24.9
		c-45.9,18-85.8,44.4-119.3,76.9c19.5,15.9,32.5,40.4,32.5,67.9c0,48.4-39.4,87.8-87.8,87.8c-10.5,0-20.4-2-29.9-5.5l0,0
		c0,0-69.8,369.8,306.9,426.7c8.5-27.5,34.4-47.4,64.9-47.4c27.5,0,50.9,16.4,61.3,39.9c72.9-14.5,140.3-42.9,169.7-68.9
		c60.4-66.4,94.3-153.7,92.8-247c-9,3-18,4-27.5,4C1258,397.8,1228,380.3,1211.6,352.4z"/>
	<path fill="none" d="M994.5,700.2c-14,0-26.4,8-33,19.5c20.4,0,42-1.5,63.4-4.5C1017.9,706.2,1007,700.2,994.5,700.2z"/>
	<path fill="none" d="M710.5,209.2c0-19-9-35.4-23-45.9c-25.4,29.4-45.9,62.4-60.4,97.8c8,4,16.4,6,25.9,6
		C684.6,266.6,710.5,240.6,710.5,209.2z"/>
	<path fill="#D88E19" d="M623.7,530.5c51,129.8,169.2,216.6,306.5,227.6c-2-6.5-3-13-3-20s1-14,3-20
		c-376.8-56.9-307-426.7-307-426.7l0,0c-2-1-4.5-1.5-6.5-2.5C591.8,364.9,592.3,450.2,623.7,530.5z"/>
	<path fill="#664533" d="M957.1,737.6c0,8,2.5,15,6.5,20.9c22.5-0.5,44.4-2.5,66.4-6.9c2-4.5,3-9,3-14c0-8.5-3-16.4-7.5-22.5
		c-21.4,3-42.5,4.5-63.4,4.5C958.5,725.2,957.1,731.2,957.1,737.6z"/>
	<path fill="#D88E19" d="M1062.3,737.6c0,2,0,4-0.5,6c9.5-3,19-6,28.5-9.5c53.4-20.9,99.3-52.9,135.8-93.3
		c-29,25.9-96.8,54.4-169.7,68.9C1060.4,718.7,1062.3,728.1,1062.3,737.6z"/>
</g>
<g enable-background="new    ">
	<path fill="#443F3D" d="M609.9,997.2v-0.5c0-39.5,30.2-72,72.6-72c26.1,0,42.3,8.8,55.3,23.2l-24,25.8
		c-8.8-9.3-17.6-15.2-31.5-15.2c-19.6,0-33.6,17.3-33.6,37.7v0.5c0,21.2,13.7,38.2,35.1,38.2c13.2,0,22.2-5.7,31.8-14.7l23,23.2
		c-13.4,14.7-28.9,25.3-56.5,25.3C640.4,1068.8,609.9,1036.7,609.9,997.2z"/>
	<path fill="#443F3D" d="M753.4,997.2v-0.5c0-39.8,32-72,75.1-72c42.9,0,74.6,31.8,74.6,71.5v0.5c0,39.8-32,72-75.1,72
		C785.2,1068.8,753.4,1037,753.4,997.2z M864.5,997.2v-0.5c0-20.4-14.7-38.2-36.4-38.2c-22.5,0-35.9,17.3-35.9,37.7v0.5
		c0,20.4,14.7,38.2,36.4,38.2C851.1,1034.9,864.5,1017.6,864.5,997.2z"/>
	<path fill="#443F3D" d="M924.9,997.2v-0.5c0-39.8,32-72,75.1-72c42.9,0,74.6,31.8,74.6,71.5v0.5c0,39.8-32,72-75.1,72
		C956.7,1068.8,924.9,1037,924.9,997.2z M1035.9,997.2v-0.5c0-20.4-14.7-38.2-36.4-38.2c-22.5,0-35.9,17.3-35.9,37.7v0.5
		c0,20.4,14.7,38.2,36.4,38.2C1022.5,1034.9,1035.9,1017.6,1035.9,997.2z"/>
	<path fill="#443F3D" d="M1103,877.2h39.2v100.4l46-50.4h47l-52.7,54.5l54.5,83.9h-44.9l-36.1-56.5l-13.7,14.5v42.1H1103V877.2z"/>
	<path fill="#443F3D" d="M1256.7,877.2h41.3V912h-41.3V877.2z M1257.7,927.3h39.2v138.4h-39.2V927.3z"/>
</g>
<g>
	<path fill="none" d="M994.5,700.2c-14,0-26.4,8-33,19.5c-3,5.5-5,11.4-5,18.5c0,8,2.5,15,6.5,20.9c22.5-0.5,44.4-2.5,66.4-6.9
		c2-4.5,3-9,3-14c0-8.5-3-16.4-7.5-22.5C1017.9,706.2,1007,700.2,994.5,700.2z"/>
	<path fill="none" d="M1211.6,352.4c-20.9,10.5-43.9,15.9-67.4,15.9c-57.9,0-109.8-31.9-135.3-83.8c-20.4-40.9-21.4-88.3-2.5-129.7
		c-15.9-9-28.5-22.5-37-38.9c-11.9-24-12.5-51.9-2.5-76.4c-2.5,0-5.5,0-8,0c-44.9,0-88.8,8.5-131.3,24.9
		c-45.9,18-85.8,44.4-119.3,76.9c19.5,15.9,32.5,40.4,32.5,67.9c0,48.4-39.4,87.8-87.8,87.8c-10.5,0-20.4-2-29.9-5.5
		c-2-1-4.5-1.5-6.5-2.5c-24.9,76.4-24.5,161.7,7.5,242c50.9,129.7,169.1,216.6,306.4,227.5c-2-6.5-3-13-3-20s1-14,3-20
		c8.5-27.5,34.4-47.4,64.9-47.4c27.5,0,50.9,16.4,61.3,39.9c4,8.5,6,18,6,28c0,2,0,4-0.5,6c9.5-3,19-6,28.5-9.5
		c53.4-20.9,99.3-52.9,135.8-93.3c60.4-66.4,94.3-153.7,92.8-247c-9,3-18,4-27.5,4C1258,397.8,1228,380.3,1211.6,352.4z"/>
	<path fill="none" d="M691.6,252.1c11.9-10.5,19.5-25.9,19.5-42.9c0-19-9-35.4-23-45.9c-20.9,24-38,50.4-51.9,78.8
		C645.7,250.5,662.1,257.1,691.6,252.1z"/>
	<path fill="#664533" d="M652.6,266.6c15,0,28.5-5.5,38.4-15c-29,5.5-45.9-1-55.4-10c-3,6-6,12.5-8.5,19
		C634.6,264.5,643.6,266.6,652.6,266.6z"/>
	<path fill="#443F3D" d="M1347.9,369.9c-0.5-5-3.5-10-8-12.5c-4.5-2.5-10.5-2-14.5,0.5c-2,1-3.5,2-5.5,3c-9,4.5-18,6.5-28,6.5
		c-24,0-45.4-13-55.9-34.4c-1-2-2-4.5-3-7.5c-1.5-4.5-5-8-9.5-9.5c-4.5-1.5-9-1-13,1.5c-4,2.5-8,5-11.9,6.9
		c-16.9,8.5-35.4,13-54.4,13c-46.4,0-87.8-25.9-108.8-66.9c-18.5-37-16.9-80.3,4-115.8c2.5-4,2.5-8.5,1-13c-1.5-4-5-7.5-9-9
		c-15.5-5.5-28-16.4-35.4-30.9c-11-21.9-8-48.4,7.5-67.4c3.5-4.5,4.5-10,2-15.5s-6.9-8.5-12.5-9c-11.4-1-23-1.5-34.4-1.5
		c-48.9,0-96.4,9-142.2,26.9C763.4,55.7,718,87.2,680.5,125c-4,4-8,8-11.4,12.5c-4,4.5-7.5,9-11.4,13.5
		c-21.9,26.9-40.4,56.3-54.4,87.8c-2.5,5.5-4.5,11-6.9,15.9c-2,5-4,10.5-6,15.5c-29.5,85.1-30.5,180.4,4.9,270.7
		c57.9,147.7,196.6,244.1,354.3,247.5c3,0,6,0,8.5,0c6.9,0,14,0,20.9-0.5c13.5-0.5,26.9-2,40.4-4.5c9.5-1.5,19-3.5,28.5-5.5
		c18-4,35.4-9.5,52.4-16.4c79.3-30.9,144.7-85.8,189.1-157.7C1333.4,534.5,1353.8,451.2,1347.9,369.9z M635.7,241.5
		c14-28.5,30.9-54.9,51.9-78.8c14,10.5,23,27.5,23,45.9c0,16.9-7.5,32.5-19.5,42.9c-10,9-23.5,15-38.4,15c-9.5,0-18-2-25.9-6
		C629.6,254.1,632.7,248.1,635.7,241.5z M1029.9,752.1c-21.9,4.5-43.9,6.9-66.4,6.9c-4-6-6.5-13.5-6.5-20.9c0-6.5,1.5-13,5-18.5
		c6.5-11.4,19-19.5,33-19.5c12.5,0,23.5,6,29.9,15c4.5,6.5,7.5,14,7.5,22.5C1032.4,742.6,1031.4,747.6,1029.9,752.1z M1226.1,640.9
		c-36.4,39.9-82.4,72.4-135.8,93.3c-9.5,3.5-19,6.9-28.5,9.5c0-2,0.5-4,0.5-6c0-10-2-19.5-6-28c-10.5-23.5-34.4-39.9-61.3-39.9
		c-30.4,0-55.9,20-64.9,47.4c-2,6.5-3,13-3,20c0,6.9,1,14,3,20c-137.3-11-255-97.8-306.4-227.5c-31.4-80.3-31.9-165.7-7.5-242
		c2,1,4,1.5,6.5,2.5c9.5,3.5,19.5,5.5,29.9,5.5c48.4,0,87.8-39.4,87.8-87.8c0-27.5-12.5-51.9-32.5-67.9
		C741.5,107.4,781.4,81,827.3,63c42-16.4,86.4-24.9,131.3-24.9c2.5,0,5.5,0,8,0c-10,24.5-9.5,52.4,2.5,76.4
		c8.5,16.4,20.9,29.9,37,38.9c-18.5,41.4-18,88.8,2.5,129.7c25.9,51.4,77.9,83.8,135.3,83.8c23.5,0,46.4-5.5,67.4-15.9
		c16.4,28.5,46.4,45.9,79.8,45.9c9.5,0,18.5-1.5,27.5-4C1320.4,487.1,1286.4,574.9,1226.1,640.9z"/>
</g>
</svg>
