<?xml version="1.0" encoding="utf-8"?>
<!-- Generator: Adobe Illustrator 16.0.0, SVG Export Plug-In . SVG Version: 6.00 Build 0)  -->
<!DOCTYPE svg PUBLIC "-//W3C//DTD SVG 1.1//EN" "http://www.w3.org/Graphics/SVG/1.1/DTD/svg11.dtd">
<svg version="1.1" id="Calque_1" xmlns="http://www.w3.org/2000/svg" xmlns:xlink="http://www.w3.org/1999/xlink" x="0px" y="0px"
	 width="968.649px" height="595.28px" viewBox="0 0 968.649 595.28" enable-background="new 0 0 968.649 595.28"
	 xml:space="preserve">
<g>
	<g>
		<g>
			<path fill="#3F3F3F" d="M611.166,442.029c0,0.25,0.079,0.514,0.2,0.783c0.384,0.857,1.376,1.801,2.97,2.787
				c8.297,5.127,32.859,11.297,72.555,11.297c1.525,0,3.02-0.013,4.501-0.03c0.427-0.005,0.851-0.013,1.274-0.019
				c1.13-0.018,2.247-0.041,3.352-0.068c0.366-0.009,0.736-0.017,1.101-0.027c1.413-0.039,2.808-0.086,4.177-0.142
				c0.237-0.009,0.467-0.021,0.703-0.031c1.15-0.05,2.285-0.104,3.404-0.164c0.385-0.021,0.768-0.042,1.148-0.063
				c1.09-0.062,2.165-0.129,3.224-0.201c0.235-0.016,0.476-0.03,0.71-0.047c1.273-0.09,2.521-0.187,3.748-0.289
				c0.289-0.024,0.57-0.051,0.856-0.075c0.969-0.084,1.923-0.173,2.862-0.265c0.319-0.031,0.639-0.062,0.955-0.094
				c1.15-0.117,2.286-0.238,3.393-0.366c0.018-0.002,0.035-0.004,0.051-0.006c1.141-0.132,2.25-0.271,3.344-0.415
				c0.271-0.035,0.536-0.071,0.805-0.107c0.863-0.117,1.711-0.236,2.544-0.358c0.232-0.034,0.468-0.067,0.698-0.103
				c1.037-0.156,2.054-0.316,3.043-0.482c0.074-0.012,0.145-0.025,0.219-0.037c0.908-0.153,1.791-0.311,2.658-0.47
				c0.223-0.042,0.445-0.083,0.666-0.125c0.803-0.151,1.589-0.306,2.355-0.462c0.121-0.024,0.246-0.049,0.365-0.073
				c0.893-0.185,1.759-0.372,2.601-0.563c0.13-0.029,0.253-0.06,0.382-0.089c0.708-0.163,1.398-0.327,2.07-0.495
				c0.171-0.042,0.342-0.084,0.511-0.127c0.766-0.193,1.515-0.389,2.231-0.586c0.002,0,0.004-0.001,0.006-0.001
				c0,0,0-0.001,0.001-0.001c5.778-1.592,9.99-3.305,12.595-4.914c1.594-0.986,2.587-1.93,2.971-2.787
				c0.121-0.27,0.2-0.533,0.2-0.783v-2.004v-0.953v-1.705v-3.391V270.958c-13.915,8.8-49.624,12.192-75.413,12.192
				c-4.646,0-9.617-0.113-14.721-0.345c-18.289-0.831-38.326-3.224-51.592-7.726c-3.897-1.323-7.211-2.827-9.723-4.527v163.424
				v3.391v2.658"/>
			<path fill="#3F3F3F" d="M744.61,451.102c0.767-0.193,1.516-0.389,2.233-0.586c0,0-0.001,0-0.002,0
				C746.125,450.713,745.376,450.908,744.61,451.102z"/>
			<path fill="#1E1303" d="M768.189,442.812v-0.783c0,0.699-0.106,1.379-0.312,2.039
				C768.07,443.689,768.189,443.266,768.189,442.812z"/>
			<polygon fill="#3F3F3F" points="746.842,450.516 746.844,450.516 746.848,450.515 			"/>
			<path fill="#1E1303" d="M765.402,442.812v-0.783c0,0.262-0.038,0.523-0.088,0.783H765.402z"/>
			<path fill="#1E1303" d="M608.379,442.812h0.088c-0.051-0.26-0.088-0.521-0.088-0.783V442.812z"/>
			<path fill="#055596" d="M611.273,162.117v4.422c0,2.059,2.877,4.406,8.241,6.664c-0.03-3.118-0.052-5.561-0.066-7.233
				C616.246,164.818,613.475,163.539,611.273,162.117z"/>
			<path fill="#636363" d="M613.328,156.891c7.155,5.244,32.109,11.971,73.562,11.971c41.452,0,66.406-6.727,73.562-11.971
				c0.176-0.128,0.34-0.256,0.494-0.383c1.098-0.902,1.667-1.756,1.667-2.512c0-0.863-0.735-1.851-2.161-2.896
				c-7.156-5.243-32.11-11.97-73.562-11.97c-41.453,0-66.407,6.727-73.562,11.97c-1.428,1.046-2.162,2.033-2.162,2.896
				c0,0.015,0.006,0.03,0.007,0.045C611.197,154.893,611.926,155.863,613.328,156.891z M706.913,151.1
				c1.306-4.248,9.126-5.805,15.925-5.805c6.8,0,14.62,1.557,15.926,5.805c0.123,0.402,0.211,0.82,0.211,1.272
				c0,0.585-0.125,1.121-0.328,1.624c-0.328,0.807-0.9,1.509-1.66,2.117c-0.346,0.276-0.715,0.54-1.131,0.777
				c-3.199,1.829-8.353,2.559-13.018,2.559c-4.664,0-9.817-0.729-13.016-2.559c-0.649-0.371-1.215-0.787-1.682-1.252
				c-0.494-0.491-0.865-1.041-1.11-1.643c-0.204-0.503-0.327-1.039-0.327-1.624C706.703,151.92,706.789,151.502,706.913,151.1z
				 M633.517,151.1c1.306-4.248,9.126-5.805,15.925-5.805c6.8,0,14.62,1.557,15.926,5.805c0.123,0.402,0.211,0.82,0.211,1.272
				c0,0.585-0.125,1.121-0.328,1.624c-0.132,0.324-0.293,0.637-0.5,0.928c-0.541,0.763-1.326,1.416-2.291,1.967
				c-3.199,1.829-8.353,2.559-13.018,2.559c-4.664,0-9.817-0.729-13.016-2.559c-1.172-0.669-2.064-1.493-2.592-2.476
				c-0.072-0.138-0.142-0.276-0.2-0.419c-0.204-0.503-0.327-1.039-0.327-1.624C633.307,151.92,633.393,151.502,633.517,151.1z"/>
			<path fill="#1E1303" d="M608.379,151.208c0.307,0,0.598,0.062,0.873,0.153c0.059-0.088,0.131-0.174,0.195-0.262h-1.068
				c-1.242,0-2.293,0.785-2.704,1.883c-0.05,0.334-0.084,0.67-0.084,1.014C605.591,152.456,606.839,151.208,608.379,151.208z"/>
			<path fill="#1E1303" d="M762.614,158.658c-0.034,0.027-0.073,0.057-0.108,0.085v3.374c0.035-0.023,0.073-0.046,0.108-0.068
				V158.658z"/>
			<path fill="#1E1303" d="M611.173,154.041c-0.001-0.015-0.007-0.03-0.007-0.045v0.045H611.173z"/>
			<path fill="#2E2F30" d="M722.838,151.086c-0.249,0-0.481,0.01-0.723,0.014h1.447C723.32,151.096,723.088,151.086,722.838,151.086
				z"/>
			<path fill="#2E2F30" d="M731.941,152.372c-1.638-0.601-4.511-1.202-8.379-1.272h-1.447c-3.869,0.07-6.742,0.672-8.38,1.272
				c1.74,0.639,4.86,1.286,9.103,1.286C727.082,153.658,730.201,153.011,731.941,152.372z"/>
			<path fill="#433F3C" d="M708.141,155.639c0.467,0.465,1.032,0.881,1.682,1.252c3.198,1.829,8.352,2.559,13.016,2.559
				c4.665,0,9.818-0.729,13.018-2.559c0.416-0.237,0.785-0.501,1.131-0.777c0.76-0.608,1.332-1.311,1.66-2.117
				c0.203-0.503,0.328-1.039,0.328-1.624c0-0.452-0.088-0.87-0.211-1.272c-1.306-4.248-9.126-5.805-15.926-5.805
				c-6.799,0-14.619,1.557-15.925,5.805c-0.124,0.402-0.21,0.82-0.21,1.272c0,0.585,0.123,1.121,0.327,1.624
				C707.275,154.598,707.646,155.147,708.141,155.639z M722.115,151.1c0.241-0.004,0.474-0.014,0.723-0.014
				c0.25,0,0.482,0.01,0.725,0.014c3.868,0.07,6.741,0.672,8.379,1.272c-1.74,0.639-4.859,1.286-9.104,1.286
				c-4.242,0-7.362-0.647-9.103-1.286C715.373,151.771,718.246,151.17,722.115,151.1z"/>
			<path fill="#2E2F30" d="M649.441,151.086c-0.249,0-0.481,0.01-0.723,0.014h1.447
				C649.924,151.096,649.691,151.086,649.441,151.086z"/>
			<path fill="#2E2F30" d="M658.545,152.372c-1.638-0.601-4.511-1.202-8.379-1.272h-1.447c-3.869,0.07-6.742,0.672-8.38,1.272
				c1.74,0.639,4.86,1.286,9.103,1.286C653.686,153.658,656.805,153.011,658.545,152.372z"/>
			<path fill="#433F3C" d="M633.834,154.415c0.527,0.982,1.42,1.807,2.592,2.476c3.198,1.829,8.352,2.559,13.016,2.559
				c4.665,0,9.818-0.729,13.018-2.559c0.965-0.551,1.75-1.204,2.291-1.967c0.207-0.291,0.368-0.604,0.5-0.928
				c0.203-0.503,0.328-1.039,0.328-1.624c0-0.452-0.088-0.87-0.211-1.272c-1.306-4.248-9.126-5.805-15.926-5.805
				c-6.799,0-14.619,1.557-15.925,5.805c-0.124,0.402-0.21,0.82-0.21,1.272c0,0.585,0.123,1.121,0.327,1.624
				C633.692,154.139,633.762,154.277,633.834,154.415z M648.719,151.1c0.241-0.004,0.474-0.014,0.723-0.014
				c0.25,0,0.482,0.01,0.725,0.014c3.868,0.07,6.741,0.672,8.379,1.272c-1.74,0.639-4.859,1.286-9.104,1.286
				c-4.242,0-7.362-0.647-9.103-1.286C641.977,151.771,644.85,151.17,648.719,151.1z"/>
			<path fill="#1E1303" d="M611.166,158.658v3.391c0.035,0.022,0.072,0.045,0.107,0.068v-3.374
				C611.238,158.715,611.201,158.686,611.166,158.658z"/>
			<polygon fill="#1E1303" points="611.166,153.996 608.379,153.996 611.166,154.041 			"/>
			<path fill="#545454" d="M620.525,253.391c-0.479-30.459-0.786-57.635-0.95-73.965c-3.328-1.287-6.174-2.707-8.409-4.264v79.703
				v3.347l0.039,0.05c-0.013,0.011-0.027,0.021-0.039,0.031v4.7c0,0,0.713,1.198,1.129,1.531c0.035,0.027,0.094,0.047,0.161,0.063
				c1.354,1.416,4.15,2.992,8.329,4.545C620.693,263.815,620.607,258.557,620.525,253.391"/>
			<path fill="#636363" d="M612.456,264.588c-0.067-0.017-0.126-0.036-0.161-0.063C612.33,264.552,612.389,264.571,612.456,264.588
				c1.354,1.416,4.149,2.992,8.329,4.546c0-0.001,0-0.001,0-0.001C616.606,267.58,613.811,266.004,612.456,264.588z"/>
			<path fill="#636363" d="M611.166,258.212v0.081c0.012-0.01,0.026-0.021,0.039-0.031L611.166,258.212z"/>
			<path fill="#0066CC" d="M686.891,174.437c-21.206,0-49.112-2.295-66.101-8.003c-0.454-0.152-0.903-0.307-1.342-0.464
				c0.015,1.673,0.036,4.115,0.066,7.233c1.507,0.635,3.222,1.26,5.113,1.871c12.917,4.176,34.581,7.616,62.263,7.616
				c46.158,0,75.615-9.565,75.615-16.151v-4.422C748.737,171.012,712.805,174.437,686.891,174.437z"/>
			<rect x="746.844" y="450.514" fill="#1E1303" width="0.005" height="0.001"/>
			<path fill="#433F3C" d="M768.105,152.982c-2.141-14.229-49.283-19.428-81.215-19.428c-31.933,0-79.074,5.199-81.216,19.428
				c-0.118,0.316-0.192,0.655-0.192,1.014v12.543c0,0.423,0.039,0.839,0.108,1.25v102.764v171.477c0,0.699,0.106,1.379,0.312,2.039
				c4.195,13.455,49.834,18.402,80.988,18.402c31.153,0,76.793-4.947,80.986-18.402c0.206-0.66,0.312-1.34,0.312-2.039V270.553
				v-5.811v-4.066v-92.887c0.069-0.411,0.107-0.827,0.107-1.25v-12.543C768.297,153.638,768.225,153.299,768.105,152.982z
				 M762.614,433.977v3.391v1.705v0.953v2.004c0,0.25-0.079,0.514-0.2,0.783c-0.384,0.857-1.377,1.801-2.971,2.787
				c-2.604,1.609-6.816,3.322-12.595,4.914v0.001c-0.001,0.001-0.003,0.001-0.005,0.001c-0.718,0.197-1.467,0.393-2.233,0.586
				c-0.169,0.043-0.34,0.085-0.511,0.127c-0.672,0.168-1.362,0.332-2.07,0.495c-0.129,0.029-0.252,0.06-0.382,0.089
				c-0.842,0.191-1.708,0.379-2.601,0.563c-0.119,0.024-0.244,0.049-0.365,0.073c-0.767,0.156-1.553,0.311-2.355,0.462
				c-0.221,0.042-0.443,0.083-0.666,0.125c-0.867,0.159-1.75,0.316-2.658,0.47c-0.074,0.012-0.145,0.025-0.219,0.037
				c-0.989,0.166-2.006,0.326-3.043,0.482c-0.23,0.035-0.466,0.068-0.698,0.103c-0.833,0.122-1.681,0.241-2.544,0.358
				c-0.269,0.036-0.534,0.072-0.805,0.107c-1.094,0.144-2.203,0.283-3.344,0.415c-0.016,0.002-0.033,0.004-0.051,0.006
				c-1.106,0.128-2.242,0.249-3.393,0.366c-0.316,0.032-0.636,0.062-0.955,0.094c-0.939,0.092-1.894,0.181-2.862,0.265
				c-0.286,0.024-0.567,0.051-0.856,0.075c-1.227,0.103-2.475,0.199-3.748,0.289c-0.234,0.017-0.475,0.031-0.71,0.047
				c-1.059,0.072-2.134,0.139-3.224,0.201c-0.381,0.021-0.764,0.043-1.148,0.063c-1.119,0.06-2.254,0.114-3.404,0.164
				c-0.236,0.01-0.466,0.022-0.703,0.031c-1.369,0.056-2.764,0.103-4.177,0.142c-0.364,0.011-0.734,0.019-1.101,0.027
				c-1.104,0.027-2.222,0.051-3.352,0.068c-0.424,0.006-0.848,0.014-1.274,0.019c-1.481,0.018-2.976,0.03-4.501,0.03
				c-39.695,0-64.258-6.17-72.555-11.297c-1.594-0.986-2.586-1.93-2.97-2.787c-0.121-0.27-0.2-0.533-0.2-0.783v-2.004v-2.658v-3.391
				V270.553c2.512,1.7,5.825,3.204,9.723,4.527c13.266,4.502,33.303,6.895,51.592,7.726c5.104,0.231,10.074,0.345,14.721,0.345
				c25.789,0,61.498-3.393,75.413-12.192V433.977z M762.614,254.459v3.342v3.877v2.062c-1.163,2.028-5.613,4.512-13.229,6.812
				c-12.428,3.755-33.3,7.021-62.185,7.021c-6.107,0-11.842-0.15-17.229-0.416c-1.455-0.071-2.883-0.152-4.283-0.24
				c-2.803-0.178-5.5-0.388-8.09-0.626c-2.59-0.239-5.072-0.507-7.449-0.798c-2.376-0.293-4.645-0.609-6.806-0.945
				c-3.646-0.568-6.986-1.195-10.015-1.861c-1.894-0.415-3.666-0.846-5.315-1.287c-1.044-0.278-2.035-0.562-2.981-0.848
				c-1.546-0.467-2.965-0.941-4.248-1.419c-4.18-1.554-6.975-3.13-8.33-4.546c-0.066-0.017-0.125-0.036-0.16-0.063
				c-0.416-0.333-1.129-1.531-1.129-1.531v-4.7v-0.081v-3.347v-79.703c2.235,1.557,5.081,2.977,8.409,4.264
				c2.466,0.955,5.196,1.836,8.159,2.643c15.59,4.239,37.441,6.413,59.156,6.413c31.408,0,63.114-4.545,75.724-13.319V254.459z
				 M762.506,162.117v4.422c0,6.586-29.457,16.151-75.615,16.151c-27.682,0-49.346-3.44-62.263-7.616
				c-1.892-0.611-3.606-1.236-5.113-1.871c-5.364-2.258-8.241-4.605-8.241-6.664v-4.422c2.201,1.422,4.973,2.701,8.175,3.853
				c0.438,0.157,0.888,0.312,1.342,0.464c16.988,5.708,44.895,8.003,66.101,8.003C712.805,174.437,748.737,171.012,762.506,162.117
				 M760.947,156.508c-0.154,0.127-0.318,0.255-0.494,0.383c-7.156,5.244-32.11,11.971-73.562,11.971
				c-41.453,0-66.407-6.727-73.562-11.971c-1.402-1.027-2.131-1.998-2.155-2.85h-0.007v-0.045c0-0.863,0.734-1.851,2.162-2.896
				c7.155-5.243,32.109-11.97,73.562-11.97c41.452,0,66.406,6.727,73.562,11.97c1.426,1.046,2.161,2.033,2.161,2.896
				C762.614,154.752,762.045,155.605,760.947,156.508z"/>
			<path fill="#3F3F3F" d="M620.785,269.133C620.785,269.133,620.785,269.133,620.785,269.133c1.283,0.479,2.702,0.953,4.248,1.42
				l0,0C623.487,270.086,622.068,269.611,620.785,269.133z"/>
			<path fill="#3F3F3F" d="M625.033,270.553L625.033,270.553c0.946,0.286,1.938,0.569,2.981,0.848
				C626.971,271.122,625.979,270.839,625.033,270.553z"/>
		</g>
		<g>
			<path fill="#353535" d="M611.166,442.182h0.021c-0.006-0.051-0.021-0.104-0.021-0.152V442.182z"/>
		</g>
		<path fill="#636363" d="M686.891,188.481c-21.715,0-43.566-2.174-59.156-6.413c-2.963-0.807-5.693-1.688-8.159-2.643
			c0.164,16.33,0.472,43.506,0.95,73.965c0.082,5.166,0.168,10.425,0.26,15.742c1.283,0.479,2.702,0.953,4.248,1.42
			c0.946,0.286,1.938,0.569,2.981,0.848c1.649,0.441,3.422,0.872,5.315,1.287c3.028,0.666,6.368,1.293,10.015,1.861
			c2.161,0.336,4.43,0.652,6.806,0.945c2.377,0.291,4.859,0.559,7.449,0.798c2.59,0.238,5.287,0.448,8.09,0.626
			c1.4,0.088,2.828,0.169,4.283,0.24c5.387,0.266,11.121,0.416,17.229,0.416c28.885,0,49.757-3.267,62.185-7.021
			c7.615-2.301,12.065-4.784,13.229-6.812v-2.062v-3.877v-3.342v-79.297C750.005,183.937,718.299,188.481,686.891,188.481z"/>
	</g>
	<path fill="#353535" d="M627.426,424.697c-3.241-5.042-5.315-80.918-6.537-149.617c-3.897-1.323-7.211-2.827-9.723-4.527v163.424
		v3.391v2.377v0.281v2.004c0,0.049,0.016,0.102,0.021,0.152c0.024,0.205,0.082,0.414,0.179,0.631
		c0.384,0.857,1.376,1.801,2.97,2.787c8.297,5.127,32.859,11.297,72.555,11.297c1.525,0,3.02-0.013,4.501-0.03
		c0.427-0.005,0.851-0.013,1.274-0.019c1.13-0.018,2.247-0.041,3.352-0.068c0.366-0.009,0.736-0.017,1.101-0.027
		c1.413-0.039,2.808-0.086,4.177-0.142c0.237-0.009,0.467-0.021,0.703-0.031c1.15-0.05,2.285-0.104,3.404-0.164
		c0.385-0.021,0.768-0.042,1.148-0.063c1.09-0.062,2.165-0.129,3.224-0.201c0.235-0.016,0.476-0.03,0.71-0.047
		c1.273-0.09,2.521-0.187,3.748-0.289c0.289-0.024,0.57-0.051,0.856-0.075c0.969-0.084,1.923-0.173,2.862-0.265
		c0.319-0.031,0.639-0.062,0.955-0.094c1.15-0.117,2.286-0.238,3.393-0.366c0.018-0.002,0.035-0.004,0.051-0.006
		c1.141-0.132,2.25-0.271,3.344-0.415c0.271-0.035,0.536-0.071,0.805-0.107c0.863-0.117,1.711-0.236,2.544-0.358
		c0.232-0.034,0.468-0.067,0.698-0.103c1.037-0.156,2.054-0.316,3.043-0.482c0.074-0.012,0.145-0.025,0.219-0.037
		c0.908-0.153,1.791-0.311,2.658-0.47c0.223-0.042,0.445-0.083,0.666-0.125c0.803-0.151,1.589-0.306,2.355-0.462
		c0.121-0.024,0.246-0.049,0.365-0.073c0.893-0.185,1.759-0.372,2.601-0.563c0.13-0.029,0.253-0.06,0.382-0.089
		c0.708-0.163,1.398-0.327,2.07-0.495c0.171-0.042,0.342-0.084,0.511-0.127c0.766-0.193,1.515-0.389,2.231-0.586
		C660.848,466.514,633.426,434.03,627.426,424.697z"/>
	<path fill="#353535" d="M627.426,424.697c-3.241-5.042-5.315-80.918-6.537-149.617c-3.897-1.323-7.211-2.827-9.723-4.527v163.424
		v3.391v2.377v0.281v2.004c0,0.049,0.016,0.102,0.021,0.152c0.024,0.205,0.082,0.414,0.179,0.631
		c0.384,0.857,1.376,1.801,2.97,2.787c8.297,5.127,32.859,11.297,72.555,11.297c1.525,0,3.02-0.013,4.501-0.03
		c0.427-0.005,0.851-0.013,1.274-0.019c1.13-0.018,2.247-0.041,3.352-0.068c0.366-0.009,0.736-0.017,1.101-0.027
		c1.413-0.039,2.808-0.086,4.177-0.142c0.237-0.009,0.467-0.021,0.703-0.031c1.15-0.05,2.285-0.104,3.404-0.164
		c0.385-0.021,0.768-0.042,1.148-0.063c1.09-0.062,2.165-0.129,3.224-0.201c0.235-0.016,0.476-0.03,0.71-0.047
		c1.273-0.09,2.521-0.187,3.748-0.289c0.289-0.024,0.57-0.051,0.856-0.075c0.969-0.084,1.923-0.173,2.862-0.265
		c0.319-0.031,0.639-0.062,0.955-0.094c1.15-0.117,2.286-0.238,3.393-0.366c0.018-0.002,0.035-0.004,0.051-0.006
		c1.141-0.132,2.25-0.271,3.344-0.415c0.271-0.035,0.536-0.071,0.805-0.107c0.863-0.117,1.711-0.236,2.544-0.358
		c0.232-0.034,0.468-0.067,0.698-0.103c1.037-0.156,2.054-0.316,3.043-0.482c0.074-0.012,0.145-0.025,0.219-0.037
		c0.908-0.153,1.791-0.311,2.658-0.47c0.223-0.042,0.445-0.083,0.666-0.125c0.803-0.151,1.589-0.306,2.355-0.462
		c0.121-0.024,0.246-0.049,0.365-0.073c0.893-0.185,1.759-0.372,2.601-0.563c0.13-0.029,0.253-0.06,0.382-0.089
		c0.708-0.163,1.398-0.327,2.07-0.495c0.171-0.042,0.342-0.084,0.511-0.127c0.766-0.193,1.515-0.389,2.231-0.586
		C660.848,466.514,633.426,434.03,627.426,424.697z"/>
</g>
<g>
	<path fill="#089B82" d="M283.831,119.845c2.224,18.074,1.358,39.146-2.557,63.067c11.503-12.541,22.78-23.225,33.801-32.013
		c8.222-18.932,15.1-36.598,16.072-44.527l-1.171-0.673c-2.373,5.413-5.403,11.045-7.521,14.8
		c-9.426,16.71-11.056,16.946-12.525,16.946c-0.021,0-0.042,0-0.063,0c-1.034-0.003-2.038-0.562-2.584-1.438
		c-1.023-1.646-0.232-3.263,0.863-5.5c3.683-7.524,5.231-23.364,5.873-33.969l-21.432-12.303c-1.66,5.882-5.224,18.217-10.09,33.491
		C283.203,118.196,283.721,118.947,283.831,119.845z"/>
	<path fill="#07B69D" d="M278.676,129.485c-0.128-2.082-0.282-4.148-0.491-6.179l-0.626,0.022l-3.206,0.113l-12.674,0.445
		c-2.576,22.605-7.838,33.734-8.104,34.283c-0.586,1.212-1.808,1.949-3.107,1.949c-0.267,0-0.536-0.031-0.805-0.096
		c-1.578-0.377-2.68-1.802-2.648-3.424c0.272-14.029-1.512-24.781-3.387-32.076l-8.859,0.312
		c2.146,13.465,5.877,64.471-33.156,169.082c7.652-12.977,17.125-28.305,27.947-44.32c12.215-18.076,24.244-34.3,36.057-48.645
		c0.664-0.807,1.326-1.596,1.988-2.389c0.665-0.799,1.331-1.601,1.995-2.387c1.308-1.547,2.611-3.066,3.913-4.566
		C277.717,169.835,279.854,148.6,278.676,129.485z"/>
	<path fill="#07B69D" d="M341.261,140.177c-6.922,3.958-14.04,8.843-21.315,14.6c-1.697,1.344-3.404,2.74-5.118,4.179
		c-1.782,1.495-3.57,3.032-5.37,4.629c-9.862,8.76-19.975,19.046-30.248,30.767c-1.284,1.465-2.57,2.955-3.858,4.465
		c-0.074,0.086-0.149,0.175-0.224,0.262c-0.597,0.701-1.194,1.403-1.794,2.113c-0.664,0.788-1.328,1.587-1.993,2.387
		c-0.151,0.182-0.303,0.363-0.454,0.547c-11.964,14.425-24.112,30.721-36.314,48.775c-16.179,23.936-29.322,46.326-37.818,61.516
		c4.438,2.458,12.016,5.575,21.918,5.577c0.002,0,0.003,0,0.004,0c4.691,0,9.482-0.712,14.309-2.088
		c1.283-0.367,2.57-0.777,3.857-1.24c0.811-0.291,1.621-0.604,2.432-0.933c1.176-1.884,2.336-3.716,3.455-5.467
		c5.225-8.168,9.52-14.473,9.896-15.023c58.431-89.152,100.532-115.262,112.639-121.38L341.261,140.177z"/>
	<path fill="#FCF2E3" d="M234.378,323.752c-0.203,0.058-0.404,0.113-0.607,0.168c-1.242,0.336-2.483,0.63-3.723,0.885
		c-3.82,0.783-7.619,1.188-11.373,1.188c-0.002,0-0.002,0-0.004,0c-11.206-0.002-19.725-3.467-24.838-6.312
		c-0.801-0.447-1.521-0.877-2.152-1.275c-0.049-0.031-0.104-0.064-0.152-0.096c-1.451,3.102-3.858,8.243-6.881,14.7
		c-0.419,0.894-0.85,1.812-1.29,2.754c-3.011,6.432-6.532,13.951-10.287,21.968c-0.423,0.902-0.848,1.81-1.276,2.724
		c-16.209,34.609-36.051,76.953-37.85,80.691c-5.756,11.953-3.185,15.853-1.803,17.947c1.223,1.765,10.465,6.439,18.329,9.699
		l0.341,0.141l0.297,0.221c0-0.001,0-0.001,0-0.001c0.001,0,1.588,1.087,3.848,1.087c4.912,0,9.789-5.195,13.736-14.63
		c6.033-14.432,22.07-46.387,37.271-76.009c0.458-0.893,0.915-1.783,1.372-2.671c6.453-12.561,12.695-24.587,17.887-34.544
		c0.218-0.416,0.432-0.826,0.645-1.236c0.797-1.525,1.566-3.001,2.307-4.417c2.771-5.302,5.127-9.797,6.899-13.171
		C234.841,323.629,234.609,323.688,234.378,323.752z"/>
	<path fill="#1E1303" d="M193.344,314.351c-0.214,0.386-0.426,0.766-0.634,1.141c0.043,0.028,0.086,0.057,0.131,0.085
		L193.344,314.351z"/>
	<path fill="#433F3C" d="M372.255,173.335l-27.667-38.828c-0.881-1.236-2.547-1.619-3.88-0.893
		c-5.267,2.871-10.603,6.223-16.004,10.037c8.322-19.939,12.541-33.004,12.561-38.939c0.004-1.078-0.571-2.074-1.507-2.611
		l-3.556-2.041l-2.649-1.521l-2.665-1.529c-0.272,0.897-0.608,1.863-1,2.885c-0.344,0.896-0.727,1.832-1.146,2.801
		c-1.796,4.15-4.214,8.861-6.662,13.285c0.843-5.477,1.388-11.173,1.741-16.109c0.083-1.158,0.155-2.273,0.218-3.334
		c0.071-1.195,0.13-2.317,0.179-3.356l-2.932-1.683l-2.938-1.688L292.226,77.11c-0.806-0.463-1.782-0.525-2.641-0.17
		c-0.859,0.355-1.505,1.089-1.748,1.986c-0.087,0.321-4.501,16.514-11.52,38.441l-14.041,0.495l-3.479,0.122l-3.482,0.123
		c-0.092,1.025-0.188,2.029-0.291,3.012c-0.106,1.029-0.219,2.033-0.338,3.015c-0.533,4.419-1.167,8.379-1.841,11.847
		c-0.579-4.471-1.333-8.375-2.134-11.707c-0.253-1.051-0.51-2.038-0.768-2.975c-0.293-1.064-0.586-2.055-0.875-2.971l-3.594,0.127
		l-3.613,0.127l-10.824,0.381c-0.912,0.033-1.759,0.481-2.303,1.214c-0.543,0.732-0.724,1.677-0.49,2.558
		c0.129,0.492,12.461,50.648-33.387,172.12l-7.271,17.724c-1.565,3.345-56.025,119.682-59.049,125.963
		c-6.372,13.234-4.287,19.485-1.406,23.854c2.592,3.934,15.164,9.493,20.764,11.824c0.939,0.604,3.521,2.02,7.061,2.02
		c5.297,0,12.939-3.178,19.271-18.314c12.361-29.564,67.367-133.888,69.664-138.239c6.928-11.14,13.586-20.913,13.719-21.108
		c66.954-102.155,112.807-120.521,113.254-120.691c0.873-0.327,1.545-1.041,1.816-1.933
		C372.954,175.062,372.796,174.095,372.255,173.335z M283.831,119.845c-0.11-0.897-0.628-1.648-1.334-2.118
		c4.866-15.274,8.43-27.609,10.09-33.491l21.432,12.303c-0.642,10.604-2.19,26.444-5.873,33.969c-1.096,2.237-1.887,3.854-0.863,5.5
		c0.546,0.877,1.55,1.436,2.584,1.438c0.021,0,0.042,0,0.063,0c1.47,0,3.1-0.236,12.525-16.946c2.118-3.755,5.148-9.387,7.521-14.8
		l1.171,0.673c-0.973,7.93-7.851,25.596-16.072,44.527c-11.021,8.788-22.298,19.472-33.801,32.013
		C285.189,158.991,286.055,137.919,283.831,119.845z M234.769,124.837l8.859-0.312c1.875,7.295,3.659,18.047,3.387,32.076
		c-0.031,1.622,1.07,3.047,2.648,3.424c0.269,0.064,0.538,0.096,0.805,0.096c1.3,0,2.521-0.737,3.107-1.949
		c0.266-0.549,5.527-11.678,8.104-34.283l12.674-0.445l3.206-0.113l0.626-0.022c0.209,2.03,0.363,4.097,0.491,6.179
		c1.179,19.114-0.959,40.35-5.163,62.127c-1.302,1.5-2.605,3.02-3.913,4.566c-0.664,0.786-1.33,1.588-1.995,2.387
		c-0.662,0.793-1.324,1.582-1.988,2.389c-11.812,14.345-23.842,30.568-36.057,48.645c-10.822,16.016-20.295,31.344-27.947,44.32
		C240.646,189.308,236.915,138.302,234.769,124.837z M228.173,336.732c-0.74,1.416-1.51,2.892-2.307,4.417
		c-0.213,0.41-0.427,0.82-0.645,1.236c-5.191,9.957-11.434,21.983-17.887,34.544c-0.457,0.888-0.914,1.778-1.372,2.671
		c-15.2,29.622-31.237,61.577-37.271,76.009c-3.947,9.435-8.824,14.63-13.736,14.63c-2.26,0-3.847-1.087-3.848-1.087
		c0,0,0,0,0,0.001l-0.297-0.221l-0.341-0.141c-7.864-3.26-17.106-7.935-18.329-9.699c-1.382-2.095-3.953-5.994,1.803-17.947
		c1.799-3.738,21.641-46.082,37.85-80.691c0.429-0.914,0.854-1.821,1.276-2.724c3.755-8.017,7.276-15.536,10.287-21.968
		c0.44-0.942,0.871-1.86,1.29-2.754c3.022-6.457,5.43-11.599,6.881-14.7c0.048,0.031,0.104,0.064,0.152,0.096
		c0.631,0.398,1.352,0.828,2.152,1.275c5.113,2.846,13.632,6.311,24.838,6.312c0.002,0,0.002,0,0.004,0
		c3.754,0,7.553-0.404,11.373-1.188c1.239-0.255,2.48-0.549,3.723-0.885c0.203-0.055,0.404-0.11,0.607-0.168
		c0.231-0.064,0.463-0.123,0.694-0.19C233.3,326.936,230.943,331.431,228.173,336.732z M252.624,295.241
		c-0.377,0.551-4.672,6.855-9.896,15.023c-1.119,1.751-2.279,3.583-3.455,5.467c-0.811,0.329-1.621,0.642-2.432,0.933
		c-1.287,0.463-2.574,0.873-3.857,1.24c-4.826,1.376-9.617,2.088-14.309,2.088c-0.001,0-0.002,0-0.004,0
		c-9.902-0.002-17.479-3.119-21.918-5.577c8.496-15.189,21.64-37.58,37.818-61.516c12.202-18.055,24.351-34.351,36.314-48.775
		c0.151-0.184,0.303-0.365,0.454-0.547c0.665-0.8,1.329-1.599,1.993-2.387c0.6-0.71,1.197-1.412,1.794-2.113
		c0.074-0.087,0.149-0.176,0.224-0.262c1.288-1.51,2.574-3,3.858-4.465c10.273-11.721,20.386-22.007,30.248-30.767
		c1.8-1.597,3.588-3.134,5.37-4.629c1.714-1.438,3.421-2.835,5.118-4.179c7.275-5.757,14.394-10.642,21.315-14.6l24.002,33.685
		C353.156,179.979,311.055,206.089,252.624,295.241z"/>
</g>
<g>
	<g>
		<path fill="#FF6630" d="M435.201,296.632c-16.365-6.805-28.543-4.481-34.236-2.556c7.684,9.511,10.533,19.323,10.584,19.514
			c0.475,1.702-0.521,3.466-2.223,3.939c-1.697,0.47-3.463-0.521-3.938-2.22c-0.379-1.344-9.551-32.619-41.133-32.629
			c-5.26-0.002-10.239,0.724-14.87,2.122c-0.975,0.715-35.407,26.503-32.919,101.585h-0.002c0.383,2.024,0.717,3.673,0.963,4.795
			c0.375,1.726-0.721,3.428-2.447,3.803c-0.357,0.079-0.715,0.094-1.061,0.052c-1.314-0.157-2.447-1.13-2.744-2.498
			c-0.041-0.188-4.133-19.165-4.961-35.235l-0.002-0.141c-0.215-29.962,6.617-52.143,20.305-65.925
			c1.746-1.757,3.605-3.36,5.557-4.818c-8.396-4.636-31.193-13.679-49.533,11.577c-11.295,15.557-15.471,47.469-11.453,87.553
			c3.584,35.778,12.447,64.795,18.598,71.16l0.295,0.307l0.203,0.375c0.1,0.185,10.072,17.605,25.844,12.412
			c-3.812-5.521-4.715-10.342-4.791-10.783c-0.289-1.695,0.852-3.303,2.547-3.592c1.699-0.285,3.295,0.848,3.588,2.532
			c0.154,0.831,3.941,19.81,32.093,22.563c27.593,2.676,34.081-14.113,34.146-14.285c0.59-1.613,2.379-2.447,3.994-1.85
			c1.613,0.592,2.443,2.381,1.85,3.994c-0.154,0.424-2.086,5.414-7.643,10.127c4.238,2.809,8.521,3.795,13.018,2.996
			c13.812-2.455,24.496-20.809,24.602-20.994c13.095-22.314,24.127-53.38,32.809-92.355
			C457.142,346.13,461.448,307.548,435.201,296.632z"/>
		<path fill="#07B69D" d="M383.938,260.7c1.654-2.183,3.918-5.172,7.469-6.774c0.674-0.306,0.957-0.562,1.059-0.671
			c-0.037-0.146-0.166-0.458-0.494-0.911c-2.805-3.853-5.705-7.744-8.512-11.507l-0.197-0.264c-0.629-0.844-0.727-0.8-1.516-0.453
			c-3.156,1.394-5.832,3.439-8.182,6.254c-3.352,4.014-5.756,9.039-7.357,15.363c-0.793,3.139-1.34,6.141-1.652,9.072
			c-0.199,1.848-0.303,3.668-0.316,5.475c0.008,0,0.014,0,0.02-0.001c3.506,0,6.77,0.344,9.811,0.962
			c0.801-1.636,1.654-3.305,2.562-4.988C378.727,268.368,381.121,264.417,383.938,260.7z"/>
		<path fill="#1E1303" d="M371.988,281.622l2.826,1.307l-2.807-1.346C371.998,281.596,371.994,281.608,371.988,281.622z"/>
		<path fill="#1E1303" d="M361.125,276.366c-0.012,0-0.025,0.001-0.037,0.002h0.037
			C361.125,276.367,361.125,276.366,361.125,276.366z"/>
		<path fill="#1E1303" d="M364.238,276.284c-1.049,0-2.086,0.03-3.113,0.082c0,0,0,0.001,0,0.002l3.111,0.016
			C364.236,276.351,364.24,276.317,364.238,276.284z"/>
		<path fill="#D6532B" d="M331.057,295.745c-12.432,12.518-18.639,33.144-18.449,61.301c0.525,10.074,2.492,22.111,3.857,29.342
			h0.002c-1.289-38.906,7.334-64.576,16.08-80.381c8.132-14.695,16.37-20.86,16.839-21.204
			C342.376,286.921,336.17,290.595,331.057,295.745z"/>
		<path fill="#433F3C" d="M437.593,290.884c-20.742-8.629-35.714-4.074-41.146-1.746c-4.289-4.131-9.648-7.836-16.271-10.197
			c0.965-1.938,2.008-3.911,3.131-5.883c1.668-2.932,3.51-5.85,5.592-8.597c1.682-2.216,3.119-3.98,5.07-4.86
			c3.08-1.393,4.168-3.353,4.541-4.752c0.361-1.371,0.396-3.557-1.506-6.168c-2.824-3.882-5.736-7.789-8.555-11.565l-0.195-0.265
			c-2.316-3.107-5.52-3.97-9.021-2.427c-3.998,1.763-7.514,4.442-10.449,7.961c-3.963,4.745-6.779,10.577-8.613,17.827
			c-0.857,3.396-1.451,6.659-1.797,9.855c-0.229,2.117-0.352,4.207-0.363,6.285l3.078,0.016c0.012-0.001,0.025-0.002,0.037-0.002
			c1.027-0.052,2.064-0.082,3.113-0.082c0.014-1.807,0.117-3.627,0.316-5.475c0.312-2.932,0.859-5.934,1.652-9.072
			c1.602-6.324,4.006-11.35,7.357-15.363c2.35-2.814,5.025-4.86,8.182-6.254c0.789-0.347,0.887-0.391,1.516,0.453l0.197,0.264
			c2.807,3.763,5.707,7.654,8.512,11.507c0.328,0.453,0.457,0.765,0.494,0.911c-0.102,0.109-0.385,0.365-1.059,0.671
			c-3.551,1.603-5.814,4.592-7.469,6.774c-2.816,3.717-5.211,7.668-7.307,11.557c-0.908,1.684-1.762,3.353-2.562,4.988
			c-3.041-0.618-6.305-0.962-9.811-0.962c-0.006,0.001-0.012,0.001-0.02,0.001c0.002,0.033-0.002,0.066-0.002,0.1l-3.111-0.016
			h-0.037c-8.487,0.422-16.294,2.566-23.16,6.309c-2.668-1.717-10.074-5.994-19.646-7.422c-11.076-1.643-27.146,0.314-40.777,19.083
			c-7.158,9.859-18.318,34.899-12.611,91.833c3.391,33.83,11.955,65.648,20.018,74.549c3.818,5.4,11.043,14.77,22.502,16.143
			c3.889,0.467,8.158-0.02,12.734-1.955c0.049-0.021,0.088-0.051,0.133-0.072c5.354,5.232,13.773,10.131,26.989,11.715
			c0.525,0.064,1.057,0.121,1.598,0.172c12.478,1.211,21.312-1.121,27.485-4.482c4.119,3.189,8.416,5.074,12.842,5.605
			c2.211,0.264,4.453,0.197,6.723-0.207c16.649-2.955,28.424-23.166,28.901-23.998c13.408-22.851,24.678-54.521,33.5-94.131
			C463.645,345.579,468.039,303.544,437.593,290.884z M452.238,368.157c-8.682,38.976-19.714,70.041-32.809,92.355
			c-0.037,0.068-1.446,2.482-3.867,5.656c-4.322,5.666-11.883,13.766-20.734,15.338c-4.496,0.799-8.779-0.188-13.018-2.996
			c3.191-2.707,5.184-5.5,6.332-7.473c0.852-1.463,1.244-2.475,1.311-2.654c0.594-1.613-0.236-3.402-1.85-3.994
			c-1.615-0.598-3.404,0.236-3.994,1.85c-0.018,0.043-0.443,1.145-1.514,2.725c-3.17,4.68-12,13.561-32.632,11.561
			c-19.856-1.941-27.585-11.951-30.472-17.977c-1.209-2.518-1.576-4.342-1.621-4.587c-0.293-1.685-1.889-2.817-3.588-2.532
			c-1.695,0.289-2.836,1.896-2.547,3.592c0.029,0.17,0.18,0.979,0.566,2.219c0.625,2.008,1.867,5.15,4.225,8.564
			c0.275-0.09,0.557-0.209,0.836-0.311l-0.359,0.967c-0.158-0.219-0.324-0.439-0.477-0.656c-12.209,4.021-20.939-5.51-24.309-10.105
			c-0.982-1.34-1.512-2.265-1.535-2.307l-0.203-0.375l-0.295-0.307c-1.812-1.872-3.857-5.721-5.934-11.112
			c-4.979-12.93-10.133-34.8-12.664-60.048c-2.217-22.13-1.936-41.76,0.662-57.53c2.105-12.797,5.732-23.054,10.791-30.022
			c18.34-25.256,41.137-16.213,49.533-11.577c-1.951,1.458-3.811,3.062-5.557,4.818c-13.688,13.782-20.52,35.963-20.305,65.925
			l0.002,0.141c0.828,16.07,4.92,35.047,4.961,35.235c0.297,1.368,1.43,2.341,2.744,2.498c0.346,0.042,0.703,0.027,1.061-0.052
			c1.727-0.375,2.822-2.077,2.447-3.803c-0.246-1.122-0.58-2.771-0.963-4.795c-1.365-7.23-3.332-19.268-3.857-29.342
			c-0.189-28.157,6.018-48.783,18.449-61.301c5.113-5.15,11.319-8.824,18.329-10.942c4.631-1.398,9.61-2.124,14.87-2.122
			c31.582,0.01,40.754,31.285,41.133,32.629c0.475,1.699,2.24,2.689,3.938,2.22c1.701-0.474,2.697-2.237,2.223-3.939
			c-0.051-0.19-2.9-10.003-10.584-19.514c5.693-1.926,17.871-4.249,34.236,2.556C461.448,307.548,457.142,346.13,452.238,368.157z"
			/>
	</g>
	<path fill="#D6532B" d="M311.803,461.239l-0.002-0.002c-36.799-11.223-39.834-121.485-40.051-133.218
		c-2.598,15.771-2.879,35.4-0.662,57.53c2.531,25.248,7.686,47.118,12.664,60.048c0,0,4.088,10.828,8.133,14.327
		c0.004,0.002,0.004,0.002,0.006,0.004c3.482,4.674,12.125,13.832,24.137,9.875C313.67,466.39,312.428,463.247,311.803,461.239z"/>
	<g>
		<path fill="none" d="M289.686,456.71l0.295,0.307l0.203,0.375c0.023,0.042,0.553,0.967,1.535,2.307l-7.967-14.101
			C285.828,450.989,287.873,454.838,289.686,456.71z"/>
		<path fill="#1E1303" d="M316.863,469.493c-0.279,0.102-0.561,0.221-0.836,0.311c0.152,0.217,0.318,0.438,0.477,0.656
			L316.863,469.493z"/>
		<path fill="#D6532B" d="M349.464,480.524c20.632,2,29.462-6.881,32.632-11.561c-30.53,10.674-58.547-3.855-63.104-6.416
			C321.879,468.573,329.607,478.583,349.464,480.524z"/>
	</g>
	<g>
		<path fill="none" d="M316.863,469.493c-0.279,0.102-0.561,0.221-0.836,0.311c0.152,0.217,0.318,0.438,0.477,0.656L316.863,469.493
			z"/>
		<path fill="#D6532B" d="M394.828,481.507c8.852-1.572,16.412-9.672,20.734-15.338c-11.062,9.139-27.418,4.867-27.418,4.867
			l-0.002,0.002c-1.148,1.973-3.141,4.766-6.332,7.473C386.049,481.319,390.332,482.306,394.828,481.507z"/>
	</g>
	<path fill="#1E1303" d="M345.735,286.063"/>
</g>
<g>
	<g>
		<path fill="#BA7819" d="M464.012,426.38c-13.75,1.869-22.064-10.83-22.922-12.205c0.789,9.324,8.62,16.674,18.149,16.674
			c6.289,0,11.845-3.201,15.12-8.059C474.282,422.882,472.218,425.265,464.012,426.38z"/>
		<path fill="#D88E19" d="M441.012,414.047c0,0,0.029,0.049,0.078,0.128c-0.003-0.036-0.002-0.073-0.006-0.108L441.012,414.047z"/>
		<polygon fill="#D88E19" points="474.365,422.781 474.359,422.79 474.367,422.781 		"/>
		<path fill="#D88E19" d="M459.239,394.409c-10.051,0-18.228,8.173-18.228,18.22c0,0.485,0.035,0.961,0.072,1.438
			c0.004,0.035,0.003,0.072,0.006,0.108c0.857,1.375,9.172,14.074,22.922,12.205c8.206-1.115,10.271-3.498,10.348-3.59
			c0.002-0.003,0.004-0.006,0.006-0.009c1.955-2.903,3.099-6.396,3.099-10.152C477.464,402.582,469.29,394.409,459.239,394.409z"/>
	</g>
	<g>
		<path fill="#BA7819" d="M554.085,422.144c0.417,5.256,4.818,9.407,10.179,9.407c3.724,0,6.979-2.009,8.766-4.993
			C562.137,432.621,554.294,422.42,554.085,422.144z"/>
		<polygon fill="#FFB32D" points="554.075,422.131 554.085,422.144 554.085,422.133 		"/>
		<path fill="#FFB32D" d="M573.037,426.545c-0.003,0.004-0.005,0.009-0.008,0.013c0.007-0.004,0.013-0.007,0.019-0.01
			L573.037,426.545z"/>
		<path fill="#D88E19" d="M564.264,411.111c-5.635,0-10.22,4.585-10.22,10.22c0,0.271,0.02,0.536,0.041,0.802
			c0,0.004,0,0.008,0,0.011c0.209,0.276,8.052,10.478,18.944,4.414c0.003-0.004,0.005-0.009,0.008-0.013
			c0.912-1.528,1.446-3.308,1.446-5.214C574.483,415.696,569.898,411.111,564.264,411.111z"/>
	</g>
	<g>
		<path fill="none" d="M654.385,429.7c-8.684-4.657-13.716-13.108-13.75-13.168C640.669,416.592,645.673,425.397,654.385,429.7z"/>
		<path fill="none" d="M564.264,431.551c5.635,0,10.22-4.585,10.22-10.22s-4.585-10.22-10.22-10.22s-10.22,4.585-10.22,10.22
			S558.629,431.551,564.264,431.551z"/>
		<path fill="none" d="M459.239,394.409c-10.051,0-18.228,8.173-18.228,18.22s8.177,18.22,18.228,18.22s18.225-8.173,18.225-18.22
			S469.29,394.409,459.239,394.409z"/>
		<path fill="#FFB32D" d="M555.974,345.298c0,13.922-11.327,25.249-25.249,25.249s-25.249-11.327-25.249-25.249
			c0-2.895,0.496-5.674,1.396-8.266l-104.551,10.379v9.545c2.486-1.551,5.411-2.463,8.551-2.463c8.947,0,16.228,7.276,16.228,16.22
			s-7.28,16.22-16.228,16.22c-3.14,0-6.064-0.912-8.551-2.463v103.659l73.666-8.075c0.274-12.152,10.239-21.957,22.457-21.957
			c10.54,0,19.404,7.297,21.817,17.103l74.295-8.146c1.521-5.169,6.302-8.956,11.957-8.956c4.692,0,8.784,2.607,10.912,6.448
			l48.923-5.364v-13.821c-17.713-0.4-32-14.924-32-32.73s14.287-32.33,32-32.73v-58.703l-113.87,11.308
			C554.695,336.258,555.974,340.631,555.974,345.298z M459.239,436.849c-13.36,0-24.23-10.865-24.23-24.22s10.87-24.22,24.23-24.22
			c13.359,0,24.225,10.865,24.225,24.22S472.599,436.849,459.239,436.849z M619.051,336.536c10.598,0,19.22,8.622,19.22,19.22
			s-8.622,19.22-19.22,19.22s-19.22-8.622-19.22-19.22S608.453,336.536,619.051,336.536z M580.483,421.331
			c0,8.943-7.276,16.22-16.22,16.22s-16.22-7.276-16.22-16.22s7.276-16.22,16.22-16.22S580.483,412.388,580.483,421.331z"/>
		<path fill="#1E1303" d="M671.362,315.659c-0.012-0.011-0.027-0.018-0.039-0.028c0.048,0.042,0.089,0.09,0.135,0.135
			C671.424,315.731,671.397,315.691,671.362,315.659z"/>
		<polygon fill="#1E1303" points="506.872,337.031 402.321,347.411 506.872,337.032 		"/>
		<polygon fill="#1E1303" points="645.557,317.23 645.556,317.23 585.449,323.199 		"/>
		<path fill="#BA7819" d="M640.635,416.532c1.86,12.663,12.628,22.464,25.714,22.827v-6.668c-4.507,0.106-8.521-1.145-11.964-2.991
			C645.673,425.397,640.669,416.592,640.635,416.532z"/>
		<path fill="#D88E19" d="M498.444,464.097c-8.685,0-15.803,6.762-16.41,15.294l32.187-3.529
			C512.19,469.067,505.89,464.097,498.444,464.097z"/>
		<path fill="#433F3C" d="M564.264,405.111c-8.943,0-16.22,7.276-16.22,16.22s7.276,16.22,16.22,16.22s16.22-7.276,16.22-16.22
			S573.207,405.111,564.264,405.111z M564.264,431.551c-5.635,0-10.22-4.585-10.22-10.22s4.585-10.22,10.22-10.22
			s10.22,4.585,10.22,10.22S569.898,431.551,564.264,431.551z"/>
		<path fill="#D88E19" d="M601.689,466.271l8.604-0.943c-1.064-0.771-2.368-1.23-3.78-1.23
			C604.596,464.097,602.875,464.94,601.689,466.271z"/>
		<path fill="#BA7819" d="M619.051,368.976c4.711,0,8.844-2.485,11.186-6.206c-17.077,8.355-24.405-7.014-24.405-7.014
			C605.831,363.045,611.762,368.976,619.051,368.976z"/>
		<path fill="#433F3C" d="M619.051,374.976c10.598,0,19.22-8.622,19.22-19.22s-8.622-19.22-19.22-19.22s-19.22,8.622-19.22,19.22
			S608.453,374.976,619.051,374.976z M619.051,342.536c7.289,0,13.22,5.931,13.22,13.22c0,2.572-0.75,4.967-2.026,7l0.014,0.004
			c-0.007,0.004-0.015,0.006-0.021,0.01c-2.342,3.721-6.475,6.206-11.186,6.206c-7.289,0-13.22-5.931-13.22-13.22
			S611.762,342.536,619.051,342.536z"/>
		<path fill="#433F3C" d="M459.239,388.409c-13.36,0-24.23,10.865-24.23,24.22s10.87,24.22,24.23,24.22
			c13.359,0,24.225-10.865,24.225-24.22S472.599,388.409,459.239,388.409z M459.239,430.849c-10.051,0-18.228-8.173-18.228-18.22
			s8.177-18.22,18.228-18.22s18.225,8.173,18.225,18.22S469.29,430.849,459.239,430.849z"/>
		<path fill="#BA7819" d="M410.872,380.933c2.988,0,5.673-1.296,7.544-3.347c-9.96,4.172-16.095-5.29-16.095-5.29v3.997
			C404.148,379.082,407.296,380.933,410.872,380.933z"/>
		<path fill="#433F3C" d="M606.514,464.097c1.412,0,2.716,0.46,3.78,1.23l7.132-0.782c-2.128-3.841-6.22-6.448-10.912-6.448
			c-5.655,0-10.436,3.787-11.957,8.956l7.133-0.782C602.875,464.94,604.596,464.097,606.514,464.097z"/>
		<path fill="#BA7819" d="M511.558,346.918c0.827,9.857,9.1,17.629,19.167,17.629c6.108,0,11.55-2.868,15.078-7.319
			C522.362,369.062,511.926,347.691,511.558,346.918z"/>
		<polygon fill="#1E1303" points="510.199,336.701 506.872,337.031 506.872,337.032 		"/>
		<path fill="#FFB32D" d="M443.753,337.271l66.407-6.595l4.169-0.414l5.084-0.505l19.358-1.922l5.07-0.504l4.167-0.414l37.44-3.718
			l60.106-5.969l-71.978-11.157C541.521,313.797,483.876,327.678,443.753,337.271z"/>
		<polygon fill="#1E1303" points="443.749,337.271 443.751,337.271 443.753,337.271 		"/>
		<polygon fill="#1E1303" points="443.751,337.271 510.16,330.676 443.753,337.271 		"/>
		<path fill="#D88E19" d="M418.416,377.586c0.004-0.004,0.008-0.009,0.012-0.013c1.651-1.815,2.669-4.219,2.669-6.86
			c0-5.635-4.587-10.22-10.225-10.22c-3.576,0-6.724,1.851-8.551,4.64v7.163C402.321,372.296,408.456,381.758,418.416,377.586z"/>
		<path fill="#FFB32D" d="M418.439,377.577l-0.012-0.004c-0.004,0.004-0.008,0.009-0.012,0.013
			C418.424,377.583,418.432,377.58,418.439,377.577z"/>
		<path fill="#D88E19" d="M513.694,336.354c-1.411,2.675-2.219,5.715-2.219,8.943c0,0.536,0.037,1.062,0.08,1.588
			c0.001,0.011,0.001,0.021,0.002,0.032c0.368,0.773,10.805,22.145,34.245,10.31c0.005-0.006,0.009-0.013,0.014-0.019
			c2.595-3.28,4.157-7.413,4.157-11.911c0-4.591-1.62-8.807-4.312-12.118L513.694,336.354z"/>
		<path fill="#D88E19" d="M545.832,357.214l-0.016-0.005c-0.005,0.006-0.009,0.013-0.014,0.019
			C545.812,357.223,545.822,357.219,545.832,357.214z"/>
		<path fill="#D88E19" d="M511.54,346.881c0,0,0.011,0.022,0.018,0.037c-0.001-0.011-0.001-0.021-0.002-0.032L511.54,346.881z"/>
		<path fill="#D88E19" d="M640.349,412.629c0,1.325,0.1,2.627,0.286,3.9c0,0.001,0,0.002,0,0.003
			c0.034,0.06,5.066,8.511,13.75,13.168c3.437,1.698,7.45,2.696,11.964,2.179v-45.98
			C651.945,386.298,640.349,398.131,640.349,412.629z"/>
		<path fill="#D88E19" d="M654.385,429.7c3.442,1.847,7.457,3.098,11.964,2.991v-0.812
			C661.835,432.396,657.821,431.398,654.385,429.7z"/>
		<polygon fill="#BA7819" points="640.633,416.528 640.635,416.532 640.635,416.529 		"/>
		<path fill="#D88E19" d="M630.236,362.77c0.003-0.004,0.005-0.009,0.008-0.014c1.276-2.033,2.026-4.428,2.026-7
			c0-7.289-5.931-13.22-13.22-13.22s-13.22,5.931-13.22,13.22C605.831,355.756,613.159,371.125,630.236,362.77z"/>
		<path fill="#1E1303" d="M630.258,362.76l-0.014-0.004c-0.003,0.005-0.005,0.01-0.008,0.014
			C630.243,362.766,630.251,362.764,630.258,362.76z"/>
		<path fill="#D88E19" d="M520.91,480.718l73.481-7.278c-0.22-0.924-0.348-1.883-0.348-2.873c0-1.221,0.184-2.398,0.513-3.514
			l-74.295,8.146c0.423,1.721,0.652,3.518,0.652,5.367C520.914,480.617,520.911,480.667,520.91,480.718z"/>
		<path fill="#D88E19" d="M476.439,485.123c-0.304-1.472-0.465-2.996-0.465-4.557c0-0.172,0.009-0.342,0.013-0.513l-73.666,8.075
			v4.333L476.439,485.123z"/>
		<path fill="#D88E19" d="M618.983,470.566c0,0.148-0.018,0.292-0.022,0.439l47.388-4.694v-7.131l-48.923,5.364
			C618.416,466.332,618.983,468.383,618.983,470.566z"/>
		<path fill="#BA7819" d="M481.975,480.566c0,1.367,0.186,2.688,0.501,3.959l32.4-3.21c0.012-0.25,0.038-0.496,0.038-0.749
			c0-1.635-0.247-3.213-0.693-4.705l-32.187,3.529C482.007,479.781,481.975,480.17,481.975,480.566z"/>
		<path fill="#BA7819" d="M600.044,470.566c0,0.8,0.152,1.563,0.42,2.271l12.428-1.231c0.056-0.339,0.092-0.686,0.092-1.04
			c0-2.155-1.063-4.062-2.689-5.239l-8.604,0.943C600.67,467.414,600.044,468.917,600.044,470.566z"/>
		<path fill="#433F3C" d="M672.332,317.726c-0.007-0.135-0.017-0.27-0.042-0.4c-0.014-0.071-0.035-0.14-0.053-0.209
			c-0.032-0.12-0.068-0.239-0.115-0.354c-0.028-0.069-0.061-0.137-0.094-0.203c-0.054-0.109-0.114-0.215-0.182-0.316
			c-0.04-0.062-0.081-0.124-0.126-0.183c-0.08-0.104-0.169-0.2-0.263-0.294c-0.046-0.045-0.087-0.093-0.135-0.135
			c-0.13-0.114-0.269-0.214-0.413-0.303c-0.021-0.014-0.04-0.031-0.062-0.043c-0.169-0.098-0.347-0.177-0.53-0.239
			c-0.065-0.022-0.136-0.033-0.203-0.051c-0.102-0.027-0.2-0.061-0.307-0.077l-95.896-14.865c-0.389-0.06-0.781-0.042-1.163,0.048
			c-58.492,14.094-169.908,40.877-173.862,41.625c-0.069,0.01-0.133,0.035-0.2,0.05c-0.099,0.021-0.198,0.041-0.292,0.071
			c-0.088,0.029-0.171,0.066-0.254,0.102c-0.088,0.038-0.176,0.075-0.259,0.121c-0.08,0.044-0.155,0.095-0.23,0.146
			c-0.078,0.053-0.155,0.105-0.228,0.164c-0.069,0.058-0.133,0.119-0.197,0.183c-0.066,0.065-0.133,0.133-0.193,0.204
			c-0.057,0.068-0.109,0.14-0.16,0.212c-0.054,0.078-0.106,0.156-0.153,0.239c-0.044,0.077-0.083,0.157-0.12,0.239
			c-0.039,0.086-0.075,0.173-0.106,0.262c-0.029,0.087-0.055,0.176-0.076,0.266c-0.022,0.092-0.041,0.185-0.055,0.279
			c-0.014,0.093-0.022,0.188-0.027,0.282c-0.002,0.051-0.014,0.099-0.014,0.149v18.898v14.24v117.94
			c0,0.847,0.358,1.654,0.986,2.224c0.554,0.502,1.272,0.776,2.014,0.776c0.099,0,0.197-0.005,0.296-0.015l78.908-7.813l3.27-0.324
			l3.384-0.335l28.187-2.792l3.38-0.334l3.272-0.324l77.483-7.676l4.247-0.42l11.039-1.094l4.251-0.421l52.606-5.211
			c1.534-0.152,2.704-1.443,2.704-2.985v-24.076v-3.046v-3.049v-52.459v-3.049v-3.046v-62.422
			C672.349,317.829,672.335,317.778,672.332,317.726z M573.578,306.073l71.978,11.157h0.001l-60.107,5.969l-37.44,3.718
			l-4.167,0.414l-5.07,0.504l-19.358,1.922l-5.084,0.505l-4.169,0.414l-66.406,6.595
			C483.877,327.678,541.521,313.797,573.578,306.073z M545.832,357.214c-0.01,0.005-0.02,0.009-0.029,0.014
			c-3.528,4.451-8.97,7.319-15.078,7.319c-10.067,0-18.34-7.771-19.167-17.629c-0.007-0.015-0.018-0.037-0.018-0.037l0.016,0.005
			c-0.043-0.525-0.08-1.052-0.08-1.588c0-3.229,0.808-6.269,2.219-8.943l31.968-3.175c2.691,3.312,4.312,7.527,4.312,12.118
			c0,4.498-1.562,8.631-4.157,11.911L545.832,357.214z M402.321,372.296v-7.163c1.827-2.789,4.975-4.64,8.551-4.64
			c5.638,0,10.225,4.585,10.225,10.22c0,2.642-1.018,5.045-2.669,6.86l0.012,0.004c-0.008,0.003-0.016,0.006-0.023,0.009
			c-1.871,2.051-4.556,3.347-7.544,3.347c-3.576,0-6.724-1.851-8.551-4.64V372.296z M514.876,481.315l-32.4,3.21
			c-0.315-1.271-0.501-2.592-0.501-3.959c0-0.396,0.032-0.785,0.06-1.176c0.607-8.532,7.726-15.294,16.41-15.294
			c7.445,0,13.746,4.971,15.776,11.765c0.446,1.492,0.693,3.07,0.693,4.705C514.914,480.819,514.888,481.065,514.876,481.315z
			 M666.349,431.879v0.812v6.668c-13.086-0.363-23.854-10.164-25.714-22.827l-0.002-0.004l0.002,0.001
			c-0.187-1.273-0.286-2.575-0.286-3.9c0-14.498,11.597-26.331,26-26.73V431.879z M666.349,379.898c-17.713,0.4-32,14.924-32,32.73
			s14.287,32.33,32,32.73v13.821v7.131l-47.388,4.694c0.005-0.147,0.022-0.291,0.022-0.439c0-2.184-0.567-4.234-1.558-6.021
			l-7.132,0.782c1.626,1.177,2.689,3.084,2.689,5.239c0,0.354-0.036,0.701-0.092,1.04l-12.428,1.231
			c-0.268-0.708-0.42-1.472-0.42-2.271c0-1.649,0.626-3.152,1.646-4.296l-7.133,0.782c-0.329,1.115-0.513,2.293-0.513,3.514
			c0,0.99,0.128,1.949,0.348,2.873l-73.481,7.278c0.001-0.051,0.004-0.101,0.004-0.151c0-1.85-0.229-3.646-0.652-5.367
			c-2.413-9.806-11.277-17.103-21.817-17.103c-12.218,0-22.183,9.805-22.457,21.957c-0.004,0.171-0.013,0.341-0.013,0.513
			c0,1.561,0.161,3.085,0.465,4.557l-74.118,7.339v-4.333V384.47c2.486,1.551,5.411,2.463,8.551,2.463
			c8.947,0,16.228-7.276,16.228-16.22s-7.28-16.22-16.228-16.22c-3.14,0-6.064,0.912-8.551,2.463v-9.545l104.551-10.38l3.327-0.33
			l-3.327,0.331c-0.9,2.592-1.396,5.371-1.396,8.266c0,13.922,11.327,25.249,25.249,25.249s25.249-11.327,25.249-25.249
			c0-4.667-1.278-9.04-3.495-12.795l113.87-11.308V379.898z"/>
	</g>
</g>
<g>
	<path fill="#ED1733" d="M275.898,364.908l-26.959-1.688l6.428,14.114c0.564,1.238,0.311,2.696-0.641,3.671
		c-0.373,0.385-0.826,0.662-1.314,0.826c-0.748,0.25-1.58,0.23-2.336-0.092l-25.678-10.892l-15.605,24.784
		c-0.75,1.193-2.178,1.777-3.551,1.452c-1.373-0.323-2.387-1.485-2.525-2.889l-1.393-14.175l-21.48,16.445
		c0,0-0.49,56.995,50.467,64.931c34.342,5.349,50.059-10.516,54.117-15.58c11.238-15.009,15.195-35.101,8.812-54.188
		C290.613,380.789,284.123,371.703,275.898,364.908z"/>
	<path fill="#07B69D" d="M264.691,357.594c-8.811-4.42-18.717-6.646-28.824-6.242C245.975,350.948,255.881,353.174,264.691,357.594z
		"/>
	<path fill="#07B69D" d="M187.842,379.613c-0.928,1.531-1.787,3.105-2.578,4.717L187.842,379.613z"/>
	<path fill="#C1102D" d="M231.311,461.397c-50.957-7.936-50.467-64.931-50.467-64.931c-2.549,10.447-2.295,21.702,1.359,32.632
		c10.332,30.888,43.865,47.613,74.752,37.283c11.801-3.947,21.525-11.287,28.473-20.564
		C281.369,450.882,265.652,466.746,231.311,461.397z"/>
	<path fill="#07B69D" d="M240.939,357.713c0.656-0.953,1.766-1.494,2.924-1.422l20.828,1.303c-8.811-4.42-18.717-6.646-28.824-6.242
		c-1.445,0.059-2.893,0.17-4.342,0.336c-2.676,0.307-5.357,0.801-8.027,1.49c-0.949,0.246-1.898,0.516-2.844,0.811
		c-0.426-0.805-1.256-4.051-1.678-6.361c-0.42-3.629-0.674-7.661,0.184-10.997l-5.912,0.745c-0.336,4.551,0.537,9.06,1.312,11.631
		c0,0,1.109,4.051,2.068,6.385c-10.283,3.986-18.738,10.564-25.035,18.746c-1.352,1.755-2.604,3.582-3.752,5.477l-2.578,4.717
		c-0.119,0.24-0.246,0.477-0.361,0.719l18.121-13.873c0.953-0.729,2.223-0.885,3.322-0.407c1.098,0.478,1.852,1.513,1.969,2.704
		l1.027,10.488l11.771-18.691l0.197-0.314c0.863-1.369,2.592-1.91,4.08-1.279l20.457,8.678l-5.193-11.401
		C240.174,359.896,240.281,358.668,240.939,357.713z"/>
	<path fill="#433F3C" d="M300.498,389.535c-4.096-12.247-11.484-22.477-20.84-30.068c-0.215-0.234-0.465-0.43-0.74-0.596
		c-12.455-9.812-28.275-14.975-44.49-14.042c-3.328,0.191-6.672,0.62-10.008,1.339c-0.07-3.491,1.26-8.928,2.488-12.326
		c0.391-1.081,0.191-2.286-0.527-3.183c-0.719-0.897-1.85-1.357-2.988-1.214l-13.492,1.7c-1.412,0.18-2.555,1.244-2.826,2.645
		c-1.385,7.133,0.508,14.517,1.607,17.929c-2.113,1.063-4.148,2.232-6.104,3.496c-13.814,8.934-23.576,22.67-27.752,38.145
		c-0.115,0.284-0.191,0.578-0.223,0.882c-0.932,3.647-1.551,7.386-1.846,11.177c-0.658,8.478,0.324,17.216,3.188,25.773
		c11.484,34.339,48.764,52.933,83.104,41.448c10.947-3.66,20.283-9.951,27.566-17.924
		C302.178,437.679,308.322,412.929,300.498,389.535z M187.842,379.613c1.148-1.895,2.4-3.722,3.752-5.477
		c6.297-8.182,14.752-14.76,25.035-18.746c-0.959-2.334-2.068-6.385-2.068-6.385c-0.775-2.571-1.648-7.08-1.312-11.631l5.912-0.745
		c-0.857,3.336-0.604,7.368-0.184,10.997c0.422,2.311,1.252,5.557,1.678,6.361c0.945-0.295,1.895-0.564,2.844-0.811
		c2.67-0.689,5.352-1.184,8.027-1.49c1.449-0.166,2.896-0.277,4.342-0.336c10.107-0.403,20.014,1.822,28.824,6.242l-20.828-1.303
		c-1.158-0.072-2.268,0.469-2.924,1.422c-0.658,0.955-0.766,2.184-0.285,3.239l5.193,11.401l-20.457-8.678
		c-1.488-0.631-3.217-0.09-4.08,1.279l-0.197,0.314l-11.771,18.691l-1.027-10.488c-0.117-1.191-0.871-2.227-1.969-2.704
		c-1.1-0.478-2.369-0.322-3.322,0.407l-18.121,13.873c0.115-0.242,0.242-0.479,0.361-0.719
		C186.055,382.719,186.914,381.145,187.842,379.613z M285.428,445.817c-6.947,9.277-16.672,16.617-28.473,20.564
		c-30.887,10.33-64.42-6.396-74.752-37.283c-3.654-10.93-3.908-22.185-1.359-32.632l21.48-16.445l1.393,14.175
		c0.139,1.403,1.152,2.565,2.525,2.889c1.373,0.325,2.801-0.259,3.551-1.452l15.605-24.784l25.678,10.892
		c0.756,0.322,1.588,0.342,2.336,0.092c0.488-0.164,0.941-0.441,1.314-0.826c0.951-0.975,1.205-2.433,0.641-3.671l-6.428-14.114
		l26.959,1.688c8.225,6.795,14.715,15.881,18.342,26.721C300.623,410.717,296.666,430.809,285.428,445.817z"/>
</g>
<g>
	<path fill="#FF6630" d="M320.736,493.9c4.281,0.033,8.629,0.062,13.062,0.089c3.211,0.019,6.342,0.036,9.408,0.056
		c0.853-4.141,1.63-10.229,1.058-17.351c-6.999-1.323-14.315-2.699-21.866-4.111c0.355,4.334,0.266,8.268-0.031,11.61
		C321.979,488.575,321.246,491.943,320.736,493.9z"/>
	<path fill="#FF6630" d="M276.771,493.415c4.943,0.072,10.018,0.141,15.213,0.204c0.684-3.538,1.203-8.281,0.74-13.725
		c-0.139-1.651,1.084-3.104,2.734-3.243c1.65-0.142,3.104,1.083,3.244,2.734c0.301,3.542,0.238,6.817-0.02,9.724
		c-0.146,1.656-0.357,3.184-0.6,4.58c5.346,0.06,10.818,0.113,16.426,0.161c0.129-0.396,3.125-9.765,1.752-22.414
		c-11.895-2.217-24.283-4.508-36.822-6.803c0.693,5.439,0.668,10.385,0.295,14.586C279.066,486.761,277.32,491.932,276.771,493.415z
		"/>
	<path fill="#FF6630" d="M252.395,492.998c5.959,0.117,12.125,0.226,18.498,0.327c-0.117-0.563-0.076-1.168,0.154-1.739
		c0.049-0.121,4.721-12.02,2.18-28.087c-6.324-1.154-12.668-2.305-18.994-3.446c0.543,7.754,0.348,14.83-0.191,20.916
		C253.631,485.601,253.023,489.644,252.395,492.998z"/>
	<path fill="#FF6630" d="M202.709,491.723c5.392,0.176,11.021,0.345,16.895,0.507c3.934-18.68,2.033-32.665,2.011-32.828
		c-0.232-1.635,0.903-3.158,2.543-3.395c1.64-0.234,3.159,0.9,3.396,2.539c0.074,0.516,1.17,8.445,0.112,20.387
		c-0.36,4.064-0.98,8.603-1.964,13.461c6.561,0.17,13.422,0.33,20.584,0.48c1.492-7.646,3.01-19.715,1.842-33.921
		c-14.361-2.581-28.535-5.091-42.014-7.431c0.357,8.031,0.07,15.293-0.469,21.38C204.754,482.949,203.183,489.808,202.709,491.723z"
		/>
	<path fill="#FF6630" d="M349.325,494.081c8.366,0.049,16.173,0.096,23.462,0.14c0.139-1.214,0.17-2.578,0-4.062
		c-0.195-1.647,0.986-3.135,2.633-3.326s3.135,0.988,3.326,2.634c0.199,1.721,0.197,3.327,0.07,4.79
		c14.211,0.088,26.293,0.164,36.525,0.231l0,0l0.049-0.193c-0.809-1.885-8.865-5.312-16.789-7.121
		c-11.553-2.3-28.408-5.562-48.255-9.327c0.203,3.595,0.113,6.927-0.148,9.882C349.989,490.101,349.673,492.227,349.325,494.081z"/>
	<path fill="#D6532B" d="M276.771,493.415c-0.086,0.229-0.145,0.377-0.164,0.425c-0.625,1.534-2.373,2.273-3.908,1.649
		c-0.959-0.392-1.607-1.222-1.807-2.164c-6.373-0.102-12.539-0.21-18.498-0.327c-0.555,2.976-1.125,5.394-1.59,7.167
		c13.184-0.023,26.451-0.074,39.434-0.146c0.229-0.589,1.066-2.899,1.746-6.399C286.789,493.556,281.715,493.487,276.771,493.415z"
		/>
	<path fill="#D6532B" d="M225.701,492.394c-0.51,2.513-1.111,5.105-1.839,7.775c6.823,0.011,13.745,0.012,20.712,0.004
		c0.414-1.463,1.059-3.959,1.711-7.299C239.123,492.724,232.262,492.563,225.701,492.394z"/>
	<path fill="#D6532B" d="M202.709,491.723c-0.07,0.282-0.116,0.46-0.133,0.521c-0.427,1.601-2.069,2.552-3.67,2.126
		c-1.325-0.353-2.191-1.546-2.215-2.851c-5.432-0.188-10.615-0.383-15.554-0.582c-0.56,2.908-1.22,5.909-2.017,9.003
		c12.063,0.116,25.053,0.187,38.514,0.218c0.779-2.716,1.429-5.366,1.969-7.929C213.729,492.067,208.101,491.898,202.709,491.723z"
		/>
	<path fill="#D6532B" d="M349.325,494.081c-0.424,2.274-0.896,4.136-1.285,5.472c8.359-0.09,16.198-0.185,23.366-0.282
		c0.436-0.938,1.111-2.709,1.381-5.05C365.498,494.177,357.691,494.13,349.325,494.081z"/>
	<path fill="#D6532B" d="M378.814,494.298c-0.168,1.889-0.545,3.533-0.967,4.883c7.613-0.109,14.299-0.223,19.803-0.331
		c8.053-0.391,16.603-2.354,17.703-4.066l-0.012-0.295c-10.232-0.067-22.314-0.144-36.525-0.231
		C378.814,494.271,378.814,494.284,378.814,494.298z"/>
	<path fill="#D6532B" d="M333.799,493.989c-4.434-0.026-8.781-0.056-13.062-0.089c-0.295,1.132-0.516,1.796-0.553,1.903
		c-0.535,1.568-2.24,2.405-3.809,1.87c-1.564-0.535-2.402-2.235-1.871-3.803c0-0.002,0.004-0.014,0.006-0.021
		c-5.607-0.048-11.08-0.102-16.426-0.161c-0.457,2.641-1.023,4.779-1.492,6.292c15.824-0.096,31.102-0.222,45.129-0.363
		c0.211-0.597,0.867-2.57,1.486-5.573C340.141,494.025,337.01,494.008,333.799,493.989z"/>
	<g>
		<path fill="#07B69D" d="M76.863,461.417c-13.987-2.814-21.862-7.183-28.572-11.945l-4.957,9.042
			c10.204,7.843,26.371,9.997,32.851,10.561l0.153-1.74l0.498-5.616L76.863,461.417z"/>
		<path fill="#FF6630" d="M108.98,486.438c1.863-9.3,3.559-23.126,2.09-39.235c-0.156-1.646,1.065-3.109,2.715-3.26
			c1.65-0.15,3.109,1.066,3.26,2.715c0.873,9.555,0.699,18.293,0.03,25.84c-0.489,5.524-1.245,10.404-2.048,14.503
			c4.268,0.377,9.072,0.764,14.48,1.152c1.284-5.021,5.496-24.229,2.143-48.642c-5.378-0.729-9.862-1.266-13.231-1.564
			c-9.979-0.885-33.427-0.287-35.606,24.301c-0.132,1.49-0.098,2.42-0.097,2.43l0.015,0.393l-0.086,0.393
			c0,0-0.197,0.912-0.329,2.401c-0.563,6.357,0.563,11.376,2.704,15.354C87.967,483.846,94.834,485.05,108.98,486.438z"/>
		<path fill="#FF6630" d="M135.598,488.573c4.426,0.294,9.208,0.587,14.374,0.877c1.62-6.182,4.647-20.857,2.823-39.014
			c-0.162-1.656,1.036-3.119,2.684-3.285c1.648-0.166,3.12,1.037,3.285,2.686c0.861,8.563,0.715,16.348,0.132,22.932
			c-0.652,7.361-1.851,13.222-2.798,17.014c5.879,0.31,12.211,0.611,19.035,0.904c4.314-21.854,2.213-38.124,2.188-38.312
			c-0.222-1.619,0.916-3.119,2.539-3.342c1.624-0.221,3.12,0.914,3.343,2.537c0.083,0.604,1.323,10.057,0.062,24.283
			c-0.404,4.576-1.082,9.657-2.126,15.085c4.938,0.199,10.122,0.395,15.554,0.582c-0.004-0.271,0.014-0.545,0.087-0.819
			c0.048-0.177,4.491-17.255,3.277-40.227c-24.509-4.226-46.341-7.807-62.239-10.1c1.482,11.789,1.317,22.28,0.578,30.621
			C137.668,479.194,136.395,485.313,135.598,488.573z"/>
		<path fill="#D6532B" d="M156.098,489.782c-0.723,2.895-1.301,4.585-1.379,4.809c-0.545,1.564-2.256,2.391-3.82,1.845
			c-1.563-0.546-2.389-2.251-1.846-3.818c0.016-0.044,0.393-1.16,0.919-3.167c-5.166-0.29-9.948-0.583-14.374-0.877
			c-0.377,1.542-0.647,2.451-0.701,2.626c-0.483,1.585-2.16,2.477-3.745,1.993c-1.583-0.483-2.476-2.154-1.994-3.742
			c0.009-0.03,0.144-0.484,0.351-1.298c-5.408-0.389-10.213-0.775-14.48-1.152c-0.947,4.832-1.961,8.57-2.689,10.973
			c0.258,0.026,0.514,0.053,0.756,0.074c10.672,0.945,32.568,1.518,59.904,1.828c0.844-3.149,1.548-6.219,2.135-9.188
			C168.309,490.394,161.977,490.092,156.098,489.782z"/>
		<g>
			<path fill="#433F3C" d="M152.795,450.437c1.824,18.156-1.203,32.832-2.823,39.014c-0.526,2.007-0.903,3.123-0.919,3.167
				c-0.543,1.567,0.282,3.272,1.846,3.818c1.564,0.546,3.275-0.28,3.82-1.845c0.078-0.224,0.656-1.914,1.379-4.809
				c0.947-3.792,2.146-9.652,2.798-17.014c0.583-6.584,0.729-14.368-0.132-22.932c-0.165-1.648-1.637-2.852-3.285-2.686
				C153.831,447.317,152.633,448.78,152.795,450.437z"/>
			<path fill="#433F3C" d="M84.832,442.374c-3.797,4.248-5.822,9.066-6.901,13.135c-14.659-2.962-21.774-7.596-28.83-12.879
				c-0.696-0.521-1.583-0.715-2.433-0.529c-0.85,0.184-1.578,0.727-1.996,1.489l-7.783,14.201c-0.666,1.213-0.414,2.73,0.613,3.663
				c11.855,10.769,32.126,13.16,38.994,13.672c0.469,3.734,1.598,8.079,4.066,12.265c4.599,7.797,13.828,15.022,32.002,16.633
				c39.1,3.464,227.223,1.97,285.287,0.823c8.492-0.407,22.839-2.177,23.483-9.458c0.01-0.104,0.016-0.21,0.02-0.314
				c0.016-0.104,0.027-0.208,0.037-0.312c0-0.001,0-0.001,0-0.002c0.006-0.078,0.002-0.154,0.006-0.232
				c0.332-7.138-13.263-11.332-21.544-13.222c-56.875-11.323-241.805-45.872-280.904-49.337
				C103.691,430.618,92.213,434.118,84.832,442.374z M76.185,469.074c-6.479-0.563-22.646-2.718-32.851-10.561l4.957-9.042
				c6.71,4.763,14.585,9.131,28.572,11.945l-0.027,0.301l-0.498,5.616L76.185,469.074z M398.602,487.174
				c7.924,1.81,15.98,5.236,16.789,7.121l-0.049,0.193l0.012,0.295c-1.101,1.712-9.65,3.676-17.703,4.066
				c-5.504,0.108-12.189,0.222-19.803,0.331c0.422-1.35,0.799-2.994,0.967-4.883c0-0.014,0-0.027,0.002-0.041
				c0.127-1.463,0.129-3.069-0.07-4.79c-0.191-1.646-1.68-2.825-3.326-2.634s-2.828,1.679-2.633,3.326
				c0.17,1.483,0.139,2.848,0,4.062c-0.27,2.341-0.945,4.111-1.381,5.05c-7.168,0.098-15.007,0.192-23.366,0.282
				c0.389-1.336,0.861-3.197,1.285-5.472c0.348-1.854,0.664-3.98,0.873-6.353c0.262-2.955,0.352-6.287,0.148-9.882
				C370.193,481.612,387.049,484.874,398.602,487.174z M273.227,463.499c2.541,16.067-2.131,27.966-2.18,28.087
				c-0.23,0.571-0.271,1.176-0.154,1.739c0.199,0.942,0.848,1.772,1.807,2.164c1.535,0.624,3.283-0.115,3.908-1.649
				c0.02-0.048,0.078-0.195,0.164-0.425c0.549-1.483,2.295-6.654,2.963-14.195c0.373-4.201,0.398-9.146-0.295-14.586
				c12.539,2.295,24.928,4.586,36.822,6.803c1.373,12.649-1.623,22.018-1.752,22.414c-0.002,0.007-0.006,0.019-0.006,0.021
				c-0.531,1.567,0.307,3.268,1.871,3.803c1.568,0.535,3.273-0.302,3.809-1.87c0.037-0.107,0.258-0.771,0.553-1.903
				c0.51-1.957,1.242-5.325,1.631-9.707c0.297-3.343,0.387-7.276,0.031-11.61c7.551,1.412,14.867,2.788,21.866,4.111
				c0.572,7.122-0.205,13.21-1.058,17.351c-0.619,3.003-1.275,4.977-1.486,5.573c-14.027,0.142-29.305,0.268-45.129,0.363
				c0.469-1.513,1.035-3.651,1.492-6.292c0.242-1.396,0.453-2.924,0.6-4.58c0.258-2.906,0.32-6.182,0.02-9.724
				c-0.141-1.651-1.594-2.876-3.244-2.734c-1.65,0.14-2.873,1.592-2.734,3.243c0.463,5.443-0.057,10.187-0.74,13.725
				c-0.68,3.5-1.518,5.811-1.746,6.399c-12.982,0.072-26.25,0.123-39.434,0.146c0.465-1.773,1.035-4.191,1.59-7.167
				c0.629-3.354,1.236-7.397,1.646-12.029c0.539-6.086,0.734-13.162,0.191-20.916C260.559,461.194,266.902,462.345,273.227,463.499z
				 M248.127,458.953c1.168,14.206-0.35,26.274-1.842,33.921c-0.652,3.34-1.297,5.836-1.711,7.299
				c-6.967,0.008-13.889,0.007-20.712-0.004c0.728-2.67,1.329-5.263,1.839-7.775c0.983-4.858,1.604-9.396,1.964-13.461
				c1.058-11.941-0.038-19.871-0.112-20.387c-0.236-1.639-1.756-2.773-3.396-2.539c-1.64,0.236-2.775,1.76-2.543,3.395
				c0.022,0.163,1.923,14.148-2.011,32.828c-0.54,2.562-1.189,5.213-1.969,7.929c-13.461-0.031-26.45-0.102-38.514-0.218
				c0.797-3.094,1.457-6.095,2.017-9.003c1.044-5.428,1.722-10.509,2.126-15.085c1.262-14.227,0.021-23.68-0.062-24.283
				c-0.223-1.623-1.719-2.758-3.343-2.537c-1.623,0.223-2.761,1.723-2.539,3.342c0.025,0.188,2.127,16.458-2.188,38.312
				c-0.587,2.97-1.291,6.039-2.135,9.188c-27.336-0.311-49.232-0.883-59.904-1.828c-0.242-0.021-0.498-0.048-0.756-0.074
				c0.729-2.402,1.742-6.141,2.689-10.973c0.803-4.099,1.559-8.979,2.048-14.503c0.669-7.547,0.843-16.285-0.03-25.84
				c-0.15-1.648-1.609-2.865-3.26-2.715c-1.649,0.15-2.871,1.613-2.715,3.26c1.469,16.109-0.227,29.936-2.09,39.235
				c-0.982,4.906-2.009,8.549-2.645,10.597c-7.481-1.601-16.735-5.306-21.316-13.817c-2.141-3.978-3.268-8.996-2.704-15.354
				c0.132-1.489,0.329-2.401,0.329-2.401l0.086-0.393l-0.015-0.393c-0.001-0.01-0.035-0.939,0.097-2.43
				c2.18-24.588,25.627-25.186,35.606-24.301c3.369,0.299,7.854,0.835,13.231,1.564c3.354,24.412-0.858,43.621-2.143,48.642
				c-0.207,0.813-0.342,1.268-0.351,1.298c-0.481,1.588,0.411,3.259,1.994,3.742c1.585,0.483,3.262-0.408,3.745-1.993
				c0.054-0.175,0.324-1.084,0.701-2.626c0.797-3.26,2.07-9.379,2.797-17.578c0.739-8.341,0.904-18.832-0.578-30.621
				c15.898,2.293,37.73,5.874,62.239,10.1c1.214,22.972-3.229,40.05-3.277,40.227c-0.073,0.274-0.091,0.549-0.087,0.819
				c0.023,1.305,0.89,2.498,2.215,2.851c1.601,0.426,3.243-0.525,3.67-2.126c0.017-0.062,0.062-0.239,0.133-0.521
				c0.474-1.915,2.045-8.773,2.936-18.82c0.539-6.087,0.826-13.349,0.469-21.38C219.592,453.862,233.766,456.372,248.127,458.953z"
				/>
		</g>
		<path fill="#D6532B" d="M82.478,475.377c0.167,2.669,1.59,5.834,2.653,7.863c-0.035-0.008-0.077-0.017-0.111-0.023
			c0.354,0.659,0.746,1.279,1.154,1.882c0.08,0.134,0.131,0.215,0.131,0.215l0.026,0.008c4.88,7.024,13.175,10.252,20.005,11.713
			c0.636-2.048,1.662-5.69,2.645-10.597C89.978,483.72,82.478,475.377,82.478,475.377z"/>
	</g>
</g>
<g>
	<g>
		<path fill="#C6C4C2" d="M772.398,247.354c-1.753-0.885-3.286-1.816-4.58-2.794l-9.033,111.656
			c1.784,0.352,4.502,0.852,8.052,1.406C766.643,309.255,771.394,257.691,772.398,247.354z"/>
		<path fill="#EAEAEA" d="M825.521,250.428c15.747,0,30.514-1.795,41.578-5.055c9.135-2.691,13.533-5.748,14.916-8.062
			c0.34-0.568,0.506-1.095,0.506-1.557c0-0.896-0.508-1.853-1.471-2.831c-0.941-0.957-2.332-1.935-4.135-2.899
			c-8.662-4.637-26.902-8.943-51.395-8.943c-15.748,0-30.515,1.795-41.579,5.055c-7.198,2.119-11.453,4.467-13.613,6.5
			c-1.222,1.149-1.771,2.196-1.8,3.045c-0.002,0.023-0.008,0.051-0.008,0.074c0,0.913,0.523,1.891,1.525,2.89
			C775.603,244.188,796.039,250.428,825.521,250.428z"/>
		<path fill="#1E1303" d="M884.701,232.834h-0.01c0.004,0.006,0.008,0.012,0.012,0.018
			C884.702,232.849,884.701,232.834,884.701,232.834z"/>
		<path fill="#8C8988" d="M783.188,446.58c-11.863-9-15.794-44.289-16.299-82.854c-3.683-0.564-6.572-1.086-8.592-1.48
			l-1.785,22.076c-0.069,0.617-5.277,49.59,17.938,71.312c5.857,1.588,48.734,12.458,88.734,2.688
			C856.42,459.566,812.182,468.575,783.188,446.58z"/>
		<path fill="#383737" d="M835.568,473.305c10.104-1.469,18.803-4.826,25.604-8.328c-27.297,5.964-54.916,3.106-72.028,0.055
			c-0.542-0.098-1.074-0.194-1.595-0.291c8.561,4.588,21.145,9.259,36.988,9.339c0.121,0.001,0.249,0.001,0.371,0.001
			C828.609,474.08,832.168,473.799,835.568,473.305z"/>
		<path fill="#1E1303" d="M870.52,463.746c2.608-1.66,5.686-4.025,8.801-7.379c-1.225,1.135-18.24,16.511-44.047,20.001
			C847.98,474.906,859.951,470.471,870.52,463.746z"/>
		<path fill="#1E1303" d="M778.498,462.535c-2.006-1.254-3.857-2.666-5.566-4.208l0,0l-0.348-0.315c0,0,19.104,18.9,51.938,19.067
			c3.731,0.019,7.315-0.246,10.752-0.711C817.207,478.447,797.65,474.512,778.498,462.535z"/>
		<path fill="#1E1303" d="M879.32,456.367c0.047-0.043,0.074-0.068,0.074-0.068c-0.006,0.002-0.01,0.004-0.016,0.006
			C879.359,456.325,879.34,456.346,879.32,456.367z"/>
		<path fill="#E5E5E5" d="M882.574,245.029c-3.285,2.312-7.891,4.365-13.779,6.1c-11.6,3.416-26.969,5.299-43.273,5.299
			c-16.307,0-31.675-1.883-43.274-5.299c-3.271-0.965-6.14-2.027-8.613-3.178c-0.423-0.196-0.837-0.395-1.235-0.597
			c-1.005,10.337-5.756,61.9-5.562,110.269c11.075,1.73,30.325,3.998,55.188,4.002c0.026,0,0.054,0,0.08,0
			c22.856,0,46.012-1.902,68.87-5.623C887.746,315.686,884.18,267.121,882.574,245.029z"/>
		<path fill="#A5A09D" d="M893.199,383.002c-0.555-6.482-1.139-13.559-1.74-20.985c-22.199,3.588-44.674,5.454-66.891,5.583
			c-0.821,0.006-1.645,0.025-2.464,0.025c-24.755,0.001-43.812-2.15-55.216-3.898c0.505,38.564,4.436,73.854,16.299,82.854
			c28.994,21.995,73.232,12.986,79.996,11.742c0.001-0.001,0.002-0.002,0.004-0.002c4.893-1.195,9.743-2.699,14.477-4.567
			C894.577,434.898,894.85,402.338,893.199,383.002z"/>
		<polygon fill="#FF0037" points="863.188,458.32 863.188,458.32 863.184,458.322 		"/>
		<path fill="#433F3C" d="M899.178,382.492c-0.007-0.076-0.014-0.156-0.02-0.232c-0.308-3.602-0.625-7.385-0.949-11.307
			c-0.299-3.631-0.605-7.379-0.914-11.217c-3.664-45.418-7.877-103.252-9.189-121.406c-0.256-3.541-0.402-5.576-0.412-5.711
			c-0.027-0.393-0.134-0.761-0.299-1.095c-0.007-0.013-0.013-0.026-0.02-0.039c-0.066-0.13-0.144-0.255-0.228-0.372
			c-2.574-4.255-8.776-7.914-18.353-10.734c-11.6-3.417-26.969-5.299-43.273-5.299c-16.307,0-31.674,1.882-43.274,5.299
			c-12.692,3.738-19.485,8.945-19.705,15.069c-0.003,0.021-0.009,0.042-0.011,0.063l-9.902,122.41l-0.834,10.301l-0.833,10.301
			l-0.422,5.218c-0.261,2.296-5.642,52.758,19.933,76.401c0,0.001,0,0.002,0,0.002c0.002,0.001,0.004,0.004,0.006,0.004
			c0.852,0.842,20.391,19.76,54.027,19.931c0.139,0.001,0.273,0.001,0.41,0.001c4.237,0,8.291-0.336,12.146-0.919
			c12.305-1.642,24.259-6.005,35.068-12.884C886.928,456.861,903.633,434.681,899.178,382.492z M884.701,232.834
			c0,0,0.001,0.015,0.002,0.018c-0.004-0.006-0.008-0.012-0.012-0.018H884.701z M768.529,235.68c0.029-0.849,0.578-1.896,1.8-3.045
			c2.16-2.033,6.415-4.381,13.613-6.5c11.064-3.26,25.831-5.055,41.579-5.055c24.492,0,42.732,4.307,51.395,8.943
			c1.803,0.965,3.193,1.942,4.135,2.899c0.963,0.979,1.471,1.935,1.471,2.831c0,0.462-0.166,0.988-0.506,1.557
			c-1.383,2.314-5.781,5.371-14.916,8.062c-11.064,3.26-25.831,5.055-41.578,5.055c-29.482,0-49.919-6.239-55.475-11.784
			c-1.002-0.999-1.525-1.977-1.525-2.89C768.521,235.73,768.527,235.703,768.529,235.68z M767.818,244.561
			c1.294,0.978,2.827,1.909,4.58,2.794c0.398,0.202,0.812,0.4,1.235,0.597c2.474,1.15,5.342,2.213,8.613,3.178
			c11.6,3.416,26.968,5.299,43.274,5.299c16.305,0,31.674-1.883,43.273-5.299c5.889-1.734,10.494-3.788,13.779-6.1
			c1.605,22.092,5.172,70.656,8.4,110.973c-22.858,3.721-46.014,5.623-68.87,5.623c-0.026,0-0.054,0-0.08,0
			c-24.862-0.004-44.112-2.271-55.188-4.002c-3.55-0.555-6.268-1.055-8.052-1.406L767.818,244.561z M835.568,473.305
			c-3.4,0.494-6.959,0.775-10.66,0.775c-0.122,0-0.25,0-0.371-0.001c-15.844-0.08-28.428-4.751-36.988-9.339
			c0.521,0.097,1.053,0.193,1.595,0.291c17.112,3.052,44.731,5.909,72.028-0.055C854.371,468.479,845.673,471.836,835.568,473.305z
			 M877.664,453.753c-4.733,1.868-9.584,3.372-14.477,4.567c-0.002,0-0.004,0.001-0.004,0.002c-40,9.771-82.877-1.1-88.734-2.688
			c-23.215-21.723-18.007-70.695-17.938-71.312l1.785-22.076c2.02,0.395,4.909,0.916,8.592,1.48
			c11.404,1.748,30.461,3.899,55.216,3.898c0.819,0,1.643-0.02,2.464-0.025c22.217-0.129,44.691-1.995,66.891-5.583
			c0.602,7.427,1.186,14.503,1.74,20.985C894.85,402.338,894.577,434.898,877.664,453.753z"/>
	</g>
	<g>
		<ellipse fill="#0066FF" cx="826.771" cy="228.24" rx="10.334" ry="3.494"/>
		<path fill="#433F3C" d="M826.771,233.984c-5.805,0-12.584-1.504-12.584-5.744s6.779-5.745,12.584-5.745s12.584,1.505,12.584,5.745
			S832.576,233.984,826.771,233.984z M819.309,228.24c1.242,0.577,3.841,1.244,7.463,1.244s6.221-0.667,7.463-1.244
			c-1.242-0.577-3.841-1.245-7.463-1.245S820.551,227.663,819.309,228.24z"/>
	</g>
	<g>
		<ellipse fill="#FF0037" cx="848.439" cy="235.239" rx="10.333" ry="3.495"/>
		<path fill="#433F3C" d="M848.439,240.984c-5.805,0-12.584-1.505-12.584-5.745s6.779-5.745,12.584-5.745s12.583,1.505,12.583,5.745
			S854.244,240.984,848.439,240.984z M840.977,235.239c1.241,0.577,3.84,1.245,7.463,1.245s6.222-0.668,7.463-1.245
			c-1.242-0.577-3.84-1.245-7.463-1.245S842.218,234.662,840.977,235.239z"/>
	</g>
	<g>
		<ellipse fill="#00FF67" cx="804.938" cy="235.239" rx="10.333" ry="3.495"/>
		<path fill="#433F3C" d="M804.938,240.984c-5.805,0-12.583-1.505-12.583-5.745s6.778-5.745,12.583-5.745s12.583,1.505,12.583,5.745
			S810.743,240.984,804.938,240.984z M797.476,235.239c1.241,0.577,3.84,1.245,7.463,1.245s6.222-0.668,7.463-1.245
			c-1.242-0.577-3.84-1.245-7.463-1.245S798.718,234.662,797.476,235.239z"/>
	</g>
	<g>
		<ellipse fill="#FFF800" cx="826.771" cy="241.989" rx="10.334" ry="3.495"/>
		<path fill="#433F3C" d="M826.771,247.734c-5.805,0-12.584-1.505-12.584-5.745s6.779-5.745,12.584-5.745s12.584,1.505,12.584,5.745
			S832.576,247.734,826.771,247.734z M819.309,241.989c1.241,0.577,3.84,1.245,7.463,1.245s6.222-0.668,7.463-1.245
			c-1.241-0.577-3.84-1.245-7.463-1.245S820.55,241.412,819.309,241.989z"/>
	</g>
</g>
<g>
	<path fill="#0A8C73" d="M699.026,448.016c2.297-1.893,4.619-3.873,6.964-5.93c-3.362,0.61-6.74,1.288-10.124,2.02
		C697.135,445.21,698.214,446.528,699.026,448.016z"/>
	<path fill="#0A8C73" d="M620.674,468.699c1.868,0,3.648,0.372,5.283,1.032c2.396-4.431,7.085-7.447,12.467-7.447
		c1.755,0,3.43,0.336,4.982,0.922c2.487-4.091,6.973-6.838,12.101-6.838c0.779,0,1.538,0.08,2.284,0.201
		c0.501-0.989,1.109-1.914,1.819-2.754c-20.16,6.322-39.062,13.63-54.255,20.008c1.225,0.282,2.392,0.716,3.473,1.295
		C611.361,471.258,615.722,468.699,620.674,468.699z"/>
	<path fill="#0A8C73" d="M578.53,485.753l9.486,1.647c0.038-2.51,0.734-4.857,1.919-6.89
		C585.452,482.52,581.598,484.305,578.53,485.753z"/>
	<path fill="#0A8C73" d="M684.13,459.432c3.306-2.345,6.664-4.84,10.085-7.533c-1.169-3.082-4.145-5.282-7.631-5.282
		c-3.419,0-6.349,2.113-7.563,5.101C681.501,453.62,683.33,456.318,684.13,459.432z"/>
	<path fill="#06937B" d="M678.569,462.547c-0.116-2.383-1.251-4.503-2.986-5.922c-0.908-0.743-1.981-1.286-3.152-1.584
		c-0.644-0.163-1.313-0.26-2.007-0.26c-2.983,0.003-5.588,1.612-7.013,4.003c3.357,2.266,5.69,5.933,6.167,10.154
		c2.256-1.345,4.546-2.774,6.867-4.282c0.708-0.461,1.414-0.915,2.128-1.391c0.005-0.108,0.017-0.215,0.017-0.324
		C678.59,462.809,678.576,462.679,678.569,462.547z"/>
	<path fill="#1E1303" d="M681.425,461.106c0.012,0.066,0.021,0.134,0.031,0.201c0.042-0.028,0.083-0.056,0.125-0.085
		C681.529,461.183,681.476,461.147,681.425,461.106z"/>
	<path fill="#089B82" d="M659.274,463.296c-0.911-0.476-1.92-0.787-2.99-0.889c-0.256-0.024-0.515-0.039-0.777-0.039
		c-3.014,0-5.646,1.646-7.06,4.081c2.559,2.564,4.144,6.101,4.144,10.001c0,0.514-0.031,1.021-0.085,1.521
		c2.826-1.301,5.725-2.744,8.678-4.309c0.749-0.396,1.495-0.79,2.252-1.204c0.056-0.231,0.102-0.467,0.137-0.705
		c0.061-0.398,0.102-0.804,0.102-1.219C663.674,467.391,661.885,464.66,659.274,463.296z"/>
	<path fill="#0A8C73" d="M644.357,470.855c-0.81-0.857-1.798-1.539-2.91-1.984c-0.937-0.375-1.955-0.587-3.023-0.587
		c-3.329,0-6.194,2.005-7.465,4.868c2.399,2.539,3.882,5.952,3.882,9.713c0,0.301-0.026,0.595-0.045,0.891
		c0.488,0.244,1.005,0.438,1.543,0.581c2.831-0.925,5.749-1.981,8.747-3.18c0.143-0.2,0.274-0.408,0.398-0.621
		c0.582-1.003,0.96-2.137,1.069-3.35c0.021-0.243,0.037-0.488,0.037-0.736C646.591,474.285,645.737,472.318,644.357,470.855z"/>
	<path fill="#089B82" d="M628.802,482.096c-0.133-1.41-0.624-2.716-1.383-3.827c-0.786-1.149-1.861-2.082-3.116-2.708
		c-1.095-0.546-2.324-0.861-3.629-0.861c-3.135,0-5.858,1.777-7.227,4.375c1.807,2.378,2.892,5.331,2.892,8.541
		c0,0.515-0.031,1.021-0.085,1.521c3.641-0.539,7.502-1.303,11.569-2.333c0.115-0.208,0.219-0.422,0.315-0.641
		c0.448-1.01,0.702-2.124,0.702-3.298C628.841,482.605,628.825,482.35,628.802,482.096z"/>
	<path fill="#07B69D" d="M610.308,486.999c-0.073-0.977-0.318-1.903-0.706-2.755c-0.638-1.4-1.655-2.592-2.927-3.436
		c-1.292-0.857-2.84-1.359-4.503-1.359c-4.503,0-8.166,3.663-8.166,8.166c0,0.281,0.015,0.559,0.042,0.832
		c0.054,0.525,0.16,1.036,0.309,1.528c2.229,0.18,4.604,0.286,7.133,0.286c0.892,0,1.813-0.019,2.747-0.046
		c1.364-0.039,2.769-0.106,4.222-0.212c0.512-0.037,1.033-0.084,1.556-0.13c0.208-0.718,0.325-1.475,0.325-2.259
		C610.339,487.407,610.323,487.203,610.308,486.999z"/>
	<path fill="#07B69D" d="M708.157,448.237c-2.373,2.049-4.847,4.121-7.424,6.198c0.003,0.114,0.018,0.226,0.018,0.341
		L708.157,448.237z"/>
	<path fill="#07B69D" d="M712.941,443.736c-0.544,0.541-1.082,1.108-1.585,1.676c-0.002,0.003-0.005,0.005-0.008,0.008l1.307-1.153
		C712.75,444.091,712.852,443.906,712.941,443.736z"/>
	<path fill="#07B69D" d="M697.327,457.799l3.424-3.022c0-0.115-0.015-0.227-0.018-0.341c-1.05,0.846-2.118,1.692-3.2,2.538
		C697.478,457.254,697.403,457.527,697.327,457.799z"/>
	<path fill="#07B69D" d="M668.139,476.913c0.041-0.08,0.078-0.162,0.118-0.243c-0.122,0.068-0.244,0.137-0.365,0.205
		C667.973,476.89,668.057,476.899,668.139,476.913z"/>
	<path fill="#07B69D" d="M711.349,445.42c-0.078,0.088-0.162,0.171-0.25,0.249c-0.96,0.851-1.944,1.708-2.941,2.568l-7.406,6.539
		l-3.424,3.022c0.076-0.271,0.15-0.545,0.206-0.825c-3.843,3.006-7.885,5.998-12.102,8.916c-0.464,0.321-0.933,0.64-1.4,0.959
		c-0.659,0.448-1.32,0.896-1.987,1.341c-1.07,0.714-2.151,1.421-3.242,2.122c-0.214,0.137-0.43,0.273-0.644,0.41
		c-1.588,1.013-3.191,2.014-4.82,2.994c-1.672,1.007-3.369,1.988-5.081,2.954c-0.04,0.081-0.077,0.163-0.118,0.243
		c-0.082-0.014-0.166-0.023-0.247-0.038c-1.08,0.605-2.167,1.202-3.263,1.789c-3.833,2.056-7.758,3.994-11.767,5.78
		c-1.409,0.628-2.825,1.24-4.253,1.829c-3.828,1.576-7.723,3.008-11.678,4.264c-1.854,0.588-3.724,1.125-5.602,1.633
		c-2.184,0.591-4.383,1.131-6.597,1.605c-2.892,0.618-5.808,1.126-8.743,1.526c-0.549,0.075-1.098,0.151-1.647,0.219
		c-0.155,0.019-0.31,0.043-0.465,0.062c-1.448,0.17-2.9,0.314-4.357,0.427c-1.822,0.14-3.655,0.216-5.491,0.262
		c-0.846,0.021-1.691,0.05-2.54,0.05c-2.312,0-4.495-0.088-6.576-0.23c-1.517-0.104-2.975-0.237-4.366-0.4
		c-9.094-1.065-15.478-3.245-18.765-4.61c2.124,1.533,6.076,3.573,9.968,5.049c4.731,1.665,9.429,3.04,14.075,4.135
		c2.416,0.569,4.817,1.062,7.203,1.477c6.278,1.09,12.445,1.646,18.449,1.646c5.553,0,10.827-0.482,15.836-1.337
		c4.873-0.831,9.488-2.021,13.848-3.49c17.968-6.055,31.579-16.797,40.855-26.321c10.303-10.578,17.063-21.327,20.639-27.971
		L711.349,445.42z"/>
	<path fill="#1E1303" d="M684.729,462.729c-0.051-0.012-0.101-0.026-0.151-0.039c0.001,0.047,0.007,0.093,0.007,0.14
		C684.633,462.796,684.681,462.762,684.729,462.729z"/>
	<path fill="#1E1303" d="M652.323,478.055c0.053,0.022,0.108,0.038,0.161,0.06c0.006-0.048,0.017-0.095,0.021-0.144
		C652.445,477.999,652.385,478.026,652.323,478.055z"/>
	<path fill="#1E1303" d="M649.168,479.461c-0.072,0.031-0.146,0.065-0.22,0.097c0.056,0.04,0.108,0.083,0.164,0.122
		C649.134,479.608,649.148,479.533,649.168,479.461z"/>
	<path fill="#1E1303" d="M711.349,445.42l-3.191,2.817c0.997-0.86,1.981-1.718,2.941-2.568
		C711.187,445.591,711.271,445.508,711.349,445.42z"/>
	<polygon fill="#1E1303" points="670.422,474.114 670.422,474.114 670.422,474.114 	"/>
	<rect x="670.422" y="471.977" fill="#1E1303" width="0.001" height="1.572"/>
	<rect x="670.422" y="473.549" fill="#1E1303" width="0" height="0.565"/>
	<path fill="#1E1303" d="M602.172,501.782c0.289,0,0.571-0.026,0.856-0.043c-2.386-0.415-4.787-0.907-7.203-1.477
		C597.737,501.227,599.889,501.782,602.172,501.782z"/>
	<path fill="#433F3C" d="M721.635,437.66c-0.479-2.197-2.148-3.617-4.254-3.617c-0.668,0-1.376,0.169-2.101,0.458
		c-68.07,9.661-147.009,49.539-147.798,49.941c-0.782,0.397-1.323,1.107-1.535,1.921c-1.268,1.152-1.649,2.429-1.682,3.479
		c-0.155,5.01,8.254,9.263,15.404,11.975c14.382,5.061,28.448,7.626,41.808,7.626c40.547,0,67.622-23.041,83.194-42.371
		C714.406,454.989,722.267,440.561,721.635,437.66z M705.99,442.086c-2.345,2.057-4.667,4.037-6.964,5.93
		c-0.812-1.487-1.892-2.806-3.16-3.91C699.25,443.374,702.628,442.696,705.99,442.086z M686.584,446.616
		c3.486,0,6.462,2.2,7.631,5.282c-3.421,2.693-6.779,5.188-10.085,7.533c-0.8-3.113-2.629-5.812-5.109-7.715
		C680.235,448.729,683.165,446.616,686.584,446.616z M670.424,454.781c0.693,0,1.363,0.097,2.007,0.26
		c1.171,0.298,2.244,0.841,3.152,1.584c1.735,1.419,2.87,3.539,2.986,5.922c0.007,0.132,0.021,0.262,0.021,0.395
		c0,0.109-0.012,0.216-0.017,0.324c-0.714,0.476-1.42,0.93-2.128,1.391c-2.321,1.508-4.611,2.938-6.867,4.282
		c-0.477-4.222-2.81-7.889-6.167-10.154C664.836,456.394,667.44,454.784,670.424,454.781z M663.674,470.534
		c0,0.415-0.041,0.82-0.102,1.219c-0.035,0.238-0.081,0.474-0.137,0.705c-0.757,0.414-1.503,0.808-2.252,1.204
		c-2.953,1.564-5.852,3.008-8.678,4.309c0.054-0.5,0.085-1.007,0.085-1.521c0-3.9-1.585-7.437-4.144-10.001
		c1.414-2.436,4.046-4.081,7.06-4.081c0.263,0,0.521,0.015,0.777,0.039c1.07,0.102,2.079,0.413,2.99,0.889
		C661.885,464.66,663.674,467.391,663.674,470.534z M659.61,453.815c-0.71,0.84-1.318,1.765-1.819,2.754
		c-0.746-0.121-1.505-0.201-2.284-0.201c-5.128,0-9.613,2.747-12.101,6.838c-1.553-0.586-3.228-0.922-4.982-0.922
		c-5.382,0-10.07,3.017-12.467,7.447c-1.635-0.66-3.415-1.032-5.283-1.032c-4.952,0-9.312,2.559-11.846,6.419
		c-1.081-0.579-2.248-1.013-3.473-1.295C620.548,467.445,639.45,460.138,659.61,453.815z M630.959,473.152
		c1.271-2.863,4.136-4.868,7.465-4.868c1.068,0,2.087,0.212,3.023,0.587c1.112,0.445,2.101,1.127,2.91,1.984
		c1.38,1.463,2.233,3.43,2.233,5.595c0,0.248-0.016,0.493-0.037,0.736c-0.109,1.213-0.487,2.347-1.069,3.35
		c-0.124,0.213-0.256,0.421-0.398,0.621c-2.998,1.198-5.916,2.255-8.747,3.18c-0.538-0.143-1.055-0.337-1.543-0.581
		c0.019-0.296,0.045-0.59,0.045-0.891C634.841,479.104,633.358,475.691,630.959,473.152z M613.447,479.074
		c1.368-2.598,4.092-4.375,7.227-4.375c1.305,0,2.534,0.315,3.629,0.861c1.255,0.626,2.33,1.559,3.116,2.708
		c0.759,1.111,1.25,2.417,1.383,3.827c0.023,0.254,0.039,0.51,0.039,0.77c0,1.174-0.254,2.288-0.702,3.298
		c-0.097,0.219-0.2,0.433-0.315,0.641c-4.067,1.03-7.929,1.794-11.569,2.333c0.054-0.5,0.085-1.007,0.085-1.521
		C616.339,484.405,615.254,481.452,613.447,479.074z M602.172,479.449c1.663,0,3.211,0.502,4.503,1.359
		c1.271,0.844,2.289,2.035,2.927,3.436c0.388,0.852,0.633,1.778,0.706,2.755c0.016,0.204,0.031,0.408,0.031,0.616
		c0,0.784-0.117,1.541-0.325,2.259c-0.522,0.046-1.044,0.093-1.556,0.13c-1.453,0.105-2.857,0.173-4.222,0.212
		c-0.934,0.027-1.855,0.046-2.747,0.046c-2.528,0-4.904-0.106-7.133-0.286c-0.148-0.492-0.255-1.003-0.309-1.528
		c-0.027-0.273-0.042-0.551-0.042-0.832C594.006,483.112,597.669,479.449,602.172,479.449z M589.936,480.511
		c-1.185,2.032-1.881,4.38-1.919,6.89l-9.486-1.647C581.598,484.305,585.452,482.52,589.936,480.511z M712.655,444.267
		c-3.575,6.644-10.336,17.393-20.639,27.971c-9.276,9.524-22.888,20.267-40.855,26.321c-4.359,1.469-8.975,2.659-13.848,3.49
		c-5.009,0.854-10.283,1.337-15.836,1.337c-6.004,0-12.171-0.557-18.449-1.646c-0.285,0.017-0.567,0.043-0.856,0.043
		c-2.283,0-4.435-0.556-6.347-1.52c-4.646-1.095-9.344-2.47-14.075-4.135c-3.892-1.476-7.844-3.516-9.968-5.049
		c3.287,1.365,9.671,3.545,18.765,4.61c1.392,0.163,2.85,0.297,4.366,0.4c2.081,0.143,4.265,0.23,6.576,0.23
		c0.849,0,1.694-0.029,2.54-0.05c1.836-0.046,3.669-0.122,5.491-0.262c1.457-0.112,2.909-0.257,4.357-0.427
		c0.155-0.019,0.31-0.043,0.465-0.062c0.55-0.067,1.099-0.144,1.647-0.219c2.936-0.4,5.852-0.908,8.743-1.526
		c2.214-0.475,4.413-1.015,6.597-1.605c1.878-0.508,3.748-1.045,5.602-1.633c3.955-1.256,7.85-2.688,11.678-4.264
		c1.428-0.589,2.844-1.201,4.253-1.829c4.009-1.786,7.934-3.725,11.767-5.78c1.096-0.587,2.183-1.184,3.263-1.789
		c0.121-0.068,0.243-0.137,0.365-0.205c1.712-0.966,3.409-1.947,5.081-2.954c1.629-0.98,3.232-1.981,4.82-2.994
		c0.214-0.137,0.43-0.273,0.644-0.41c1.091-0.701,2.172-1.408,3.242-2.122c0.667-0.445,1.328-0.893,1.987-1.341
		c0.468-0.319,0.937-0.638,1.4-0.959c4.217-2.918,8.259-5.91,12.102-8.916c1.082-0.846,2.15-1.692,3.2-2.538
		c2.577-2.077,5.051-4.149,7.424-6.198l3.191-2.817c0.003-0.003,0.006-0.005,0.008-0.008c0.503-0.567,1.041-1.135,1.585-1.676
		C712.852,443.906,712.75,444.091,712.655,444.267z"/>
</g>
</svg>
