<?xml version="1.0" encoding="utf-8"?>
<!-- Generator: Adobe Illustrator 21.0.2, SVG Export Plug-In . SVG Version: 6.00 Build 0)  -->
<svg version="1.1" xmlns="http://www.w3.org/2000/svg" xmlns:xlink="http://www.w3.org/1999/xlink" x="0px" y="0px"
	 viewBox="0 0 968.6 595.3" style="enable-background:new 0 0 968.6 595.3;" xml:space="preserve">
<style type="text/css">
	.st0{fill:#3F3F3F;stroke:#3F3F3F;stroke-width:4;stroke-miterlimit:10;}
	.st1{fill:#353535;stroke:#353535;stroke-width:5;stroke-miterlimit:10;}
	.st2{fill:#FF6630;stroke:#FF6630;stroke-width:6;stroke-miterlimit:10;}
	.st3{fill:#D6532B;stroke:#D6532B;stroke-width:3;stroke-miterlimit:10;}
	.st4{fill:#636363;stroke:#646463;stroke-width:4;stroke-miterlimit:10;}
	.st5{fill:#3F3F3F;}
	.st6{fill:#1E1303;}
	.st7{fill:#055596;stroke:#055697;stroke-width:3;stroke-miterlimit:10;}
	.st8{fill:#636363;stroke:#646463;stroke-width:3;stroke-miterlimit:10;}
	.st9{fill:#2E2F30;}
	.st10{fill:#2E2F30;stroke:#2F2F31;stroke-width:4;stroke-miterlimit:10;}
	.st11{fill:#433F3C;}
	.st12{fill:#545454;stroke:#555454;stroke-width:4;stroke-miterlimit:10;}
	.st13{fill:#636363;}
	.st14{fill:#0066CC;stroke:#0066CC;stroke-width:3;stroke-miterlimit:10;}
	.st15{fill:#353535;}
	.st16{fill:#089B82;stroke:#089B82;stroke-miterlimit:10;}
	.st17{fill:#07B69D;stroke:#07B69D;stroke-width:6;stroke-miterlimit:10;}
	.st18{fill:#FCF2E3;stroke:#FCF2E3;stroke-width:6;stroke-miterlimit:10;}
	.st19{fill:#07B69D;stroke:#07B69D;stroke-width:5;stroke-miterlimit:10;}
	.st20{fill:none;}
	.st21{fill:#BA7819;stroke:#BA7819;stroke-width:4;stroke-linecap:round;stroke-linejoin:round;stroke-miterlimit:10;}
	.st22{fill:#D88E19;}
	.st23{fill:#FFB32D;}
	.st24{fill:#FFB32D;stroke:#FFB32D;stroke-width:6;stroke-miterlimit:10;}
	.st25{fill:#BA7819;}
	.st26{fill:#BA7819;stroke:#BA7819;stroke-width:4;stroke-miterlimit:10;}
	.st27{fill:#ED1733;stroke:#ED1733;stroke-width:5;stroke-miterlimit:10;}
	.st28{fill:#07B69D;}
	.st29{fill:#C1102D;stroke:#C1102D;stroke-width:3;stroke-miterlimit:10;}
	.st30{fill:#FF6630;stroke:#FF6630;stroke-width:5;stroke-miterlimit:10;}
	.st31{fill:#D6532A;stroke:#D6532A;stroke-width:3;stroke-miterlimit:10;}
	.st32{fill:#07B69D;stroke:#07B69D;stroke-width:4;stroke-miterlimit:10;}
	.st33{fill:#A5A09D;stroke:#A5A09D;stroke-width:5;stroke-miterlimit:10;}
	.st34{fill:#E5E5E5;stroke:#E5E4E4;stroke-width:5;stroke-miterlimit:10;}
	.st35{fill:#C6C4C2;stroke:#C6C4C2;stroke-width:3;stroke-miterlimit:10;}
	.st36{fill:#EAEAEA;stroke:#EAEAEA;stroke-width:4;stroke-miterlimit:10;}
	.st37{fill:#8C8988;stroke:#8C8988;stroke-width:3;stroke-linecap:round;stroke-linejoin:round;stroke-miterlimit:10;}
	.st38{fill:#383737;stroke:#383737;stroke-width:3;stroke-linecap:round;stroke-linejoin:round;stroke-miterlimit:10;}
	.st39{fill:#FF0037;}
	.st40{fill:#0066FF;}
	.st41{fill:#00FF67;}
	.st42{fill:#FFF800;}
	.st43{fill:#0A8C73;stroke:#028C73;stroke-width:3;stroke-miterlimit:10;}
	.st44{fill:#06937B;stroke:#00937B;stroke-width:3;stroke-miterlimit:10;}
	.st45{fill:#089B82;stroke:#039B82;stroke-width:3;stroke-miterlimit:10;}
	.st46{fill:#07B69D;stroke:#07B69D;stroke-width:3;stroke-miterlimit:10;}
	.st47{fill:#07B69D;stroke:#07B69D;stroke-width:4;stroke-linecap:round;stroke-linejoin:round;stroke-miterlimit:10;}
	.st48{display:none;}
	.st49{display:inline;fill:#3F3F3F;}
	.st50{display:inline;fill:#1E1303;}
	.st51{display:inline;fill:#2E2F30;}
	.st52{display:inline;fill:#433F3C;}
	.st53{display:inline;fill:#636363;}
	.st54{display:inline;}
</style>
<g id="Calque_1">
	<path class="st0" d="M611.2,442c0,0.3,0.1,0.5,0.2,0.8c0.4,0.9,1.4,1.8,3,2.8c8.3,5.1,32.9,11.3,72.6,11.3c1.5,0,3,0,4.5,0
		c0.4,0,0.9,0,1.3,0c1.1,0,2.2,0,3.4-0.1c0.4,0,0.7,0,1.1,0c1.4,0,2.8-0.1,4.2-0.1c0.2,0,0.5,0,0.7,0c1.2,0,2.3-0.1,3.4-0.2
		c0.4,0,0.8,0,1.1-0.1c1.1-0.1,2.2-0.1,3.2-0.2c0.2,0,0.5,0,0.7,0c1.3-0.1,2.5-0.2,3.7-0.3c0.3,0,0.6-0.1,0.9-0.1
		c1-0.1,1.9-0.2,2.9-0.3c0.3,0,0.6-0.1,1-0.1c1.2-0.1,2.3-0.2,3.4-0.4c0,0,0,0,0.1,0c1.1-0.1,2.3-0.3,3.3-0.4c0.3,0,0.5-0.1,0.8-0.1
		c0.9-0.1,1.7-0.2,2.5-0.4c0.2,0,0.5-0.1,0.7-0.1c1-0.2,2.1-0.3,3-0.5c0.1,0,0.1,0,0.2,0c0.9-0.2,1.8-0.3,2.7-0.5
		c0.2,0,0.4-0.1,0.7-0.1c0.8-0.2,1.6-0.3,2.4-0.5c0.1,0,0.2,0,0.4-0.1c0.9-0.2,1.8-0.4,2.6-0.6c0.1,0,0.3-0.1,0.4-0.1
		c0.7-0.2,1.4-0.3,2.1-0.5c0.2,0,0.3-0.1,0.5-0.1c0.8-0.2,1.5-0.4,2.2-0.6c0,0,0,0,0,0c0,0,0,0,0,0c5.8-1.6,10-3.3,12.6-4.9
		c1.6-1,2.6-1.9,3-2.8c0.1-0.3,0.2-0.5,0.2-0.8v-2v-1v-1.7V434V271c-13.9,8.8-49.6,12.2-75.4,12.2c-4.6,0-9.6-0.1-14.7-0.3
		c-18.3-0.8-38.3-3.2-51.6-7.7c-3.9-1.3-7.2-2.8-9.7-4.5V434v3.4v2.7"/>
	<path class="st1" d="M627.4,424.7c-3.2-5-5.3-80.9-6.5-149.6c-3.9-1.3-7.2-2.8-9.7-4.5V434v3.4v2.4v0.3v2c0,0,0,0.1,0,0.2
		c0,0.2,0.1,0.4,0.2,0.6c0.4,0.9,1.4,1.8,3,2.8c8.3,5.1,32.9,11.3,72.6,11.3c1.5,0,3,0,4.5,0c0.4,0,0.9,0,1.3,0c1.1,0,2.2,0,3.4-0.1
		c0.4,0,0.7,0,1.1,0c1.4,0,2.8-0.1,4.2-0.1c0.2,0,0.5,0,0.7,0c1.2,0,2.3-0.1,3.4-0.2c0.4,0,0.8,0,1.1-0.1c1.1-0.1,2.2-0.1,3.2-0.2
		c0.2,0,0.5,0,0.7,0c1.3-0.1,2.5-0.2,3.7-0.3c0.3,0,0.6-0.1,0.9-0.1c1-0.1,1.9-0.2,2.9-0.3c0.3,0,0.6-0.1,1-0.1
		c1.2-0.1,2.3-0.2,3.4-0.4c0,0,0,0,0.1,0c1.1-0.1,2.3-0.3,3.3-0.4c0.3,0,0.5-0.1,0.8-0.1c0.9-0.1,1.7-0.2,2.5-0.4
		c0.2,0,0.5-0.1,0.7-0.1c1-0.2,2.1-0.3,3-0.5c0.1,0,0.1,0,0.2,0c0.9-0.2,1.8-0.3,2.7-0.5c0.2,0,0.4-0.1,0.7-0.1
		c0.8-0.2,1.6-0.3,2.4-0.5c0.1,0,0.2,0,0.4-0.1c0.9-0.2,1.8-0.4,2.6-0.6c0.1,0,0.3-0.1,0.4-0.1c0.7-0.2,1.4-0.3,2.1-0.5
		c0.2,0,0.3-0.1,0.5-0.1c0.8-0.2,1.5-0.4,2.2-0.6C660.8,466.5,633.4,434,627.4,424.7z"/>
	<path class="st2" d="M435.2,296.6c-16.4-6.8-28.5-4.5-34.2-2.6c7.7,9.5,10.5,19.3,10.6,19.5c0.5,1.7-0.5,3.5-2.2,3.9
		c-1.7,0.5-3.5-0.5-3.9-2.2c-0.4-1.3-9.6-32.6-41.1-32.6c-5.3,0-10.2,0.7-14.9,2.1c-1,0.7-35.4,26.5-32.9,101.6h0
		c0.4,2,0.7,3.7,1,4.8c0.4,1.7-0.7,3.4-2.4,3.8c-0.4,0.1-0.7,0.1-1.1,0.1c-1.3-0.2-2.4-1.1-2.7-2.5c0-0.2-4.1-19.2-5-35.2l0-0.1
		c-0.2-30,6.6-52.1,20.3-65.9c1.7-1.8,3.6-3.4,5.6-4.8c-8.4-4.6-31.2-13.7-49.5,11.6c-11.3,15.6-15.5,47.5-11.5,87.6
		c3.6,35.8,12.4,64.8,18.6,71.2l0.3,0.3l0.2,0.4c0.1,0.2,10.1,17.6,25.8,12.4c-3.8-5.5-4.7-10.3-4.8-10.8c-0.3-1.7,0.9-3.3,2.5-3.6
		c1.7-0.3,3.3,0.8,3.6,2.5c0.2,0.8,3.9,19.8,32.1,22.6c27.6,2.7,34.1-14.1,34.1-14.3c0.6-1.6,2.4-2.4,4-1.8c1.6,0.6,2.4,2.4,1.8,4
		c-0.2,0.4-2.1,5.4-7.6,10.1c4.2,2.8,8.5,3.8,13,3c13.8-2.5,24.5-20.8,24.6-21c13.1-22.3,24.1-53.4,32.8-92.4
		C457.1,346.1,461.4,307.5,435.2,296.6z"/>
	<path class="st3" d="M349.5,480.5c20.6,2,29.5-6.9,32.6-11.6c-30.5,10.7-58.5-3.9-63.1-6.4C321.9,468.6,329.6,478.6,349.5,480.5z"
		/>
	<path class="st3" d="M394.8,481.5c8.9-1.6,16.4-9.7,20.7-15.3c-11.1,9.1-27.4,4.9-27.4,4.9l0,0c-1.1,2-3.1,4.8-6.3,7.5
		C386,481.3,390.3,482.3,394.8,481.5z"/>
	<g>
		<g>
			<path class="st4" d="M686.9,188.5c-21.7,0-43.6-2.2-59.2-6.4c-3-0.8-5.7-1.7-8.2-2.6c0.2,16.3,0.5,43.5,1,74
				c0.1,5.2,0.2,10.4,0.3,15.7c1.3,0.5,2.7,1,4.2,1.4c0.9,0.3,1.9,0.6,3,0.8c1.6,0.4,3.4,0.9,5.3,1.3c3,0.7,6.4,1.3,10,1.9
				c2.2,0.3,4.4,0.7,6.8,0.9c2.4,0.3,4.9,0.6,7.4,0.8c2.6,0.2,5.3,0.4,8.1,0.6c1.4,0.1,2.8,0.2,4.3,0.2c5.4,0.3,11.1,0.4,17.2,0.4
				c28.9,0,49.8-3.3,62.2-7c7.6-2.3,12.1-4.8,13.2-6.8v-2.1v-3.9v-3.3v-79.3C750,183.9,718.3,188.5,686.9,188.5z"/>
			<g>
				<path class="st5" d="M744.6,451.1c0.8-0.2,1.5-0.4,2.2-0.6c0,0,0,0,0,0C746.1,450.7,745.4,450.9,744.6,451.1z"/>
				<path class="st6" d="M768.2,442.8V442c0,0.7-0.1,1.4-0.3,2C768.1,443.7,768.2,443.3,768.2,442.8z"/>
				<polygon class="st5" points="746.8,450.5 746.8,450.5 746.8,450.5 				"/>
				<path class="st6" d="M765.4,442.8V442C765.4,442.3,765.4,442.6,765.4,442.8L765.4,442.8z"/>
				<path class="st6" d="M608.4,442.8L608.4,442.8c0-0.3,0-0.5,0-0.8V442.8z"/>
				<path class="st7" d="M611.3,162.1v4.4c0,2.1,2.9,4.4,8.2,6.7c0-3.1-0.1-5.6-0.1-7.2C616.2,164.8,613.5,163.5,611.3,162.1z"/>
				<path class="st8" d="M613.3,156.9c7.2,5.2,32.1,12,73.6,12c41.5,0,66.4-6.7,73.6-12c0.2-0.1,0.3-0.3,0.5-0.4
					c1.1-0.9,1.7-1.8,1.7-2.5c0-0.9-0.7-1.9-2.2-2.9c-7.2-5.2-32.1-12-73.6-12c-41.5,0-66.4,6.7-73.6,12c-1.4,1-2.2,2-2.2,2.9
					c0,0,0,0,0,0C611.2,154.9,611.9,155.9,613.3,156.9z M706.9,151.1c1.3-4.2,9.1-5.8,15.9-5.8c6.8,0,14.6,1.6,15.9,5.8
					c0.1,0.4,0.2,0.8,0.2,1.3c0,0.6-0.1,1.1-0.3,1.6c-0.3,0.8-0.9,1.5-1.7,2.1c-0.3,0.3-0.7,0.5-1.1,0.8c-3.2,1.8-8.4,2.6-13,2.6
					c-4.7,0-9.8-0.7-13-2.6c-0.6-0.4-1.2-0.8-1.7-1.3c-0.5-0.5-0.9-1-1.1-1.6c-0.2-0.5-0.3-1-0.3-1.6
					C706.7,151.9,706.8,151.5,706.9,151.1z M633.5,151.1c1.3-4.2,9.1-5.8,15.9-5.8c6.8,0,14.6,1.6,15.9,5.8c0.1,0.4,0.2,0.8,0.2,1.3
					c0,0.6-0.1,1.1-0.3,1.6c-0.1,0.3-0.3,0.6-0.5,0.9c-0.5,0.8-1.3,1.4-2.3,2c-3.2,1.8-8.4,2.6-13,2.6c-4.7,0-9.8-0.7-13-2.6
					c-1.2-0.7-2.1-1.5-2.6-2.5c-0.1-0.1-0.1-0.3-0.2-0.4c-0.2-0.5-0.3-1-0.3-1.6C633.3,151.9,633.4,151.5,633.5,151.1z"/>
				<path class="st6" d="M608.4,151.2c0.3,0,0.6,0.1,0.9,0.2c0.1-0.1,0.1-0.2,0.2-0.3h-1.1c-1.2,0-2.3,0.8-2.7,1.9
					c0,0.3-0.1,0.7-0.1,1C605.6,152.5,606.8,151.2,608.4,151.2z"/>
				<path class="st6" d="M762.6,158.7c0,0-0.1,0.1-0.1,0.1v3.4c0,0,0.1,0,0.1-0.1V158.7z"/>
				<path class="st6" d="M611.2,154C611.2,154,611.2,154,611.2,154L611.2,154L611.2,154z"/>
				<path class="st9" d="M722.8,151.1c-0.2,0-0.5,0-0.7,0h1.4C723.3,151.1,723.1,151.1,722.8,151.1z"/>
				<path class="st10" d="M731.9,152.4c-1.6-0.6-4.5-1.2-8.4-1.3h-1.4c-3.9,0.1-6.7,0.7-8.4,1.3c1.7,0.6,4.9,1.3,9.1,1.3
					C727.1,153.7,730.2,153,731.9,152.4z"/>
				<path class="st11" d="M708.1,155.6c0.5,0.5,1,0.9,1.7,1.3c3.2,1.8,8.4,2.6,13,2.6c4.7,0,9.8-0.7,13-2.6c0.4-0.2,0.8-0.5,1.1-0.8
					c0.8-0.6,1.3-1.3,1.7-2.1c0.2-0.5,0.3-1,0.3-1.6c0-0.5-0.1-0.9-0.2-1.3c-1.3-4.2-9.1-5.8-15.9-5.8c-6.8,0-14.6,1.6-15.9,5.8
					c-0.1,0.4-0.2,0.8-0.2,1.3c0,0.6,0.1,1.1,0.3,1.6C707.3,154.6,707.6,155.1,708.1,155.6z M722.1,151.1c0.2,0,0.5,0,0.7,0
					c0.3,0,0.5,0,0.7,0c3.9,0.1,6.7,0.7,8.4,1.3c-1.7,0.6-4.9,1.3-9.1,1.3c-4.2,0-7.4-0.6-9.1-1.3
					C715.4,151.8,718.2,151.2,722.1,151.1z"/>
				<path class="st9" d="M649.4,151.1c-0.2,0-0.5,0-0.7,0h1.4C649.9,151.1,649.7,151.1,649.4,151.1z"/>
				<path class="st10" d="M658.5,152.4c-1.6-0.6-4.5-1.2-8.4-1.3h-1.4c-3.9,0.1-6.7,0.7-8.4,1.3c1.7,0.6,4.9,1.3,9.1,1.3
					C653.7,153.7,656.8,153,658.5,152.4z"/>
				<path class="st11" d="M633.8,154.4c0.5,1,1.4,1.8,2.6,2.5c3.2,1.8,8.4,2.6,13,2.6c4.7,0,9.8-0.7,13-2.6c1-0.6,1.8-1.2,2.3-2
					c0.2-0.3,0.4-0.6,0.5-0.9c0.2-0.5,0.3-1,0.3-1.6c0-0.5-0.1-0.9-0.2-1.3c-1.3-4.2-9.1-5.8-15.9-5.8c-6.8,0-14.6,1.6-15.9,5.8
					c-0.1,0.4-0.2,0.8-0.2,1.3c0,0.6,0.1,1.1,0.3,1.6C633.7,154.1,633.8,154.3,633.8,154.4z M648.7,151.1c0.2,0,0.5,0,0.7,0
					c0.3,0,0.5,0,0.7,0c3.9,0.1,6.7,0.7,8.4,1.3c-1.7,0.6-4.9,1.3-9.1,1.3c-4.2,0-7.4-0.6-9.1-1.3
					C642,151.8,644.8,151.2,648.7,151.1z"/>
				<path class="st6" d="M611.2,158.7v3.4c0,0,0.1,0,0.1,0.1v-3.4C611.2,158.7,611.2,158.7,611.2,158.7z"/>
				<polygon class="st6" points="611.2,154 608.4,154 611.2,154 				"/>
				<path class="st12" d="M620.5,253.4c-0.5-30.5-0.8-57.6-1-74c-3.3-1.3-6.2-2.7-8.4-4.3v79.7v3.3l0,0c0,0,0,0,0,0v4.7
					c0,0,0.7,1.2,1.1,1.5c0,0,0.1,0,0.2,0.1c1.4,1.4,4.2,3,8.3,4.5C620.7,263.8,620.6,258.6,620.5,253.4"/>
				<path class="st13" d="M612.5,264.6c-0.1,0-0.1,0-0.2-0.1C612.3,264.6,612.4,264.6,612.5,264.6c1.4,1.4,4.1,3,8.3,4.5
					c0,0,0,0,0,0C616.6,267.6,613.8,266,612.5,264.6z"/>
				<path class="st13" d="M611.2,258.2L611.2,258.2C611.2,258.3,611.2,258.3,611.2,258.2L611.2,258.2z"/>
				<path class="st14" d="M686.9,174.4c-21.2,0-49.1-2.3-66.1-8c-0.5-0.2-0.9-0.3-1.3-0.5c0,1.7,0,4.1,0.1,7.2
					c1.5,0.6,3.2,1.3,5.1,1.9c12.9,4.2,34.6,7.6,62.3,7.6c46.2,0,75.6-9.6,75.6-16.2v-4.4C748.7,171,712.8,174.4,686.9,174.4z"/>
				<ellipse transform="matrix(0.9298 -0.368 0.368 0.9298 -113.3875 306.4991)" class="st6" cx="746.8" cy="450.5" rx="0" ry="0"/>
				<path class="st11" d="M768.1,153c-2.1-14.2-49.3-19.4-81.2-19.4c-31.9,0-79.1,5.2-81.2,19.4c-0.1,0.3-0.2,0.7-0.2,1v12.5
					c0,0.4,0,0.8,0.1,1.3v102.8V442c0,0.7,0.1,1.4,0.3,2c4.2,13.5,49.8,18.4,81,18.4c31.2,0,76.8-4.9,81-18.4c0.2-0.7,0.3-1.3,0.3-2
					V270.6v-5.8v-4.1v-92.9c0.1-0.4,0.1-0.8,0.1-1.3V154C768.3,153.6,768.2,153.3,768.1,153z M762.6,434v3.4v1.7v1v2
					c0,0.3-0.1,0.5-0.2,0.8c-0.4,0.9-1.4,1.8-3,2.8c-2.6,1.6-6.8,3.3-12.6,4.9v0c0,0,0,0,0,0c-0.7,0.2-1.5,0.4-2.2,0.6
					c-0.2,0-0.3,0.1-0.5,0.1c-0.7,0.2-1.4,0.3-2.1,0.5c-0.1,0-0.3,0.1-0.4,0.1c-0.8,0.2-1.7,0.4-2.6,0.6c-0.1,0-0.2,0-0.4,0.1
					c-0.8,0.2-1.6,0.3-2.4,0.5c-0.2,0-0.4,0.1-0.7,0.1c-0.9,0.2-1.8,0.3-2.7,0.5c-0.1,0-0.1,0-0.2,0c-1,0.2-2,0.3-3,0.5
					c-0.2,0-0.5,0.1-0.7,0.1c-0.8,0.1-1.7,0.2-2.5,0.4c-0.3,0-0.5,0.1-0.8,0.1c-1.1,0.1-2.2,0.3-3.3,0.4c0,0,0,0-0.1,0
					c-1.1,0.1-2.2,0.2-3.4,0.4c-0.3,0-0.6,0.1-1,0.1c-0.9,0.1-1.9,0.2-2.9,0.3c-0.3,0-0.6,0.1-0.9,0.1c-1.2,0.1-2.5,0.2-3.7,0.3
					c-0.2,0-0.5,0-0.7,0c-1.1,0.1-2.1,0.1-3.2,0.2c-0.4,0-0.8,0-1.1,0.1c-1.1,0.1-2.3,0.1-3.4,0.2c-0.2,0-0.5,0-0.7,0
					c-1.4,0.1-2.8,0.1-4.2,0.1c-0.4,0-0.7,0-1.1,0c-1.1,0-2.2,0.1-3.4,0.1c-0.4,0-0.8,0-1.3,0c-1.5,0-3,0-4.5,0
					c-39.7,0-64.3-6.2-72.6-11.3c-1.6-1-2.6-1.9-3-2.8c-0.1-0.3-0.2-0.5-0.2-0.8v-2v-2.7V434V270.6c2.5,1.7,5.8,3.2,9.7,4.5
					c13.3,4.5,33.3,6.9,51.6,7.7c5.1,0.2,10.1,0.3,14.7,0.3c25.8,0,61.5-3.4,75.4-12.2V434z M762.6,254.5v3.3v3.9v2.1
					c-1.2,2-5.6,4.5-13.2,6.8c-12.4,3.8-33.3,7-62.2,7c-6.1,0-11.8-0.2-17.2-0.4c-1.5-0.1-2.9-0.2-4.3-0.2c-2.8-0.2-5.5-0.4-8.1-0.6
					c-2.6-0.2-5.1-0.5-7.4-0.8c-2.4-0.3-4.6-0.6-6.8-0.9c-3.6-0.6-7-1.2-10-1.9c-1.9-0.4-3.7-0.8-5.3-1.3c-1-0.3-2-0.6-3-0.8
					c-1.5-0.5-3-0.9-4.2-1.4c-4.2-1.6-7-3.1-8.3-4.5c-0.1,0-0.1,0-0.2-0.1c-0.4-0.3-1.1-1.5-1.1-1.5v-4.7v-0.1v-3.3v-79.7
					c2.2,1.6,5.1,3,8.4,4.3c2.5,1,5.2,1.8,8.2,2.6c15.6,4.2,37.4,6.4,59.2,6.4c31.4,0,63.1-4.5,75.7-13.3V254.5z M762.5,162.1v4.4
					c0,6.6-29.5,16.2-75.6,16.2c-27.7,0-49.3-3.4-62.3-7.6c-1.9-0.6-3.6-1.2-5.1-1.9c-5.4-2.3-8.2-4.6-8.2-6.7v-4.4
					c2.2,1.4,5,2.7,8.2,3.9c0.4,0.2,0.9,0.3,1.3,0.5c17,5.7,44.9,8,66.1,8C712.8,174.4,748.7,171,762.5,162.1 M760.9,156.5
					c-0.2,0.1-0.3,0.3-0.5,0.4c-7.2,5.2-32.1,12-73.6,12c-41.5,0-66.4-6.7-73.6-12c-1.4-1-2.1-2-2.2-2.8h0v0c0-0.9,0.7-1.9,2.2-2.9
					c7.2-5.2,32.1-12,73.6-12c41.5,0,66.4,6.7,73.6,12c1.4,1,2.2,2,2.2,2.9C762.6,154.8,762,155.6,760.9,156.5z"/>
				<path class="st5" d="M620.8,269.1C620.8,269.1,620.8,269.1,620.8,269.1c1.3,0.5,2.7,1,4.2,1.4l0,0
					C623.5,270.1,622.1,269.6,620.8,269.1z"/>
				<path class="st5" d="M625,270.6L625,270.6c0.9,0.3,1.9,0.6,3,0.8C627,271.1,626,270.8,625,270.6z"/>
			</g>
			<g>
				<path class="st15" d="M611.2,442.2L611.2,442.2c0-0.1,0-0.1,0-0.2V442.2z"/>
			</g>
		</g>
	</g>
	<path class="st16" d="M283.8,119.8c2.2,18.1,1.4,39.1-2.6,63.1c11.5-12.5,22.8-23.2,33.8-32c8.2-18.9,15.1-36.6,16.1-44.5l-1.2-0.7
		c-2.4,5.4-5.4,11-7.5,14.8c-9.4,16.7-11.1,16.9-12.5,16.9c0,0,0,0-0.1,0c-1,0-2-0.6-2.6-1.4c-1-1.6-0.2-3.3,0.9-5.5
		c3.7-7.5,5.2-23.4,5.9-34l-21.4-12.3c-1.7,5.9-5.2,18.2-10.1,33.5C283.2,118.2,283.7,118.9,283.8,119.8z"/>
	<path class="st17" d="M278.7,129.5c-0.1-2.1-0.3-4.1-0.5-6.2l-0.6,0l-3.2,0.1l-12.7,0.4c-2.6,22.6-7.8,33.7-8.1,34.3
		c-0.6,1.2-1.8,1.9-3.1,1.9c-0.3,0-0.5,0-0.8-0.1c-1.6-0.4-2.7-1.8-2.6-3.4c0.3-14-1.5-24.8-3.4-32.1l-8.9,0.3
		c2.1,13.5,5.9,64.5-33.2,169.1c7.7-13,17.1-28.3,27.9-44.3c12.2-18.1,24.2-34.3,36.1-48.6c0.7-0.8,1.3-1.6,2-2.4
		c0.7-0.8,1.3-1.6,2-2.4c1.3-1.5,2.6-3.1,3.9-4.6C277.7,169.8,279.9,148.6,278.7,129.5z"/>
	<path class="st17" d="M341.3,140.2c-6.9,4-14,8.8-21.3,14.6c-1.7,1.3-3.4,2.7-5.1,4.2c-1.8,1.5-3.6,3-5.4,4.6
		c-9.9,8.8-20,19-30.2,30.8c-1.3,1.5-2.6,3-3.9,4.5c-0.1,0.1-0.1,0.2-0.2,0.3c-0.6,0.7-1.2,1.4-1.8,2.1c-0.7,0.8-1.3,1.6-2,2.4
		c-0.2,0.2-0.3,0.4-0.5,0.5c-12,14.4-24.1,30.7-36.3,48.8c-16.2,23.9-29.3,46.3-37.8,61.5c4.4,2.5,12,5.6,21.9,5.6c0,0,0,0,0,0
		c4.7,0,9.5-0.7,14.3-2.1c1.3-0.4,2.6-0.8,3.9-1.2c0.8-0.3,1.6-0.6,2.4-0.9c1.2-1.9,2.3-3.7,3.5-5.5c5.2-8.2,9.5-14.5,9.9-15
		c58.4-89.2,100.5-115.3,112.6-121.4L341.3,140.2z"/>
	<path class="st18" d="M234.4,323.8c-0.2,0.1-0.4,0.1-0.6,0.2c-1.2,0.3-2.5,0.6-3.7,0.9c-3.8,0.8-7.6,1.2-11.4,1.2c0,0,0,0,0,0
		c-11.2,0-19.7-3.5-24.8-6.3c-0.8-0.4-1.5-0.9-2.2-1.3c0,0-0.1-0.1-0.2-0.1c-1.5,3.1-3.9,8.2-6.9,14.7c-0.4,0.9-0.8,1.8-1.3,2.8
		c-3,6.4-6.5,14-10.3,22c-0.4,0.9-0.8,1.8-1.3,2.7c-16.2,34.6-36.1,77-37.8,80.7c-5.8,12-3.2,15.9-1.8,17.9
		c1.2,1.8,10.5,6.4,18.3,9.7l0.3,0.1l0.3,0.2c0,0,0,0,0,0c0,0,1.6,1.1,3.8,1.1c4.9,0,9.8-5.2,13.7-14.6c6-14.4,22.1-46.4,37.3-76
		c0.5-0.9,0.9-1.8,1.4-2.7c6.5-12.6,12.7-24.6,17.9-34.5c0.2-0.4,0.4-0.8,0.6-1.2c0.8-1.5,1.6-3,2.3-4.4c2.8-5.3,5.1-9.8,6.9-13.2
		C234.8,323.6,234.6,323.7,234.4,323.8z"/>
	<path class="st6" d="M193.3,314.4c-0.2,0.4-0.4,0.8-0.6,1.1c0,0,0.1,0.1,0.1,0.1L193.3,314.4z"/>
	<path class="st11" d="M372.3,173.3l-27.7-38.8c-0.9-1.2-2.5-1.6-3.9-0.9c-5.3,2.9-10.6,6.2-16,10c8.3-19.9,12.5-33,12.6-38.9
		c0-1.1-0.6-2.1-1.5-2.6l-3.6-2l-2.6-1.5l-2.7-1.5c-0.3,0.9-0.6,1.9-1,2.9c-0.3,0.9-0.7,1.8-1.1,2.8c-1.8,4.2-4.2,8.9-6.7,13.3
		c0.8-5.5,1.4-11.2,1.7-16.1c0.1-1.2,0.2-2.3,0.2-3.3c0.1-1.2,0.1-2.3,0.2-3.4l-2.9-1.7l-2.9-1.7l-22.1-12.7
		c-0.8-0.5-1.8-0.5-2.6-0.2c-0.9,0.4-1.5,1.1-1.7,2c-0.1,0.3-4.5,16.5-11.5,38.4l-14,0.5l-3.5,0.1l-3.5,0.1c-0.1,1-0.2,2-0.3,3
		c-0.1,1-0.2,2-0.3,3c-0.5,4.4-1.2,8.4-1.8,11.8c-0.6-4.5-1.3-8.4-2.1-11.7c-0.3-1.1-0.5-2-0.8-3c-0.3-1.1-0.6-2.1-0.9-3l-3.6,0.1
		l-3.6,0.1L231,119c-0.9,0-1.8,0.5-2.3,1.2c-0.5,0.7-0.7,1.7-0.5,2.6c0.1,0.5,12.5,50.6-33.4,172.1l-7.3,17.7
		c-1.6,3.3-56,119.7-59,126c-6.4,13.2-4.3,19.5-1.4,23.9c2.6,3.9,15.2,9.5,20.8,11.8c0.9,0.6,3.5,2,7.1,2c5.3,0,12.9-3.2,19.3-18.3
		c12.4-29.6,67.4-133.9,69.7-138.2c6.9-11.1,13.6-20.9,13.7-21.1c67-102.2,112.8-120.5,113.3-120.7c0.9-0.3,1.5-1,1.8-1.9
		C373,175.1,372.8,174.1,372.3,173.3z M283.8,119.8c-0.1-0.9-0.6-1.6-1.3-2.1c4.9-15.3,8.4-27.6,10.1-33.5L314,96.5
		c-0.6,10.6-2.2,26.4-5.9,34c-1.1,2.2-1.9,3.9-0.9,5.5c0.5,0.9,1.5,1.4,2.6,1.4c0,0,0,0,0.1,0c1.5,0,3.1-0.2,12.5-16.9
		c2.1-3.8,5.1-9.4,7.5-14.8l1.2,0.7c-1,7.9-7.9,25.6-16.1,44.5c-11,8.8-22.3,19.5-33.8,32C285.2,159,286.1,137.9,283.8,119.8z
		 M234.8,124.8l8.9-0.3c1.9,7.3,3.7,18,3.4,32.1c0,1.6,1.1,3,2.6,3.4c0.3,0.1,0.5,0.1,0.8,0.1c1.3,0,2.5-0.7,3.1-1.9
		c0.3-0.5,5.5-11.7,8.1-34.3l12.7-0.4l3.2-0.1l0.6,0c0.2,2,0.4,4.1,0.5,6.2c1.2,19.1-1,40.3-5.2,62.1c-1.3,1.5-2.6,3-3.9,4.6
		c-0.7,0.8-1.3,1.6-2,2.4c-0.7,0.8-1.3,1.6-2,2.4c-11.8,14.3-23.8,30.6-36.1,48.6c-10.8,16-20.3,31.3-27.9,44.3
		C240.6,189.3,236.9,138.3,234.8,124.8z M228.2,336.7c-0.7,1.4-1.5,2.9-2.3,4.4c-0.2,0.4-0.4,0.8-0.6,1.2c-5.2,10-11.4,22-17.9,34.5
		c-0.5,0.9-0.9,1.8-1.4,2.7c-15.2,29.6-31.2,61.6-37.3,76c-3.9,9.4-8.8,14.6-13.7,14.6c-2.3,0-3.8-1.1-3.8-1.1c0,0,0,0,0,0l-0.3-0.2
		l-0.3-0.1c-7.9-3.3-17.1-7.9-18.3-9.7c-1.4-2.1-4-6,1.8-17.9c1.8-3.7,21.6-46.1,37.8-80.7c0.4-0.9,0.9-1.8,1.3-2.7
		c3.8-8,7.3-15.5,10.3-22c0.4-0.9,0.9-1.9,1.3-2.8c3-6.5,5.4-11.6,6.9-14.7c0,0,0.1,0.1,0.2,0.1c0.6,0.4,1.4,0.8,2.2,1.3
		c5.1,2.8,13.6,6.3,24.8,6.3c0,0,0,0,0,0c3.8,0,7.6-0.4,11.4-1.2c1.2-0.3,2.5-0.5,3.7-0.9c0.2-0.1,0.4-0.1,0.6-0.2
		c0.2-0.1,0.5-0.1,0.7-0.2C233.3,326.9,230.9,331.4,228.2,336.7z M252.6,295.2c-0.4,0.6-4.7,6.9-9.9,15c-1.1,1.8-2.3,3.6-3.5,5.5
		c-0.8,0.3-1.6,0.6-2.4,0.9c-1.3,0.5-2.6,0.9-3.9,1.2c-4.8,1.4-9.6,2.1-14.3,2.1c0,0,0,0,0,0c-9.9,0-17.5-3.1-21.9-5.6
		c8.5-15.2,21.6-37.6,37.8-61.5c12.2-18.1,24.4-34.4,36.3-48.8c0.2-0.2,0.3-0.4,0.5-0.5c0.7-0.8,1.3-1.6,2-2.4
		c0.6-0.7,1.2-1.4,1.8-2.1c0.1-0.1,0.1-0.2,0.2-0.3c1.3-1.5,2.6-3,3.9-4.5c10.3-11.7,20.4-22,30.2-30.8c1.8-1.6,3.6-3.1,5.4-4.6
		c1.7-1.4,3.4-2.8,5.1-4.2c7.3-5.8,14.4-10.6,21.3-14.6l24,33.7C353.2,180,311.1,206.1,252.6,295.2z"/>
	<path class="st3" d="M310.8,461.2L310.8,461.2C274,450,271,339.8,270.8,328c-2.6,15.8-2.9,35.4-0.7,57.5c2.5,25.2,7.7,47.1,12.7,60
		c0,0,4.1,10.8,8.1,14.3c0,0,0,0,0,0c3.5,4.7,12.1,13.8,24.1,9.9C312.7,466.4,311.4,463.2,310.8,461.2z"/>
	<g>
		<path class="st19" d="M383.9,260.7c1.7-2.2,3.9-5.2,7.5-6.8c0.7-0.3,1-0.6,1.1-0.7c0-0.1-0.2-0.5-0.5-0.9
			c-2.8-3.9-5.7-7.7-8.5-11.5l-0.2-0.3c-0.6-0.8-0.7-0.8-1.5-0.5c-3.2,1.4-5.8,3.4-8.2,6.3c-3.4,4-5.8,9-7.4,15.4
			c-0.8,3.1-1.3,6.1-1.7,9.1c-0.2,1.8-0.3,3.7-0.3,5.5c0,0,0,0,0,0c3.5,0,6.8,0.3,9.8,1c0.8-1.6,1.7-3.3,2.6-5
			C378.7,268.4,381.1,264.4,383.9,260.7z"/>
		<path class="st6" d="M372,281.6l2.8,1.3L372,281.6C372,281.6,372,281.6,372,281.6z"/>
		<path class="st6" d="M361.1,276.4C361.1,276.4,361.1,276.4,361.1,276.4L361.1,276.4C361.1,276.4,361.1,276.4,361.1,276.4z"/>
		<path class="st6" d="M364.2,276.3c-1,0-2.1,0-3.1,0.1c0,0,0,0,0,0L364.2,276.3C364.2,276.4,364.2,276.3,364.2,276.3z"/>
		<path class="st3" d="M331.1,295.7c-12.4,12.5-18.6,33.1-18.4,61.3c0.5,10.1,2.5,22.1,3.9,29.3h0c-1.3-38.9,7.3-64.6,16.1-80.4
			c8.1-14.7,16.4-20.9,16.8-21.2C342.4,286.9,336.2,290.6,331.1,295.7z"/>
		<path class="st11" d="M437.6,290.9c-20.7-8.6-35.7-4.1-41.1-1.7c-4.3-4.1-9.6-7.8-16.3-10.2c1-1.9,2-3.9,3.1-5.9
			c1.7-2.9,3.5-5.8,5.6-8.6c1.7-2.2,3.1-4,5.1-4.9c3.1-1.4,4.2-3.4,4.5-4.8c0.4-1.4,0.4-3.6-1.5-6.2c-2.8-3.9-5.7-7.8-8.6-11.6
			l-0.2-0.3c-2.3-3.1-5.5-4-9-2.4c-4,1.8-7.5,4.4-10.4,8c-4,4.7-6.8,10.6-8.6,17.8c-0.9,3.4-1.5,6.7-1.8,9.9
			c-0.2,2.1-0.4,4.2-0.4,6.3l3.1,0c0,0,0,0,0,0c1-0.1,2.1-0.1,3.1-0.1c0-1.8,0.1-3.6,0.3-5.5c0.3-2.9,0.9-5.9,1.7-9.1
			c1.6-6.3,4-11.3,7.4-15.4c2.3-2.8,5-4.9,8.2-6.3c0.8-0.3,0.9-0.4,1.5,0.5l0.2,0.3c2.8,3.8,5.7,7.7,8.5,11.5
			c0.3,0.5,0.5,0.8,0.5,0.9c-0.1,0.1-0.4,0.4-1.1,0.7c-3.6,1.6-5.8,4.6-7.5,6.8c-2.8,3.7-5.2,7.7-7.3,11.6c-0.9,1.7-1.8,3.4-2.6,5
			c-3-0.6-6.3-1-9.8-1c0,0,0,0,0,0c0,0,0,0.1,0,0.1l-3.1,0h0c-8.5,0.4-16.3,2.6-23.2,6.3c-2.7-1.7-10.1-6-19.6-7.4
			c-11.1-1.6-27.1,0.3-40.8,19.1c-7.2,9.9-18.3,34.9-12.6,91.8c3.4,33.8,12,65.6,20,74.5c3.8,5.4,11,14.8,22.5,16.1
			c3.9,0.5,8.2,0,12.7-2c0,0,0.1-0.1,0.1-0.1c5.4,5.2,13.8,10.1,27,11.7c0.5,0.1,1.1,0.1,1.6,0.2c12.5,1.2,21.3-1.1,27.5-4.5
			c4.1,3.2,8.4,5.1,12.8,5.6c2.2,0.3,4.5,0.2,6.7-0.2c16.6-3,28.4-23.2,28.9-24c13.4-22.9,24.7-54.5,33.5-94.1
			C463.6,345.6,468,303.5,437.6,290.9z M452.2,368.2c-8.7,39-19.7,70-32.8,92.4c0,0.1-1.4,2.5-3.9,5.7c-4.3,5.7-11.9,13.8-20.7,15.3
			c-4.5,0.8-8.8-0.2-13-3c3.2-2.7,5.2-5.5,6.3-7.5c0.9-1.5,1.2-2.5,1.3-2.7c0.6-1.6-0.2-3.4-1.8-4c-1.6-0.6-3.4,0.2-4,1.8
			c0,0-0.4,1.1-1.5,2.7c-3.2,4.7-12,13.6-32.6,11.6c-19.9-1.9-27.6-12-30.5-18c-1.2-2.5-1.6-4.3-1.6-4.6c-0.3-1.7-1.9-2.8-3.6-2.5
			c-1.7,0.3-2.8,1.9-2.5,3.6c0,0.2,0.2,1,0.6,2.2c0.6,2,1.9,5.2,4.2,8.6c0.3-0.1,0.6-0.2,0.8-0.3l-0.4,1c-0.2-0.2-0.3-0.4-0.5-0.7
			c-12.2,4-20.9-5.5-24.3-10.1c-1-1.3-1.5-2.3-1.5-2.3L290,457l-0.3-0.3c-1.8-1.9-3.9-5.7-5.9-11.1c-5-12.9-10.1-34.8-12.7-60
			c-2.2-22.1-1.9-41.8,0.7-57.5c2.1-12.8,5.7-23.1,10.8-30c18.3-25.3,41.1-16.2,49.5-11.6c-2,1.5-3.8,3.1-5.6,4.8
			c-13.7,13.8-20.5,36-20.3,65.9l0,0.1c0.8,16.1,4.9,35,5,35.2c0.3,1.4,1.4,2.3,2.7,2.5c0.3,0,0.7,0,1.1-0.1
			c1.7-0.4,2.8-2.1,2.4-3.8c-0.2-1.1-0.6-2.8-1-4.8c-1.4-7.2-3.3-19.3-3.9-29.3c-0.2-28.2,6-48.8,18.4-61.3
			c5.1-5.2,11.3-8.8,18.3-10.9c4.6-1.4,9.6-2.1,14.9-2.1c31.6,0,40.8,31.3,41.1,32.6c0.5,1.7,2.2,2.7,3.9,2.2
			c1.7-0.5,2.7-2.2,2.2-3.9c-0.1-0.2-2.9-10-10.6-19.5c5.7-1.9,17.9-4.2,34.2,2.6C461.4,307.5,457.1,346.1,452.2,368.2z"/>
	</g>
	<g>
		<path class="st20" d="M289.7,456.7l0.3,0.3l0.2,0.4c0,0,0.6,1,1.5,2.3l-8-14.1C285.8,451,287.9,454.8,289.7,456.7z"/>
		<path class="st6" d="M316.9,469.5c-0.3,0.1-0.6,0.2-0.8,0.3c0.2,0.2,0.3,0.4,0.5,0.7L316.9,469.5z"/>
	</g>
	<g>
		<path class="st20" d="M316.9,469.5c-0.3,0.1-0.6,0.2-0.8,0.3c0.2,0.2,0.3,0.4,0.5,0.7L316.9,469.5z"/>
	</g>
	<path class="st6" d="M345.7,286.1"/>
	<g>
		<path class="st21" d="M464,426.4c-13.8,1.9-22.1-10.8-22.9-12.2c0.8,9.3,8.6,16.7,18.1,16.7c6.3,0,11.8-3.2,15.1-8.1
			C474.3,422.9,472.2,425.3,464,426.4z"/>
		<path class="st22" d="M441,414c0,0,0,0,0.1,0.1C441.1,414.1,441.1,414.1,441,414L441,414z"/>
		<polygon class="st22" points="474.4,422.8 474.4,422.8 474.4,422.8 		"/>
		<path class="st22" d="M459.2,394.4c-10.1,0-18.2,8.2-18.2,18.2c0,0.5,0,1,0.1,1.4c0,0,0,0.1,0,0.1c0.9,1.4,9.2,14.1,22.9,12.2
			c8.2-1.1,10.3-3.5,10.3-3.6c0,0,0,0,0,0c2-2.9,3.1-6.4,3.1-10.2C477.5,402.6,469.3,394.4,459.2,394.4z"/>
	</g>
	<g>
		<path class="st21" d="M554.1,422.1c0.4,5.3,4.8,9.4,10.2,9.4c3.7,0,7-2,8.8-5C562.1,432.6,554.3,422.4,554.1,422.1z"/>
		<path class="st23" d="M554.1,422.1C554.1,422.1,554.1,422.1,554.1,422.1C554.1,422.1,554.1,422.1,554.1,422.1L554.1,422.1z"/>
		<path class="st23" d="M573,426.5C573,426.5,573,426.6,573,426.5C573,426.6,573,426.6,573,426.5L573,426.5z"/>
		<path class="st22" d="M564.3,411.1c-5.6,0-10.2,4.6-10.2,10.2c0,0.3,0,0.5,0,0.8c0,0,0,0,0,0c0.2,0.3,8.1,10.5,18.9,4.4
			c0,0,0,0,0,0c0.9-1.5,1.4-3.3,1.4-5.2C574.5,415.7,569.9,411.1,564.3,411.1z"/>
	</g>
	<g>
		<path class="st20" d="M654.4,429.7c-8.7-4.7-13.7-13.1-13.8-13.2C640.7,416.6,645.7,425.4,654.4,429.7z"/>
		<path class="st20" d="M564.3,431.6c5.6,0,10.2-4.6,10.2-10.2c0-5.6-4.6-10.2-10.2-10.2c-5.6,0-10.2,4.6-10.2,10.2
			C554,427,558.6,431.6,564.3,431.6z"/>
		<path class="st20" d="M459.2,394.4c-10.1,0-18.2,8.2-18.2,18.2s8.2,18.2,18.2,18.2c10.1,0,18.2-8.2,18.2-18.2
			S469.3,394.4,459.2,394.4z"/>
		<path class="st24" d="M556,345.3c0,13.9-11.3,25.2-25.2,25.2c-13.9,0-25.2-11.3-25.2-25.2c0-2.9,0.5-5.7,1.4-8.3l-104.6,10.4v9.5
			c2.5-1.6,5.4-2.5,8.6-2.5c8.9,0,16.2,7.3,16.2,16.2c0,8.9-7.3,16.2-16.2,16.2c-3.1,0-6.1-0.9-8.6-2.5v103.7l73.7-8.1
			c0.3-12.2,10.2-22,22.5-22c10.5,0,19.4,7.3,21.8,17.1l74.3-8.1c1.5-5.2,6.3-9,12-9c4.7,0,8.8,2.6,10.9,6.4l48.9-5.4v-13.8
			c-17.7-0.4-32-14.9-32-32.7c0-17.8,14.3-32.3,32-32.7v-58.7l-113.9,11.3C554.7,336.3,556,340.6,556,345.3z M459.2,436.8
			c-13.4,0-24.2-10.9-24.2-24.2s10.9-24.2,24.2-24.2c13.4,0,24.2,10.9,24.2,24.2S472.6,436.8,459.2,436.8z M619.1,336.5
			c10.6,0,19.2,8.6,19.2,19.2c0,10.6-8.6,19.2-19.2,19.2c-10.6,0-19.2-8.6-19.2-19.2C599.8,345.2,608.5,336.5,619.1,336.5z
			 M580.5,421.3c0,8.9-7.3,16.2-16.2,16.2c-8.9,0-16.2-7.3-16.2-16.2c0-8.9,7.3-16.2,16.2-16.2C573.2,405.1,580.5,412.4,580.5,421.3
			z"/>
		<path class="st6" d="M671.4,315.7C671.4,315.6,671.3,315.6,671.4,315.7c0,0,0,0.1,0.1,0.1C671.4,315.7,671.4,315.7,671.4,315.7z"
			/>
		<polygon class="st6" points="506.9,337 402.3,347.4 506.9,337 		"/>
		<polygon class="st6" points="645.6,317.2 645.6,317.2 585.4,323.2 		"/>
		<path class="st21" d="M640.6,416.5c1.9,12.7,12.6,22.5,25.7,22.8v-6.7c-4.5,0.1-8.5-1.1-12-3C645.7,425.4,640.7,416.6,640.6,416.5
			z"/>
		<path class="st22" d="M498.4,464.1c-8.7,0-15.8,6.8-16.4,15.3l32.2-3.5C512.2,469.1,505.9,464.1,498.4,464.1z"/>
		<path class="st11" d="M564.3,405.1c-8.9,0-16.2,7.3-16.2,16.2c0,8.9,7.3,16.2,16.2,16.2c8.9,0,16.2-7.3,16.2-16.2
			C580.5,412.4,573.2,405.1,564.3,405.1z M564.3,431.6c-5.6,0-10.2-4.6-10.2-10.2c0-5.6,4.6-10.2,10.2-10.2
			c5.6,0,10.2,4.6,10.2,10.2C574.5,427,569.9,431.6,564.3,431.6z"/>
		<path class="st22" d="M601.7,466.3l8.6-0.9c-1.1-0.8-2.4-1.2-3.8-1.2C604.6,464.1,602.9,464.9,601.7,466.3z"/>
		<path class="st21" d="M619.1,369c4.7,0,8.8-2.5,11.2-6.2c-17.1,8.4-24.4-7-24.4-7C605.8,363,611.8,369,619.1,369z"/>
		<path class="st11" d="M459.2,388.4c-13.4,0-24.2,10.9-24.2,24.2s10.9,24.2,24.2,24.2c13.4,0,24.2-10.9,24.2-24.2
			S472.6,388.4,459.2,388.4z M459.2,430.8c-10.1,0-18.2-8.2-18.2-18.2s8.2-18.2,18.2-18.2c10.1,0,18.2,8.2,18.2,18.2
			S469.3,430.8,459.2,430.8z"/>
		<path class="st21" d="M410.9,380.9c3,0,5.7-1.3,7.5-3.3c-10,4.2-16.1-5.3-16.1-5.3v4C404.1,379.1,407.3,380.9,410.9,380.9z"/>
		<path class="st11" d="M606.5,464.1c1.4,0,2.7,0.5,3.8,1.2l7.1-0.8c-2.1-3.8-6.2-6.4-10.9-6.4c-5.7,0-10.4,3.8-12,9l7.1-0.8
			C602.9,464.9,604.6,464.1,606.5,464.1z"/>
		<path class="st21" d="M511.6,346.9c0.8,9.9,9.1,17.6,19.2,17.6c6.1,0,11.5-2.9,15.1-7.3C522.4,369.1,511.9,347.7,511.6,346.9z"/>
		<polygon class="st6" points="510.2,336.7 506.9,337 506.9,337 		"/>
		<path class="st24" d="M443.8,337.3l66.4-6.6l4.2-0.4l5.1-0.5l19.4-1.9l5.1-0.5l4.2-0.4l37.4-3.7l60.1-6l-72-11.2
			C541.5,313.8,483.9,327.7,443.8,337.3z"/>
		<polygon class="st6" points="443.7,337.3 443.8,337.3 443.8,337.3 		"/>
		<polygon class="st6" points="443.8,337.3 510.2,330.7 443.8,337.3 		"/>
		<path class="st22" d="M418.4,377.6C418.4,377.6,418.4,377.6,418.4,377.6c1.7-1.8,2.7-4.2,2.7-6.9c0-5.6-4.6-10.2-10.2-10.2
			c-3.6,0-6.7,1.9-8.6,4.6v7.2C402.3,372.3,408.5,381.8,418.4,377.6z"/>
		<path class="st23" d="M418.4,377.6L418.4,377.6C418.4,377.6,418.4,377.6,418.4,377.6C418.4,377.6,418.4,377.6,418.4,377.6z"/>
		<path class="st22" d="M513.7,336.4c-1.4,2.7-2.2,5.7-2.2,8.9c0,0.5,0,1.1,0.1,1.6c0,0,0,0,0,0c0.4,0.8,10.8,22.1,34.2,10.3
			c0,0,0,0,0,0c2.6-3.3,4.2-7.4,4.2-11.9c0-4.6-1.6-8.8-4.3-12.1L513.7,336.4z"/>
		<path class="st22" d="M545.8,357.2L545.8,357.2C545.8,357.2,545.8,357.2,545.8,357.2C545.8,357.2,545.8,357.2,545.8,357.2z"/>
		<path class="st22" d="M511.5,346.9C511.5,346.9,511.6,346.9,511.5,346.9C511.6,346.9,511.6,346.9,511.5,346.9L511.5,346.9z"/>
		<path class="st22" d="M640.3,412.6c0,1.3,0.1,2.6,0.3,3.9c0,0,0,0,0,0c0,0.1,5.1,8.5,13.8,13.2c3.4,1.7,7.5,2.7,12,2.2v-46
			C651.9,386.3,640.3,398.1,640.3,412.6z"/>
		<path class="st22" d="M654.4,429.7c3.4,1.8,7.5,3.1,12,3v-0.8C661.8,432.4,657.8,431.4,654.4,429.7z"/>
		<polygon class="st25" points="640.6,416.5 640.6,416.5 640.6,416.5 		"/>
		<path class="st22" d="M630.2,362.8C630.2,362.8,630.2,362.8,630.2,362.8c1.3-2,2-4.4,2-7c0-7.3-5.9-13.2-13.2-13.2
			c-7.3,0-13.2,5.9-13.2,13.2C605.8,355.8,613.2,371.1,630.2,362.8z"/>
		<path class="st6" d="M630.3,362.8L630.3,362.8C630.2,362.8,630.2,362.8,630.3,362.8C630.2,362.8,630.3,362.8,630.3,362.8z"/>
		<path class="st22" d="M520.9,480.7l73.5-7.3c-0.2-0.9-0.3-1.9-0.3-2.9c0-1.2,0.2-2.4,0.5-3.5l-74.3,8.1c0.4,1.7,0.7,3.5,0.7,5.4
			C520.9,480.6,520.9,480.7,520.9,480.7z"/>
		<path class="st22" d="M476.4,485.1c-0.3-1.5-0.5-3-0.5-4.6c0-0.2,0-0.3,0-0.5l-73.7,8.1v4.3L476.4,485.1z"/>
		<path class="st22" d="M619,470.6c0,0.1,0,0.3,0,0.4l47.4-4.7v-7.1l-48.9,5.4C618.4,466.3,619,468.4,619,470.6z"/>
		<path class="st26" d="M482,482.6c0,1.4,0.2,2.7,0.5,4l32.4-3.2c0-0.3,0-0.5,0-0.7c0-1.6-0.2-3.2-0.7-4.7l-32.2,3.5
			C482,481.8,482,482.2,482,482.6z"/>
		<path class="st25" d="M600,470.6c0,0.8,0.2,1.6,0.4,2.3l12.4-1.2c0.1-0.3,0.1-0.7,0.1-1c0-2.2-1.1-4.1-2.7-5.2l-8.6,0.9
			C600.7,467.4,600,468.9,600,470.6z"/>
		<path class="st11" d="M672.3,317.7c0-0.1,0-0.3,0-0.4c0-0.1,0-0.1-0.1-0.2c0-0.1-0.1-0.2-0.1-0.4c0-0.1-0.1-0.1-0.1-0.2
			c-0.1-0.1-0.1-0.2-0.2-0.3c0-0.1-0.1-0.1-0.1-0.2c-0.1-0.1-0.2-0.2-0.3-0.3c0,0-0.1-0.1-0.1-0.1c-0.1-0.1-0.3-0.2-0.4-0.3
			c0,0,0,0-0.1,0c-0.2-0.1-0.3-0.2-0.5-0.2c-0.1,0-0.1,0-0.2-0.1c-0.1,0-0.2-0.1-0.3-0.1l-95.9-14.9c-0.4-0.1-0.8,0-1.2,0
			c-58.5,14.1-169.9,40.9-173.9,41.6c-0.1,0-0.1,0-0.2,0c-0.1,0-0.2,0-0.3,0.1c-0.1,0-0.2,0.1-0.3,0.1c-0.1,0-0.2,0.1-0.3,0.1
			c-0.1,0-0.2,0.1-0.2,0.1c-0.1,0.1-0.2,0.1-0.2,0.2c-0.1,0.1-0.1,0.1-0.2,0.2c-0.1,0.1-0.1,0.1-0.2,0.2c-0.1,0.1-0.1,0.1-0.2,0.2
			c-0.1,0.1-0.1,0.2-0.2,0.2c0,0.1-0.1,0.2-0.1,0.2c0,0.1-0.1,0.2-0.1,0.3c0,0.1-0.1,0.2-0.1,0.3c0,0.1,0,0.2-0.1,0.3
			c0,0.1,0,0.2,0,0.3c0,0.1,0,0.1,0,0.1v18.9v14.2v117.9c0,0.8,0.4,1.7,1,2.2c0.6,0.5,1.3,0.8,2,0.8c0.1,0,0.2,0,0.3,0l78.9-7.8
			l3.3-0.3l3.4-0.3l28.2-2.8l3.4-0.3l3.3-0.3l77.5-7.7l4.2-0.4l11-1.1l4.3-0.4l52.6-5.2c1.5-0.2,2.7-1.4,2.7-3V445v-3v-3v-52.5v-3
			v-3v-62.4C672.3,317.8,672.3,317.8,672.3,317.7z M573.6,306.1l72,11.2h0l-60.1,6l-37.4,3.7l-4.2,0.4l-5.1,0.5l-19.4,1.9l-5.1,0.5
			l-4.2,0.4l-66.4,6.6C483.9,327.7,541.5,313.8,573.6,306.1z M545.8,357.2C545.8,357.2,545.8,357.2,545.8,357.2
			c-3.6,4.5-9,7.3-15.1,7.3c-10.1,0-18.3-7.8-19.2-17.6c0,0,0,0,0,0l0,0c0-0.5-0.1-1.1-0.1-1.6c0-3.2,0.8-6.3,2.2-8.9l32-3.2
			c2.7,3.3,4.3,7.5,4.3,12.1C550,349.8,548.4,353.9,545.8,357.2L545.8,357.2z M402.3,372.3v-7.2c1.8-2.8,5-4.6,8.6-4.6
			c5.6,0,10.2,4.6,10.2,10.2c0,2.6-1,5-2.7,6.9l0,0c0,0,0,0,0,0c-1.9,2.1-4.6,3.3-7.5,3.3c-3.6,0-6.7-1.9-8.6-4.6V372.3z
			 M514.9,481.3l-32.4,3.2c-0.3-1.3-0.5-2.6-0.5-4c0-0.4,0-0.8,0.1-1.2c0.6-8.5,7.7-15.3,16.4-15.3c7.4,0,13.7,5,15.8,11.8
			c0.4,1.5,0.7,3.1,0.7,4.7C514.9,480.8,514.9,481.1,514.9,481.3z M666.3,431.9v0.8v6.7c-13.1-0.4-23.9-10.2-25.7-22.8l0,0l0,0
			c-0.2-1.3-0.3-2.6-0.3-3.9c0-14.5,11.6-26.3,26-26.7V431.9z M666.3,379.9c-17.7,0.4-32,14.9-32,32.7c0,17.8,14.3,32.3,32,32.7
			v13.8v7.1L619,471c0-0.1,0-0.3,0-0.4c0-2.2-0.6-4.2-1.6-6l-7.1,0.8c1.6,1.2,2.7,3.1,2.7,5.2c0,0.4,0,0.7-0.1,1l-12.4,1.2
			c-0.3-0.7-0.4-1.5-0.4-2.3c0-1.6,0.6-3.2,1.6-4.3l-7.1,0.8c-0.3,1.1-0.5,2.3-0.5,3.5c0,1,0.1,1.9,0.3,2.9l-73.5,7.3
			c0-0.1,0-0.1,0-0.2c0-1.8-0.2-3.6-0.7-5.4c-2.4-9.8-11.3-17.1-21.8-17.1c-12.2,0-22.2,9.8-22.5,22c0,0.2,0,0.3,0,0.5
			c0,1.6,0.2,3.1,0.5,4.6l-74.1,7.3v-4.3V384.5c2.5,1.6,5.4,2.5,8.6,2.5c8.9,0,16.2-7.3,16.2-16.2c0-8.9-7.3-16.2-16.2-16.2
			c-3.1,0-6.1,0.9-8.6,2.5v-9.5L506.9,337l3.3-0.3l-3.3,0.3c-0.9,2.6-1.4,5.4-1.4,8.3c0,13.9,11.3,25.2,25.2,25.2
			c13.9,0,25.2-11.3,25.2-25.2c0-4.7-1.3-9-3.5-12.8l113.9-11.3V379.9z"/>
		<path class="st11" d="M619.1,375c10.6,0,19.2-8.6,19.2-19.2c0-10.6-8.6-19.2-19.2-19.2c-10.6,0-19.2,8.6-19.2,19.2
			C599.8,366.4,608.5,375,619.1,375z M619.1,342.5c7.3,0,13.2,5.9,13.2,13.2c0,2.6-0.8,5-2,7l0,0c0,0,0,0,0,0
			c-2.3,3.7-6.5,6.2-11.2,6.2c-7.3,0-13.2-5.9-13.2-13.2C605.8,348.5,611.8,342.5,619.1,342.5z"/>
	</g>
	<path class="st27" d="M275.9,364.9l-27-1.7l6.4,14.1c0.6,1.2,0.3,2.7-0.6,3.7c-0.4,0.4-0.8,0.7-1.3,0.8c-0.7,0.3-1.6,0.2-2.3-0.1
		l-25.7-10.9l-15.6,24.8c-0.8,1.2-2.2,1.8-3.6,1.5c-1.4-0.3-2.4-1.5-2.5-2.9l-1.4-14.2l-21.5,16.4c0,0-0.5,57,50.5,64.9
		c34.3,5.3,50.1-10.5,54.1-15.6c11.2-15,15.2-35.1,8.8-54.2C290.6,380.8,284.1,371.7,275.9,364.9z"/>
	<path class="st28" d="M264.7,357.6c-8.8-4.4-18.7-6.6-28.8-6.2C246,350.9,255.9,353.2,264.7,357.6z"/>
	<path class="st28" d="M187.8,379.6c-0.9,1.5-1.8,3.1-2.6,4.7L187.8,379.6z"/>
	<path class="st29" d="M231.7,460.4c-52.4-7.9-51.8-64.9-51.8-64.9c-2.6,10.4-2.4,21.7,1.4,32.6c10.6,30.9,45.1,47.6,76.8,37.3
		c12.1-3.9,22.1-11.3,29.3-20.6C283.2,449.9,267,465.7,231.7,460.4z"/>
	<path class="st19" d="M240.9,357.7c0.7-1,1.8-1.5,2.9-1.4l20.8,1.3c-8.8-4.4-18.7-6.6-28.8-6.2c-1.4,0.1-2.9,0.2-4.3,0.3
		c-2.7,0.3-5.4,0.8-8,1.5c-0.9,0.2-1.9,0.5-2.8,0.8c-0.4-0.8-1.3-4.1-1.7-6.4c-0.4-3.6-0.7-7.7,0.2-11l-5.9,0.7
		c-0.3,4.6,0.5,9.1,1.3,11.6c0,0,1.1,4.1,2.1,6.4c-10.3,4-18.7,10.6-25,18.7c-1.4,1.8-2.6,3.6-3.8,5.5l-2.6,4.7
		c-0.1,0.2-0.2,0.5-0.4,0.7l18.1-13.9c1-0.7,2.2-0.9,3.3-0.4c1.1,0.5,1.9,1.5,2,2.7l1,10.5l11.8-18.7l0.2-0.3
		c0.9-1.4,2.6-1.9,4.1-1.3l20.5,8.7l-5.2-11.4C240.2,359.9,240.3,358.7,240.9,357.7z"/>
	<path class="st11" d="M300.5,389.5c-4.1-12.2-11.5-22.5-20.8-30.1c-0.2-0.2-0.5-0.4-0.7-0.6c-12.5-9.8-28.3-15-44.5-14
		c-3.3,0.2-6.7,0.6-10,1.3c-0.1-3.5,1.3-8.9,2.5-12.3c0.4-1.1,0.2-2.3-0.5-3.2c-0.7-0.9-1.8-1.4-3-1.2l-13.5,1.7
		c-1.4,0.2-2.6,1.2-2.8,2.6c-1.4,7.1,0.5,14.5,1.6,17.9c-2.1,1.1-4.1,2.2-6.1,3.5c-13.8,8.9-23.6,22.7-27.8,38.1
		c-0.1,0.3-0.2,0.6-0.2,0.9c-0.9,3.6-1.6,7.4-1.8,11.2c-0.7,8.5,0.3,17.2,3.2,25.8c11.5,34.3,48.8,52.9,83.1,41.4
		c10.9-3.7,20.3-10,27.6-17.9C302.2,437.7,308.3,412.9,300.5,389.5z M187.8,379.6c1.1-1.9,2.4-3.7,3.8-5.5
		c6.3-8.2,14.8-14.8,25-18.7c-1-2.3-2.1-6.4-2.1-6.4c-0.8-2.6-1.6-7.1-1.3-11.6l5.9-0.7c-0.9,3.3-0.6,7.4-0.2,11
		c0.4,2.3,1.3,5.6,1.7,6.4c0.9-0.3,1.9-0.6,2.8-0.8c2.7-0.7,5.4-1.2,8-1.5c1.4-0.2,2.9-0.3,4.3-0.3c10.1-0.4,20,1.8,28.8,6.2
		l-20.8-1.3c-1.2-0.1-2.3,0.5-2.9,1.4c-0.7,1-0.8,2.2-0.3,3.2l5.2,11.4l-20.5-8.7c-1.5-0.6-3.2-0.1-4.1,1.3l-0.2,0.3L209.3,384
		l-1-10.5c-0.1-1.2-0.9-2.2-2-2.7c-1.1-0.5-2.4-0.3-3.3,0.4L184.9,385c0.1-0.2,0.2-0.5,0.4-0.7C186.1,382.7,186.9,381.1,187.8,379.6
		z M285.4,445.8c-6.9,9.3-16.7,16.6-28.5,20.6c-30.9,10.3-64.4-6.4-74.8-37.3c-3.7-10.9-3.9-22.2-1.4-32.6l21.5-16.4l1.4,14.2
		c0.1,1.4,1.2,2.6,2.5,2.9c1.4,0.3,2.8-0.3,3.6-1.5l15.6-24.8l25.7,10.9c0.8,0.3,1.6,0.3,2.3,0.1c0.5-0.2,0.9-0.4,1.3-0.8
		c1-1,1.2-2.4,0.6-3.7l-6.4-14.1l27,1.7c8.2,6.8,14.7,15.9,18.3,26.7C300.6,410.7,296.7,430.8,285.4,445.8z"/>
	<path class="st30" d="M320.7,493.9c4.3,0,8.6,0.1,13.1,0.1c3.2,0,6.3,0,9.4,0.1c0.9-4.1,1.6-10.2,1.1-17.4
		c-7-1.3-14.3-2.7-21.9-4.1c0.4,4.3,0.3,8.3,0,11.6C322,488.6,321.2,491.9,320.7,493.9z"/>
	<path class="st30" d="M276.8,493.4c4.9,0.1,10,0.1,15.2,0.2c0.7-3.5,1.2-8.3,0.7-13.7c-0.1-1.7,1.1-3.1,2.7-3.2
		c1.7-0.1,3.1,1.1,3.2,2.7c0.3,3.5,0.2,6.8,0,9.7c-0.1,1.7-0.4,3.2-0.6,4.6c5.3,0.1,10.8,0.1,16.4,0.2c0.1-0.4,3.1-9.8,1.8-22.4
		c-11.9-2.2-24.3-4.5-36.8-6.8c0.7,5.4,0.7,10.4,0.3,14.6C279.1,486.8,277.3,491.9,276.8,493.4z"/>
	<path class="st30" d="M252.4,493c6,0.1,12.1,0.2,18.5,0.3c-0.1-0.6-0.1-1.2,0.2-1.7c0-0.1,4.7-12,2.2-28.1
		c-6.3-1.2-12.7-2.3-19-3.4c0.5,7.8,0.3,14.8-0.2,20.9C253.6,485.6,253,489.6,252.4,493z"/>
	<path class="st30" d="M202.7,491.7c5.4,0.2,11,0.3,16.9,0.5c3.9-18.7,2-32.7,2-32.8c-0.2-1.6,0.9-3.2,2.5-3.4
		c1.6-0.2,3.2,0.9,3.4,2.5c0.1,0.5,1.2,8.4,0.1,20.4c-0.4,4.1-1,8.6-2,13.5c6.6,0.2,13.4,0.3,20.6,0.5c1.5-7.6,3-19.7,1.8-33.9
		c-14.4-2.6-28.5-5.1-42-7.4c0.4,8,0.1,15.3-0.5,21.4C204.8,482.9,203.2,489.8,202.7,491.7z"/>
	<path class="st30" d="M349.3,494.1c8.4,0,16.2,0.1,23.5,0.1c0.1-1.2,0.2-2.6,0-4.1c-0.2-1.6,1-3.1,2.6-3.3c1.6-0.2,3.1,1,3.3,2.6
		c0.2,1.7,0.2,3.3,0.1,4.8c14.2,0.1,26.3,0.2,36.5,0.2l0,0l0-0.2c-0.8-1.9-8.9-5.3-16.8-7.1c-11.6-2.3-28.4-5.6-48.3-9.3
		c0.2,3.6,0.1,6.9-0.1,9.9C350,490.1,349.7,492.2,349.3,494.1z"/>
	<path class="st31" d="M276.8,493.4c-0.1,0.2-0.1,0.4-0.2,0.4c-0.6,1.5-2.4,2.3-3.9,1.6c-1-0.4-1.6-1.2-1.8-2.2
		c-6.4-0.1-12.5-0.2-18.5-0.3c-0.6,3-1.1,5.4-1.6,7.2c13.2,0,26.5-0.1,39.4-0.1c0.2-0.6,1.1-2.9,1.7-6.4
		C286.8,493.6,281.7,493.5,276.8,493.4z"/>
	<path class="st31" d="M225.7,492.4c-0.5,2.5-1.1,5.1-1.8,7.8c6.8,0,13.7,0,20.7,0c0.4-1.5,1.1-4,1.7-7.3
		C239.1,492.7,232.3,492.6,225.7,492.4z"/>
	<path class="st31" d="M349.3,494.1c-0.4,2.3-0.9,4.1-1.3,5.5c8.4-0.1,16.2-0.2,23.4-0.3c0.4-0.9,1.1-2.7,1.4-5
		C365.5,494.2,357.7,494.1,349.3,494.1z"/>
	<path class="st31" d="M378.8,494.3c-0.2,1.9-0.5,3.5-1,4.9c7.6-0.1,14.3-0.2,19.8-0.3c8.1-0.4,16.6-2.4,17.7-4.1l0-0.3
		C405.1,494.4,393,494.3,378.8,494.3C378.8,494.3,378.8,494.3,378.8,494.3z"/>
	<path class="st31" d="M333.8,494c-4.4,0-8.8-0.1-13.1-0.1c-0.3,1.1-0.5,1.8-0.6,1.9c-0.5,1.6-2.2,2.4-3.8,1.9
		c-1.6-0.5-2.4-2.2-1.9-3.8c0,0,0,0,0,0c-5.6,0-11.1-0.1-16.4-0.2c-0.5,2.6-1,4.8-1.5,6.3c15.8-0.1,31.1-0.2,45.1-0.4
		c0.2-0.6,0.9-2.6,1.5-5.6C340.1,494,337,494,333.8,494z"/>
	<g>
		<path class="st32" d="M76.9,461.4c-14-2.8-21.9-7.2-28.6-11.9l-5,9c10.2,7.8,26.4,10,32.9,10.6l0.2-1.7l0.5-5.6L76.9,461.4z"/>
		<path class="st30" d="M109,486.4c1.9-9.3,3.6-23.1,2.1-39.2c-0.2-1.6,1.1-3.1,2.7-3.3c1.7-0.2,3.1,1.1,3.3,2.7
			c0.9,9.6,0.7,18.3,0,25.8c-0.5,5.5-1.2,10.4-2,14.5c4.3,0.4,9.1,0.8,14.5,1.2c1.3-5,5.5-24.2,2.1-48.6c-5.4-0.7-9.9-1.3-13.2-1.6
			c-10-0.9-33.4-0.3-35.6,24.3c-0.1,1.5-0.1,2.4-0.1,2.4l0,0.4l-0.1,0.4c0,0-0.2,0.9-0.3,2.4c-0.6,6.4,0.6,11.4,2.7,15.4
			C88,483.8,94.8,485,109,486.4z"/>
		<path class="st31" d="M82.5,475.4c0.2,2.7,1.6,5.8,2.7,7.9c0,0-0.1,0-0.1,0c0.4,0.7,0.7,1.3,1.2,1.9c0.1,0.1,0.1,0.2,0.1,0.2l0,0
			c4.9,7,13.2,10.3,20,11.7c0.6-2,1.7-5.7,2.6-10.6C90,483.7,82.5,475.4,82.5,475.4z"/>
		<path class="st30" d="M135.6,488.6c4.4,0.3,9.2,0.6,14.4,0.9c1.6-6.2,4.6-20.9,2.8-39c-0.2-1.7,1-3.1,2.7-3.3
			c1.6-0.2,3.1,1,3.3,2.7c0.9,8.6,0.7,16.3,0.1,22.9c-0.7,7.4-1.9,13.2-2.8,17c5.9,0.3,12.2,0.6,19,0.9c4.3-21.9,2.2-38.1,2.2-38.3
			c-0.2-1.6,0.9-3.1,2.5-3.3c1.6-0.2,3.1,0.9,3.3,2.5c0.1,0.6,1.3,10.1,0.1,24.3c-0.4,4.6-1.1,9.7-2.1,15.1
			c4.9,0.2,10.1,0.4,15.6,0.6c0-0.3,0-0.5,0.1-0.8c0-0.2,4.5-17.3,3.3-40.2c-24.5-4.2-46.3-7.8-62.2-10.1
			c1.5,11.8,1.3,22.3,0.6,30.6C137.7,479.2,136.4,485.3,135.6,488.6z"/>
		<path class="st31" d="M156.1,489.8c-0.7,2.9-1.3,4.6-1.4,4.8c-0.5,1.6-2.3,2.4-3.8,1.8c-1.6-0.5-2.4-2.3-1.8-3.8
			c0,0,0.4-1.2,0.9-3.2c-5.2-0.3-9.9-0.6-14.4-0.9c-0.4,1.5-0.6,2.5-0.7,2.6c-0.5,1.6-2.2,2.5-3.7,2c-1.6-0.5-2.5-2.2-2-3.7
			c0,0,0.1-0.5,0.4-1.3c-5.4-0.4-10.2-0.8-14.5-1.2c-0.9,4.8-2,8.6-2.7,11c0.3,0,0.5,0.1,0.8,0.1c10.7,0.9,32.6,1.5,59.9,1.8
			c0.8-3.1,1.5-6.2,2.1-9.2C168.3,490.4,162,490.1,156.1,489.8z"/>
		<g>
			<path class="st11" d="M152.8,450.4c1.8,18.2-1.2,32.8-2.8,39c-0.5,2-0.9,3.1-0.9,3.2c-0.5,1.6,0.3,3.3,1.8,3.8
				c1.6,0.5,3.3-0.3,3.8-1.8c0.1-0.2,0.7-1.9,1.4-4.8c0.9-3.8,2.1-9.7,2.8-17c0.6-6.6,0.7-14.4-0.1-22.9c-0.2-1.6-1.6-2.9-3.3-2.7
				C153.8,447.3,152.6,448.8,152.8,450.4z"/>
		</g>
	</g>
	<path class="st31" d="M202.7,491.7c-0.1,0.3-0.1,0.5-0.1,0.5c-0.4,1.6-2.1,2.6-3.7,2.1c-1.3-0.4-2.2-1.5-2.2-2.9
		c-5.4-0.2-10.6-0.4-15.6-0.6c-0.6,2.9-1.2,5.9-2,9c12.1,0.1,25.1,0.2,38.5,0.2c0.8-2.7,1.4-5.4,2-7.9
		C213.7,492.1,208.1,491.9,202.7,491.7z"/>
	<g>
		<g>
			<path class="st33" d="M893.2,383c-0.6-6.5-1.1-13.6-1.7-21c-22.2,3.6-44.7,5.5-66.9,5.6c-0.8,0-1.6,0-2.5,0
				c-24.8,0-43.8-2.2-55.2-3.9c0.5,38.6,4.4,73.9,16.3,82.9c29,22,73.2,13,80,11.7c0,0,0,0,0,0c4.9-1.2,9.7-2.7,14.5-4.6
				C894.6,434.9,894.8,402.3,893.2,383z"/>
			<path class="st34" d="M882.6,245c-3.3,2.3-7.9,4.4-13.8,6.1c-11.6,3.4-27,5.3-43.3,5.3c-16.3,0-31.7-1.9-43.3-5.3
				c-3.3-1-6.1-2-8.6-3.2c-0.4-0.2-0.8-0.4-1.2-0.6c-1,10.3-5.8,61.9-5.6,110.3c11.1,1.7,30.3,4,55.2,4c0,0,0.1,0,0.1,0
				c22.9,0,46-1.9,68.9-5.6C887.7,315.7,884.2,267.1,882.6,245z"/>
			<path class="st35" d="M772.4,247.4c-1.8-0.9-3.3-1.8-4.6-2.8l-9,111.7c1.8,0.4,4.5,0.9,8.1,1.4
				C766.6,309.3,771.4,257.7,772.4,247.4z"/>
			<path class="st36" d="M825.5,250.4c15.7,0,30.5-1.8,41.6-5.1c9.1-2.7,13.5-5.7,14.9-8.1c0.3-0.6,0.5-1.1,0.5-1.6
				c0-0.9-0.5-1.9-1.5-2.8c-0.9-1-2.3-1.9-4.1-2.9c-8.7-4.6-26.9-8.9-51.4-8.9c-15.7,0-30.5,1.8-41.6,5.1
				c-7.2,2.1-11.5,4.5-13.6,6.5c-1.2,1.1-1.8,2.2-1.8,3c0,0,0,0.1,0,0.1c0,0.9,0.5,1.9,1.5,2.9C775.6,244.2,796,250.4,825.5,250.4z"
				/>
			<path class="st6" d="M884.7,232.8L884.7,232.8C884.7,232.8,884.7,232.8,884.7,232.8C884.7,232.8,884.7,232.8,884.7,232.8z"/>
			<path class="st37" d="M783.2,446.6c-11.9-9-15.8-44.3-16.3-82.9c-3.7-0.6-6.6-1.1-8.6-1.5l-1.8,22.1c-0.1,0.6-5.3,49.6,17.9,71.3
				c5.9,1.6,48.7,12.5,88.7,2.7C856.4,459.6,812.2,468.6,783.2,446.6z"/>
			<path class="st38" d="M835.6,473.3c10.1-1.5,18.8-4.8,25.6-8.3c-27.3,6-54.9,3.1-72,0.1c-0.5-0.1-1.1-0.2-1.6-0.3
				c8.6,4.6,21.1,9.3,37,9.3c0.1,0,0.2,0,0.4,0C828.6,474.1,832.2,473.8,835.6,473.3z"/>
			<path class="st6" d="M870.5,463.7c2.6-1.7,5.7-4,8.8-7.4c-1.2,1.1-18.2,16.5-44,20C848,474.9,860,470.5,870.5,463.7z"/>
			<path class="st6" d="M778.5,462.5c-2-1.3-3.9-2.7-5.6-4.2l0,0l-0.3-0.3c0,0,19.1,18.9,51.9,19.1c3.7,0,7.3-0.2,10.8-0.7
				C817.2,478.4,797.7,474.5,778.5,462.5z"/>
			<path class="st6" d="M879.3,456.4C879.4,456.3,879.4,456.3,879.3,456.4C879.4,456.3,879.4,456.3,879.3,456.4
				C879.4,456.3,879.3,456.3,879.3,456.4z"/>
			<polygon class="st39" points="863.2,458.3 863.2,458.3 863.2,458.3 			"/>
			<path class="st11" d="M899.2,382.5c0-0.1,0-0.2,0-0.2c-0.3-3.6-0.6-7.4-0.9-11.3c-0.3-3.6-0.6-7.4-0.9-11.2
				c-3.7-45.4-7.9-103.3-9.2-121.4c-0.3-3.5-0.4-5.6-0.4-5.7c0-0.4-0.1-0.8-0.3-1.1c0,0,0,0,0,0c-0.1-0.1-0.1-0.3-0.2-0.4
				c-2.6-4.3-8.8-7.9-18.4-10.7c-11.6-3.4-27-5.3-43.3-5.3c-16.3,0-31.7,1.9-43.3,5.3c-12.7,3.7-19.5,8.9-19.7,15.1c0,0,0,0,0,0.1
				l-9.9,122.4l-0.8,10.3l-0.8,10.3l-0.4,5.2c-0.3,2.3-5.6,52.8,19.9,76.4c0,0,0,0,0,0c0,0,0,0,0,0c0.9,0.8,20.4,19.8,54,19.9
				c0.1,0,0.3,0,0.4,0c4.2,0,8.3-0.3,12.1-0.9c12.3-1.6,24.3-6,35.1-12.9C886.9,456.9,903.6,434.7,899.2,382.5z M884.7,232.8
				C884.7,232.8,884.7,232.8,884.7,232.8C884.7,232.8,884.7,232.8,884.7,232.8L884.7,232.8z M768.5,235.7c0-0.8,0.6-1.9,1.8-3
				c2.2-2,6.4-4.4,13.6-6.5c11.1-3.3,25.8-5.1,41.6-5.1c24.5,0,42.7,4.3,51.4,8.9c1.8,1,3.2,1.9,4.1,2.9c1,1,1.5,1.9,1.5,2.8
				c0,0.5-0.2,1-0.5,1.6c-1.4,2.3-5.8,5.4-14.9,8.1c-11.1,3.3-25.8,5.1-41.6,5.1c-29.5,0-49.9-6.2-55.5-11.8
				C769,237.6,768.5,236.7,768.5,235.7C768.5,235.7,768.5,235.7,768.5,235.7z M767.8,244.6c1.3,1,2.8,1.9,4.6,2.8
				c0.4,0.2,0.8,0.4,1.2,0.6c2.5,1.2,5.3,2.2,8.6,3.2c11.6,3.4,27,5.3,43.3,5.3c16.3,0,31.7-1.9,43.3-5.3c5.9-1.7,10.5-3.8,13.8-6.1
				c1.6,22.1,5.2,70.7,8.4,111c-22.9,3.7-46,5.6-68.9,5.6c0,0-0.1,0-0.1,0c-24.9,0-44.1-2.3-55.2-4c-3.5-0.6-6.3-1.1-8.1-1.4
				L767.8,244.6z M835.6,473.3c-3.4,0.5-7,0.8-10.7,0.8c-0.1,0-0.3,0-0.4,0c-15.8-0.1-28.4-4.8-37-9.3c0.5,0.1,1.1,0.2,1.6,0.3
				c17.1,3.1,44.7,5.9,72-0.1C854.4,468.5,845.7,471.8,835.6,473.3z M877.7,453.8c-4.7,1.9-9.6,3.4-14.5,4.6c0,0,0,0,0,0
				c-40,9.8-82.9-1.1-88.7-2.7c-23.2-21.7-18-70.7-17.9-71.3l1.8-22.1c2,0.4,4.9,0.9,8.6,1.5c11.4,1.7,30.5,3.9,55.2,3.9
				c0.8,0,1.6,0,2.5,0c22.2-0.1,44.7-2,66.9-5.6c0.6,7.4,1.2,14.5,1.7,21C894.8,402.3,894.6,434.9,877.7,453.8z"/>
		</g>
		<g>
			<ellipse class="st40" cx="826.8" cy="228.2" rx="10.3" ry="3.5"/>
			<path class="st11" d="M826.8,234c-5.8,0-12.6-1.5-12.6-5.7c0-4.2,6.8-5.7,12.6-5.7s12.6,1.5,12.6,5.7
				C839.4,232.5,832.6,234,826.8,234z M819.3,228.2c1.2,0.6,3.8,1.2,7.5,1.2c3.6,0,6.2-0.7,7.5-1.2c-1.2-0.6-3.8-1.2-7.5-1.2
				C823.1,227,820.6,227.7,819.3,228.2z"/>
		</g>
		<g>
			<ellipse class="st39" cx="848.4" cy="235.2" rx="10.3" ry="3.5"/>
			<path class="st11" d="M848.4,241c-5.8,0-12.6-1.5-12.6-5.7c0-4.2,6.8-5.7,12.6-5.7c5.8,0,12.6,1.5,12.6,5.7
				C861,239.5,854.2,241,848.4,241z M841,235.2c1.2,0.6,3.8,1.2,7.5,1.2s6.2-0.7,7.5-1.2c-1.2-0.6-3.8-1.2-7.5-1.2
				S842.2,234.7,841,235.2z"/>
		</g>
		<g>
			<ellipse class="st41" cx="804.9" cy="235.2" rx="10.3" ry="3.5"/>
			<path class="st11" d="M804.9,241c-5.8,0-12.6-1.5-12.6-5.7c0-4.2,6.8-5.7,12.6-5.7s12.6,1.5,12.6,5.7
				C817.5,239.5,810.7,241,804.9,241z M797.5,235.2c1.2,0.6,3.8,1.2,7.5,1.2c3.6,0,6.2-0.7,7.5-1.2c-1.2-0.6-3.8-1.2-7.5-1.2
				C801.3,234,798.7,234.7,797.5,235.2z"/>
		</g>
		<g>
			<ellipse class="st42" cx="826.8" cy="242" rx="10.3" ry="3.5"/>
			<path class="st11" d="M826.8,247.7c-5.8,0-12.6-1.5-12.6-5.7c0-4.2,6.8-5.7,12.6-5.7s12.6,1.5,12.6,5.7
				C839.4,246.2,832.6,247.7,826.8,247.7z M819.3,242c1.2,0.6,3.8,1.2,7.5,1.2c3.6,0,6.2-0.7,7.5-1.2c-1.2-0.6-3.8-1.2-7.5-1.2
				C823.1,240.7,820.5,241.4,819.3,242z"/>
		</g>
	</g>
	<path class="st43" d="M699,448c2.3-1.9,4.6-3.9,7-5.9c-3.4,0.6-6.7,1.3-10.1,2C697.1,445.2,698.2,446.5,699,448z"/>
	<path class="st43" d="M620.7,468.7c1.9,0,3.6,0.4,5.3,1c2.4-4.4,7.1-7.4,12.5-7.4c1.8,0,3.4,0.3,5,0.9c2.5-4.1,7-6.8,12.1-6.8
		c0.8,0,1.5,0.1,2.3,0.2c0.5-1,1.1-1.9,1.8-2.8c-20.2,6.3-39.1,13.6-54.3,20c1.2,0.3,2.4,0.7,3.5,1.3
		C611.4,471.3,615.7,468.7,620.7,468.7z"/>
	<path class="st43" d="M578.5,485.8l9.5,1.6c0-2.5,0.7-4.9,1.9-6.9C585.5,482.5,581.6,484.3,578.5,485.8z"/>
	<path class="st43" d="M684.1,459.4c3.3-2.3,6.7-4.8,10.1-7.5c-1.2-3.1-4.1-5.3-7.6-5.3c-3.4,0-6.3,2.1-7.6,5.1
		C681.5,453.6,683.3,456.3,684.1,459.4z"/>
	<path class="st44" d="M678.6,462.5c-0.1-2.4-1.3-4.5-3-5.9c-0.9-0.7-2-1.3-3.2-1.6c-0.6-0.2-1.3-0.3-2-0.3c-3,0-5.6,1.6-7,4
		c3.4,2.3,5.7,5.9,6.2,10.2c2.3-1.3,4.5-2.8,6.9-4.3c0.7-0.5,1.4-0.9,2.1-1.4c0-0.1,0-0.2,0-0.3
		C678.6,462.8,678.6,462.7,678.6,462.5z"/>
	<path class="st6" d="M681.4,461.1c0,0.1,0,0.1,0,0.2c0,0,0.1-0.1,0.1-0.1C681.5,461.2,681.5,461.1,681.4,461.1z"/>
	<path class="st45" d="M659.3,463.3c-0.9-0.5-1.9-0.8-3-0.9c-0.3,0-0.5,0-0.8,0c-3,0-5.6,1.6-7.1,4.1c2.6,2.6,4.1,6.1,4.1,10
		c0,0.5,0,1-0.1,1.5c2.8-1.3,5.7-2.7,8.7-4.3c0.7-0.4,1.5-0.8,2.3-1.2c0.1-0.2,0.1-0.5,0.1-0.7c0.1-0.4,0.1-0.8,0.1-1.2
		C663.7,467.4,661.9,464.7,659.3,463.3z"/>
	<path class="st43" d="M644.4,470.9c-0.8-0.9-1.8-1.5-2.9-2c-0.9-0.4-2-0.6-3-0.6c-3.3,0-6.2,2-7.5,4.9c2.4,2.5,3.9,6,3.9,9.7
		c0,0.3,0,0.6,0,0.9c0.5,0.2,1,0.4,1.5,0.6c2.8-0.9,5.7-2,8.7-3.2c0.1-0.2,0.3-0.4,0.4-0.6c0.6-1,1-2.1,1.1-3.3c0-0.2,0-0.5,0-0.7
		C646.6,474.3,645.7,472.3,644.4,470.9z"/>
	<path class="st45" d="M628.8,482.1c-0.1-1.4-0.6-2.7-1.4-3.8c-0.8-1.1-1.9-2.1-3.1-2.7c-1.1-0.5-2.3-0.9-3.6-0.9
		c-3.1,0-5.9,1.8-7.2,4.4c1.8,2.4,2.9,5.3,2.9,8.5c0,0.5,0,1-0.1,1.5c3.6-0.5,7.5-1.3,11.6-2.3c0.1-0.2,0.2-0.4,0.3-0.6
		c0.4-1,0.7-2.1,0.7-3.3C628.8,482.6,628.8,482.3,628.8,482.1z"/>
	<path class="st46" d="M610.3,487c-0.1-1-0.3-1.9-0.7-2.8c-0.6-1.4-1.7-2.6-2.9-3.4c-1.3-0.9-2.8-1.4-4.5-1.4
		c-4.5,0-8.2,3.7-8.2,8.2c0,0.3,0,0.6,0,0.8c0.1,0.5,0.2,1,0.3,1.5c2.2,0.2,4.6,0.3,7.1,0.3c0.9,0,1.8,0,2.7,0
		c1.4,0,2.8-0.1,4.2-0.2c0.5,0,1-0.1,1.6-0.1c0.2-0.7,0.3-1.5,0.3-2.3C610.3,487.4,610.3,487.2,610.3,487z"/>
	<path class="st28" d="M708.2,448.2c-2.4,2-4.8,4.1-7.4,6.2c0,0.1,0,0.2,0,0.3L708.2,448.2z"/>
	<path class="st28" d="M712.9,443.7c-0.5,0.5-1.1,1.1-1.6,1.7c0,0,0,0,0,0l1.3-1.2C712.8,444.1,712.9,443.9,712.9,443.7z"/>
	<path class="st28" d="M697.3,457.8l3.4-3c0-0.1,0-0.2,0-0.3c-1,0.8-2.1,1.7-3.2,2.5C697.5,457.3,697.4,457.5,697.3,457.8z"/>
	<path class="st28" d="M668.1,476.9c0-0.1,0.1-0.2,0.1-0.2c-0.1,0.1-0.2,0.1-0.4,0.2C668,476.9,668.1,476.9,668.1,476.9z"/>
	<path class="st47" d="M711.3,445.4c-0.1,0.1-0.2,0.2-0.3,0.2c-1,0.9-1.9,1.7-2.9,2.6l-7.4,6.5l-3.4,3c0.1-0.3,0.2-0.5,0.2-0.8
		c-3.8,3-7.9,6-12.1,8.9c-0.5,0.3-0.9,0.6-1.4,1c-0.7,0.4-1.3,0.9-2,1.3c-1.1,0.7-2.2,1.4-3.2,2.1c-0.2,0.1-0.4,0.3-0.6,0.4
		c-1.6,1-3.2,2-4.8,3c-1.7,1-3.4,2-5.1,3c0,0.1-0.1,0.2-0.1,0.2c-0.1,0-0.2,0-0.2,0c-1.1,0.6-2.2,1.2-3.3,1.8
		c-3.8,2.1-7.8,4-11.8,5.8c-1.4,0.6-2.8,1.2-4.3,1.8c-3.8,1.6-7.7,3-11.7,4.3c-1.9,0.6-3.7,1.1-5.6,1.6c-2.2,0.6-4.4,1.1-6.6,1.6
		c-2.9,0.6-5.8,1.1-8.7,1.5c-0.5,0.1-1.1,0.2-1.6,0.2c-0.2,0-0.3,0-0.5,0.1c-1.4,0.2-2.9,0.3-4.4,0.4c-1.8,0.1-3.7,0.2-5.5,0.3
		c-0.8,0-1.7,0-2.5,0c-2.3,0-4.5-0.1-6.6-0.2c-1.5-0.1-3-0.2-4.4-0.4c-9.1-1.1-15.5-3.2-18.8-4.6c2.1,1.5,6.1,3.6,10,5
		c4.7,1.7,9.4,3,14.1,4.1c2.4,0.6,4.8,1.1,7.2,1.5c6.3,1.1,12.4,1.6,18.4,1.6c5.6,0,10.8-0.5,15.8-1.3c4.9-0.8,9.5-2,13.8-3.5
		c18-6.1,31.6-16.8,40.9-26.3c10.3-10.6,17.1-21.3,20.6-28L711.3,445.4z"/>
	<path class="st6" d="M684.7,462.7c-0.1,0-0.1,0-0.2,0c0,0,0,0.1,0,0.1C684.6,462.8,684.7,462.8,684.7,462.7z"/>
	<path class="st6" d="M652.3,478.1c0.1,0,0.1,0,0.2,0.1c0,0,0-0.1,0-0.1C652.4,478,652.4,478,652.3,478.1z"/>
	<path class="st6" d="M649.2,479.5c-0.1,0-0.1,0.1-0.2,0.1c0.1,0,0.1,0.1,0.2,0.1C649.1,479.6,649.1,479.5,649.2,479.5z"/>
	<path class="st6" d="M711.3,445.4l-3.2,2.8c1-0.9,2-1.7,2.9-2.6C711.2,445.6,711.3,445.5,711.3,445.4z"/>
	<polygon class="st6" points="670.4,474.1 670.4,474.1 670.4,474.1 	"/>
	<polygon class="st6" points="670.4,472 670.4,473.5 670.4,473.5 670.4,472 	"/>
	<rect x="670.4" y="473.5" class="st6" width="0" height="0.6"/>
	<path class="st6" d="M602.2,501.8c0.3,0,0.6,0,0.9,0c-2.4-0.4-4.8-0.9-7.2-1.5C597.7,501.2,599.9,501.8,602.2,501.8z"/>
	<path class="st11" d="M721.6,437.7c-0.5-2.2-2.1-3.6-4.3-3.6c-0.7,0-1.4,0.2-2.1,0.5c-68.1,9.7-147,49.5-147.8,49.9
		c-0.8,0.4-1.3,1.1-1.5,1.9c-1.3,1.2-1.6,2.4-1.7,3.5c-0.2,5,8.3,9.3,15.4,12c14.4,5.1,28.4,7.6,41.8,7.6c40.5,0,67.6-23,83.2-42.4
		C714.4,455,722.3,440.6,721.6,437.7z M706,442.1c-2.3,2.1-4.7,4-7,5.9c-0.8-1.5-1.9-2.8-3.2-3.9C699.3,443.4,702.6,442.7,706,442.1
		z M686.6,446.6c3.5,0,6.5,2.2,7.6,5.3c-3.4,2.7-6.8,5.2-10.1,7.5c-0.8-3.1-2.6-5.8-5.1-7.7C680.2,448.7,683.2,446.6,686.6,446.6z
		 M670.4,454.8c0.7,0,1.4,0.1,2,0.3c1.2,0.3,2.2,0.8,3.2,1.6c1.7,1.4,2.9,3.5,3,5.9c0,0.1,0,0.3,0,0.4c0,0.1,0,0.2,0,0.3
		c-0.7,0.5-1.4,0.9-2.1,1.4c-2.3,1.5-4.6,2.9-6.9,4.3c-0.5-4.2-2.8-7.9-6.2-10.2C664.8,456.4,667.4,454.8,670.4,454.8z M663.7,470.5
		c0,0.4,0,0.8-0.1,1.2c0,0.2-0.1,0.5-0.1,0.7c-0.8,0.4-1.5,0.8-2.3,1.2c-3,1.6-5.9,3-8.7,4.3c0.1-0.5,0.1-1,0.1-1.5
		c0-3.9-1.6-7.4-4.1-10c1.4-2.4,4-4.1,7.1-4.1c0.3,0,0.5,0,0.8,0c1.1,0.1,2.1,0.4,3,0.9C661.9,464.7,663.7,467.4,663.7,470.5z
		 M659.6,453.8c-0.7,0.8-1.3,1.8-1.8,2.8c-0.7-0.1-1.5-0.2-2.3-0.2c-5.1,0-9.6,2.7-12.1,6.8c-1.6-0.6-3.2-0.9-5-0.9
		c-5.4,0-10.1,3-12.5,7.4c-1.6-0.7-3.4-1-5.3-1c-5,0-9.3,2.6-11.8,6.4c-1.1-0.6-2.2-1-3.5-1.3C620.5,467.4,639.5,460.1,659.6,453.8z
		 M631,473.2c1.3-2.9,4.1-4.9,7.5-4.9c1.1,0,2.1,0.2,3,0.6c1.1,0.4,2.1,1.1,2.9,2c1.4,1.5,2.2,3.4,2.2,5.6c0,0.2,0,0.5,0,0.7
		c-0.1,1.2-0.5,2.3-1.1,3.3c-0.1,0.2-0.3,0.4-0.4,0.6c-3,1.2-5.9,2.3-8.7,3.2c-0.5-0.1-1.1-0.3-1.5-0.6c0-0.3,0-0.6,0-0.9
		C634.8,479.1,633.4,475.7,631,473.2z M613.4,479.1c1.4-2.6,4.1-4.4,7.2-4.4c1.3,0,2.5,0.3,3.6,0.9c1.3,0.6,2.3,1.6,3.1,2.7
		c0.8,1.1,1.3,2.4,1.4,3.8c0,0.3,0,0.5,0,0.8c0,1.2-0.3,2.3-0.7,3.3c-0.1,0.2-0.2,0.4-0.3,0.6c-4.1,1-7.9,1.8-11.6,2.3
		c0.1-0.5,0.1-1,0.1-1.5C616.3,484.4,615.3,481.5,613.4,479.1z M602.2,479.4c1.7,0,3.2,0.5,4.5,1.4c1.3,0.8,2.3,2,2.9,3.4
		c0.4,0.9,0.6,1.8,0.7,2.8c0,0.2,0,0.4,0,0.6c0,0.8-0.1,1.5-0.3,2.3c-0.5,0-1,0.1-1.6,0.1c-1.5,0.1-2.9,0.2-4.2,0.2
		c-0.9,0-1.9,0-2.7,0c-2.5,0-4.9-0.1-7.1-0.3c-0.1-0.5-0.3-1-0.3-1.5c0-0.3,0-0.6,0-0.8C594,483.1,597.7,479.4,602.2,479.4z
		 M589.9,480.5c-1.2,2-1.9,4.4-1.9,6.9l-9.5-1.6C581.6,484.3,585.5,482.5,589.9,480.5z M712.7,444.3c-3.6,6.6-10.3,17.4-20.6,28
		c-9.3,9.5-22.9,20.3-40.9,26.3c-4.4,1.5-9,2.7-13.8,3.5c-5,0.9-10.3,1.3-15.8,1.3c-6,0-12.2-0.6-18.4-1.6c-0.3,0-0.6,0-0.9,0
		c-2.3,0-4.4-0.6-6.3-1.5c-4.6-1.1-9.3-2.5-14.1-4.1c-3.9-1.5-7.8-3.5-10-5c3.3,1.4,9.7,3.5,18.8,4.6c1.4,0.2,2.8,0.3,4.4,0.4
		c2.1,0.1,4.3,0.2,6.6,0.2c0.8,0,1.7,0,2.5,0c1.8,0,3.7-0.1,5.5-0.3c1.5-0.1,2.9-0.3,4.4-0.4c0.2,0,0.3,0,0.5-0.1
		c0.5-0.1,1.1-0.1,1.6-0.2c2.9-0.4,5.9-0.9,8.7-1.5c2.2-0.5,4.4-1,6.6-1.6c1.9-0.5,3.7-1,5.6-1.6c4-1.3,7.8-2.7,11.7-4.3
		c1.4-0.6,2.8-1.2,4.3-1.8c4-1.8,7.9-3.7,11.8-5.8c1.1-0.6,2.2-1.2,3.3-1.8c0.1-0.1,0.2-0.1,0.4-0.2c1.7-1,3.4-1.9,5.1-3
		c1.6-1,3.2-2,4.8-3c0.2-0.1,0.4-0.3,0.6-0.4c1.1-0.7,2.2-1.4,3.2-2.1c0.7-0.4,1.3-0.9,2-1.3c0.5-0.3,0.9-0.6,1.4-1
		c4.2-2.9,8.3-5.9,12.1-8.9c1.1-0.8,2.2-1.7,3.2-2.5c2.6-2.1,5.1-4.1,7.4-6.2l3.2-2.8c0,0,0,0,0,0c0.5-0.6,1-1.1,1.6-1.7
		C712.9,443.9,712.8,444.1,712.7,444.3z"/>
	<path class="st11" d="M84.8,442.4c-3.8,4.2-5.8,9.1-6.9,13.1c-14.7-3-21.8-7.6-28.8-12.9c-0.7-0.5-1.6-0.7-2.4-0.5
		c-0.8,0.2-1.6,0.7-2,1.5l-7.8,14.2c-0.7,1.2-0.4,2.7,0.6,3.7c11.9,10.8,32.1,13.2,39,13.7c0.5,3.7,1.6,8.1,4.1,12.3
		c4.6,7.8,13.8,15,32,16.6c39.1,3.5,227.2,2,285.3,0.8c8.5-0.4,22.8-2.2,23.5-9.5c0-0.1,0-0.2,0-0.3c0-0.1,0-0.2,0-0.3c0,0,0,0,0,0
		c0-0.1,0-0.2,0-0.2c0.3-7.1-13.3-11.3-21.5-13.2C343,470,158,435.4,118.9,432C103.7,430.6,92.2,434.1,84.8,442.4z M76.2,469.1
		c-6.5-0.6-22.6-2.7-32.9-10.6l5-9c6.7,4.8,14.6,9.1,28.6,11.9l0,0.3l-0.5,5.6L76.2,469.1z M398.6,487.2c7.9,1.8,16,5.2,16.8,7.1
		l0,0.2l0,0.3c-1.1,1.7-9.7,3.7-17.7,4.1c-5.5,0.1-12.2,0.2-19.8,0.3c0.4-1.3,0.8-3,1-4.9c0,0,0,0,0,0c0.1-1.5,0.1-3.1-0.1-4.8
		c-0.2-1.6-1.7-2.8-3.3-2.6c-1.6,0.2-2.8,1.7-2.6,3.3c0.2,1.5,0.1,2.8,0,4.1c-0.3,2.3-0.9,4.1-1.4,5c-7.2,0.1-15,0.2-23.4,0.3
		c0.4-1.3,0.9-3.2,1.3-5.5c0.3-1.9,0.7-4,0.9-6.4c0.3-3,0.4-6.3,0.1-9.9C370.2,481.6,387,484.9,398.6,487.2z M273.2,463.5
		c2.5,16.1-2.1,28-2.2,28.1c-0.2,0.6-0.3,1.2-0.2,1.7c0.2,0.9,0.8,1.8,1.8,2.2c1.5,0.6,3.3-0.1,3.9-1.6c0,0,0.1-0.2,0.2-0.4
		c0.5-1.5,2.3-6.7,3-14.2c0.4-4.2,0.4-9.1-0.3-14.6c12.5,2.3,24.9,4.6,36.8,6.8c1.4,12.6-1.6,22-1.8,22.4c0,0,0,0,0,0
		c-0.5,1.6,0.3,3.3,1.9,3.8c1.6,0.5,3.3-0.3,3.8-1.9c0-0.1,0.3-0.8,0.6-1.9c0.5-2,1.2-5.3,1.6-9.7c0.3-3.3,0.4-7.3,0-11.6
		c7.6,1.4,14.9,2.8,21.9,4.1c0.6,7.1-0.2,13.2-1.1,17.4c-0.6,3-1.3,5-1.5,5.6c-14,0.1-29.3,0.3-45.1,0.4c0.5-1.5,1-3.7,1.5-6.3
		c0.2-1.4,0.5-2.9,0.6-4.6c0.3-2.9,0.3-6.2,0-9.7c-0.1-1.7-1.6-2.9-3.2-2.7c-1.7,0.1-2.9,1.6-2.7,3.2c0.5,5.4-0.1,10.2-0.7,13.7
		c-0.7,3.5-1.5,5.8-1.7,6.4c-13,0.1-26.3,0.1-39.4,0.1c0.5-1.8,1-4.2,1.6-7.2c0.6-3.4,1.2-7.4,1.6-12c0.5-6.1,0.7-13.2,0.2-20.9
		C260.6,461.2,266.9,462.3,273.2,463.5z M248.1,459c1.2,14.2-0.3,26.3-1.8,33.9c-0.7,3.3-1.3,5.8-1.7,7.3c-7,0-13.9,0-20.7,0
		c0.7-2.7,1.3-5.3,1.8-7.8c1-4.9,1.6-9.4,2-13.5c1.1-11.9,0-19.9-0.1-20.4c-0.2-1.6-1.8-2.8-3.4-2.5c-1.6,0.2-2.8,1.8-2.5,3.4
		c0,0.2,1.9,14.1-2,32.8c-0.5,2.6-1.2,5.2-2,7.9c-13.5,0-26.5-0.1-38.5-0.2c0.8-3.1,1.5-6.1,2-9c1-5.4,1.7-10.5,2.1-15.1
		c1.3-14.2,0-23.7-0.1-24.3c-0.2-1.6-1.7-2.8-3.3-2.5c-1.6,0.2-2.8,1.7-2.5,3.3c0,0.2,2.1,16.5-2.2,38.3c-0.6,3-1.3,6-2.1,9.2
		c-27.3-0.3-49.2-0.9-59.9-1.8c-0.2,0-0.5,0-0.8-0.1c0.7-2.4,1.7-6.1,2.7-11c0.8-4.1,1.6-9,2-14.5c0.7-7.5,0.8-16.3,0-25.8
		c-0.2-1.6-1.6-2.9-3.3-2.7c-1.6,0.2-2.9,1.6-2.7,3.3c1.5,16.1-0.2,29.9-2.1,39.2c-1,4.9-2,8.5-2.6,10.6
		c-7.5-1.6-16.7-5.3-21.3-13.8c-2.1-4-3.3-9-2.7-15.4c0.1-1.5,0.3-2.4,0.3-2.4l0.1-0.4l0-0.4c0,0,0-0.9,0.1-2.4
		c2.2-24.6,25.6-25.2,35.6-24.3c3.4,0.3,7.9,0.8,13.2,1.6c3.4,24.4-0.9,43.6-2.1,48.6c-0.2,0.8-0.3,1.3-0.4,1.3
		c-0.5,1.6,0.4,3.3,2,3.7c1.6,0.5,3.3-0.4,3.7-2c0.1-0.2,0.3-1.1,0.7-2.6c0.8-3.3,2.1-9.4,2.8-17.6c0.7-8.3,0.9-18.8-0.6-30.6
		c15.9,2.3,37.7,5.9,62.2,10.1c1.2,23-3.2,40-3.3,40.2c-0.1,0.3-0.1,0.5-0.1,0.8c0,1.3,0.9,2.5,2.2,2.9c1.6,0.4,3.2-0.5,3.7-2.1
		c0-0.1,0.1-0.2,0.1-0.5c0.5-1.9,2-8.8,2.9-18.8c0.5-6.1,0.8-13.3,0.5-21.4C219.6,453.9,233.8,456.4,248.1,459z"/>
</g>
<g id="Calque_2" class="st48">
	<path class="st49" d="M744.6,451.1c0.8-0.2,1.5-0.4,2.2-0.6c0,0,0,0,0,0C746.1,450.7,745.4,450.9,744.6,451.1z"/>
	<path class="st50" d="M768.2,442.8V442c0,0.7-0.1,1.4-0.3,2C768.1,443.7,768.2,443.3,768.2,442.8z"/>
	<polygon class="st49" points="746.8,450.5 746.8,450.5 746.8,450.5 	"/>
	<path class="st50" d="M765.4,442.8V442C765.4,442.3,765.4,442.6,765.4,442.8L765.4,442.8z"/>
	<path class="st50" d="M608.4,442.8L608.4,442.8c0-0.3,0-0.5,0-0.8V442.8z"/>
	<path class="st50" d="M608.4,151.2c0.3,0,0.6,0.1,0.9,0.2c0.1-0.1,0.1-0.2,0.2-0.3h-1.1c-1.2,0-2.3,0.8-2.7,1.9
		c0,0.3-0.1,0.7-0.1,1C605.6,152.5,606.8,151.2,608.4,151.2z"/>
	<path class="st50" d="M762.6,158.7c0,0-0.1,0.1-0.1,0.1v3.4c0,0,0.1,0,0.1-0.1V158.7z"/>
	<path class="st50" d="M611.2,154C611.2,154,611.2,154,611.2,154L611.2,154L611.2,154z"/>
	<path class="st51" d="M722.8,151.1c-0.2,0-0.5,0-0.7,0h1.4C723.3,151.1,723.1,151.1,722.8,151.1z"/>
	<path class="st51" d="M731.9,152.4c-1.6-0.6-4.5-1.2-8.4-1.3h-1.4c-3.9,0.1-6.7,0.7-8.4,1.3c1.7,0.6,4.9,1.3,9.1,1.3
		C727.1,153.7,730.2,153,731.9,152.4z"/>
	<path class="st52" d="M708.1,155.6c0.5,0.5,1,0.9,1.7,1.3c3.2,1.8,8.4,2.6,13,2.6c4.7,0,9.8-0.7,13-2.6c0.4-0.2,0.8-0.5,1.1-0.8
		c0.8-0.6,1.3-1.3,1.7-2.1c0.2-0.5,0.3-1,0.3-1.6c0-0.5-0.1-0.9-0.2-1.3c-1.3-4.2-9.1-5.8-15.9-5.8c-6.8,0-14.6,1.6-15.9,5.8
		c-0.1,0.4-0.2,0.8-0.2,1.3c0,0.6,0.1,1.1,0.3,1.6C707.3,154.6,707.6,155.1,708.1,155.6z M722.1,151.1c0.2,0,0.5,0,0.7,0
		c0.3,0,0.5,0,0.7,0c3.9,0.1,6.7,0.7,8.4,1.3c-1.7,0.6-4.9,1.3-9.1,1.3c-4.2,0-7.4-0.6-9.1-1.3C715.4,151.8,718.2,151.2,722.1,151.1
		z"/>
	<path class="st51" d="M649.4,151.1c-0.2,0-0.5,0-0.7,0h1.4C649.9,151.1,649.7,151.1,649.4,151.1z"/>
	<path class="st51" d="M658.5,152.4c-1.6-0.6-4.5-1.2-8.4-1.3h-1.4c-3.9,0.1-6.7,0.7-8.4,1.3c1.7,0.6,4.9,1.3,9.1,1.3
		C653.7,153.7,656.8,153,658.5,152.4z"/>
	<path class="st52" d="M633.8,154.4c0.5,1,1.4,1.8,2.6,2.5c3.2,1.8,8.4,2.6,13,2.6c4.7,0,9.8-0.7,13-2.6c1-0.6,1.8-1.2,2.3-2
		c0.2-0.3,0.4-0.6,0.5-0.9c0.2-0.5,0.3-1,0.3-1.6c0-0.5-0.1-0.9-0.2-1.3c-1.3-4.2-9.1-5.8-15.9-5.8c-6.8,0-14.6,1.6-15.9,5.8
		c-0.1,0.4-0.2,0.8-0.2,1.3c0,0.6,0.1,1.1,0.3,1.6C633.7,154.1,633.8,154.3,633.8,154.4z M648.7,151.1c0.2,0,0.5,0,0.7,0
		c0.3,0,0.5,0,0.7,0c3.9,0.1,6.7,0.7,8.4,1.3c-1.7,0.6-4.9,1.3-9.1,1.3c-4.2,0-7.4-0.6-9.1-1.3C642,151.8,644.8,151.2,648.7,151.1z"
		/>
	<path class="st50" d="M611.2,158.7v3.4c0,0,0.1,0,0.1,0.1v-3.4C611.2,158.7,611.2,158.7,611.2,158.7z"/>
	<polygon class="st50" points="611.2,154 608.4,154 611.2,154 	"/>
	<path class="st53" d="M612.5,264.6c-0.1,0-0.1,0-0.2-0.1C612.3,264.6,612.4,264.6,612.5,264.6c1.4,1.4,4.1,3,8.3,4.5c0,0,0,0,0,0
		C616.6,267.6,613.8,266,612.5,264.6z"/>
	<path class="st53" d="M611.2,258.2L611.2,258.2C611.2,258.3,611.2,258.3,611.2,258.2L611.2,258.2z"/>
	<ellipse transform="matrix(0.9298 -0.368 0.368 0.9298 -113.3875 306.4991)" class="st50" cx="746.8" cy="450.5" rx="0" ry="0"/>
	<path class="st52" d="M768.1,153c-2.1-14.2-49.3-19.4-81.2-19.4c-31.9,0-79.1,5.2-81.2,19.4c-0.1,0.3-0.2,0.7-0.2,1v12.5
		c0,0.4,0,0.8,0.1,1.3v102.8V442c0,0.7,0.1,1.4,0.3,2c4.2,13.5,49.8,18.4,81,18.4c31.2,0,76.8-4.9,81-18.4c0.2-0.7,0.3-1.3,0.3-2
		V270.6v-5.8v-4.1v-92.9c0.1-0.4,0.1-0.8,0.1-1.3V154C768.3,153.6,768.2,153.3,768.1,153z M762.6,434v3.4v1.7v1v2
		c0,0.3-0.1,0.5-0.2,0.8c-0.4,0.9-1.4,1.8-3,2.8c-2.6,1.6-6.8,3.3-12.6,4.9v0c0,0,0,0,0,0c-0.7,0.2-1.5,0.4-2.2,0.6
		c-0.2,0-0.3,0.1-0.5,0.1c-0.7,0.2-1.4,0.3-2.1,0.5c-0.1,0-0.3,0.1-0.4,0.1c-0.8,0.2-1.7,0.4-2.6,0.6c-0.1,0-0.2,0-0.4,0.1
		c-0.8,0.2-1.6,0.3-2.4,0.5c-0.2,0-0.4,0.1-0.7,0.1c-0.9,0.2-1.8,0.3-2.7,0.5c-0.1,0-0.1,0-0.2,0c-1,0.2-2,0.3-3,0.5
		c-0.2,0-0.5,0.1-0.7,0.1c-0.8,0.1-1.7,0.2-2.5,0.4c-0.3,0-0.5,0.1-0.8,0.1c-1.1,0.1-2.2,0.3-3.3,0.4c0,0,0,0-0.1,0
		c-1.1,0.1-2.2,0.2-3.4,0.4c-0.3,0-0.6,0.1-1,0.1c-0.9,0.1-1.9,0.2-2.9,0.3c-0.3,0-0.6,0.1-0.9,0.1c-1.2,0.1-2.5,0.2-3.7,0.3
		c-0.2,0-0.5,0-0.7,0c-1.1,0.1-2.1,0.1-3.2,0.2c-0.4,0-0.8,0-1.1,0.1c-1.1,0.1-2.3,0.1-3.4,0.2c-0.2,0-0.5,0-0.7,0
		c-1.4,0.1-2.8,0.1-4.2,0.1c-0.4,0-0.7,0-1.1,0c-1.1,0-2.2,0.1-3.4,0.1c-0.4,0-0.8,0-1.3,0c-1.5,0-3,0-4.5,0
		c-39.7,0-64.3-6.2-72.6-11.3c-1.6-1-2.6-1.9-3-2.8c-0.1-0.3-0.2-0.5-0.2-0.8v-2v-2.7V434V270.6c2.5,1.7,5.8,3.2,9.7,4.5
		c13.3,4.5,33.3,6.9,51.6,7.7c5.1,0.2,10.1,0.3,14.7,0.3c25.8,0,61.5-3.4,75.4-12.2V434z M762.6,254.5v3.3v3.9v2.1
		c-1.2,2-5.6,4.5-13.2,6.8c-12.4,3.8-33.3,7-62.2,7c-6.1,0-11.8-0.2-17.2-0.4c-1.5-0.1-2.9-0.2-4.3-0.2c-2.8-0.2-5.5-0.4-8.1-0.6
		c-2.6-0.2-5.1-0.5-7.4-0.8c-2.4-0.3-4.6-0.6-6.8-0.9c-3.6-0.6-7-1.2-10-1.9c-1.9-0.4-3.7-0.8-5.3-1.3c-1-0.3-2-0.6-3-0.8
		c-1.5-0.5-3-0.9-4.2-1.4c-4.2-1.6-7-3.1-8.3-4.5c-0.1,0-0.1,0-0.2-0.1c-0.4-0.3-1.1-1.5-1.1-1.5v-4.7v-0.1v-3.3v-79.7
		c2.2,1.6,5.1,3,8.4,4.3c2.5,1,5.2,1.8,8.2,2.6c15.6,4.2,37.4,6.4,59.2,6.4c31.4,0,63.1-4.5,75.7-13.3V254.5z M762.5,162.1v4.4
		c0,6.6-29.5,16.2-75.6,16.2c-27.7,0-49.3-3.4-62.3-7.6c-1.9-0.6-3.6-1.2-5.1-1.9c-5.4-2.3-8.2-4.6-8.2-6.7v-4.4
		c2.2,1.4,5,2.7,8.2,3.9c0.4,0.2,0.9,0.3,1.3,0.5c17,5.7,44.9,8,66.1,8C712.8,174.4,748.7,171,762.5,162.1 M760.9,156.5
		c-0.2,0.1-0.3,0.3-0.5,0.4c-7.2,5.2-32.1,12-73.6,12c-41.5,0-66.4-6.7-73.6-12c-1.4-1-2.1-2-2.2-2.8h0v0c0-0.9,0.7-1.9,2.2-2.9
		c7.2-5.2,32.1-12,73.6-12c41.5,0,66.4,6.7,73.6,12c1.4,1,2.2,2,2.2,2.9C762.6,154.8,762,155.6,760.9,156.5z"/>
	<path class="st49" d="M620.8,269.1C620.8,269.1,620.8,269.1,620.8,269.1c1.3,0.5,2.7,1,4.2,1.4l0,0
		C623.5,270.1,622.1,269.6,620.8,269.1z"/>
	<path class="st49" d="M625,270.6L625,270.6c0.9,0.3,1.9,0.6,3,0.8C627,271.1,626,270.8,625,270.6z"/>
	<g class="st54">
		<path class="st15" d="M611.2,442.2L611.2,442.2c0-0.1,0-0.1,0-0.2V442.2z"/>
	</g>
	<path class="st50" d="M193.3,314.4c-0.2,0.4-0.4,0.8-0.6,1.1c0,0,0.1,0.1,0.1,0.1L193.3,314.4z"/>
	<path class="st52" d="M372.3,173.3l-27.7-38.8c-0.9-1.2-2.5-1.6-3.9-0.9c-5.3,2.9-10.6,6.2-16,10c8.3-19.9,12.5-33,12.6-38.9
		c0-1.1-0.6-2.1-1.5-2.6l-3.6-2l-2.6-1.5l-2.7-1.5c-0.3,0.9-0.6,1.9-1,2.9c-0.3,0.9-0.7,1.8-1.1,2.8c-1.8,4.2-4.2,8.9-6.7,13.3
		c0.8-5.5,1.4-11.2,1.7-16.1c0.1-1.2,0.2-2.3,0.2-3.3c0.1-1.2,0.1-2.3,0.2-3.4l-2.9-1.7l-2.9-1.7l-22.1-12.7
		c-0.8-0.5-1.8-0.5-2.6-0.2c-0.9,0.4-1.5,1.1-1.7,2c-0.1,0.3-4.5,16.5-11.5,38.4l-14,0.5l-3.5,0.1l-3.5,0.1c-0.1,1-0.2,2-0.3,3
		c-0.1,1-0.2,2-0.3,3c-0.5,4.4-1.2,8.4-1.8,11.8c-0.6-4.5-1.3-8.4-2.1-11.7c-0.3-1.1-0.5-2-0.8-3c-0.3-1.1-0.6-2.1-0.9-3l-3.6,0.1
		l-3.6,0.1L231,119c-0.9,0-1.8,0.5-2.3,1.2c-0.5,0.7-0.7,1.7-0.5,2.6c0.1,0.5,12.5,50.6-33.4,172.1l-7.3,17.7
		c-1.6,3.3-56,119.7-59,126c-6.4,13.2-4.3,19.5-1.4,23.9c2.6,3.9,15.2,9.5,20.8,11.8c0.9,0.6,3.5,2,7.1,2c5.3,0,12.9-3.2,19.3-18.3
		c12.4-29.6,67.4-133.9,69.7-138.2c6.9-11.1,13.6-20.9,13.7-21.1c67-102.2,112.8-120.5,113.3-120.7c0.9-0.3,1.5-1,1.8-1.9
		C373,175.1,372.8,174.1,372.3,173.3z M283.8,119.8c-0.1-0.9-0.6-1.6-1.3-2.1c4.9-15.3,8.4-27.6,10.1-33.5L314,96.5
		c-0.6,10.6-2.2,26.4-5.9,34c-1.1,2.2-1.9,3.9-0.9,5.5c0.5,0.9,1.5,1.4,2.6,1.4c0,0,0,0,0.1,0c1.5,0,3.1-0.2,12.5-16.9
		c2.1-3.8,5.1-9.4,7.5-14.8l1.2,0.7c-1,7.9-7.9,25.6-16.1,44.5c-11,8.8-22.3,19.5-33.8,32C285.2,159,286.1,137.9,283.8,119.8z
		 M234.8,124.8l8.9-0.3c1.9,7.3,3.7,18,3.4,32.1c0,1.6,1.1,3,2.6,3.4c0.3,0.1,0.5,0.1,0.8,0.1c1.3,0,2.5-0.7,3.1-1.9
		c0.3-0.5,5.5-11.7,8.1-34.3l12.7-0.4l3.2-0.1l0.6,0c0.2,2,0.4,4.1,0.5,6.2c1.2,19.1-1,40.3-5.2,62.1c-1.3,1.5-2.6,3-3.9,4.6
		c-0.7,0.8-1.3,1.6-2,2.4c-0.7,0.8-1.3,1.6-2,2.4c-11.8,14.3-23.8,30.6-36.1,48.6c-10.8,16-20.3,31.3-27.9,44.3
		C240.6,189.3,236.9,138.3,234.8,124.8z M228.2,336.7c-0.7,1.4-1.5,2.9-2.3,4.4c-0.2,0.4-0.4,0.8-0.6,1.2c-5.2,10-11.4,22-17.9,34.5
		c-0.5,0.9-0.9,1.8-1.4,2.7c-15.2,29.6-31.2,61.6-37.3,76c-3.9,9.4-8.8,14.6-13.7,14.6c-2.3,0-3.8-1.1-3.8-1.1c0,0,0,0,0,0l-0.3-0.2
		l-0.3-0.1c-7.9-3.3-17.1-7.9-18.3-9.7c-1.4-2.1-4-6,1.8-17.9c1.8-3.7,21.6-46.1,37.8-80.7c0.4-0.9,0.9-1.8,1.3-2.7
		c3.8-8,7.3-15.5,10.3-22c0.4-0.9,0.9-1.9,1.3-2.8c3-6.5,5.4-11.6,6.9-14.7c0,0,0.1,0.1,0.2,0.1c0.6,0.4,1.4,0.8,2.2,1.3
		c5.1,2.8,13.6,6.3,24.8,6.3c0,0,0,0,0,0c3.8,0,7.6-0.4,11.4-1.2c1.2-0.3,2.5-0.5,3.7-0.9c0.2-0.1,0.4-0.1,0.6-0.2
		c0.2-0.1,0.5-0.1,0.7-0.2C233.3,326.9,230.9,331.4,228.2,336.7z M252.6,295.2c-0.4,0.6-4.7,6.9-9.9,15c-1.1,1.8-2.3,3.6-3.5,5.5
		c-0.8,0.3-1.6,0.6-2.4,0.9c-1.3,0.5-2.6,0.9-3.9,1.2c-4.8,1.4-9.6,2.1-14.3,2.1c0,0,0,0,0,0c-9.9,0-17.5-3.1-21.9-5.6
		c8.5-15.2,21.6-37.6,37.8-61.5c12.2-18.1,24.4-34.4,36.3-48.8c0.2-0.2,0.3-0.4,0.5-0.5c0.7-0.8,1.3-1.6,2-2.4
		c0.6-0.7,1.2-1.4,1.8-2.1c0.1-0.1,0.1-0.2,0.2-0.3c1.3-1.5,2.6-3,3.9-4.5c10.3-11.7,20.4-22,30.2-30.8c1.8-1.6,3.6-3.1,5.4-4.6
		c1.7-1.4,3.4-2.8,5.1-4.2c7.3-5.8,14.4-10.6,21.3-14.6l24,33.7C353.2,180,311.1,206.1,252.6,295.2z"/>
	<path class="st50" d="M372,281.6l2.8,1.3L372,281.6C372,281.6,372,281.6,372,281.6z"/>
	<path class="st50" d="M361.1,276.4C361.1,276.4,361.1,276.4,361.1,276.4L361.1,276.4C361.1,276.4,361.1,276.4,361.1,276.4z"/>
	<path class="st50" d="M364.2,276.3c-1,0-2.1,0-3.1,0.1c0,0,0,0,0,0L364.2,276.3C364.2,276.4,364.2,276.3,364.2,276.3z"/>
	<path class="st52" d="M437.6,290.9c-20.7-8.6-35.7-4.1-41.1-1.7c-4.3-4.1-9.6-7.8-16.3-10.2c1-1.9,2-3.9,3.1-5.9
		c1.7-2.9,3.5-5.8,5.6-8.6c1.7-2.2,3.1-4,5.1-4.9c3.1-1.4,4.2-3.4,4.5-4.8c0.4-1.4,0.4-3.6-1.5-6.2c-2.8-3.9-5.7-7.8-8.6-11.6
		l-0.2-0.3c-2.3-3.1-5.5-4-9-2.4c-4,1.8-7.5,4.4-10.4,8c-4,4.7-6.8,10.6-8.6,17.8c-0.9,3.4-1.5,6.7-1.8,9.9
		c-0.2,2.1-0.4,4.2-0.4,6.3l3.1,0c0,0,0,0,0,0c1-0.1,2.1-0.1,3.1-0.1c0-1.8,0.1-3.6,0.3-5.5c0.3-2.9,0.9-5.9,1.7-9.1
		c1.6-6.3,4-11.3,7.4-15.4c2.3-2.8,5-4.9,8.2-6.3c0.8-0.3,0.9-0.4,1.5,0.5l0.2,0.3c2.8,3.8,5.7,7.7,8.5,11.5
		c0.3,0.5,0.5,0.8,0.5,0.9c-0.1,0.1-0.4,0.4-1.1,0.7c-3.6,1.6-5.8,4.6-7.5,6.8c-2.8,3.7-5.2,7.7-7.3,11.6c-0.9,1.7-1.8,3.4-2.6,5
		c-3-0.6-6.3-1-9.8-1c0,0,0,0,0,0c0,0,0,0.1,0,0.1l-3.1,0h0c-8.5,0.4-16.3,2.6-23.2,6.3c-2.7-1.7-10.1-6-19.6-7.4
		c-11.1-1.6-27.1,0.3-40.8,19.1c-7.2,9.9-18.3,34.9-12.6,91.8c3.4,33.8,12,65.6,20,74.5c3.8,5.4,11,14.8,22.5,16.1
		c3.9,0.5,8.2,0,12.7-2c0,0,0.1-0.1,0.1-0.1c5.4,5.2,13.8,10.1,27,11.7c0.5,0.1,1.1,0.1,1.6,0.2c12.5,1.2,21.3-1.1,27.5-4.5
		c4.1,3.2,8.4,5.1,12.8,5.6c2.2,0.3,4.5,0.2,6.7-0.2c16.6-3,28.4-23.2,28.9-24c13.4-22.9,24.7-54.5,33.5-94.1
		C463.6,345.6,468,303.5,437.6,290.9z M452.2,368.2c-8.7,39-19.7,70-32.8,92.4c0,0.1-1.4,2.5-3.9,5.7c-4.3,5.7-11.9,13.8-20.7,15.3
		c-4.5,0.8-8.8-0.2-13-3c3.2-2.7,5.2-5.5,6.3-7.5c0.9-1.5,1.2-2.5,1.3-2.7c0.6-1.6-0.2-3.4-1.8-4c-1.6-0.6-3.4,0.2-4,1.8
		c0,0-0.4,1.1-1.5,2.7c-3.2,4.7-12,13.6-32.6,11.6c-19.9-1.9-27.6-12-30.5-18c-1.2-2.5-1.6-4.3-1.6-4.6c-0.3-1.7-1.9-2.8-3.6-2.5
		c-1.7,0.3-2.8,1.9-2.5,3.6c0,0.2,0.2,1,0.6,2.2c0.6,2,1.9,5.2,4.2,8.6c0.3-0.1,0.6-0.2,0.8-0.3l-0.4,1c-0.2-0.2-0.3-0.4-0.5-0.7
		c-12.2,4-20.9-5.5-24.3-10.1c-1-1.3-1.5-2.3-1.5-2.3L290,457l-0.3-0.3c-1.8-1.9-3.9-5.7-5.9-11.1c-5-12.9-10.1-34.8-12.7-60
		c-2.2-22.1-1.9-41.8,0.7-57.5c2.1-12.8,5.7-23.1,10.8-30c18.3-25.3,41.1-16.2,49.5-11.6c-2,1.5-3.8,3.1-5.6,4.8
		c-13.7,13.8-20.5,36-20.3,65.9l0,0.1c0.8,16.1,4.9,35,5,35.2c0.3,1.4,1.4,2.3,2.7,2.5c0.3,0,0.7,0,1.1-0.1c1.7-0.4,2.8-2.1,2.4-3.8
		c-0.2-1.1-0.6-2.8-1-4.8c-1.4-7.2-3.3-19.3-3.9-29.3c-0.2-28.2,6-48.8,18.4-61.3c5.1-5.2,11.3-8.8,18.3-10.9
		c4.6-1.4,9.6-2.1,14.9-2.1c31.6,0,40.8,31.3,41.1,32.6c0.5,1.7,2.2,2.7,3.9,2.2c1.7-0.5,2.7-2.2,2.2-3.9c-0.1-0.2-2.9-10-10.6-19.5
		c5.7-1.9,17.9-4.2,34.2,2.6C461.4,307.5,457.1,346.1,452.2,368.2z"/>
	<path class="st50" d="M316.9,469.5c-0.3,0.1-0.6,0.2-0.8,0.3c0.2,0.2,0.3,0.4,0.5,0.7L316.9,469.5z"/>
	<path class="st50" d="M345.7,286.1"/>
	<path class="st50" d="M671.4,315.7C671.4,315.6,671.3,315.6,671.4,315.7c0,0,0,0.1,0.1,0.1C671.4,315.7,671.4,315.7,671.4,315.7z"
		/>
	<polygon class="st50" points="506.9,337 402.3,347.4 506.9,337 	"/>
	<polygon class="st50" points="645.6,317.2 645.6,317.2 585.4,323.2 	"/>
	<path class="st52" d="M564.3,405.1c-8.9,0-16.2,7.3-16.2,16.2c0,8.9,7.3,16.2,16.2,16.2c8.9,0,16.2-7.3,16.2-16.2
		C580.5,412.4,573.2,405.1,564.3,405.1z M564.3,431.6c-5.6,0-10.2-4.6-10.2-10.2c0-5.6,4.6-10.2,10.2-10.2c5.6,0,10.2,4.6,10.2,10.2
		C574.5,427,569.9,431.6,564.3,431.6z"/>
	<path class="st52" d="M619.1,375c10.6,0,19.2-8.6,19.2-19.2c0-10.6-8.6-19.2-19.2-19.2c-10.6,0-19.2,8.6-19.2,19.2
		C599.8,366.4,608.5,375,619.1,375z M619.1,342.5c7.3,0,13.2,5.9,13.2,13.2c0,2.6-0.8,5-2,7l0,0c0,0,0,0,0,0
		c-2.3,3.7-6.5,6.2-11.2,6.2c-7.3,0-13.2-5.9-13.2-13.2C605.8,348.5,611.8,342.5,619.1,342.5z"/>
	<path class="st52" d="M459.2,388.4c-13.4,0-24.2,10.9-24.2,24.2s10.9,24.2,24.2,24.2c13.4,0,24.2-10.9,24.2-24.2
		S472.6,388.4,459.2,388.4z M459.2,430.8c-10.1,0-18.2-8.2-18.2-18.2s8.2-18.2,18.2-18.2c10.1,0,18.2,8.2,18.2,18.2
		S469.3,430.8,459.2,430.8z"/>
	<path class="st52" d="M606.5,464.1c1.4,0,2.7,0.5,3.8,1.2l7.1-0.8c-2.1-3.8-6.2-6.4-10.9-6.4c-5.7,0-10.4,3.8-12,9l7.1-0.8
		C602.9,464.9,604.6,464.1,606.5,464.1z"/>
	<polygon class="st50" points="510.2,336.7 506.9,337 506.9,337 	"/>
	<polygon class="st50" points="443.7,337.3 443.8,337.3 443.8,337.3 	"/>
	<polygon class="st50" points="443.8,337.3 510.2,330.7 443.8,337.3 	"/>
	<path class="st50" d="M630.3,362.8L630.3,362.8C630.2,362.8,630.2,362.8,630.3,362.8C630.2,362.8,630.3,362.8,630.3,362.8z"/>
	<path class="st52" d="M672.3,317.7c0-0.1,0-0.3,0-0.4c0-0.1,0-0.1-0.1-0.2c0-0.1-0.1-0.2-0.1-0.4c0-0.1-0.1-0.1-0.1-0.2
		c-0.1-0.1-0.1-0.2-0.2-0.3c0-0.1-0.1-0.1-0.1-0.2c-0.1-0.1-0.2-0.2-0.3-0.3c0,0-0.1-0.1-0.1-0.1c-0.1-0.1-0.3-0.2-0.4-0.3
		c0,0,0,0-0.1,0c-0.2-0.1-0.3-0.2-0.5-0.2c-0.1,0-0.1,0-0.2-0.1c-0.1,0-0.2-0.1-0.3-0.1l-95.9-14.9c-0.4-0.1-0.8,0-1.2,0
		c-58.5,14.1-169.9,40.9-173.9,41.6c-0.1,0-0.1,0-0.2,0c-0.1,0-0.2,0-0.3,0.1c-0.1,0-0.2,0.1-0.3,0.1c-0.1,0-0.2,0.1-0.3,0.1
		c-0.1,0-0.2,0.1-0.2,0.1c-0.1,0.1-0.2,0.1-0.2,0.2c-0.1,0.1-0.1,0.1-0.2,0.2c-0.1,0.1-0.1,0.1-0.2,0.2c-0.1,0.1-0.1,0.1-0.2,0.2
		c-0.1,0.1-0.1,0.2-0.2,0.2c0,0.1-0.1,0.2-0.1,0.2c0,0.1-0.1,0.2-0.1,0.3c0,0.1-0.1,0.2-0.1,0.3c0,0.1,0,0.2-0.1,0.3
		c0,0.1,0,0.2,0,0.3c0,0.1,0,0.1,0,0.1v18.9v14.2v117.9c0,0.8,0.4,1.7,1,2.2c0.6,0.5,1.3,0.8,2,0.8c0.1,0,0.2,0,0.3,0l78.9-7.8
		l3.3-0.3l3.4-0.3l28.2-2.8l3.4-0.3l3.3-0.3l77.5-7.7l4.2-0.4l11-1.1l4.3-0.4l52.6-5.2c1.5-0.2,2.7-1.4,2.7-3V445v-3v-3v-52.5v-3v-3
		v-62.4C672.3,317.8,672.3,317.8,672.3,317.7z M573.6,306.1l72,11.2h0l-60.1,6l-37.4,3.7l-4.2,0.4l-5.1,0.5l-19.4,1.9l-5.1,0.5
		l-4.2,0.4l-66.4,6.6C483.9,327.7,541.5,313.8,573.6,306.1z M545.8,357.2C545.8,357.2,545.8,357.2,545.8,357.2
		c-3.6,4.5-9,7.3-15.1,7.3c-10.1,0-18.3-7.8-19.2-17.6c0,0,0,0,0,0l0,0c0-0.5-0.1-1.1-0.1-1.6c0-3.2,0.8-6.3,2.2-8.9l32-3.2
		c2.7,3.3,4.3,7.5,4.3,12.1C550,349.8,548.4,353.9,545.8,357.2L545.8,357.2z M402.3,372.3v-7.2c1.8-2.8,5-4.6,8.6-4.6
		c5.6,0,10.2,4.6,10.2,10.2c0,2.6-1,5-2.7,6.9l0,0c0,0,0,0,0,0c-1.9,2.1-4.6,3.3-7.5,3.3c-3.6,0-6.7-1.9-8.6-4.6V372.3z
		 M514.9,481.3l-32.4,3.2c-0.3-1.3-0.5-2.6-0.5-4c0-0.4,0-0.8,0.1-1.2c0.6-8.5,7.7-15.3,16.4-15.3c7.4,0,13.7,5,15.8,11.8
		c0.4,1.5,0.7,3.1,0.7,4.7C514.9,480.8,514.9,481.1,514.9,481.3z M666.3,431.9v0.8v6.7c-13.1-0.4-23.9-10.2-25.7-22.8l0,0l0,0
		c-0.2-1.3-0.3-2.6-0.3-3.9c0-14.5,11.6-26.3,26-26.7V431.9z M666.3,379.9c-17.7,0.4-32,14.9-32,32.7c0,17.8,14.3,32.3,32,32.7v13.8
		v7.1L619,471c0-0.1,0-0.3,0-0.4c0-2.2-0.6-4.2-1.6-6l-7.1,0.8c1.6,1.2,2.7,3.1,2.7,5.2c0,0.4,0,0.7-0.1,1l-12.4,1.2
		c-0.3-0.7-0.4-1.5-0.4-2.3c0-1.6,0.6-3.2,1.6-4.3l-7.1,0.8c-0.3,1.1-0.5,2.3-0.5,3.5c0,1,0.1,1.9,0.3,2.9l-73.5,7.3
		c0-0.1,0-0.1,0-0.2c0-1.8-0.2-3.6-0.7-5.4c-2.4-9.8-11.3-17.1-21.8-17.1c-12.2,0-22.2,9.8-22.5,22c0,0.2,0,0.3,0,0.5
		c0,1.6,0.2,3.1,0.5,4.6l-74.1,7.3v-4.3V384.5c2.5,1.6,5.4,2.5,8.6,2.5c8.9,0,16.2-7.3,16.2-16.2c0-8.9-7.3-16.2-16.2-16.2
		c-3.1,0-6.1,0.9-8.6,2.5v-9.5L506.9,337l3.3-0.3l-3.3,0.3c-0.9,2.6-1.4,5.4-1.4,8.3c0,13.9,11.3,25.2,25.2,25.2
		c13.9,0,25.2-11.3,25.2-25.2c0-4.7-1.3-9-3.5-12.8l113.9-11.3V379.9z"/>
	<path class="st52" d="M300.5,389.5c-4.1-12.2-11.5-22.5-20.8-30.1c-0.2-0.2-0.5-0.4-0.7-0.6c-12.5-9.8-28.3-15-44.5-14
		c-3.3,0.2-6.7,0.6-10,1.3c-0.1-3.5,1.3-8.9,2.5-12.3c0.4-1.1,0.2-2.3-0.5-3.2c-0.7-0.9-1.8-1.4-3-1.2l-13.5,1.7
		c-1.4,0.2-2.6,1.2-2.8,2.6c-1.4,7.1,0.5,14.5,1.6,17.9c-2.1,1.1-4.1,2.2-6.1,3.5c-13.8,8.9-23.6,22.7-27.8,38.1
		c-0.1,0.3-0.2,0.6-0.2,0.9c-0.9,3.6-1.6,7.4-1.8,11.2c-0.7,8.5,0.3,17.2,3.2,25.8c11.5,34.3,48.8,52.9,83.1,41.4
		c10.9-3.7,20.3-10,27.6-17.9C302.2,437.7,308.3,412.9,300.5,389.5z M187.8,379.6c1.1-1.9,2.4-3.7,3.8-5.5
		c6.3-8.2,14.8-14.8,25-18.7c-1-2.3-2.1-6.4-2.1-6.4c-0.8-2.6-1.6-7.1-1.3-11.6l5.9-0.7c-0.9,3.3-0.6,7.4-0.2,11
		c0.4,2.3,1.3,5.6,1.7,6.4c0.9-0.3,1.9-0.6,2.8-0.8c2.7-0.7,5.4-1.2,8-1.5c1.4-0.2,2.9-0.3,4.3-0.3c10.1-0.4,20,1.8,28.8,6.2
		l-20.8-1.3c-1.2-0.1-2.3,0.5-2.9,1.4c-0.7,1-0.8,2.2-0.3,3.2l5.2,11.4l-20.5-8.7c-1.5-0.6-3.2-0.1-4.1,1.3l-0.2,0.3L209.3,384
		l-1-10.5c-0.1-1.2-0.9-2.2-2-2.7c-1.1-0.5-2.4-0.3-3.3,0.4L184.9,385c0.1-0.2,0.2-0.5,0.4-0.7C186.1,382.7,186.9,381.1,187.8,379.6
		z M285.4,445.8c-6.9,9.3-16.7,16.6-28.5,20.6c-30.9,10.3-64.4-6.4-74.8-37.3c-3.7-10.9-3.9-22.2-1.4-32.6l21.5-16.4l1.4,14.2
		c0.1,1.4,1.2,2.6,2.5,2.9c1.4,0.3,2.8-0.3,3.6-1.5l15.6-24.8l25.7,10.9c0.8,0.3,1.6,0.3,2.3,0.1c0.5-0.2,0.9-0.4,1.3-0.8
		c1-1,1.2-2.4,0.6-3.7l-6.4-14.1l27,1.7c8.2,6.8,14.7,15.9,18.3,26.7C300.6,410.7,296.7,430.8,285.4,445.8z"/>
	<g class="st54">
		<path class="st11" d="M152.8,450.4c1.8,18.2-1.2,32.8-2.8,39c-0.5,2-0.9,3.1-0.9,3.2c-0.5,1.6,0.3,3.3,1.8,3.8
			c1.6,0.5,3.3-0.3,3.8-1.8c0.1-0.2,0.7-1.9,1.4-4.8c0.9-3.8,2.1-9.7,2.8-17c0.6-6.6,0.7-14.4-0.1-22.9c-0.2-1.6-1.6-2.9-3.3-2.7
			C153.8,447.3,152.6,448.8,152.8,450.4z"/>
		<path class="st11" d="M84.8,442.4c-3.8,4.2-5.8,9.1-6.9,13.1c-14.7-3-21.8-7.6-28.8-12.9c-0.7-0.5-1.6-0.7-2.4-0.5
			c-0.8,0.2-1.6,0.7-2,1.5l-7.8,14.2c-0.7,1.2-0.4,2.7,0.6,3.7c11.9,10.8,32.1,13.2,39,13.7c0.5,3.7,1.6,8.1,4.1,12.3
			c4.6,7.8,13.8,15,32,16.6c39.1,3.5,227.2,2,285.3,0.8c8.5-0.4,22.8-2.2,23.5-9.5c0-0.1,0-0.2,0-0.3c0-0.1,0-0.2,0-0.3c0,0,0,0,0,0
			c0-0.1,0-0.2,0-0.2c0.3-7.1-13.3-11.3-21.5-13.2C343,470,158,435.4,118.9,432C103.7,430.6,92.2,434.1,84.8,442.4z M76.2,469.1
			c-6.5-0.6-22.6-2.7-32.9-10.6l5-9c6.7,4.8,14.6,9.1,28.6,11.9l0,0.3l-0.5,5.6L76.2,469.1z M398.6,487.2c7.9,1.8,16,5.2,16.8,7.1
			l0,0.2l0,0.3c-1.1,1.7-9.7,3.7-17.7,4.1c-5.5,0.1-12.2,0.2-19.8,0.3c0.4-1.3,0.8-3,1-4.9c0,0,0,0,0,0c0.1-1.5,0.1-3.1-0.1-4.8
			c-0.2-1.6-1.7-2.8-3.3-2.6c-1.6,0.2-2.8,1.7-2.6,3.3c0.2,1.5,0.1,2.8,0,4.1c-0.3,2.3-0.9,4.1-1.4,5c-7.2,0.1-15,0.2-23.4,0.3
			c0.4-1.3,0.9-3.2,1.3-5.5c0.3-1.9,0.7-4,0.9-6.4c0.3-3,0.4-6.3,0.1-9.9C370.2,481.6,387,484.9,398.6,487.2z M273.2,463.5
			c2.5,16.1-2.1,28-2.2,28.1c-0.2,0.6-0.3,1.2-0.2,1.7c0.2,0.9,0.8,1.8,1.8,2.2c1.5,0.6,3.3-0.1,3.9-1.6c0,0,0.1-0.2,0.2-0.4
			c0.5-1.5,2.3-6.7,3-14.2c0.4-4.2,0.4-9.1-0.3-14.6c12.5,2.3,24.9,4.6,36.8,6.8c1.4,12.6-1.6,22-1.8,22.4c0,0,0,0,0,0
			c-0.5,1.6,0.3,3.3,1.9,3.8c1.6,0.5,3.3-0.3,3.8-1.9c0-0.1,0.3-0.8,0.6-1.9c0.5-2,1.2-5.3,1.6-9.7c0.3-3.3,0.4-7.3,0-11.6
			c7.6,1.4,14.9,2.8,21.9,4.1c0.6,7.1-0.2,13.2-1.1,17.4c-0.6,3-1.3,5-1.5,5.6c-14,0.1-29.3,0.3-45.1,0.4c0.5-1.5,1-3.7,1.5-6.3
			c0.2-1.4,0.5-2.9,0.6-4.6c0.3-2.9,0.3-6.2,0-9.7c-0.1-1.7-1.6-2.9-3.2-2.7c-1.7,0.1-2.9,1.6-2.7,3.2c0.5,5.4-0.1,10.2-0.7,13.7
			c-0.7,3.5-1.5,5.8-1.7,6.4c-13,0.1-26.3,0.1-39.4,0.1c0.5-1.8,1-4.2,1.6-7.2c0.6-3.4,1.2-7.4,1.6-12c0.5-6.1,0.7-13.2,0.2-20.9
			C260.6,461.2,266.9,462.3,273.2,463.5z M248.1,459c1.2,14.2-0.3,26.3-1.8,33.9c-0.7,3.3-1.3,5.8-1.7,7.3c-7,0-13.9,0-20.7,0
			c0.7-2.7,1.3-5.3,1.8-7.8c1-4.9,1.6-9.4,2-13.5c1.1-11.9,0-19.9-0.1-20.4c-0.2-1.6-1.8-2.8-3.4-2.5c-1.6,0.2-2.8,1.8-2.5,3.4
			c0,0.2,1.9,14.1-2,32.8c-0.5,2.6-1.2,5.2-2,7.9c-13.5,0-26.5-0.1-38.5-0.2c0.8-3.1,1.5-6.1,2-9c1-5.4,1.7-10.5,2.1-15.1
			c1.3-14.2,0-23.7-0.1-24.3c-0.2-1.6-1.7-2.8-3.3-2.5c-1.6,0.2-2.8,1.7-2.5,3.3c0,0.2,2.1,16.5-2.2,38.3c-0.6,3-1.3,6-2.1,9.2
			c-27.3-0.3-49.2-0.9-59.9-1.8c-0.2,0-0.5,0-0.8-0.1c0.7-2.4,1.7-6.1,2.7-11c0.8-4.1,1.6-9,2-14.5c0.7-7.5,0.8-16.3,0-25.8
			c-0.2-1.6-1.6-2.9-3.3-2.7c-1.6,0.2-2.9,1.6-2.7,3.3c1.5,16.1-0.2,29.9-2.1,39.2c-1,4.9-2,8.5-2.6,10.6
			c-7.5-1.6-16.7-5.3-21.3-13.8c-2.1-4-3.3-9-2.7-15.4c0.1-1.5,0.3-2.4,0.3-2.4l0.1-0.4l0-0.4c0,0,0-0.9,0.1-2.4
			c2.2-24.6,25.6-25.2,35.6-24.3c3.4,0.3,7.9,0.8,13.2,1.6c3.4,24.4-0.9,43.6-2.1,48.6c-0.2,0.8-0.3,1.3-0.4,1.3
			c-0.5,1.6,0.4,3.3,2,3.7c1.6,0.5,3.3-0.4,3.7-2c0.1-0.2,0.3-1.1,0.7-2.6c0.8-3.3,2.1-9.4,2.8-17.6c0.7-8.3,0.9-18.8-0.6-30.6
			c15.9,2.3,37.7,5.9,62.2,10.1c1.2,23-3.2,40-3.3,40.2c-0.1,0.3-0.1,0.5-0.1,0.8c0,1.3,0.9,2.5,2.2,2.9c1.6,0.4,3.2-0.5,3.7-2.1
			c0-0.1,0.1-0.2,0.1-0.5c0.5-1.9,2-8.8,2.9-18.8c0.5-6.1,0.8-13.3,0.5-21.4C219.6,453.9,233.8,456.4,248.1,459z"/>
	</g>
	<path class="st50" d="M884.7,232.8L884.7,232.8C884.7,232.8,884.7,232.8,884.7,232.8C884.7,232.8,884.7,232.8,884.7,232.8z"/>
	<path class="st50" d="M870.5,463.7c2.6-1.7,5.7-4,8.8-7.4c-1.2,1.1-18.2,16.5-44,20C848,474.9,860,470.5,870.5,463.7z"/>
	<path class="st50" d="M778.5,462.5c-2-1.3-3.9-2.7-5.6-4.2l0,0l-0.3-0.3c0,0,19.1,18.9,51.9,19.1c3.7,0,7.3-0.2,10.8-0.7
		C817.2,478.4,797.7,474.5,778.5,462.5z"/>
	<path class="st50" d="M879.3,456.4C879.4,456.3,879.4,456.3,879.3,456.4C879.4,456.3,879.4,456.3,879.3,456.4
		C879.4,456.3,879.3,456.3,879.3,456.4z"/>
	<path class="st52" d="M899.2,382.5c0-0.1,0-0.2,0-0.2c-0.3-3.6-0.6-7.4-0.9-11.3c-0.3-3.6-0.6-7.4-0.9-11.2
		c-3.7-45.4-7.9-103.3-9.2-121.4c-0.3-3.5-0.4-5.6-0.4-5.7c0-0.4-0.1-0.8-0.3-1.1c0,0,0,0,0,0c-0.1-0.1-0.1-0.3-0.2-0.4
		c-2.6-4.3-8.8-7.9-18.4-10.7c-11.6-3.4-27-5.3-43.3-5.3c-16.3,0-31.7,1.9-43.3,5.3c-12.7,3.7-19.5,8.9-19.7,15.1c0,0,0,0,0,0.1
		l-9.9,122.4l-0.8,10.3l-0.8,10.3l-0.4,5.2c-0.3,2.3-5.6,52.8,19.9,76.4c0,0,0,0,0,0c0,0,0,0,0,0c0.9,0.8,20.4,19.8,54,19.9
		c0.1,0,0.3,0,0.4,0c4.2,0,8.3-0.3,12.1-0.9c12.3-1.6,24.3-6,35.1-12.9C886.9,456.9,903.6,434.7,899.2,382.5z M884.7,232.8
		C884.7,232.8,884.7,232.8,884.7,232.8C884.7,232.8,884.7,232.8,884.7,232.8L884.7,232.8z M768.5,235.7c0-0.8,0.6-1.9,1.8-3
		c2.2-2,6.4-4.4,13.6-6.5c11.1-3.3,25.8-5.1,41.6-5.1c24.5,0,42.7,4.3,51.4,8.9c1.8,1,3.2,1.9,4.1,2.9c1,1,1.5,1.9,1.5,2.8
		c0,0.5-0.2,1-0.5,1.6c-1.4,2.3-5.8,5.4-14.9,8.1c-11.1,3.3-25.8,5.1-41.6,5.1c-29.5,0-49.9-6.2-55.5-11.8
		C769,237.6,768.5,236.7,768.5,235.7C768.5,235.7,768.5,235.7,768.5,235.7z M767.8,244.6c1.3,1,2.8,1.9,4.6,2.8
		c0.4,0.2,0.8,0.4,1.2,0.6c2.5,1.2,5.3,2.2,8.6,3.2c11.6,3.4,27,5.3,43.3,5.3c16.3,0,31.7-1.9,43.3-5.3c5.9-1.7,10.5-3.8,13.8-6.1
		c1.6,22.1,5.2,70.7,8.4,111c-22.9,3.7-46,5.6-68.9,5.6c0,0-0.1,0-0.1,0c-24.9,0-44.1-2.3-55.2-4c-3.5-0.6-6.3-1.1-8.1-1.4
		L767.8,244.6z M835.6,473.3c-3.4,0.5-7,0.8-10.7,0.8c-0.1,0-0.3,0-0.4,0c-15.8-0.1-28.4-4.8-37-9.3c0.5,0.1,1.1,0.2,1.6,0.3
		c17.1,3.1,44.7,5.9,72-0.1C854.4,468.5,845.7,471.8,835.6,473.3z M877.7,453.8c-4.7,1.9-9.6,3.4-14.5,4.6c0,0,0,0,0,0
		c-40,9.8-82.9-1.1-88.7-2.7c-23.2-21.7-18-70.7-17.9-71.3l1.8-22.1c2,0.4,4.9,0.9,8.6,1.5c11.4,1.7,30.5,3.9,55.2,3.9
		c0.8,0,1.6,0,2.5,0c22.2-0.1,44.7-2,66.9-5.6c0.6,7.4,1.2,14.5,1.7,21C894.8,402.3,894.6,434.9,877.7,453.8z"/>
	<path class="st52" d="M826.8,234c-5.8,0-12.6-1.5-12.6-5.7c0-4.2,6.8-5.7,12.6-5.7s12.6,1.5,12.6,5.7
		C839.4,232.5,832.6,234,826.8,234z M819.3,228.2c1.2,0.6,3.8,1.2,7.5,1.2c3.6,0,6.2-0.7,7.5-1.2c-1.2-0.6-3.8-1.2-7.5-1.2
		C823.1,227,820.6,227.7,819.3,228.2z"/>
	<path class="st52" d="M848.4,241c-5.8,0-12.6-1.5-12.6-5.7c0-4.2,6.8-5.7,12.6-5.7c5.8,0,12.6,1.5,12.6,5.7
		C861,239.5,854.2,241,848.4,241z M841,235.2c1.2,0.6,3.8,1.2,7.5,1.2s6.2-0.7,7.5-1.2c-1.2-0.6-3.8-1.2-7.5-1.2
		S842.2,234.7,841,235.2z"/>
	<path class="st52" d="M804.9,241c-5.8,0-12.6-1.5-12.6-5.7c0-4.2,6.8-5.7,12.6-5.7s12.6,1.5,12.6,5.7
		C817.5,239.5,810.7,241,804.9,241z M797.5,235.2c1.2,0.6,3.8,1.2,7.5,1.2c3.6,0,6.2-0.7,7.5-1.2c-1.2-0.6-3.8-1.2-7.5-1.2
		C801.3,234,798.7,234.7,797.5,235.2z"/>
	<path class="st52" d="M826.8,247.7c-5.8,0-12.6-1.5-12.6-5.7c0-4.2,6.8-5.7,12.6-5.7s12.6,1.5,12.6,5.7
		C839.4,246.2,832.6,247.7,826.8,247.7z M819.3,242c1.2,0.6,3.8,1.2,7.5,1.2c3.6,0,6.2-0.7,7.5-1.2c-1.2-0.6-3.8-1.2-7.5-1.2
		C823.1,240.7,820.5,241.4,819.3,242z"/>
	<path class="st50" d="M681.4,461.1c0,0.1,0,0.1,0,0.2c0,0,0.1-0.1,0.1-0.1C681.5,461.2,681.5,461.1,681.4,461.1z"/>
	<path class="st50" d="M684.7,462.7c-0.1,0-0.1,0-0.2,0c0,0,0,0.1,0,0.1C684.6,462.8,684.7,462.8,684.7,462.7z"/>
	<path class="st50" d="M652.3,478.1c0.1,0,0.1,0,0.2,0.1c0,0,0-0.1,0-0.1C652.4,478,652.4,478,652.3,478.1z"/>
	<path class="st50" d="M649.2,479.5c-0.1,0-0.1,0.1-0.2,0.1c0.1,0,0.1,0.1,0.2,0.1C649.1,479.6,649.1,479.5,649.2,479.5z"/>
	<path class="st50" d="M711.3,445.4l-3.2,2.8c1-0.9,2-1.7,2.9-2.6C711.2,445.6,711.3,445.5,711.3,445.4z"/>
	<polygon class="st50" points="670.4,474.1 670.4,474.1 670.4,474.1 	"/>
	<polygon class="st50" points="670.4,472 670.4,473.5 670.4,473.5 670.4,472 	"/>
	<rect x="670.4" y="473.5" class="st50" width="0" height="0.6"/>
	<path class="st50" d="M602.2,501.8c0.3,0,0.6,0,0.9,0c-2.4-0.4-4.8-0.9-7.2-1.5C597.7,501.2,599.9,501.8,602.2,501.8z"/>
	<path class="st52" d="M721.6,437.7c-0.5-2.2-2.1-3.6-4.3-3.6c-0.7,0-1.4,0.2-2.1,0.5c-68.1,9.7-147,49.5-147.8,49.9
		c-0.8,0.4-1.3,1.1-1.5,1.9c-1.3,1.2-1.6,2.4-1.7,3.5c-0.2,5,8.3,9.3,15.4,12c14.4,5.1,28.4,7.6,41.8,7.6c40.5,0,67.6-23,83.2-42.4
		C714.4,455,722.3,440.6,721.6,437.7z M706,442.1c-2.3,2.1-4.7,4-7,5.9c-0.8-1.5-1.9-2.8-3.2-3.9C699.3,443.4,702.6,442.7,706,442.1
		z M686.6,446.6c3.5,0,6.5,2.2,7.6,5.3c-3.4,2.7-6.8,5.2-10.1,7.5c-0.8-3.1-2.6-5.8-5.1-7.7C680.2,448.7,683.2,446.6,686.6,446.6z
		 M670.4,454.8c0.7,0,1.4,0.1,2,0.3c1.2,0.3,2.2,0.8,3.2,1.6c1.7,1.4,2.9,3.5,3,5.9c0,0.1,0,0.3,0,0.4c0,0.1,0,0.2,0,0.3
		c-0.7,0.5-1.4,0.9-2.1,1.4c-2.3,1.5-4.6,2.9-6.9,4.3c-0.5-4.2-2.8-7.9-6.2-10.2C664.8,456.4,667.4,454.8,670.4,454.8z M663.7,470.5
		c0,0.4,0,0.8-0.1,1.2c0,0.2-0.1,0.5-0.1,0.7c-0.8,0.4-1.5,0.8-2.3,1.2c-3,1.6-5.9,3-8.7,4.3c0.1-0.5,0.1-1,0.1-1.5
		c0-3.9-1.6-7.4-4.1-10c1.4-2.4,4-4.1,7.1-4.1c0.3,0,0.5,0,0.8,0c1.1,0.1,2.1,0.4,3,0.9C661.9,464.7,663.7,467.4,663.7,470.5z
		 M659.6,453.8c-0.7,0.8-1.3,1.8-1.8,2.8c-0.7-0.1-1.5-0.2-2.3-0.2c-5.1,0-9.6,2.7-12.1,6.8c-1.6-0.6-3.2-0.9-5-0.9
		c-5.4,0-10.1,3-12.5,7.4c-1.6-0.7-3.4-1-5.3-1c-5,0-9.3,2.6-11.8,6.4c-1.1-0.6-2.2-1-3.5-1.3C620.5,467.4,639.5,460.1,659.6,453.8z
		 M631,473.2c1.3-2.9,4.1-4.9,7.5-4.9c1.1,0,2.1,0.2,3,0.6c1.1,0.4,2.1,1.1,2.9,2c1.4,1.5,2.2,3.4,2.2,5.6c0,0.2,0,0.5,0,0.7
		c-0.1,1.2-0.5,2.3-1.1,3.3c-0.1,0.2-0.3,0.4-0.4,0.6c-3,1.2-5.9,2.3-8.7,3.2c-0.5-0.1-1.1-0.3-1.5-0.6c0-0.3,0-0.6,0-0.9
		C634.8,479.1,633.4,475.7,631,473.2z M613.4,479.1c1.4-2.6,4.1-4.4,7.2-4.4c1.3,0,2.5,0.3,3.6,0.9c1.3,0.6,2.3,1.6,3.1,2.7
		c0.8,1.1,1.3,2.4,1.4,3.8c0,0.3,0,0.5,0,0.8c0,1.2-0.3,2.3-0.7,3.3c-0.1,0.2-0.2,0.4-0.3,0.6c-4.1,1-7.9,1.8-11.6,2.3
		c0.1-0.5,0.1-1,0.1-1.5C616.3,484.4,615.3,481.5,613.4,479.1z M602.2,479.4c1.7,0,3.2,0.5,4.5,1.4c1.3,0.8,2.3,2,2.9,3.4
		c0.4,0.9,0.6,1.8,0.7,2.8c0,0.2,0,0.4,0,0.6c0,0.8-0.1,1.5-0.3,2.3c-0.5,0-1,0.1-1.6,0.1c-1.5,0.1-2.9,0.2-4.2,0.2
		c-0.9,0-1.9,0-2.7,0c-2.5,0-4.9-0.1-7.1-0.3c-0.1-0.5-0.3-1-0.3-1.5c0-0.3,0-0.6,0-0.8C594,483.1,597.7,479.4,602.2,479.4z
		 M589.9,480.5c-1.2,2-1.9,4.4-1.9,6.9l-9.5-1.6C581.6,484.3,585.5,482.5,589.9,480.5z M712.7,444.3c-3.6,6.6-10.3,17.4-20.6,28
		c-9.3,9.5-22.9,20.3-40.9,26.3c-4.4,1.5-9,2.7-13.8,3.5c-5,0.9-10.3,1.3-15.8,1.3c-6,0-12.2-0.6-18.4-1.6c-0.3,0-0.6,0-0.9,0
		c-2.3,0-4.4-0.6-6.3-1.5c-4.6-1.1-9.3-2.5-14.1-4.1c-3.9-1.5-7.8-3.5-10-5c3.3,1.4,9.7,3.5,18.8,4.6c1.4,0.2,2.8,0.3,4.4,0.4
		c2.1,0.1,4.3,0.2,6.6,0.2c0.8,0,1.7,0,2.5,0c1.8,0,3.7-0.1,5.5-0.3c1.5-0.1,2.9-0.3,4.4-0.4c0.2,0,0.3,0,0.5-0.1
		c0.5-0.1,1.1-0.1,1.6-0.2c2.9-0.4,5.9-0.9,8.7-1.5c2.2-0.5,4.4-1,6.6-1.6c1.9-0.5,3.7-1,5.6-1.6c4-1.3,7.8-2.7,11.7-4.3
		c1.4-0.6,2.8-1.2,4.3-1.8c4-1.8,7.9-3.7,11.8-5.8c1.1-0.6,2.2-1.2,3.3-1.8c0.1-0.1,0.2-0.1,0.4-0.2c1.7-1,3.4-1.9,5.1-3
		c1.6-1,3.2-2,4.8-3c0.2-0.1,0.4-0.3,0.6-0.4c1.1-0.7,2.2-1.4,3.2-2.1c0.7-0.4,1.3-0.9,2-1.3c0.5-0.3,0.9-0.6,1.4-1
		c4.2-2.9,8.3-5.9,12.1-8.9c1.1-0.8,2.2-1.7,3.2-2.5c2.6-2.1,5.1-4.1,7.4-6.2l3.2-2.8c0,0,0,0,0,0c0.5-0.6,1-1.1,1.6-1.7
		C712.9,443.9,712.8,444.1,712.7,444.3z"/>
</g>
</svg>
